solid MarsConnectorOK copy
facet normal 0.0 0.0 -1.0
outer loop
vertex 164.152055171008 -64.3816741333466 -83.4528198383361
vertex 163.152055171008 -78.7816741333467 -83.4528198383361
vertex 163.152055171008 -64.3816741333466 -83.4528198383361
endloop
endfacet
facet normal 0.0 0.0 -1.0
outer loop
vertex 163.152055171008 -78.7816741333467 -83.4528198383361
vertex 164.152055171008 -64.3816741333466 -83.4528198383361
vertex 164.152055171008 -78.7816741333467 -83.4528198383361
endloop
endfacet
facet normal -0.0 1.0 -0.0
outer loop
vertex 158.152055171008 -64.3816741333466 -83.4528198383361
vertex 159.152055171008 -64.3816741333466 -84.4528198383361
vertex 158.152055171008 -64.3816741333466 -84.4528198383361
endloop
endfacet
facet normal -0.0 1.0 -0.0
outer loop
vertex 159.152055171008 -64.3816741333466 -84.4528198383361
vertex 158.152055171008 -64.3816741333466 -83.4528198383361
vertex 159.152055171008 -64.3816741333466 -83.4528198383361
endloop
endfacet
facet normal -1.0 0.0 0.0
outer loop
vertex 156.652055171008 -64.3816741333466 -73.4039098228267
vertex 156.652055171008 -78.7816741333467 -83.4528198383361
vertex 156.652055171008 -78.7816741333467 -73.4039098228267
endloop
endfacet
facet normal -1.0 0.0 0.0
outer loop
vertex 156.652055171008 -78.7816741333467 -83.4528198383361
vertex 156.652055171008 -64.3816741333466 -73.4039098228267
vertex 156.652055171008 -64.3816741333466 -83.4528198383361
endloop
endfacet
facet normal -1.0 0.0 0.0
outer loop
vertex 164.152055171008 -64.3816741333466 -83.4528198383361
vertex 164.152055171008 -78.7816741333467 -84.4528198383361
vertex 164.152055171008 -78.7816741333467 -83.4528198383361
endloop
endfacet
facet normal -1.0 0.0 0.0
outer loop
vertex 164.152055171008 -78.7816741333467 -84.4528198383361
vertex 164.152055171008 -64.3816741333466 -83.4528198383361
vertex 164.152055171008 -64.3816741333466 -84.4528198383361
endloop
endfacet
facet normal 0.0 0.0 -1.0
outer loop
vertex 163.152055171008 -64.3816741333466 -84.9528198383361
vertex 160.152055171008 -78.7816741333467 -84.9528198383361
vertex 160.152055171008 -64.3816741333466 -84.9528198383361
endloop
endfacet
facet normal 0.0 0.0 -1.0
outer loop
vertex 160.152055171008 -78.7816741333467 -84.9528198383361
vertex 163.152055171008 -64.3816741333466 -84.9528198383361
vertex 163.152055171008 -78.7816741333467 -84.9528198383361
endloop
endfacet
facet normal 0.0 -1.0 0.0
outer loop
vertex 165.152055171008 -78.7816741333467 -83.4528198383361
vertex 164.152055171008 -78.7816741333467 -84.4528198383361
vertex 165.152055171008 -78.7816741333467 -84.4528198383361
endloop
endfacet
facet normal 0.0 -1.0 0.0
outer loop
vertex 164.152055171008 -78.7816741333467 -84.4528198383361
vertex 165.152055171008 -78.7816741333467 -83.4528198383361
vertex 164.152055171008 -78.7816741333467 -83.4528198383361
endloop
endfacet
facet normal 0.0 1.0 0.0
outer loop
vertex 157.752055171008 -63.0816741333466 -82.3528198383361
vertex 158.752055171008 -63.0816741333466 -81.3528198383361
vertex 165.552055171008 -63.0816741333466 -82.3528198383361
endloop
endfacet
facet normal 0.0 1.0 0.0
outer loop
vertex 158.752055171008 -63.0816741333466 -81.3528198383361
vertex 157.752055171008 -63.0816741333466 -82.3528198383361
vertex 157.752055171008 -63.0816741333466 -74.6528198383361
endloop
endfacet
facet normal 0.0 1.0 0.0
outer loop
vertex 158.752055171008 -63.0816741333466 -81.3528198383361
vertex 157.752055171008 -63.0816741333466 -74.6528198383361
vertex 158.752055171008 -63.0816741333466 -75.5528198383361
endloop
endfacet
facet normal 0.0 1.0 0.0
outer loop
vertex 158.752055171008 -63.0816741333466 -75.5528198383361
vertex 157.752055171008 -63.0816741333466 -74.6528198383361
vertex 164.552055171008 -63.0816741333466 -75.5528198383361
endloop
endfacet
facet normal 0.0 1.0 0.0
outer loop
vertex 165.552055171008 -63.0816741333466 -82.3528198383361
vertex 164.552055171008 -63.0816741333466 -81.3528198383361
vertex 165.552055171008 -63.0816741333466 -74.6528198383361
endloop
endfacet
facet normal 0.0 1.0 0.0
outer loop
vertex 164.552055171008 -63.0816741333466 -81.3528198383361
vertex 165.552055171008 -63.0816741333466 -82.3528198383361
vertex 158.752055171008 -63.0816741333466 -81.3528198383361
endloop
endfacet
facet normal 0.0 1.0 0.0
outer loop
vertex 165.552055171008 -63.0816741333466 -74.6528198383361
vertex 164.552055171008 -63.0816741333466 -81.3528198383361
vertex 164.552055171008 -63.0816741333466 -75.5528198383361
endloop
endfacet
facet normal 0.0 1.0 0.0
outer loop
vertex 165.552055171008 -63.0816741333466 -74.6528198383361
vertex 164.552055171008 -63.0816741333466 -75.5528198383361
vertex 157.752055171008 -63.0816741333466 -74.6528198383361
endloop
endfacet
facet normal -0.0 -0.0 1.0
outer loop
vertex 163.692089897784 -65.0816741333468 -79.3964953287618
vertex 163.026696364705 -64.781674133346 -79.3964953287618
vertex 163.026696364705 -65.0816741333468 -79.3964953287618
endloop
endfacet
facet normal -0.0 -0.0 1.0
outer loop
vertex 163.026696364705 -64.781674133346 -79.3964953287618
vertex 163.692089897784 -65.0816741333468 -79.3964953287618
vertex 163.692089897784 -64.781674133346 -79.3964953287618
endloop
endfacet
facet normal -1.0 0.0 0.0
outer loop
vertex 162.846151740861 -64.781674133346 -78.0125833857547
vertex 162.846151740861 -65.0816741333466 -79.6306173745047
vertex 162.846151740861 -65.0816741333466 -78.0125833857547
endloop
endfacet
facet normal -1.0 0.0 0.0
outer loop
vertex 162.846151740861 -65.0816741333466 -79.6306173745047
vertex 162.846151740861 -64.781674133346 -78.0125833857547
vertex 162.846151740861 -64.781674133346 -79.6306173745047
endloop
endfacet
facet normal -0.0 1.0 -0.0
outer loop
vertex 163.026696364705 -65.0816741333468 -78.9964953287618
vertex 163.692089897784 -65.0816741333468 -79.3964953287618
vertex 163.026696364705 -65.0816741333468 -79.3964953287618
endloop
endfacet
facet normal -0.0 1.0 -0.0
outer loop
vertex 163.692089897784 -65.0816741333468 -79.3964953287618
vertex 163.026696364705 -65.0816741333468 -78.9964953287618
vertex 163.692089897784 -65.0816741333468 -78.9964953287618
endloop
endfacet
facet normal 1.0 -0.0 -0.0
outer loop
vertex 163.026696364705 -64.781674133346 -79.3964953287618
vertex 163.026696364705 -65.0816741333468 -78.9964953287618
vertex 163.026696364705 -65.0816741333468 -79.3964953287618
endloop
endfacet
facet normal 1.0 -0.0 -0.0
outer loop
vertex 163.026696364705 -65.0816741333468 -78.9964953287618
vertex 163.026696364705 -64.781674133346 -79.3964953287618
vertex 163.026696364705 -64.781674133346 -78.9964953287618
endloop
endfacet
facet normal 1.0 -0.0 -0.0
outer loop
vertex 159.152055171008 -64.3816741333466 -84.4528198383361
vertex 159.152055171008 -78.7816741333467 -83.4528198383361
vertex 159.152055171008 -78.7816741333467 -84.4528198383361
endloop
endfacet
facet normal 1.0 -0.0 -0.0
outer loop
vertex 159.152055171008 -78.7816741333467 -83.4528198383361
vertex 159.152055171008 -64.3816741333466 -84.4528198383361
vertex 159.152055171008 -64.3816741333466 -83.4528198383361
endloop
endfacet
facet normal 0.0 0.0 -1.0
outer loop
vertex 165.152055171008 -64.3816741333466 -84.4528198383361
vertex 164.152055171008 -78.7816741333467 -84.4528198383361
vertex 164.152055171008 -64.3816741333466 -84.4528198383361
endloop
endfacet
facet normal 0.0 0.0 -1.0
outer loop
vertex 164.152055171008 -78.7816741333467 -84.4528198383361
vertex 165.152055171008 -64.3816741333466 -84.4528198383361
vertex 165.152055171008 -78.7816741333467 -84.4528198383361
endloop
endfacet
facet normal 1.0 -0.0 -0.0
outer loop
vertex 165.152055171008 -64.3816741333466 -84.4528198383361
vertex 165.152055171008 -78.7816741333467 -83.4528198383361
vertex 165.152055171008 -78.7816741333467 -84.4528198383361
endloop
endfacet
facet normal 1.0 -0.0 -0.0
outer loop
vertex 165.152055171008 -78.7816741333467 -83.4528198383361
vertex 165.152055171008 -64.3816741333466 -84.4528198383361
vertex 165.152055171008 -64.3816741333466 -83.4528198383361
endloop
endfacet
facet normal -1.0 0.0 0.0
outer loop
vertex 160.152055171008 -64.3816741333466 -83.4528198383361
vertex 160.152055171008 -78.7816741333467 -84.9528198383361
vertex 160.152055171008 -78.7816741333467 -83.4528198383361
endloop
endfacet
facet normal -1.0 0.0 0.0
outer loop
vertex 160.152055171008 -78.7816741333467 -84.9528198383361
vertex 160.152055171008 -64.3816741333466 -83.4528198383361
vertex 160.152055171008 -64.3816741333466 -84.9528198383361
endloop
endfacet
facet normal -1.0 0.0 0.0
outer loop
vertex 163.692089897784 -64.781674133346 -78.9964953287618
vertex 163.692089897784 -65.0816741333468 -79.3964953287618
vertex 163.692089897784 -65.0816741333468 -78.9964953287618
endloop
endfacet
facet normal -1.0 0.0 0.0
outer loop
vertex 163.692089897784 -65.0816741333468 -79.3964953287618
vertex 163.692089897784 -64.781674133346 -78.9964953287618
vertex 163.692089897784 -64.781674133346 -79.3964953287618
endloop
endfacet
facet normal -0.0 -0.0 1.0
outer loop
vertex 166.652055171008 -78.7816741333467 -73.4039098228267
vertex 156.652055171008 -64.3816741333466 -73.4039098228267
vertex 156.652055171008 -78.7816741333467 -73.4039098228267
endloop
endfacet
facet normal -0.0 -0.0 1.0
outer loop
vertex 156.652055171008 -64.3816741333466 -73.4039098228267
vertex 166.652055171008 -78.7816741333467 -73.4039098228267
vertex 166.652055171008 -64.3816741333466 -73.4039098228267
endloop
endfacet
facet normal -1.0 0.0 0.0
outer loop
vertex 158.152055171008 -64.3816741333466 -83.4528198383361
vertex 158.152055171008 -78.7816741333467 -84.4528198383361
vertex 158.152055171008 -78.7816741333467 -83.4528198383361
endloop
endfacet
facet normal -1.0 0.0 0.0
outer loop
vertex 158.152055171008 -78.7816741333467 -84.4528198383361
vertex 158.152055171008 -64.3816741333466 -83.4528198383361
vertex 158.152055171008 -64.3816741333466 -84.4528198383361
endloop
endfacet
facet normal 0.0 0.0 -1.0
outer loop
vertex 163.692089897784 -64.781674133346 -78.9964953287618
vertex 163.026696364705 -65.0816741333468 -78.9964953287618
vertex 163.026696364705 -64.781674133346 -78.9964953287618
endloop
endfacet
facet normal 0.0 0.0 -1.0
outer loop
vertex 163.026696364705 -65.0816741333468 -78.9964953287618
vertex 163.692089897784 -64.781674133346 -78.9964953287618
vertex 163.692089897784 -65.0816741333468 -78.9964953287618
endloop
endfacet
facet normal 0.0 0.0 -1.0
outer loop
vertex 166.652055171008 -64.3816741333466 -83.4528198383361
vertex 165.152055171008 -78.7816741333467 -83.4528198383361
vertex 165.152055171008 -64.3816741333466 -83.4528198383361
endloop
endfacet
facet normal 0.0 0.0 -1.0
outer loop
vertex 165.152055171008 -78.7816741333467 -83.4528198383361
vertex 166.652055171008 -64.3816741333466 -83.4528198383361
vertex 166.652055171008 -78.7816741333467 -83.4528198383361
endloop
endfacet
facet normal 1.0 -0.0 -0.0
outer loop
vertex 163.152055171008 -64.3816741333466 -84.9528198383361
vertex 163.152055171008 -78.7816741333467 -83.4528198383361
vertex 163.152055171008 -78.7816741333467 -84.9528198383361
endloop
endfacet
facet normal 1.0 -0.0 -0.0
outer loop
vertex 163.152055171008 -78.7816741333467 -83.4528198383361
vertex 163.152055171008 -64.3816741333466 -84.9528198383361
vertex 163.152055171008 -64.3816741333466 -83.4528198383361
endloop
endfacet
facet normal 0.0 -1.0 0.0
outer loop
vertex 159.152055171008 -78.7816741333467 -83.4528198383361
vertex 158.152055171008 -78.7816741333467 -84.4528198383361
vertex 159.152055171008 -78.7816741333467 -84.4528198383361
endloop
endfacet
facet normal 0.0 -1.0 0.0
outer loop
vertex 158.152055171008 -78.7816741333467 -84.4528198383361
vertex 159.152055171008 -78.7816741333467 -83.4528198383361
vertex 158.152055171008 -78.7816741333467 -83.4528198383361
endloop
endfacet
facet normal -0.0 -0.0 1.0
outer loop
vertex 163.846151740861 -65.0816741333466 -78.0125833857547
vertex 162.846151740861 -64.781674133346 -78.0125833857547
vertex 162.846151740861 -65.0816741333466 -78.0125833857547
endloop
endfacet
facet normal -0.0 -0.0 1.0
outer loop
vertex 162.846151740861 -64.781674133346 -78.0125833857547
vertex 163.846151740861 -65.0816741333466 -78.0125833857547
vertex 163.846151740861 -64.781674133346 -78.0125833857547
endloop
endfacet
facet normal 0.0 0.0 -1.0
outer loop
vertex 163.846151740861 -64.781674133346 -79.6306173745047
vertex 162.846151740861 -65.0816741333466 -79.6306173745047
vertex 162.846151740861 -64.781674133346 -79.6306173745047
endloop
endfacet
facet normal 0.0 0.0 -1.0
outer loop
vertex 162.846151740861 -65.0816741333466 -79.6306173745047
vertex 163.846151740861 -64.781674133346 -79.6306173745047
vertex 163.846151740861 -65.0816741333466 -79.6306173745047
endloop
endfacet
facet normal 1.0 -0.0 -0.0
outer loop
vertex 166.652055171008 -64.3816741333466 -83.4528198383361
vertex 166.652055171008 -78.7816741333467 -73.4039098228267
vertex 166.652055171008 -78.7816741333467 -83.4528198383361
endloop
endfacet
facet normal 1.0 -0.0 -0.0
outer loop
vertex 166.652055171008 -78.7816741333467 -73.4039098228267
vertex 166.652055171008 -64.3816741333466 -83.4528198383361
vertex 166.652055171008 -64.3816741333466 -73.4039098228267
endloop
endfacet
facet normal 0.0 0.0 -1.0
outer loop
vertex 160.152055171008 -64.3816741333466 -83.4528198383361
vertex 159.152055171008 -78.7816741333467 -83.4528198383361
vertex 159.152055171008 -64.3816741333466 -83.4528198383361
endloop
endfacet
facet normal 0.0 0.0 -1.0
outer loop
vertex 159.152055171008 -78.7816741333467 -83.4528198383361
vertex 160.152055171008 -64.3816741333466 -83.4528198383361
vertex 160.152055171008 -78.7816741333467 -83.4528198383361
endloop
endfacet
facet normal 0.0 0.0 -1.0
outer loop
vertex 158.152055171008 -64.3816741333466 -83.4528198383361
vertex 156.652055171008 -78.7816741333467 -83.4528198383361
vertex 156.652055171008 -64.3816741333466 -83.4528198383361
endloop
endfacet
facet normal 0.0 0.0 -1.0
outer loop
vertex 156.652055171008 -78.7816741333467 -83.4528198383361
vertex 158.152055171008 -64.3816741333466 -83.4528198383361
vertex 158.152055171008 -78.7816741333467 -83.4528198383361
endloop
endfacet
facet normal -0.0 1.0 -0.0
outer loop
vertex 160.152055171008 -64.3816741333466 -83.4528198383361
vertex 163.152055171008 -64.3816741333466 -84.9528198383361
vertex 160.152055171008 -64.3816741333466 -84.9528198383361
endloop
endfacet
facet normal -0.0 1.0 -0.0
outer loop
vertex 163.152055171008 -64.3816741333466 -84.9528198383361
vertex 160.152055171008 -64.3816741333466 -83.4528198383361
vertex 163.152055171008 -64.3816741333466 -83.4528198383361
endloop
endfacet
facet normal 1.0 -0.0 -0.0
outer loop
vertex 163.846151740861 -64.781674133346 -79.6306173745047
vertex 163.846151740861 -65.0816741333466 -78.0125833857547
vertex 163.846151740861 -65.0816741333466 -79.6306173745047
endloop
endfacet
facet normal 1.0 -0.0 -0.0
outer loop
vertex 163.846151740861 -65.0816741333466 -78.0125833857547
vertex 163.846151740861 -64.781674133346 -79.6306173745047
vertex 163.846151740861 -64.781674133346 -78.0125833857547
endloop
endfacet
facet normal -0.0 1.0 -0.0
outer loop
vertex 164.152055171008 -64.3816741333466 -83.4528198383361
vertex 165.152055171008 -64.3816741333466 -84.4528198383361
vertex 164.152055171008 -64.3816741333466 -84.4528198383361
endloop
endfacet
facet normal -0.0 1.0 -0.0
outer loop
vertex 165.152055171008 -64.3816741333466 -84.4528198383361
vertex 164.152055171008 -64.3816741333466 -83.4528198383361
vertex 165.152055171008 -64.3816741333466 -83.4528198383361
endloop
endfacet
facet normal 1.08493903779215e-12 -1.0 0.0
outer loop
vertex 160.242478134635 -78.0816741333465 -79.0439964796342
vertex 159.577084601555 -78.0816741333473 -79.4439964796342
vertex 160.242478134635 -78.0816741333465 -79.4439964796342
endloop
endfacet
facet normal 1.08493903779215e-12 -1.0 0.0
outer loop
vertex 159.577084601555 -78.0816741333473 -79.4439964796342
vertex 160.242478134635 -78.0816741333465 -79.0439964796342
vertex 159.577084601555 -78.0816741333473 -79.0439964796342
endloop
endfacet
facet normal 0.0 -1.0 0.0
outer loop
vertex 163.152055171008 -78.7816741333467 -83.4528198383361
vertex 160.152055171008 -78.7816741333467 -84.9528198383361
vertex 163.152055171008 -78.7816741333467 -84.9528198383361
endloop
endfacet
facet normal 0.0 -1.0 0.0
outer loop
vertex 160.152055171008 -78.7816741333467 -84.9528198383361
vertex 163.152055171008 -78.7816741333467 -83.4528198383361
vertex 160.152055171008 -78.7816741333467 -83.4528198383361
endloop
endfacet
facet normal -0.0 1.0 -0.0
outer loop
vertex 162.846151740861 -64.781674133346 -79.6306173745047
vertex 163.026696364705 -64.781674133346 -79.3964953287618
vertex 163.846151740861 -64.781674133346 -79.6306173745047
endloop
endfacet
facet normal -0.0 1.0 -0.0
outer loop
vertex 163.026696364705 -64.781674133346 -79.3964953287618
vertex 162.846151740861 -64.781674133346 -79.6306173745047
vertex 162.846151740861 -64.781674133346 -78.0125833857547
endloop
endfacet
facet normal -0.0 1.0 -0.0
outer loop
vertex 163.026696364705 -64.781674133346 -79.3964953287618
vertex 162.846151740861 -64.781674133346 -78.0125833857547
vertex 163.026696364705 -64.781674133346 -78.9964953287618
endloop
endfacet
facet normal -0.0 1.0 -0.0
outer loop
vertex 163.026696364705 -64.781674133346 -78.9964953287618
vertex 162.846151740861 -64.781674133346 -78.0125833857547
vertex 163.692089897784 -64.781674133346 -78.9964953287618
endloop
endfacet
facet normal -0.0 1.0 -0.0
outer loop
vertex 163.846151740861 -64.781674133346 -79.6306173745047
vertex 163.692089897784 -64.781674133346 -79.3964953287618
vertex 163.846151740861 -64.781674133346 -78.0125833857547
endloop
endfacet
facet normal -0.0 1.0 -0.0
outer loop
vertex 163.692089897784 -64.781674133346 -79.3964953287618
vertex 163.846151740861 -64.781674133346 -79.6306173745047
vertex 163.026696364705 -64.781674133346 -79.3964953287618
endloop
endfacet
facet normal -0.0 1.0 -0.0
outer loop
vertex 163.846151740861 -64.781674133346 -78.0125833857547
vertex 163.692089897784 -64.781674133346 -79.3964953287618
vertex 163.692089897784 -64.781674133346 -78.9964953287618
endloop
endfacet
facet normal -0.0 1.0 -0.0
outer loop
vertex 163.846151740861 -64.781674133346 -78.0125833857547
vertex 163.692089897784 -64.781674133346 -78.9964953287618
vertex 162.846151740861 -64.781674133346 -78.0125833857547
endloop
endfacet
facet normal 0.0 1.0 0.0
outer loop
vertex 158.752055171008 -65.0816741333466 -75.5528198383361
vertex 164.552055171008 -65.0816741333466 -81.3528198383361
vertex 158.752055171008 -65.0816741333466 -81.3528198383361
endloop
endfacet
facet normal 0.0 1.0 0.0
outer loop
vertex 164.552055171008 -65.0816741333466 -81.3528198383361
vertex 158.752055171008 -65.0816741333466 -75.5528198383361
vertex 162.846151740861 -65.0816741333466 -79.6306173745047
endloop
endfacet
facet normal 0.0 1.0 0.0
outer loop
vertex 162.846151740861 -65.0816741333466 -79.6306173745047
vertex 158.752055171008 -65.0816741333466 -75.5528198383361
vertex 162.846151740861 -65.0816741333466 -78.0125833857547
endloop
endfacet
facet normal 0.0 1.0 0.0
outer loop
vertex 162.846151740861 -65.0816741333466 -78.0125833857547
vertex 158.752055171008 -65.0816741333466 -75.5528198383361
vertex 163.846151740861 -65.0816741333466 -78.0125833857547
endloop
endfacet
facet normal 0.0 1.0 0.0
outer loop
vertex 164.552055171008 -65.0816741333466 -81.3528198383361
vertex 163.846151740861 -65.0816741333466 -79.6306173745047
vertex 164.552055171008 -65.0816741333466 -75.5528198383361
endloop
endfacet
facet normal 0.0 1.0 0.0
outer loop
vertex 163.846151740861 -65.0816741333466 -79.6306173745047
vertex 164.552055171008 -65.0816741333466 -81.3528198383361
vertex 162.846151740861 -65.0816741333466 -79.6306173745047
endloop
endfacet
facet normal 0.0 1.0 0.0
outer loop
vertex 164.552055171008 -65.0816741333466 -75.5528198383361
vertex 163.846151740861 -65.0816741333466 -79.6306173745047
vertex 163.846151740861 -65.0816741333466 -78.0125833857547
endloop
endfacet
facet normal 0.0 1.0 0.0
outer loop
vertex 164.552055171008 -65.0816741333466 -75.5528198383361
vertex 163.846151740861 -65.0816741333466 -78.0125833857547
vertex 158.752055171008 -65.0816741333466 -75.5528198383361
endloop
endfacet
facet normal -1.0 -0.0 -0.0
outer loop
vertex 164.552055171008 -63.0816741333466 -75.5528198383361
vertex 164.552055171008 -65.0816741333466 -81.3528198383361
vertex 164.552055171008 -65.0816741333466 -75.5528198383361
endloop
endfacet
facet normal -1.0 -0.0 -0.0
outer loop
vertex 164.552055171008 -65.0816741333466 -81.3528198383361
vertex 164.552055171008 -63.0816741333466 -75.5528198383361
vertex 164.552055171008 -63.0816741333466 -81.3528198383361
endloop
endfacet
facet normal 0.0 0.0 1.0
outer loop
vertex 164.552055171008 -65.0816741333466 -81.3528198383361
vertex 158.752055171008 -63.0816741333466 -81.3528198383361
vertex 158.752055171008 -65.0816741333466 -81.3528198383361
endloop
endfacet
facet normal 0.0 0.0 1.0
outer loop
vertex 158.752055171008 -63.0816741333466 -81.3528198383361
vertex 164.552055171008 -65.0816741333466 -81.3528198383361
vertex 164.552055171008 -63.0816741333466 -81.3528198383361
endloop
endfacet
facet normal 1.0 -0.0 -0.0
outer loop
vertex 158.752055171008 -63.0816741333466 -81.3528198383361
vertex 158.752055171008 -65.0816741333466 -75.5528198383361
vertex 158.752055171008 -65.0816741333466 -81.3528198383361
endloop
endfacet
facet normal 1.0 -0.0 -0.0
outer loop
vertex 158.752055171008 -65.0816741333466 -75.5528198383361
vertex 158.752055171008 -63.0816741333466 -81.3528198383361
vertex 158.752055171008 -63.0816741333466 -75.5528198383361
endloop
endfacet
facet normal 0.0 -0.0 -1.0
outer loop
vertex 164.552055171008 -63.0816741333466 -75.5528198383361
vertex 158.752055171008 -65.0816741333466 -75.5528198383361
vertex 158.752055171008 -63.0816741333466 -75.5528198383361
endloop
endfacet
facet normal 0.0 -0.0 -1.0
outer loop
vertex 158.752055171008 -65.0816741333466 -75.5528198383361
vertex 164.552055171008 -63.0816741333466 -75.5528198383361
vertex 164.552055171008 -65.0816741333466 -75.5528198383361
endloop
endfacet
facet normal 0.0 0.0 1.0
outer loop
vertex 165.552055171008 -64.3816741333466 -74.6528198383361
vertex 157.752055171008 -63.0816741333466 -74.6528198383361
vertex 157.752055171008 -64.3816741333466 -74.6528198383361
endloop
endfacet
facet normal 0.0 0.0 1.0
outer loop
vertex 157.752055171008 -63.0816741333466 -74.6528198383361
vertex 165.552055171008 -64.3816741333466 -74.6528198383361
vertex 165.552055171008 -63.0816741333466 -74.6528198383361
endloop
endfacet
facet normal -1.0 0.0 0.0
outer loop
vertex 157.752055171008 -63.0816741333466 -74.6528198383361
vertex 157.752055171008 -64.3816741333466 -82.3528198383361
vertex 157.752055171008 -64.3816741333466 -74.6528198383361
endloop
endfacet
facet normal -1.0 0.0 0.0
outer loop
vertex 157.752055171008 -64.3816741333466 -82.3528198383361
vertex 157.752055171008 -63.0816741333466 -74.6528198383361
vertex 157.752055171008 -63.0816741333466 -82.3528198383361
endloop
endfacet
facet normal 0.0 0.0 -1.0
outer loop
vertex 165.552055171008 -63.0816741333466 -82.3528198383361
vertex 157.752055171008 -64.3816741333466 -82.3528198383361
vertex 157.752055171008 -63.0816741333466 -82.3528198383361
endloop
endfacet
facet normal 0.0 0.0 -1.0
outer loop
vertex 157.752055171008 -64.3816741333466 -82.3528198383361
vertex 165.552055171008 -63.0816741333466 -82.3528198383361
vertex 165.552055171008 -64.3816741333466 -82.3528198383361
endloop
endfacet
facet normal 1.0 -0.0 -0.0
outer loop
vertex 165.552055171008 -63.0816741333466 -82.3528198383361
vertex 165.552055171008 -64.3816741333466 -74.6528198383361
vertex 165.552055171008 -64.3816741333466 -82.3528198383361
endloop
endfacet
facet normal 1.0 -0.0 -0.0
outer loop
vertex 165.552055171008 -64.3816741333466 -74.6528198383361
vertex 165.552055171008 -63.0816741333466 -82.3528198383361
vertex 165.552055171008 -63.0816741333466 -74.6528198383361
endloop
endfacet
facet normal 0.0 0.0 -1.0
outer loop
vertex 159.152055171008 -64.3816741333466 -84.4528198383361
vertex 158.152055171008 -78.7816741333467 -84.4528198383361
vertex 158.152055171008 -64.3816741333466 -84.4528198383361
endloop
endfacet
facet normal 0.0 0.0 -1.0
outer loop
vertex 158.152055171008 -78.7816741333467 -84.4528198383361
vertex 159.152055171008 -64.3816741333466 -84.4528198383361
vertex 159.152055171008 -78.7816741333467 -84.4528198383361
endloop
endfacet
facet normal -1.0 0.0 0.0
outer loop
vertex 164.652055171008 -78.0816741333467 -75.4039098228267
vertex 164.652055171008 -80.0816741333467 -81.4528198383361
vertex 164.652055171008 -80.0816741333467 -75.4039098228267
endloop
endfacet
facet normal -1.0 0.0 0.0
outer loop
vertex 164.652055171008 -80.0816741333467 -81.4528198383361
vertex 164.652055171008 -78.0816741333467 -75.4039098228267
vertex 164.652055171008 -79.0816741333467 -81.4528198383361
endloop
endfacet
facet normal -1.0 0.0 0.0
outer loop
vertex 164.652055171008 -79.0816741333467 -81.4528198383361
vertex 164.652055171008 -78.0816741333467 -75.4039098228267
vertex 164.652055171008 -78.0816741333467 -81.4528198383361
endloop
endfacet
facet normal -0.0 -0.0 -1.0
outer loop
vertex 164.652055171008 -78.0816741333467 -75.4039098228267
vertex 158.652055171008 -80.0816741333467 -75.4039098228267
vertex 158.652055171008 -78.0816741333467 -75.4039098228267
endloop
endfacet
facet normal -0.0 -0.0 -1.0
outer loop
vertex 158.652055171008 -80.0816741333467 -75.4039098228267
vertex 164.652055171008 -78.0816741333467 -75.4039098228267
vertex 164.652055171008 -80.0816741333467 -75.4039098228267
endloop
endfacet
facet normal 1.0 -0.0 3.7295532257117e-15
outer loop
vertex 158.652055171008 -79.0816741333467 -81.4528198383361
vertex 158.652055171008 -80.0816741333467 -75.4039098228267
vertex 158.652055171008 -80.0816741333467 -81.4528198383361
endloop
endfacet
facet normal 1.0 -0.0 3.7295532257117e-15
outer loop
vertex 158.652055171008 -80.0816741333467 -75.4039098228267
vertex 158.652055171008 -79.0816741333467 -81.4528198383361
vertex 158.652055171008 -78.0816741333467 -75.4039098228267
endloop
endfacet
facet normal 1.0 -0.0 3.7295532257117e-15
outer loop
vertex 158.652055171008 -78.0816741333467 -75.4039098228267
vertex 158.652055171008 -79.0816741333467 -81.4528198383361
vertex 158.652055171008 -78.0816741333467 -81.4528198383361
endloop
endfacet
facet normal -0.0 -0.0 1.0
outer loop
vertex 164.652055171008 -80.0816741333467 -81.4528198383361
vertex 158.652055171008 -79.0816741333467 -81.4528198383361
vertex 158.652055171008 -80.0816741333467 -81.4528198383361
endloop
endfacet
facet normal -0.0 -0.0 1.0
outer loop
vertex 158.652055171008 -79.0816741333467 -81.4528198383361
vertex 164.652055171008 -80.0816741333467 -81.4528198383361
vertex 158.652055171008 -78.0816741333467 -81.4528198383361
endloop
endfacet
facet normal -0.0 -0.0 1.0
outer loop
vertex 158.652055171008 -78.0816741333467 -81.4528198383361
vertex 164.652055171008 -80.0816741333467 -81.4528198383361
vertex 164.652055171008 -78.0816741333467 -81.4528198383361
endloop
endfacet
facet normal -0.0 -0.0 1.0
outer loop
vertex 164.652055171008 -78.0816741333467 -81.4528198383361
vertex 164.652055171008 -80.0816741333467 -81.4528198383361
vertex 164.652055171008 -79.0816741333467 -81.4528198383361
endloop
endfacet
facet normal 0.0 -1.0 0.0
outer loop
vertex 165.552055171008 -80.0816741333467 -82.3528198383361
vertex 164.652055171008 -80.0816741333467 -81.4528198383361
vertex 157.752055171008 -80.0816741333467 -82.3528198383361
endloop
endfacet
facet normal 0.0 -1.0 0.0
outer loop
vertex 164.652055171008 -80.0816741333467 -81.4528198383361
vertex 165.552055171008 -80.0816741333467 -82.3528198383361
vertex 165.552055171008 -80.0816741333467 -74.6039098228267
endloop
endfacet
facet normal 0.0 -1.0 0.0
outer loop
vertex 164.652055171008 -80.0816741333467 -81.4528198383361
vertex 165.552055171008 -80.0816741333467 -74.6039098228267
vertex 164.652055171008 -80.0816741333467 -75.4039098228267
endloop
endfacet
facet normal 0.0 -1.0 0.0
outer loop
vertex 164.652055171008 -80.0816741333467 -75.4039098228267
vertex 165.552055171008 -80.0816741333467 -74.6039098228267
vertex 158.652055171008 -80.0816741333467 -75.4039098228267
endloop
endfacet
facet normal 0.0 -1.0 0.0
outer loop
vertex 157.752055171008 -80.0816741333467 -82.3528198383361
vertex 158.652055171008 -80.0816741333467 -81.4528198383361
vertex 157.752055171008 -80.0816741333467 -74.6039098228267
endloop
endfacet
facet normal 0.0 -1.0 0.0
outer loop
vertex 158.652055171008 -80.0816741333467 -81.4528198383361
vertex 157.752055171008 -80.0816741333467 -82.3528198383361
vertex 164.652055171008 -80.0816741333467 -81.4528198383361
endloop
endfacet
facet normal 0.0 -1.0 0.0
outer loop
vertex 157.752055171008 -80.0816741333467 -74.6039098228267
vertex 158.652055171008 -80.0816741333467 -81.4528198383361
vertex 158.652055171008 -80.0816741333467 -75.4039098228267
endloop
endfacet
facet normal 0.0 -1.0 0.0
outer loop
vertex 157.752055171008 -80.0816741333467 -74.6039098228267
vertex 158.652055171008 -80.0816741333467 -75.4039098228267
vertex 165.552055171008 -80.0816741333467 -74.6039098228267
endloop
endfacet
facet normal 1.0 0.0 0.0
outer loop
vertex 165.552055171008 -78.7816741333467 -82.3528198383361
vertex 165.552055171008 -80.0816741333467 -74.6039098228267
vertex 165.552055171008 -80.0816741333467 -82.3528198383361
endloop
endfacet
facet normal 1.0 0.0 0.0
outer loop
vertex 165.552055171008 -80.0816741333467 -74.6039098228267
vertex 165.552055171008 -78.7816741333467 -82.3528198383361
vertex 165.552055171008 -78.7816741333467 -74.6039098228267
endloop
endfacet
facet normal 0.0 0.0 -1.0
outer loop
vertex 165.552055171008 -78.7816741333467 -82.3528198383361
vertex 157.752055171008 -80.0816741333467 -82.3528198383361
vertex 157.752055171008 -78.7816741333467 -82.3528198383361
endloop
endfacet
facet normal 0.0 0.0 -1.0
outer loop
vertex 157.752055171008 -80.0816741333467 -82.3528198383361
vertex 165.552055171008 -78.7816741333467 -82.3528198383361
vertex 165.552055171008 -80.0816741333467 -82.3528198383361
endloop
endfacet
facet normal -1.0 -0.0 -2.87425028644807e-15
outer loop
vertex 157.752055171008 -78.7816741333467 -74.6039098228267
vertex 157.752055171008 -80.0816741333467 -82.3528198383361
vertex 157.752055171008 -80.0816741333467 -74.6039098228267
endloop
endfacet
facet normal -1.0 -0.0 -2.87425028644807e-15
outer loop
vertex 157.752055171008 -80.0816741333467 -82.3528198383361
vertex 157.752055171008 -78.7816741333467 -74.6039098228267
vertex 157.752055171008 -78.7816741333467 -82.3528198383361
endloop
endfacet
facet normal 0.0 0.0 1.0
outer loop
vertex 165.552055171008 -80.0816741333467 -74.6039098228267
vertex 157.752055171008 -78.7816741333467 -74.6039098228267
vertex 157.752055171008 -80.0816741333467 -74.6039098228267
endloop
endfacet
facet normal 0.0 0.0 1.0
outer loop
vertex 157.752055171008 -78.7816741333467 -74.6039098228267
vertex 165.552055171008 -80.0816741333467 -74.6039098228267
vertex 165.552055171008 -78.7816741333467 -74.6039098228267
endloop
endfacet
facet normal 0.0 -1.0 0.0
outer loop
vertex 166.652055171008 -78.7816741333467 -83.4528198383361
vertex 165.552055171008 -78.7816741333467 -82.3528198383361
vertex 165.152055171008 -78.7816741333467 -83.4528198383361
endloop
endfacet
facet normal 0.0 -1.0 0.0
outer loop
vertex 165.552055171008 -78.7816741333467 -82.3528198383361
vertex 166.652055171008 -78.7816741333467 -83.4528198383361
vertex 166.652055171008 -78.7816741333467 -73.4039098228267
endloop
endfacet
facet normal 0.0 -1.0 0.0
outer loop
vertex 165.152055171008 -78.7816741333467 -83.4528198383361
vertex 165.552055171008 -78.7816741333467 -82.3528198383361
vertex 164.152055171008 -78.7816741333467 -83.4528198383361
endloop
endfacet
facet normal 0.0 -1.0 0.0
outer loop
vertex 164.152055171008 -78.7816741333467 -83.4528198383361
vertex 165.552055171008 -78.7816741333467 -82.3528198383361
vertex 163.152055171008 -78.7816741333467 -83.4528198383361
endloop
endfacet
facet normal 0.0 -1.0 0.0
outer loop
vertex 163.152055171008 -78.7816741333467 -83.4528198383361
vertex 165.552055171008 -78.7816741333467 -82.3528198383361
vertex 160.152055171008 -78.7816741333467 -83.4528198383361
endloop
endfacet
facet normal 0.0 -1.0 0.0
outer loop
vertex 160.152055171008 -78.7816741333467 -83.4528198383361
vertex 165.552055171008 -78.7816741333467 -82.3528198383361
vertex 159.152055171008 -78.7816741333467 -83.4528198383361
endloop
endfacet
facet normal 0.0 -1.0 0.0
outer loop
vertex 159.152055171008 -78.7816741333467 -83.4528198383361
vertex 165.552055171008 -78.7816741333467 -82.3528198383361
vertex 158.152055171008 -78.7816741333467 -83.4528198383361
endloop
endfacet
facet normal 0.0 -1.0 0.0
outer loop
vertex 158.152055171008 -78.7816741333467 -83.4528198383361
vertex 165.552055171008 -78.7816741333467 -82.3528198383361
vertex 156.652055171008 -78.7816741333467 -83.4528198383361
endloop
endfacet
facet normal 0.0 -1.0 0.0
outer loop
vertex 165.552055171008 -78.7816741333467 -82.3528198383361
vertex 166.652055171008 -78.7816741333467 -73.4039098228267
vertex 165.552055171008 -78.7816741333467 -74.6039098228267
endloop
endfacet
facet normal 0.0 -1.0 0.0
outer loop
vertex 165.552055171008 -78.7816741333467 -74.6039098228267
vertex 166.652055171008 -78.7816741333467 -73.4039098228267
vertex 157.752055171008 -78.7816741333467 -74.6039098228267
endloop
endfacet
facet normal 0.0 -1.0 0.0
outer loop
vertex 156.652055171008 -78.7816741333467 -83.4528198383361
vertex 157.752055171008 -78.7816741333467 -82.3528198383361
vertex 156.652055171008 -78.7816741333467 -73.4039098228267
endloop
endfacet
facet normal 0.0 -1.0 0.0
outer loop
vertex 157.752055171008 -78.7816741333467 -82.3528198383361
vertex 156.652055171008 -78.7816741333467 -83.4528198383361
vertex 165.552055171008 -78.7816741333467 -82.3528198383361
endloop
endfacet
facet normal 0.0 -1.0 0.0
outer loop
vertex 156.652055171008 -78.7816741333467 -73.4039098228267
vertex 157.752055171008 -78.7816741333467 -82.3528198383361
vertex 157.752055171008 -78.7816741333467 -74.6039098228267
endloop
endfacet
facet normal 0.0 -1.0 0.0
outer loop
vertex 156.652055171008 -78.7816741333467 -73.4039098228267
vertex 157.752055171008 -78.7816741333467 -74.6039098228267
vertex 166.652055171008 -78.7816741333467 -73.4039098228267
endloop
endfacet
facet normal 0.0 -1.0 0.0
outer loop
vertex 164.652055171008 -78.0816741333467 -81.4528198383361
vertex 160.423022758479 -78.0816741333473 -79.678118525377
vertex 158.652055171008 -78.0816741333467 -81.4528198383361
endloop
endfacet
facet normal 0.0 -1.0 0.0
outer loop
vertex 160.423022758479 -78.0816741333473 -79.678118525377
vertex 164.652055171008 -78.0816741333467 -81.4528198383361
vertex 164.652055171008 -78.0816741333467 -75.4039098228267
endloop
endfacet
facet normal 0.0 -1.0 0.0
outer loop
vertex 160.423022758479 -78.0816741333473 -79.678118525377
vertex 164.652055171008 -78.0816741333467 -75.4039098228267
vertex 160.423022758479 -78.0816741333467 -78.060084536627
endloop
endfacet
facet normal 0.0 -1.0 0.0
outer loop
vertex 158.652055171008 -78.0816741333467 -81.4528198383361
vertex 159.423022758479 -78.0816741333467 -79.678118525377
vertex 158.652055171008 -78.0816741333467 -75.4039098228267
endloop
endfacet
facet normal 0.0 -1.0 0.0
outer loop
vertex 159.423022758479 -78.0816741333467 -79.678118525377
vertex 158.652055171008 -78.0816741333467 -81.4528198383361
vertex 160.423022758479 -78.0816741333473 -79.678118525377
endloop
endfacet
facet normal 0.0 -1.0 0.0
outer loop
vertex 158.652055171008 -78.0816741333467 -75.4039098228267
vertex 159.423022758479 -78.0816741333467 -79.678118525377
vertex 159.423022758479 -78.0816741333473 -78.060084536627
endloop
endfacet
facet normal 0.0 -1.0 0.0
outer loop
vertex 158.652055171008 -78.0816741333467 -75.4039098228267
vertex 159.423022758479 -78.0816741333473 -78.060084536627
vertex 160.423022758479 -78.0816741333467 -78.060084536627
endloop
endfacet
facet normal 0.0 -1.0 0.0
outer loop
vertex 158.652055171008 -78.0816741333467 -75.4039098228267
vertex 160.423022758479 -78.0816741333467 -78.060084536627
vertex 164.652055171008 -78.0816741333467 -75.4039098228267
endloop
endfacet
facet normal 0.0 -1.0 4.6655605279321e-27
outer loop
vertex 160.423022758479 -78.4816741333473 -79.678118525377
vertex 160.242478134635 -78.4816741333465 -79.4439964796342
vertex 159.423022758479 -78.4816741333467 -79.678118525377
endloop
endfacet
facet normal 0.0 -1.0 4.6655605279321e-27
outer loop
vertex 160.242478134635 -78.4816741333465 -79.4439964796342
vertex 160.423022758479 -78.4816741333473 -79.678118525377
vertex 160.423022758479 -78.4816741333467 -78.060084536627
endloop
endfacet
facet normal 0.0 -1.0 4.6655605279321e-27
outer loop
vertex 160.242478134635 -78.4816741333465 -79.4439964796342
vertex 160.423022758479 -78.4816741333467 -78.060084536627
vertex 160.242478134635 -78.4816741333465 -79.0439964796342
endloop
endfacet
facet normal 0.0 -1.0 4.6655605279321e-27
outer loop
vertex 160.242478134635 -78.4816741333465 -79.0439964796342
vertex 160.423022758479 -78.4816741333467 -78.060084536627
vertex 159.577084601555 -78.4816741333473 -79.0439964796342
endloop
endfacet
facet normal 0.0 -1.0 4.6655605279321e-27
outer loop
vertex 159.577084601555 -78.4816741333473 -79.0439964796342
vertex 160.423022758479 -78.4816741333467 -78.060084536627
vertex 159.423022758479 -78.4816741333473 -78.060084536627
endloop
endfacet
facet normal 0.0 -1.0 4.6655605279321e-27
outer loop
vertex 159.423022758479 -78.4816741333467 -79.678118525377
vertex 159.577084601555 -78.4816741333473 -79.4439964796342
vertex 159.423022758479 -78.4816741333473 -78.060084536627
endloop
endfacet
facet normal 0.0 -1.0 4.6655605279321e-27
outer loop
vertex 159.577084601555 -78.4816741333473 -79.4439964796342
vertex 159.423022758479 -78.4816741333467 -79.678118525377
vertex 160.242478134635 -78.4816741333465 -79.4439964796342
endloop
endfacet
facet normal 0.0 -1.0 4.6655605279321e-27
outer loop
vertex 159.423022758479 -78.4816741333473 -78.060084536627
vertex 159.577084601555 -78.4816741333473 -79.4439964796342
vertex 159.577084601555 -78.4816741333473 -79.0439964796342
endloop
endfacet
facet normal -2.25597318603822e-14 4.6655605279321e-27 1.0
outer loop
vertex 160.423022758479 -78.4816741333467 -78.060084536627
vertex 159.423022758479 -78.0816741333473 -78.060084536627
vertex 159.423022758479 -78.4816741333473 -78.060084536627
endloop
endfacet
facet normal -2.25597318603822e-14 4.6655605279321e-27 1.0
outer loop
vertex 159.423022758479 -78.0816741333473 -78.060084536627
vertex 160.423022758479 -78.4816741333467 -78.060084536627
vertex 160.423022758479 -78.0816741333467 -78.060084536627
endloop
endfacet
facet normal -1.0 -0.0 -0.0
outer loop
vertex 159.423022758479 -78.0816741333473 -78.060084536627
vertex 159.423022758479 -78.4816741333467 -79.678118525377
vertex 159.423022758479 -78.4816741333473 -78.060084536627
endloop
endfacet
facet normal -1.0 -0.0 -0.0
outer loop
vertex 159.423022758479 -78.4816741333467 -79.678118525377
vertex 159.423022758479 -78.0816741333473 -78.060084536627
vertex 159.423022758479 -78.0816741333467 -79.678118525377
endloop
endfacet
facet normal -2.25597318603822e-14 -4.6655605279321e-27 -1.0
outer loop
vertex 160.423022758479 -78.0816741333473 -79.678118525377
vertex 159.423022758479 -78.4816741333467 -79.678118525377
vertex 159.423022758479 -78.0816741333467 -79.678118525377
endloop
endfacet
facet normal -2.25597318603822e-14 -4.6655605279321e-27 -1.0
outer loop
vertex 159.423022758479 -78.4816741333467 -79.678118525377
vertex 160.423022758479 -78.0816741333473 -79.678118525377
vertex 160.423022758479 -78.4816741333473 -79.678118525377
endloop
endfacet
facet normal 1.0 0.0 -0.0
outer loop
vertex 160.423022758479 -78.0816741333473 -79.678118525377
vertex 160.423022758479 -78.4816741333467 -78.060084536627
vertex 160.423022758479 -78.4816741333473 -79.678118525377
endloop
endfacet
facet normal 1.0 0.0 -0.0
outer loop
vertex 160.423022758479 -78.4816741333467 -78.060084536627
vertex 160.423022758479 -78.0816741333473 -79.678118525377
vertex 160.423022758479 -78.0816741333467 -78.060084536627
endloop
endfacet
facet normal 1.0 0.0 -0.0
outer loop
vertex 159.577084601555 -78.0816741333473 -79.4439964796342
vertex 159.577084601555 -78.4816741333473 -79.0439964796342
vertex 159.577084601555 -78.4816741333473 -79.4439964796342
endloop
endfacet
facet normal 1.0 0.0 -0.0
outer loop
vertex 159.577084601555 -78.4816741333473 -79.0439964796342
vertex 159.577084601555 -78.0816741333473 -79.4439964796342
vertex 159.577084601555 -78.0816741333473 -79.0439964796342
endloop
endfacet
facet normal 5.06184874993569e-39 -4.6655605279321e-27 -1.0
outer loop
vertex 160.242478134635 -78.0816741333465 -79.0439964796342
vertex 159.577084601555 -78.4816741333473 -79.0439964796342
vertex 159.577084601555 -78.0816741333473 -79.0439964796342
endloop
endfacet
facet normal 5.06184874993569e-39 -4.6655605279321e-27 -1.0
outer loop
vertex 159.577084601555 -78.4816741333473 -79.0439964796342
vertex 160.242478134635 -78.0816741333465 -79.0439964796342
vertex 160.242478134635 -78.4816741333465 -79.0439964796342
endloop
endfacet
facet normal -1.0 -0.0 -0.0
outer loop
vertex 160.242478134635 -78.0816741333465 -79.0439964796342
vertex 160.242478134635 -78.4816741333465 -79.4439964796342
vertex 160.242478134635 -78.4816741333465 -79.0439964796342
endloop
endfacet
facet normal -1.0 -0.0 -0.0
outer loop
vertex 160.242478134635 -78.4816741333465 -79.4439964796342
vertex 160.242478134635 -78.0816741333465 -79.0439964796342
vertex 160.242478134635 -78.0816741333465 -79.4439964796342
endloop
endfacet
facet normal -5.06184874993569e-39 4.6655605279321e-27 1.0
outer loop
vertex 160.242478134635 -78.4816741333465 -79.4439964796342
vertex 159.577084601555 -78.0816741333473 -79.4439964796342
vertex 159.577084601555 -78.4816741333473 -79.4439964796342
endloop
endfacet
facet normal -5.06184874993569e-39 4.6655605279321e-27 1.0
outer loop
vertex 159.577084601555 -78.0816741333473 -79.4439964796342
vertex 160.242478134635 -78.4816741333465 -79.4439964796342
vertex 160.242478134635 -78.0816741333465 -79.4439964796342
endloop
endfacet
facet normal -0.0 -0.0 1.0
outer loop
vertex 166.652055171008 -64.0019729540312 -73.4039098228267
vertex 156.652055171008 -62.9301054484216 -73.4039098228267
vertex 156.652055171008 -64.0019729540312 -73.4039098228267
endloop
endfacet
facet normal -0.0 -0.0 1.0
outer loop
vertex 156.652055171008 -62.9301054484216 -73.4039098228267
vertex 166.652055171008 -64.0019729540312 -73.4039098228267
vertex 166.652055171008 -62.9301054484216 -73.4039098228267
endloop
endfacet
facet normal -1.0 0.0 -8.35545624458638e-15
outer loop
vertex 156.652055171008 -62.9301054484216 -73.4039098228267
vertex 156.652055171008 -63.4064910064703 -74.3039098228267
vertex 156.652055171008 -64.0019729540312 -73.4039098228267
endloop
endfacet
facet normal -1.0 0.0 -8.35545624458638e-15
outer loop
vertex 156.652055171008 -63.4064910064703 -74.3039098228267
vertex 156.652055171008 -62.9301054484216 -73.4039098228267
vertex 156.652055171008 -62.9301054484216 -74.3039098228267
endloop
endfacet
facet normal -1.0 0.0 -8.35545624458638e-15
outer loop
vertex 156.652055171008 -63.4064910064703 -74.4039098228267
vertex 156.652055171008 -64.0019729540312 -73.4039098228267
vertex 156.652055171008 -63.4064910064703 -74.3039098228267
endloop
endfacet
facet normal 1.0 -0.0 -0.0
outer loop
vertex 166.652055171008 -64.0019729540312 -73.4039098228267
vertex 166.652055171008 -63.4064910064703 -74.3039098228267
vertex 166.652055171008 -62.9301054484216 -73.4039098228267
endloop
endfacet
facet normal 1.0 -0.0 -0.0
outer loop
vertex 166.652055171008 -63.4064910064703 -74.3039098228267
vertex 166.652055171008 -64.0019729540312 -73.4039098228267
vertex 166.652055171008 -63.4064910064703 -74.4039098228267
endloop
endfacet
facet normal 1.0 -0.0 -0.0
outer loop
vertex 166.652055171008 -62.9301054484216 -73.4039098228267
vertex 166.652055171008 -63.4064910064703 -74.3039098228267
vertex 166.652055171008 -62.9301054484216 -74.3039098228267
endloop
endfacet
facet normal 0.0 1.0 0.0
outer loop
vertex 156.652055171008 -62.9301054484216 -73.4039098228267
vertex 166.652055171008 -62.9301054484216 -74.3039098228267
vertex 156.652055171008 -62.9301054484216 -74.3039098228267
endloop
endfacet
facet normal 0.0 1.0 0.0
outer loop
vertex 166.652055171008 -62.9301054484216 -74.3039098228267
vertex 156.652055171008 -62.9301054484216 -73.4039098228267
vertex 166.652055171008 -62.9301054484216 -73.4039098228267
endloop
endfacet
facet normal -1.54666405204407e-18 -0.859200784249656 -0.511638556350844
outer loop
vertex 166.652055171008 -64.0019729540312 -73.4039098228267
vertex 156.652055171008 -63.4064910064703 -74.4039098228267
vertex 166.652055171008 -63.4064910064703 -74.4039098228267
endloop
endfacet
facet normal -1.54666405204407e-18 -0.859200784249656 -0.511638556350844
outer loop
vertex 156.652055171008 -63.4064910064703 -74.4039098228267
vertex 166.652055171008 -64.0019729540312 -73.4039098228267
vertex 156.652055171008 -64.0019729540312 -73.4039098228267
endloop
endfacet
facet normal -0.0 1.0 -0.0
outer loop
vertex 156.652055171008 -64.3816741333466 -83.4528198383361
vertex 157.752055171008 -64.3816741333466 -82.3528198383361
vertex 158.152055171008 -64.3816741333466 -83.4528198383361
endloop
endfacet
facet normal -0.0 1.0 -0.0
outer loop
vertex 157.752055171008 -64.3816741333466 -82.3528198383361
vertex 156.652055171008 -64.3816741333466 -83.4528198383361
vertex 156.652055171008 -64.3816741333466 -73.4039098228267
endloop
endfacet
facet normal -0.0 1.0 -0.0
outer loop
vertex 158.152055171008 -64.3816741333466 -83.4528198383361
vertex 157.752055171008 -64.3816741333466 -82.3528198383361
vertex 159.152055171008 -64.3816741333466 -83.4528198383361
endloop
endfacet
facet normal -0.0 1.0 -0.0
outer loop
vertex 159.152055171008 -64.3816741333466 -83.4528198383361
vertex 157.752055171008 -64.3816741333466 -82.3528198383361
vertex 160.152055171008 -64.3816741333466 -83.4528198383361
endloop
endfacet
facet normal -0.0 1.0 -0.0
outer loop
vertex 160.152055171008 -64.3816741333466 -83.4528198383361
vertex 157.752055171008 -64.3816741333466 -82.3528198383361
vertex 163.152055171008 -64.3816741333466 -83.4528198383361
endloop
endfacet
facet normal -0.0 1.0 -0.0
outer loop
vertex 163.152055171008 -64.3816741333466 -83.4528198383361
vertex 157.752055171008 -64.3816741333466 -82.3528198383361
vertex 164.152055171008 -64.3816741333466 -83.4528198383361
endloop
endfacet
facet normal -0.0 1.0 -0.0
outer loop
vertex 164.152055171008 -64.3816741333466 -83.4528198383361
vertex 157.752055171008 -64.3816741333466 -82.3528198383361
vertex 165.152055171008 -64.3816741333466 -83.4528198383361
endloop
endfacet
facet normal -0.0 1.0 -0.0
outer loop
vertex 165.152055171008 -64.3816741333466 -83.4528198383361
vertex 157.752055171008 -64.3816741333466 -82.3528198383361
vertex 166.652055171008 -64.3816741333466 -83.4528198383361
endloop
endfacet
facet normal -0.0 1.0 -0.0
outer loop
vertex 157.752055171008 -64.3816741333466 -82.3528198383361
vertex 156.652055171008 -64.3816741333466 -73.4039098228267
vertex 157.752055171008 -64.3816741333466 -74.6528198383361
endloop
endfacet
facet normal -0.0 1.0 -0.0
outer loop
vertex 157.752055171008 -64.3816741333466 -74.6528198383361
vertex 156.652055171008 -64.3816741333466 -73.4039098228267
vertex 165.552055171008 -64.3816741333466 -74.6528198383361
endloop
endfacet
facet normal -0.0 1.0 -0.0
outer loop
vertex 166.652055171008 -64.3816741333466 -83.4528198383361
vertex 165.552055171008 -64.3816741333466 -82.3528198383361
vertex 166.652055171008 -64.3816741333466 -73.4039098228267
endloop
endfacet
facet normal -0.0 1.0 -0.0
outer loop
vertex 165.552055171008 -64.3816741333466 -82.3528198383361
vertex 166.652055171008 -64.3816741333466 -83.4528198383361
vertex 157.752055171008 -64.3816741333466 -82.3528198383361
endloop
endfacet
facet normal -0.0 1.0 -0.0
outer loop
vertex 166.652055171008 -64.3816741333466 -73.4039098228267
vertex 165.552055171008 -64.3816741333466 -82.3528198383361
vertex 165.552055171008 -64.3816741333466 -74.6528198383361
endloop
endfacet
facet normal -0.0 1.0 -0.0
outer loop
vertex 166.652055171008 -64.3816741333466 -73.4039098228267
vertex 165.552055171008 -64.3816741333466 -74.6528198383361
vertex 156.652055171008 -64.3816741333466 -73.4039098228267
endloop
endfacet
facet normal 0.0 0.0 1.0
outer loop
vertex 166.652055171008 -80.5420592162321 -73.4039098228267
vertex 156.652055171008 -79.4000672411587 -73.4039098228267
vertex 156.652055171008 -80.5420592162321 -73.4039098228267
endloop
endfacet
facet normal 0.0 0.0 1.0
outer loop
vertex 156.652055171008 -79.4000672411587 -73.4039098228267
vertex 166.652055171008 -80.5420592162321 -73.4039098228267
vertex 166.652055171008 -79.4000672411587 -73.4039098228267
endloop
endfacet
facet normal 1.0 -1.97547201318395e-14 -3.75995531006387e-15
outer loop
vertex 166.652055171008 -79.4000672411587 -73.4039098228267
vertex 166.652055171008 -79.9710632286954 -74.3039098228267
vertex 166.652055171008 -79.9710632286954 -74.4039098228267
endloop
endfacet
facet normal 1.0 -1.97547201318395e-14 -3.75995531006387e-15
outer loop
vertex 166.652055171008 -79.9710632286954 -74.3039098228267
vertex 166.652055171008 -80.5420592162321 -73.4039098228267
vertex 166.652055171008 -80.5420592162321 -74.3039098228267
endloop
endfacet
facet normal 1.0 -1.97547201318395e-14 -3.75995531006387e-15
outer loop
vertex 166.652055171008 -80.5420592162321 -73.4039098228267
vertex 166.652055171008 -79.9710632286954 -74.3039098228267
vertex 166.652055171008 -79.4000672411587 -73.4039098228267
endloop
endfacet
facet normal -1.0 -0.0 -0.0
outer loop
vertex 156.652055171008 -79.4000672411587 -73.4039098228267
vertex 156.652055171008 -80.5420592162321 -74.3039098228267
vertex 156.652055171008 -80.5420592162321 -73.4039098228267
endloop
endfacet
facet normal -1.0 -0.0 -0.0
outer loop
vertex 156.652055171008 -80.5420592162321 -74.3039098228267
vertex 156.652055171008 -79.4000672411587 -73.4039098228267
vertex 156.652055171008 -79.9710632286954 -74.3039098228267
endloop
endfacet
facet normal -1.0 -0.0 -0.0
outer loop
vertex 156.652055171008 -79.9710632286954 -74.3039098228267
vertex 156.652055171008 -79.4000672411587 -73.4039098228267
vertex 156.652055171008 -79.9710632286954 -74.4039098228267
endloop
endfacet
facet normal 0.0 -1.0 0.0
outer loop
vertex 166.652055171008 -80.5420592162321 -73.4039098228267
vertex 156.652055171008 -80.5420592162321 -74.3039098228267
vertex 166.652055171008 -80.5420592162321 -74.3039098228267
endloop
endfacet
facet normal 0.0 -1.0 0.0
outer loop
vertex 156.652055171008 -80.5420592162321 -74.3039098228267
vertex 166.652055171008 -80.5420592162321 -73.4039098228267
vertex 156.652055171008 -80.5420592162321 -73.4039098228267
endloop
endfacet
facet normal -3.89148520753113e-19 0.868404917840423 -0.495855723644053
outer loop
vertex 156.652055171008 -79.4000672411587 -73.4039098228267
vertex 166.652055171008 -79.9710632286954 -74.4039098228267
vertex 156.652055171008 -79.9710632286954 -74.4039098228267
endloop
endfacet
facet normal -3.89148520753113e-19 0.868404917840423 -0.495855723644053
outer loop
vertex 166.652055171008 -79.9710632286954 -74.4039098228267
vertex 156.652055171008 -79.4000672411587 -73.4039098228267
vertex 166.652055171008 -79.4000672411587 -73.4039098228267
endloop
endfacet
facet normal 0.0 0.0 -1.0
outer loop
vertex 166.652055171008 -79.9710632286954 -74.3039098228267
vertex 156.652055171008 -80.5420592162321 -74.3039098228267
vertex 156.652055171008 -79.9710632286954 -74.3039098228267
endloop
endfacet
facet normal 0.0 0.0 -1.0
outer loop
vertex 156.652055171008 -80.5420592162321 -74.3039098228267
vertex 166.652055171008 -79.9710632286954 -74.3039098228267
vertex 166.652055171008 -80.5420592162321 -74.3039098228267
endloop
endfacet
facet normal 0.0 -1.0 -0.0
outer loop
vertex 166.652055171008 -79.9710632286954 -74.3039098228267
vertex 156.652055171008 -79.9710632286954 -74.4039098228267
vertex 166.652055171008 -79.9710632286954 -74.4039098228267
endloop
endfacet
facet normal 0.0 -1.0 -0.0
outer loop
vertex 156.652055171008 -79.9710632286954 -74.4039098228267
vertex 166.652055171008 -79.9710632286954 -74.3039098228267
vertex 156.652055171008 -79.9710632286954 -74.3039098228267
endloop
endfacet
facet normal 0.0 0.0 -1.0
outer loop
vertex 166.652055171008 -62.9301054484216 -74.3039098228267
vertex 156.652055171008 -63.4064910064703 -74.3039098228267
vertex 156.652055171008 -62.9301054484216 -74.3039098228267
endloop
endfacet
facet normal 0.0 0.0 -1.0
outer loop
vertex 156.652055171008 -63.4064910064703 -74.3039098228267
vertex 166.652055171008 -62.9301054484216 -74.3039098228267
vertex 166.652055171008 -63.4064910064703 -74.3039098228267
endloop
endfacet
facet normal 0.0 1.0 0.0
outer loop
vertex 156.652055171008 -63.4064910064703 -74.3039098228267
vertex 166.652055171008 -63.4064910064703 -74.4039098228267
vertex 156.652055171008 -63.4064910064703 -74.4039098228267
endloop
endfacet
facet normal 0.0 1.0 0.0
outer loop
vertex 166.652055171008 -63.4064910064703 -74.4039098228267
vertex 156.652055171008 -63.4064910064703 -74.3039098228267
vertex 166.652055171008 -63.4064910064703 -74.3039098228267
endloop
endfacet
endsolid MarsConnectorOK copy
