solid mars base2
facet normal 0.0049415108995833346 0.655963441349574 0.7547764868375626
  outer loop
    vertex 60.062803137751615 95.12677048120445 2.245289397398019
    vertex 67.86905908340977 95.22916456968649 2.1051929856271867
    vertex 60.062220553235 95.22916456968649 2.1563042461935815
  endloop
endfacet
facet normal 0.0049415108995833346 0.655963441349574 0.7547764868375626
  outer loop
    vertex 67.86905908340977 95.22916456968649 2.1051929856271867
    vertex 60.062803137751615 95.12677048120445 2.245289397398019
    vertex 67.86964166792639 95.12677048120445 2.1941781368316184
  endloop
endfacet
facet normal 0.006546845437177998 2.024550282295404e-18 0.999978569177771
  outer loop
    vertex 67.8696416679264 116.3267704812044 2.1941781368316184
    vertex 60.062803137751615 119.22677048120445 2.2452893973980133
    vertex 60.062803137751615 116.3267704812044 2.245289397398019
  endloop
endfacet
facet normal 0.006546845437177998 2.024550282295404e-18 0.999978569177771
  outer loop
    vertex 60.062803137751615 119.22677048120445 2.2452893973980133
    vertex 67.8696416679264 116.3267704812044 2.1941781368316184
    vertex 67.86964166792639 119.22677048120445 2.194178136831624
  endloop
endfacet
facet normal 2.434365686363581e-17 -1.0 6.812906456372988e-19
  outer loop
    vertex 67.86964166792637 83.32677048120446 2.194178136831624
    vertex 60.05625629231448 83.32677048120449 1.245310828220251
    vertex 67.86309482248923 83.32677048120446 1.1941995676538506
  endloop
endfacet
facet normal 2.434365686363581e-17 -1.0 6.812906456372988e-19
  outer loop
    vertex 60.05625629231448 83.32677048120449 1.245310828220251
    vertex 67.86964166792637 83.32677048120446 2.194178136831624
    vertex 60.06280313775162 83.32677048120446 2.245289397398019
  endloop
endfacet
facet normal 0.004837991750163785 -0.6737267080482965 0.7389647601193382
  outer loop
    vertex 67.86905908340977 98.22916456968647 2.1051929856271867
    vertex 60.06280313775162 98.32677048120446 2.245289397398019
    vertex 60.062220553235015 98.22916456968647 2.1563042461935815
  endloop
endfacet
facet normal 0.004837991750163785 -0.6737267080482965 0.7389647601193382
  outer loop
    vertex 60.06280313775162 98.32677048120446 2.245289397398019
    vertex 67.86905908340977 98.22916456968647 2.1051929856271867
    vertex 67.86964166792637 98.32677048120446 2.194178136831624
  endloop
endfacet
facet normal 0.006546845437177998 2.024550282295404e-18 0.999978569177771
  outer loop
    vertex 67.86964166792637 104.32677048120445 2.194178136831624
    vertex 60.0628031377516 107.12677048120443 2.245289397398019
    vertex 60.0628031377516 104.32677048120445 2.245289397398019
  endloop
endfacet
facet normal 0.006546845437177998 2.024550282295404e-18 0.999978569177771
  outer loop
    vertex 60.0628031377516 107.12677048120443 2.245289397398019
    vertex 67.86964166792637 104.32677048120445 2.194178136831624
    vertex 67.86964166792637 107.12677048120443 2.1941781368316184
  endloop
endfacet
facet normal 0.004837991750163785 -0.6737267080482965 0.7389647601193382
  outer loop
    vertex 67.86905908340977 101.22916456968647 2.1051929856271867
    vertex 60.06280313775162 101.32677048120442 2.2452893973980133
    vertex 60.062220553234994 101.22916456968647 2.1563042461935873
  endloop
endfacet
facet normal 0.004837991750163785 -0.6737267080482965 0.7389647601193382
  outer loop
    vertex 60.06280313775162 101.32677048120442 2.2452893973980133
    vertex 67.86905908340977 101.22916456968647 2.1051929856271867
    vertex 67.86964166792637 101.32677048120446 2.194178136831624
  endloop
endfacet
facet normal 0.0049415108995833346 0.655963441349574 0.7547764868375626
  outer loop
    vertex 60.062803137751615 101.12677048120446 2.245289397398019
    vertex 67.86905908340977 101.22916456968647 2.1051929856271867
    vertex 60.062220553234994 101.22916456968647 2.1563042461935873
  endloop
endfacet
facet normal 0.0049415108995833346 0.655963441349574 0.7547764868375626
  outer loop
    vertex 67.86905908340977 101.22916456968647 2.1051929856271867
    vertex 60.062803137751615 101.12677048120446 2.245289397398019
    vertex 67.86964166792637 101.12677048120446 2.194178136831624
  endloop
endfacet
facet normal 0.006546845437177998 2.024550282295404e-18 0.999978569177771
  outer loop
    vertex 67.86964166792639 113.32677048120442 2.194178136831624
    vertex 60.06280313775162 116.12677048120439 2.245289397398019
    vertex 60.06280313775162 113.32677048120442 2.245289397398019
  endloop
endfacet
facet normal 0.006546845437177998 2.024550282295404e-18 0.999978569177771
  outer loop
    vertex 60.06280313775162 116.12677048120439 2.245289397398019
    vertex 67.86964166792639 113.32677048120442 2.194178136831624
    vertex 67.8696416679264 116.1267704812044 2.194178136831624
  endloop
endfacet
facet normal 0.006546845437177998 2.024550282295404e-18 0.999978569177771
  outer loop
    vertex 67.86964166792637 95.32677048120448 2.1941781368316127
    vertex 60.062803137751615 98.12677048120446 2.245289397398019
    vertex 60.0628031377516 95.32677048120445 2.245289397398019
  endloop
endfacet
facet normal 0.006546845437177998 2.024550282295404e-18 0.999978569177771
  outer loop
    vertex 60.062803137751615 98.12677048120446 2.245289397398019
    vertex 67.86964166792637 95.32677048120448 2.1941781368316127
    vertex 67.86964166792639 98.12677048120446 2.1941781368316184
  endloop
endfacet
facet normal 0.9999785691777711 5.152217621828879e-16 -0.00654684543715888
  outer loop
    vertex 67.86309482248923 83.32677048120446 1.1941995676538506
    vertex 67.86905908340977 86.2291645696865 2.1051929856271814
    vertex 67.86964166792637 83.32677048120446 2.194178136831624
  endloop
endfacet
facet normal 0.9999785691777711 5.152217621828879e-16 -0.00654684543715888
  outer loop
    vertex 67.86905908340977 86.2291645696865 2.1051929856271814
    vertex 67.86309482248923 83.32677048120446 1.1941995676538506
    vertex 67.86309482248923 122.32677048120445 1.1941995676538506
  endloop
endfacet
facet normal 0.9999785691777711 5.152217621828879e-16 -0.00654684543715888
  outer loop
    vertex 67.86964166792637 83.32677048120446 2.194178136831624
    vertex 67.86905908340977 86.2291645696865 2.1051929856271814
    vertex 67.86964166792637 86.12677048120446 2.194178136831624
  endloop
endfacet
facet normal 0.9999785691777711 5.152217621828879e-16 -0.00654684543715888
  outer loop
    vertex 67.86905908340977 86.2291645696865 2.1051929856271814
    vertex 67.86309482248923 122.32677048120445 1.1941995676538506
    vertex 67.86905908340977 89.22916456968649 2.1051929856271867
  endloop
endfacet
facet normal 0.9999785691777711 5.152217621828879e-16 -0.00654684543715888
  outer loop
    vertex 67.86905908340977 86.2291645696865 2.1051929856271814
    vertex 67.86905908340977 89.22916456968649 2.1051929856271867
    vertex 67.86964166792639 86.32677048120449 2.194178136831624
  endloop
endfacet
facet normal 0.9999785691777711 5.152217621828879e-16 -0.00654684543715888
  outer loop
    vertex 67.86964166792639 86.32677048120449 2.194178136831624
    vertex 67.86905908340977 89.22916456968649 2.1051929856271867
    vertex 67.86964166792637 89.12677048120446 2.194178136831624
  endloop
endfacet
facet normal 0.9999785691777711 5.152217621828879e-16 -0.00654684543715888
  outer loop
    vertex 67.86905908340977 89.22916456968649 2.1051929856271867
    vertex 67.86309482248923 122.32677048120445 1.1941995676538506
    vertex 67.86905908340977 92.22916456968649 2.1051929856271867
  endloop
endfacet
facet normal 0.9999785691777711 5.152217621828879e-16 -0.00654684543715888
  outer loop
    vertex 67.86905908340977 89.22916456968649 2.1051929856271867
    vertex 67.86905908340977 92.22916456968649 2.1051929856271867
    vertex 67.86964166792637 89.32677048120446 2.194178136831624
  endloop
endfacet
facet normal 0.9999785691777711 5.152217621828879e-16 -0.00654684543715888
  outer loop
    vertex 67.86964166792637 89.32677048120446 2.194178136831624
    vertex 67.86905908340977 92.22916456968649 2.1051929856271867
    vertex 67.86964166792639 92.12677048120443 2.1941781368316184
  endloop
endfacet
facet normal 0.9999785691777711 5.152217621828879e-16 -0.00654684543715888
  outer loop
    vertex 67.86905908340977 92.22916456968649 2.1051929856271867
    vertex 67.86309482248923 122.32677048120445 1.1941995676538506
    vertex 67.86964166792637 92.32677048120445 2.1941781368316184
  endloop
endfacet
facet normal 0.9999785691777711 5.152217621828879e-16 -0.00654684543715888
  outer loop
    vertex 67.86964166792637 92.32677048120445 2.1941781368316184
    vertex 67.86309482248923 122.32677048120445 1.1941995676538506
    vertex 67.86905908340977 95.22916456968649 2.1051929856271867
  endloop
endfacet
facet normal 0.9999785691777711 5.152217621828879e-16 -0.00654684543715888
  outer loop
    vertex 67.86964166792637 92.32677048120445 2.1941781368316184
    vertex 67.86905908340977 95.22916456968649 2.1051929856271867
    vertex 67.86964166792639 95.12677048120445 2.1941781368316184
  endloop
endfacet
facet normal 0.9999785691777711 5.152217621828879e-16 -0.00654684543715888
  outer loop
    vertex 67.86905908340977 95.22916456968649 2.1051929856271867
    vertex 67.86309482248923 122.32677048120445 1.1941995676538506
    vertex 67.86964166792637 95.32677048120448 2.1941781368316127
  endloop
endfacet
facet normal 0.9999785691777711 5.152217621828879e-16 -0.00654684543715888
  outer loop
    vertex 67.86964166792637 95.32677048120448 2.1941781368316127
    vertex 67.86309482248923 122.32677048120445 1.1941995676538506
    vertex 67.86905908340977 98.22916456968647 2.1051929856271867
  endloop
endfacet
facet normal 0.9999785691777711 5.152217621828879e-16 -0.00654684543715888
  outer loop
    vertex 67.86964166792637 95.32677048120448 2.1941781368316127
    vertex 67.86905908340977 98.22916456968647 2.1051929856271867
    vertex 67.86964166792639 98.12677048120446 2.1941781368316184
  endloop
endfacet
facet normal 0.9999785691777711 5.152217621828879e-16 -0.00654684543715888
  outer loop
    vertex 67.86905908340977 98.22916456968647 2.1051929856271867
    vertex 67.86309482248923 122.32677048120445 1.1941995676538506
    vertex 67.86964166792637 98.32677048120446 2.194178136831624
  endloop
endfacet
facet normal 0.9999785691777711 5.152217621828879e-16 -0.00654684543715888
  outer loop
    vertex 67.86964166792637 98.32677048120446 2.194178136831624
    vertex 67.86309482248923 122.32677048120445 1.1941995676538506
    vertex 67.86905908340977 101.22916456968647 2.1051929856271867
  endloop
endfacet
facet normal 0.9999785691777711 5.152217621828879e-16 -0.00654684543715888
  outer loop
    vertex 67.86964166792637 98.32677048120446 2.194178136831624
    vertex 67.86905908340977 101.22916456968647 2.1051929856271867
    vertex 67.86964166792637 101.12677048120446 2.194178136831624
  endloop
endfacet
facet normal 0.9999785691777711 5.152217621828879e-16 -0.00654684543715888
  outer loop
    vertex 67.86905908340977 101.22916456968647 2.1051929856271867
    vertex 67.86309482248923 122.32677048120445 1.1941995676538506
    vertex 67.86964166792637 101.32677048120446 2.194178136831624
  endloop
endfacet
facet normal 0.9999785691777711 5.152217621828879e-16 -0.00654684543715888
  outer loop
    vertex 67.86964166792637 101.32677048120446 2.194178136831624
    vertex 67.86309482248923 122.32677048120445 1.1941995676538506
    vertex 67.86905908340977 104.22916456968646 2.1051929856271867
  endloop
endfacet
facet normal 0.9999785691777711 5.152217621828879e-16 -0.00654684543715888
  outer loop
    vertex 67.86964166792637 101.32677048120446 2.194178136831624
    vertex 67.86905908340977 104.22916456968646 2.1051929856271867
    vertex 67.86964166792637 104.12677048120446 2.194178136831624
  endloop
endfacet
facet normal 0.9999785691777711 5.152217621828879e-16 -0.00654684543715888
  outer loop
    vertex 67.86905908340977 104.22916456968646 2.1051929856271867
    vertex 67.86309482248923 122.32677048120445 1.1941995676538506
    vertex 67.86964166792637 104.32677048120445 2.194178136831624
  endloop
endfacet
facet normal 0.9999785691777711 5.152217621828879e-16 -0.00654684543715888
  outer loop
    vertex 67.86964166792637 104.32677048120445 2.194178136831624
    vertex 67.86309482248923 122.32677048120445 1.1941995676538506
    vertex 67.86905908340977 107.22916456968646 2.1051929856271867
  endloop
endfacet
facet normal 0.9999785691777711 5.152217621828879e-16 -0.00654684543715888
  outer loop
    vertex 67.86964166792637 104.32677048120445 2.194178136831624
    vertex 67.86905908340977 107.22916456968646 2.1051929856271867
    vertex 67.86964166792637 107.12677048120443 2.1941781368316184
  endloop
endfacet
facet normal 0.9999785691777711 5.152217621828879e-16 -0.00654684543715888
  outer loop
    vertex 67.86905908340977 107.22916456968646 2.1051929856271867
    vertex 67.86309482248923 122.32677048120445 1.1941995676538506
    vertex 67.86964166792639 107.32677048120442 2.1941781368316127
  endloop
endfacet
facet normal 0.9999785691777711 5.152217621828879e-16 -0.00654684543715888
  outer loop
    vertex 67.86964166792639 107.32677048120442 2.1941781368316127
    vertex 67.86309482248923 122.32677048120445 1.1941995676538506
    vertex 67.86905908340978 110.22916456968646 2.1051929856271867
  endloop
endfacet
facet normal 0.9999785691777711 5.152217621828879e-16 -0.00654684543715888
  outer loop
    vertex 67.86964166792639 107.32677048120442 2.1941781368316127
    vertex 67.86905908340978 110.22916456968646 2.1051929856271867
    vertex 67.86964166792639 110.12677048120445 2.1941781368316184
  endloop
endfacet
facet normal 0.9999785691777711 5.152217621828879e-16 -0.00654684543715888
  outer loop
    vertex 67.86905908340978 110.22916456968646 2.1051929856271867
    vertex 67.86309482248923 122.32677048120445 1.1941995676538506
    vertex 67.8696416679264 110.32677048120445 2.1941781368316127
  endloop
endfacet
facet normal 0.9999785691777711 5.152217621828879e-16 -0.00654684543715888
  outer loop
    vertex 67.8696416679264 110.32677048120445 2.1941781368316127
    vertex 67.86309482248923 122.32677048120445 1.1941995676538506
    vertex 67.86905908340977 113.22916456968645 2.1051929856271867
  endloop
endfacet
facet normal 0.9999785691777711 5.152217621828879e-16 -0.00654684543715888
  outer loop
    vertex 67.8696416679264 110.32677048120445 2.1941781368316127
    vertex 67.86905908340977 113.22916456968645 2.1051929856271867
    vertex 67.86964166792639 113.12677048120442 2.1941781368316184
  endloop
endfacet
facet normal 0.9999785691777711 5.152217621828879e-16 -0.00654684543715888
  outer loop
    vertex 67.86905908340977 113.22916456968645 2.1051929856271867
    vertex 67.86309482248923 122.32677048120445 1.1941995676538506
    vertex 67.86964166792639 113.32677048120442 2.194178136831624
  endloop
endfacet
facet normal 0.9999785691777711 5.152217621828879e-16 -0.00654684543715888
  outer loop
    vertex 67.86964166792639 113.32677048120442 2.194178136831624
    vertex 67.86309482248923 122.32677048120445 1.1941995676538506
    vertex 67.86905908340977 116.22916456968645 2.1051929856271867
  endloop
endfacet
facet normal 0.9999785691777711 5.152217621828879e-16 -0.00654684543715888
  outer loop
    vertex 67.86964166792639 113.32677048120442 2.194178136831624
    vertex 67.86905908340977 116.22916456968645 2.1051929856271867
    vertex 67.8696416679264 116.1267704812044 2.194178136831624
  endloop
endfacet
facet normal 0.9999785691777711 5.152217621828879e-16 -0.00654684543715888
  outer loop
    vertex 67.86905908340977 116.22916456968645 2.1051929856271867
    vertex 67.86309482248923 122.32677048120445 1.1941995676538506
    vertex 67.8696416679264 116.3267704812044 2.1941781368316184
  endloop
endfacet
facet normal 0.9999785691777711 5.152217621828879e-16 -0.00654684543715888
  outer loop
    vertex 67.8696416679264 116.3267704812044 2.1941781368316184
    vertex 67.86309482248923 122.32677048120445 1.1941995676538506
    vertex 67.86905908340977 119.32916456968647 2.1051929856271867
  endloop
endfacet
facet normal 0.9999785691777711 5.152217621828879e-16 -0.00654684543715888
  outer loop
    vertex 67.8696416679264 116.3267704812044 2.1941781368316184
    vertex 67.86905908340977 119.32916456968647 2.1051929856271867
    vertex 67.86964166792639 119.22677048120445 2.194178136831624
  endloop
endfacet
facet normal 0.9999785691777711 5.152217621828879e-16 -0.00654684543715888
  outer loop
    vertex 67.86905908340977 119.32916456968647 2.1051929856271867
    vertex 67.86309482248923 122.32677048120445 1.1941995676538506
    vertex 67.8696416679264 119.42677048120443 2.1941781368316184
  endloop
endfacet
facet normal 0.9999785691777711 5.152217621828879e-16 -0.00654684543715888
  outer loop
    vertex 67.8696416679264 119.42677048120443 2.1941781368316184
    vertex 67.86309482248923 122.32677048120445 1.1941995676538506
    vertex 67.86964166792639 122.32677048120446 2.1941781368316184
  endloop
endfacet
facet normal -2.434365686363581e-17 1.0 -6.812906456372988e-19
  outer loop
    vertex 60.056256292314444 122.32677048120446 1.2453108282202454
    vertex 67.86964166792639 122.32677048120446 2.1941781368316184
    vertex 67.86309482248923 122.32677048120445 1.1941995676538506
  endloop
endfacet
facet normal -2.434365686363581e-17 1.0 -6.812906456372988e-19
  outer loop
    vertex 67.86964166792639 122.32677048120446 2.1941781368316184
    vertex 60.056256292314444 122.32677048120446 1.2453108282202454
    vertex 60.062803137751615 122.32677048120446 2.2452893973980133
  endloop
endfacet
facet normal -0.9999785691777711 -4.597106109516254e-16 0.006546845437158895
  outer loop
    vertex 60.062803137751615 86.12677048120446 2.245289397398019
    vertex 60.05625629231448 83.32677048120449 1.245310828220251
    vertex 60.06280313775162 83.32677048120446 2.245289397398019
  endloop
endfacet
facet normal -0.9999785691777711 -4.597106109516254e-16 0.006546845437158895
  outer loop
    vertex 60.05625629231448 83.32677048120449 1.245310828220251
    vertex 60.062803137751615 86.12677048120446 2.245289397398019
    vertex 60.062220553235015 86.2291645696865 2.1563042461935873
  endloop
endfacet
facet normal -0.9999785691777711 -4.597106109516254e-16 0.006546845437158895
  outer loop
    vertex 60.05625629231448 83.32677048120449 1.245310828220251
    vertex 60.062220553235015 86.2291645696865 2.1563042461935873
    vertex 60.056256292314444 122.32677048120446 1.2453108282202454
  endloop
endfacet
facet normal -0.9999785691777711 -4.597106109516254e-16 0.006546845437158895
  outer loop
    vertex 60.056256292314444 122.32677048120446 1.2453108282202454
    vertex 60.062220553235015 86.2291645696865 2.1563042461935873
    vertex 60.062220553235 89.22916456968649 2.1563042461935873
  endloop
endfacet
facet normal -0.9999785691777711 -4.597106109516254e-16 0.006546845437158895
  outer loop
    vertex 60.062220553235 89.22916456968649 2.1563042461935873
    vertex 60.062220553235015 86.2291645696865 2.1563042461935873
    vertex 60.062803137751615 86.32677048120445 2.245289397398019
  endloop
endfacet
facet normal -0.9999785691777711 -4.597106109516254e-16 0.006546845437158895
  outer loop
    vertex 60.062220553235 89.22916456968649 2.1563042461935873
    vertex 60.062803137751615 86.32677048120445 2.245289397398019
    vertex 60.062803137751615 89.12677048120443 2.245289397398019
  endloop
endfacet
facet normal -0.9999785691777711 -4.597106109516254e-16 0.006546845437158895
  outer loop
    vertex 60.056256292314444 122.32677048120446 1.2453108282202454
    vertex 60.062220553235 89.22916456968649 2.1563042461935873
    vertex 60.062220553235 92.22916456968649 2.1563042461935873
  endloop
endfacet
facet normal -0.9999785691777711 -4.597106109516254e-16 0.006546845437158895
  outer loop
    vertex 60.062220553235 92.22916456968649 2.1563042461935873
    vertex 60.062220553235 89.22916456968649 2.1563042461935873
    vertex 60.062803137751615 89.32677048120446 2.245289397398019
  endloop
endfacet
facet normal -0.9999785691777711 -4.597106109516254e-16 0.006546845437158895
  outer loop
    vertex 60.062220553235 92.22916456968649 2.1563042461935873
    vertex 60.062803137751615 89.32677048120446 2.245289397398019
    vertex 60.06280313775162 92.12677048120443 2.245289397398019
  endloop
endfacet
facet normal -0.9999785691777711 -4.597106109516254e-16 0.006546845437158895
  outer loop
    vertex 60.056256292314444 122.32677048120446 1.2453108282202454
    vertex 60.062220553235 92.22916456968649 2.1563042461935873
    vertex 60.0628031377516 92.32677048120445 2.245289397398019
  endloop
endfacet
facet normal -0.9999785691777711 -4.597106109516254e-16 0.006546845437158895
  outer loop
    vertex 60.056256292314444 122.32677048120446 1.2453108282202454
    vertex 60.0628031377516 92.32677048120445 2.245289397398019
    vertex 60.062220553235 95.22916456968649 2.1563042461935815
  endloop
endfacet
facet normal -0.9999785691777711 -4.597106109516254e-16 0.006546845437158895
  outer loop
    vertex 60.062220553235 95.22916456968649 2.1563042461935815
    vertex 60.0628031377516 92.32677048120445 2.245289397398019
    vertex 60.062803137751615 95.12677048120445 2.245289397398019
  endloop
endfacet
facet normal -0.9999785691777711 -4.597106109516254e-16 0.006546845437158895
  outer loop
    vertex 60.056256292314444 122.32677048120446 1.2453108282202454
    vertex 60.062220553235 95.22916456968649 2.1563042461935815
    vertex 60.0628031377516 95.32677048120445 2.245289397398019
  endloop
endfacet
facet normal -0.9999785691777711 -4.597106109516254e-16 0.006546845437158895
  outer loop
    vertex 60.056256292314444 122.32677048120446 1.2453108282202454
    vertex 60.0628031377516 95.32677048120445 2.245289397398019
    vertex 60.062220553235015 98.22916456968647 2.1563042461935815
  endloop
endfacet
facet normal -0.9999785691777711 -4.597106109516254e-16 0.006546845437158895
  outer loop
    vertex 60.062220553235015 98.22916456968647 2.1563042461935815
    vertex 60.0628031377516 95.32677048120445 2.245289397398019
    vertex 60.062803137751615 98.12677048120446 2.245289397398019
  endloop
endfacet
facet normal -0.9999785691777711 -4.597106109516254e-16 0.006546845437158895
  outer loop
    vertex 60.056256292314444 122.32677048120446 1.2453108282202454
    vertex 60.062220553235015 98.22916456968647 2.1563042461935815
    vertex 60.06280313775162 98.32677048120446 2.245289397398019
  endloop
endfacet
facet normal -0.9999785691777711 -4.597106109516254e-16 0.006546845437158895
  outer loop
    vertex 60.056256292314444 122.32677048120446 1.2453108282202454
    vertex 60.06280313775162 98.32677048120446 2.245289397398019
    vertex 60.062220553234994 101.22916456968647 2.1563042461935873
  endloop
endfacet
facet normal -0.9999785691777711 -4.597106109516254e-16 0.006546845437158895
  outer loop
    vertex 60.062220553234994 101.22916456968647 2.1563042461935873
    vertex 60.06280313775162 98.32677048120446 2.245289397398019
    vertex 60.062803137751615 101.12677048120446 2.245289397398019
  endloop
endfacet
facet normal -0.9999785691777711 -4.597106109516254e-16 0.006546845437158895
  outer loop
    vertex 60.056256292314444 122.32677048120446 1.2453108282202454
    vertex 60.062220553234994 101.22916456968647 2.1563042461935873
    vertex 60.06280313775162 101.32677048120442 2.2452893973980133
  endloop
endfacet
facet normal -0.9999785691777711 -4.597106109516254e-16 0.006546845437158895
  outer loop
    vertex 60.056256292314444 122.32677048120446 1.2453108282202454
    vertex 60.06280313775162 101.32677048120442 2.2452893973980133
    vertex 60.062220553235015 104.22916456968646 2.1563042461935873
  endloop
endfacet
facet normal -0.9999785691777711 -4.597106109516254e-16 0.006546845437158895
  outer loop
    vertex 60.062220553235015 104.22916456968646 2.1563042461935873
    vertex 60.06280313775162 101.32677048120442 2.2452893973980133
    vertex 60.062803137751615 104.12677048120443 2.245289397398019
  endloop
endfacet
facet normal -0.9999785691777711 -4.597106109516254e-16 0.006546845437158895
  outer loop
    vertex 60.056256292314444 122.32677048120446 1.2453108282202454
    vertex 60.062220553235015 104.22916456968646 2.1563042461935873
    vertex 60.0628031377516 104.32677048120445 2.245289397398019
  endloop
endfacet
facet normal -0.9999785691777711 -4.597106109516254e-16 0.006546845437158895
  outer loop
    vertex 60.056256292314444 122.32677048120446 1.2453108282202454
    vertex 60.0628031377516 104.32677048120445 2.245289397398019
    vertex 60.062220553235015 107.22916456968646 2.1563042461935873
  endloop
endfacet
facet normal -0.9999785691777711 -4.597106109516254e-16 0.006546845437158895
  outer loop
    vertex 60.062220553235015 107.22916456968646 2.1563042461935873
    vertex 60.0628031377516 104.32677048120445 2.245289397398019
    vertex 60.0628031377516 107.12677048120443 2.245289397398019
  endloop
endfacet
facet normal -0.9999785691777711 -4.597106109516254e-16 0.006546845437158895
  outer loop
    vertex 60.056256292314444 122.32677048120446 1.2453108282202454
    vertex 60.062220553235015 107.22916456968646 2.1563042461935873
    vertex 60.062803137751615 107.3267704812044 2.2452893973980133
  endloop
endfacet
facet normal -0.9999785691777711 -4.597106109516254e-16 0.006546845437158895
  outer loop
    vertex 60.056256292314444 122.32677048120446 1.2453108282202454
    vertex 60.062803137751615 107.3267704812044 2.2452893973980133
    vertex 60.062220553235015 110.22916456968646 2.1563042461935873
  endloop
endfacet
facet normal -0.9999785691777711 -4.597106109516254e-16 0.006546845437158895
  outer loop
    vertex 60.062220553235015 110.22916456968646 2.1563042461935873
    vertex 60.062803137751615 107.3267704812044 2.2452893973980133
    vertex 60.062803137751615 110.12677048120442 2.245289397398019
  endloop
endfacet
facet normal -0.9999785691777711 -4.597106109516254e-16 0.006546845437158895
  outer loop
    vertex 60.056256292314444 122.32677048120446 1.2453108282202454
    vertex 60.062220553235015 110.22916456968646 2.1563042461935873
    vertex 60.06280313775162 110.32677048120442 2.245289397398019
  endloop
endfacet
facet normal -0.9999785691777711 -4.597106109516254e-16 0.006546845437158895
  outer loop
    vertex 60.056256292314444 122.32677048120446 1.2453108282202454
    vertex 60.06280313775162 110.32677048120442 2.245289397398019
    vertex 60.062220553234994 113.22916456968645 2.1563042461935815
  endloop
endfacet
facet normal -0.9999785691777711 -4.597106109516254e-16 0.006546845437158895
  outer loop
    vertex 60.062220553234994 113.22916456968645 2.1563042461935815
    vertex 60.06280313775162 110.32677048120442 2.245289397398019
    vertex 60.06280313775164 113.12677048120439 2.245289397398019
  endloop
endfacet
facet normal -0.9999785691777711 -4.597106109516254e-16 0.006546845437158895
  outer loop
    vertex 60.056256292314444 122.32677048120446 1.2453108282202454
    vertex 60.062220553234994 113.22916456968645 2.1563042461935815
    vertex 60.06280313775162 113.32677048120442 2.245289397398019
  endloop
endfacet
facet normal -0.9999785691777711 -4.597106109516254e-16 0.006546845437158895
  outer loop
    vertex 60.056256292314444 122.32677048120446 1.2453108282202454
    vertex 60.06280313775162 113.32677048120442 2.245289397398019
    vertex 60.062220553235 116.22916456968645 2.1563042461935873
  endloop
endfacet
facet normal -0.9999785691777711 -4.597106109516254e-16 0.006546845437158895
  outer loop
    vertex 60.062220553235 116.22916456968645 2.1563042461935873
    vertex 60.06280313775162 113.32677048120442 2.245289397398019
    vertex 60.06280313775162 116.12677048120439 2.245289397398019
  endloop
endfacet
facet normal -0.9999785691777711 -4.597106109516254e-16 0.006546845437158895
  outer loop
    vertex 60.056256292314444 122.32677048120446 1.2453108282202454
    vertex 60.062220553235 116.22916456968645 2.1563042461935873
    vertex 60.062803137751615 116.3267704812044 2.245289397398019
  endloop
endfacet
facet normal -0.9999785691777711 -4.597106109516254e-16 0.006546845437158895
  outer loop
    vertex 60.056256292314444 122.32677048120446 1.2453108282202454
    vertex 60.062803137751615 116.3267704812044 2.245289397398019
    vertex 60.062220553235 119.32916456968647 2.1563042461935873
  endloop
endfacet
facet normal -0.9999785691777711 -4.597106109516254e-16 0.006546845437158895
  outer loop
    vertex 60.062220553235 119.32916456968647 2.1563042461935873
    vertex 60.062803137751615 116.3267704812044 2.245289397398019
    vertex 60.062803137751615 119.22677048120445 2.2452893973980133
  endloop
endfacet
facet normal -0.9999785691777711 -4.597106109516254e-16 0.006546845437158895
  outer loop
    vertex 60.056256292314444 122.32677048120446 1.2453108282202454
    vertex 60.062220553235 119.32916456968647 2.1563042461935873
    vertex 60.06280313775164 119.42677048120443 2.2452893973980133
  endloop
endfacet
facet normal -0.9999785691777711 -4.597106109516254e-16 0.006546845437158895
  outer loop
    vertex 60.056256292314444 122.32677048120446 1.2453108282202454
    vertex 60.06280313775164 119.42677048120443 2.2452893973980133
    vertex 60.062803137751615 122.32677048120446 2.2452893973980133
  endloop
endfacet
facet normal 0.004837991750163785 -0.6737267080482965 0.7389647601193382
  outer loop
    vertex 67.86905908340977 95.22916456968649 2.1051929856271867
    vertex 60.0628031377516 95.32677048120445 2.245289397398019
    vertex 60.062220553235 95.22916456968649 2.1563042461935815
  endloop
endfacet
facet normal 0.004837991750163785 -0.6737267080482965 0.7389647601193382
  outer loop
    vertex 60.0628031377516 95.32677048120445 2.245289397398019
    vertex 67.86905908340977 95.22916456968649 2.1051929856271867
    vertex 67.86964166792637 95.32677048120448 2.1941781368316127
  endloop
endfacet
facet normal 0.0049415108995833346 0.655963441349574 0.7547764868375626
  outer loop
    vertex 60.06280313775164 113.12677048120439 2.245289397398019
    vertex 67.86905908340977 113.22916456968645 2.1051929856271867
    vertex 60.062220553234994 113.22916456968645 2.1563042461935815
  endloop
endfacet
facet normal 0.0049415108995833346 0.655963441349574 0.7547764868375626
  outer loop
    vertex 67.86905908340977 113.22916456968645 2.1051929856271867
    vertex 60.06280313775164 113.12677048120439 2.245289397398019
    vertex 67.86964166792639 113.12677048120442 2.1941781368316184
  endloop
endfacet
facet normal 0.004837991750163785 -0.6737267080482965 0.7389647601193382
  outer loop
    vertex 67.86905908340977 89.22916456968649 2.1051929856271867
    vertex 60.062803137751615 89.32677048120446 2.245289397398019
    vertex 60.062220553235 89.22916456968649 2.1563042461935873
  endloop
endfacet
facet normal 0.004837991750163785 -0.6737267080482965 0.7389647601193382
  outer loop
    vertex 60.062803137751615 89.32677048120446 2.245289397398019
    vertex 67.86905908340977 89.22916456968649 2.1051929856271867
    vertex 67.86964166792637 89.32677048120446 2.194178136831624
  endloop
endfacet
facet normal 0.004837991750163785 -0.6737267080482965 0.7389647601193382
  outer loop
    vertex 67.86905908340977 104.22916456968646 2.1051929856271867
    vertex 60.0628031377516 104.32677048120445 2.245289397398019
    vertex 60.062220553235015 104.22916456968646 2.1563042461935873
  endloop
endfacet
facet normal 0.004837991750163785 -0.6737267080482965 0.7389647601193382
  outer loop
    vertex 60.0628031377516 104.32677048120445 2.245289397398019
    vertex 67.86905908340977 104.22916456968646 2.1051929856271867
    vertex 67.86964166792637 104.32677048120445 2.194178136831624
  endloop
endfacet
facet normal 0.004837991750163785 -0.6737267080482965 0.7389647601193382
  outer loop
    vertex 67.86905908340977 116.22916456968645 2.1051929856271867
    vertex 60.062803137751615 116.3267704812044 2.245289397398019
    vertex 60.062220553235 116.22916456968645 2.1563042461935873
  endloop
endfacet
facet normal 0.004837991750163785 -0.6737267080482965 0.7389647601193382
  outer loop
    vertex 60.062803137751615 116.3267704812044 2.245289397398019
    vertex 67.86905908340977 116.22916456968645 2.1051929856271867
    vertex 67.8696416679264 116.3267704812044 2.1941781368316184
  endloop
endfacet
facet normal 0.0049415108995833346 0.655963441349574 0.7547764868375626
  outer loop
    vertex 60.06280313775162 116.12677048120439 2.245289397398019
    vertex 67.86905908340977 116.22916456968645 2.1051929856271867
    vertex 60.062220553235 116.22916456968645 2.1563042461935873
  endloop
endfacet
facet normal 0.0049415108995833346 0.655963441349574 0.7547764868375626
  outer loop
    vertex 67.86905908340977 116.22916456968645 2.1051929856271867
    vertex 60.06280313775162 116.12677048120439 2.245289397398019
    vertex 67.8696416679264 116.1267704812044 2.194178136831624
  endloop
endfacet
facet normal 0.006546845437177998 2.024550282295404e-18 0.999978569177771
  outer loop
    vertex 60.06280313775162 98.32677048120446 2.245289397398019
    vertex 67.86964166792637 101.12677048120446 2.194178136831624
    vertex 60.062803137751615 101.12677048120446 2.245289397398019
  endloop
endfacet
facet normal 0.006546845437177998 2.024550282295404e-18 0.999978569177771
  outer loop
    vertex 67.86964166792637 101.12677048120446 2.194178136831624
    vertex 60.06280313775162 98.32677048120446 2.245289397398019
    vertex 67.86964166792637 98.32677048120446 2.194178136831624
  endloop
endfacet
facet normal 0.0049415108995833346 0.655963441349574 0.7547764868375626
  outer loop
    vertex 60.062803137751615 104.12677048120443 2.245289397398019
    vertex 67.86905908340977 104.22916456968646 2.1051929856271867
    vertex 60.062220553235015 104.22916456968646 2.1563042461935873
  endloop
endfacet
facet normal 0.0049415108995833346 0.655963441349574 0.7547764868375626
  outer loop
    vertex 67.86905908340977 104.22916456968646 2.1051929856271867
    vertex 60.062803137751615 104.12677048120443 2.245289397398019
    vertex 67.86964166792637 104.12677048120446 2.194178136831624
  endloop
endfacet
facet normal 0.0049415108995833346 0.655963441349574 0.7547764868375626
  outer loop
    vertex 60.0628031377516 107.12677048120443 2.245289397398019
    vertex 67.86905908340977 107.22916456968646 2.1051929856271867
    vertex 60.062220553235015 107.22916456968646 2.1563042461935873
  endloop
endfacet
facet normal 0.0049415108995833346 0.655963441349574 0.7547764868375626
  outer loop
    vertex 67.86905908340977 107.22916456968646 2.1051929856271867
    vertex 60.0628031377516 107.12677048120443 2.245289397398019
    vertex 67.86964166792637 107.12677048120443 2.1941781368316184
  endloop
endfacet
facet normal 0.006546845437177998 2.024550282295404e-18 0.999978569177771
  outer loop
    vertex 67.86964166792637 89.32677048120446 2.194178136831624
    vertex 60.06280313775162 92.12677048120443 2.245289397398019
    vertex 60.062803137751615 89.32677048120446 2.245289397398019
  endloop
endfacet
facet normal 0.006546845437177998 2.024550282295404e-18 0.999978569177771
  outer loop
    vertex 60.06280313775162 92.12677048120443 2.245289397398019
    vertex 67.86964166792637 89.32677048120446 2.194178136831624
    vertex 67.86964166792639 92.12677048120443 2.1941781368316184
  endloop
endfacet
facet normal 0.006546845437177998 2.024550282295404e-18 0.999978569177771
  outer loop
    vertex 67.86964166792637 92.32677048120445 2.1941781368316184
    vertex 60.062803137751615 95.12677048120445 2.245289397398019
    vertex 60.0628031377516 92.32677048120445 2.245289397398019
  endloop
endfacet
facet normal 0.006546845437177998 2.024550282295404e-18 0.999978569177771
  outer loop
    vertex 60.062803137751615 95.12677048120445 2.245289397398019
    vertex 67.86964166792637 92.32677048120445 2.1941781368316184
    vertex 67.86964166792639 95.12677048120445 2.1941781368316184
  endloop
endfacet
facet normal 0.004837991750163785 -0.6737267080482965 0.7389647601193382
  outer loop
    vertex 67.86905908340977 107.22916456968646 2.1051929856271867
    vertex 60.062803137751615 107.3267704812044 2.2452893973980133
    vertex 60.062220553235015 107.22916456968646 2.1563042461935873
  endloop
endfacet
facet normal 0.004837991750163785 -0.6737267080482965 0.7389647601193382
  outer loop
    vertex 60.062803137751615 107.3267704812044 2.2452893973980133
    vertex 67.86905908340977 107.22916456968646 2.1051929856271867
    vertex 67.86964166792639 107.32677048120442 2.1941781368316127
  endloop
endfacet
facet normal 0.006546845437177998 2.024550282295404e-18 0.999978569177771
  outer loop
    vertex 67.8696416679264 110.32677048120445 2.1941781368316127
    vertex 60.06280313775164 113.12677048120439 2.245289397398019
    vertex 60.06280313775162 110.32677048120442 2.245289397398019
  endloop
endfacet
facet normal 0.006546845437177998 2.024550282295404e-18 0.999978569177771
  outer loop
    vertex 60.06280313775164 113.12677048120439 2.245289397398019
    vertex 67.8696416679264 110.32677048120445 2.1941781368316127
    vertex 67.86964166792639 113.12677048120442 2.1941781368316184
  endloop
endfacet
facet normal 0.004837991750163785 -0.6737267080482965 0.7389647601193382
  outer loop
    vertex 67.86905908340978 110.22916456968646 2.1051929856271867
    vertex 60.06280313775162 110.32677048120442 2.245289397398019
    vertex 60.062220553235015 110.22916456968646 2.1563042461935873
  endloop
endfacet
facet normal 0.004837991750163785 -0.6737267080482965 0.7389647601193382
  outer loop
    vertex 60.06280313775162 110.32677048120442 2.245289397398019
    vertex 67.86905908340978 110.22916456968646 2.1051929856271867
    vertex 67.8696416679264 110.32677048120445 2.1941781368316127
  endloop
endfacet
facet normal 0.0049415108995833346 0.655963441349574 0.7547764868375626
  outer loop
    vertex 60.062803137751615 89.12677048120443 2.245289397398019
    vertex 67.86905908340977 89.22916456968649 2.1051929856271867
    vertex 60.062220553235 89.22916456968649 2.1563042461935873
  endloop
endfacet
facet normal 0.0049415108995833346 0.655963441349574 0.7547764868375626
  outer loop
    vertex 67.86905908340977 89.22916456968649 2.1051929856271867
    vertex 60.062803137751615 89.12677048120443 2.245289397398019
    vertex 67.86964166792637 89.12677048120446 2.194178136831624
  endloop
endfacet
facet normal 0.006546845437177998 2.024550282295404e-18 0.999978569177771
  outer loop
    vertex 60.06280313775162 101.32677048120442 2.2452893973980133
    vertex 67.86964166792637 104.12677048120446 2.194178136831624
    vertex 60.062803137751615 104.12677048120443 2.245289397398019
  endloop
endfacet
facet normal 0.006546845437177998 2.024550282295404e-18 0.999978569177771
  outer loop
    vertex 67.86964166792637 104.12677048120446 2.194178136831624
    vertex 60.06280313775162 101.32677048120442 2.2452893973980133
    vertex 67.86964166792637 101.32677048120446 2.194178136831624
  endloop
endfacet
facet normal 0.0049415108995833346 0.655963441349574 0.7547764868375626
  outer loop
    vertex 60.062803137751615 110.12677048120442 2.245289397398019
    vertex 67.86905908340978 110.22916456968646 2.1051929856271867
    vertex 60.062220553235015 110.22916456968646 2.1563042461935873
  endloop
endfacet
facet normal 0.0049415108995833346 0.655963441349574 0.7547764868375626
  outer loop
    vertex 67.86905908340978 110.22916456968646 2.1051929856271867
    vertex 60.062803137751615 110.12677048120442 2.245289397398019
    vertex 67.86964166792639 110.12677048120445 2.1941781368316184
  endloop
endfacet
facet normal 0.004837991750163785 -0.6737267080482965 0.7389647601193382
  outer loop
    vertex 67.86905908340977 92.22916456968649 2.1051929856271867
    vertex 60.0628031377516 92.32677048120445 2.245289397398019
    vertex 60.062220553235 92.22916456968649 2.1563042461935873
  endloop
endfacet
facet normal 0.004837991750163785 -0.6737267080482965 0.7389647601193382
  outer loop
    vertex 60.0628031377516 92.32677048120445 2.245289397398019
    vertex 67.86905908340977 92.22916456968649 2.1051929856271867
    vertex 67.86964166792637 92.32677048120445 2.1941781368316184
  endloop
endfacet
facet normal 0.0049415108995833346 0.655963441349574 0.7547764868375626
  outer loop
    vertex 60.062803137751615 119.22677048120445 2.2452893973980133
    vertex 67.86905908340977 119.32916456968647 2.1051929856271867
    vertex 60.062220553235 119.32916456968647 2.1563042461935873
  endloop
endfacet
facet normal 0.0049415108995833346 0.655963441349574 0.7547764868375626
  outer loop
    vertex 67.86905908340977 119.32916456968647 2.1051929856271867
    vertex 60.062803137751615 119.22677048120445 2.2452893973980133
    vertex 67.86964166792639 119.22677048120445 2.194178136831624
  endloop
endfacet
facet normal 0.0049415108995833346 0.655963441349574 0.7547764868375626
  outer loop
    vertex 60.062803137751615 86.12677048120446 2.245289397398019
    vertex 67.86905908340977 86.2291645696865 2.1051929856271814
    vertex 60.062220553235015 86.2291645696865 2.1563042461935873
  endloop
endfacet
facet normal 0.0049415108995833346 0.655963441349574 0.7547764868375626
  outer loop
    vertex 67.86905908340977 86.2291645696865 2.1051929856271814
    vertex 60.062803137751615 86.12677048120446 2.245289397398019
    vertex 67.86964166792637 86.12677048120446 2.194178136831624
  endloop
endfacet
facet normal 0.004837991750163785 -0.6737267080482965 0.7389647601193382
  outer loop
    vertex 67.86905908340977 113.22916456968645 2.1051929856271867
    vertex 60.06280313775162 113.32677048120442 2.245289397398019
    vertex 60.062220553234994 113.22916456968645 2.1563042461935815
  endloop
endfacet
facet normal 0.004837991750163785 -0.6737267080482965 0.7389647601193382
  outer loop
    vertex 60.06280313775162 113.32677048120442 2.245289397398019
    vertex 67.86905908340977 113.22916456968645 2.1051929856271867
    vertex 67.86964166792639 113.32677048120442 2.194178136831624
  endloop
endfacet
facet normal 0.006546845437177998 2.024550282295404e-18 0.999978569177771
  outer loop
    vertex 60.06280313775162 83.32677048120446 2.245289397398019
    vertex 67.86964166792637 86.12677048120446 2.194178136831624
    vertex 60.062803137751615 86.12677048120446 2.245289397398019
  endloop
endfacet
facet normal 0.006546845437177998 2.024550282295404e-18 0.999978569177771
  outer loop
    vertex 67.86964166792637 86.12677048120446 2.194178136831624
    vertex 60.06280313775162 83.32677048120446 2.245289397398019
    vertex 67.86964166792637 83.32677048120446 2.194178136831624
  endloop
endfacet
facet normal 0.0049415108995833346 0.655963441349574 0.7547764868375626
  outer loop
    vertex 60.06280313775162 92.12677048120443 2.245289397398019
    vertex 67.86905908340977 92.22916456968649 2.1051929856271867
    vertex 60.062220553235 92.22916456968649 2.1563042461935873
  endloop
endfacet
facet normal 0.0049415108995833346 0.655963441349574 0.7547764868375626
  outer loop
    vertex 67.86905908340977 92.22916456968649 2.1051929856271867
    vertex 60.06280313775162 92.12677048120443 2.245289397398019
    vertex 67.86964166792639 92.12677048120443 2.1941781368316184
  endloop
endfacet
facet normal 0.004837991750163785 -0.6737267080482965 0.7389647601193382
  outer loop
    vertex 67.86905908340977 119.32916456968647 2.1051929856271867
    vertex 60.06280313775164 119.42677048120443 2.2452893973980133
    vertex 60.062220553235 119.32916456968647 2.1563042461935873
  endloop
endfacet
facet normal 0.004837991750163785 -0.6737267080482965 0.7389647601193382
  outer loop
    vertex 60.06280313775164 119.42677048120443 2.2452893973980133
    vertex 67.86905908340977 119.32916456968647 2.1051929856271867
    vertex 67.8696416679264 119.42677048120443 2.1941781368316184
  endloop
endfacet
facet normal 0.006546845437177998 2.024550282295404e-18 0.999978569177771
  outer loop
    vertex 67.86964166792639 107.32677048120442 2.1941781368316127
    vertex 60.062803137751615 110.12677048120442 2.245289397398019
    vertex 60.062803137751615 107.3267704812044 2.2452893973980133
  endloop
endfacet
facet normal 0.006546845437177998 2.024550282295404e-18 0.999978569177771
  outer loop
    vertex 60.062803137751615 110.12677048120442 2.245289397398019
    vertex 67.86964166792639 107.32677048120442 2.1941781368316127
    vertex 67.86964166792639 110.12677048120445 2.1941781368316184
  endloop
endfacet
facet normal -0.006546845437177998 -2.024550282295404e-18 -0.999978569177771
  outer loop
    vertex 67.86309482248923 122.32677048120445 1.1941995676538506
    vertex 60.05625629231448 83.32677048120449 1.245310828220251
    vertex 60.056256292314444 122.32677048120446 1.2453108282202454
  endloop
endfacet
facet normal -0.006546845437177998 -2.024550282295404e-18 -0.999978569177771
  outer loop
    vertex 60.05625629231448 83.32677048120449 1.245310828220251
    vertex 67.86309482248923 122.32677048120445 1.1941995676538506
    vertex 67.86309482248923 83.32677048120446 1.1941995676538506
  endloop
endfacet
facet normal 0.006546845437177998 2.024550282295404e-18 0.999978569177771
  outer loop
    vertex 67.86964166792639 86.32677048120449 2.194178136831624
    vertex 60.062803137751615 89.12677048120443 2.245289397398019
    vertex 60.062803137751615 86.32677048120445 2.245289397398019
  endloop
endfacet
facet normal 0.006546845437177998 2.024550282295404e-18 0.999978569177771
  outer loop
    vertex 60.062803137751615 89.12677048120443 2.245289397398019
    vertex 67.86964166792639 86.32677048120449 2.194178136831624
    vertex 67.86964166792637 89.12677048120446 2.194178136831624
  endloop
endfacet
facet normal 0.004837991750163785 -0.6737267080482965 0.7389647601193382
  outer loop
    vertex 67.86905908340977 86.2291645696865 2.1051929856271814
    vertex 60.062803137751615 86.32677048120445 2.245289397398019
    vertex 60.062220553235015 86.2291645696865 2.1563042461935873
  endloop
endfacet
facet normal 0.004837991750163785 -0.6737267080482965 0.7389647601193382
  outer loop
    vertex 60.062803137751615 86.32677048120445 2.245289397398019
    vertex 67.86905908340977 86.2291645696865 2.1051929856271814
    vertex 67.86964166792639 86.32677048120449 2.194178136831624
  endloop
endfacet
facet normal 0.006546845437177998 2.024550282295404e-18 0.999978569177771
  outer loop
    vertex 60.06280313775164 119.42677048120443 2.2452893973980133
    vertex 67.86964166792639 122.32677048120446 2.1941781368316184
    vertex 60.062803137751615 122.32677048120446 2.2452893973980133
  endloop
endfacet
facet normal 0.006546845437177998 2.024550282295404e-18 0.999978569177771
  outer loop
    vertex 67.86964166792639 122.32677048120446 2.1941781368316184
    vertex 60.06280313775164 119.42677048120443 2.2452893973980133
    vertex 67.8696416679264 119.42677048120443 2.1941781368316184
  endloop
endfacet
facet normal 0.0049415108995833346 0.655963441349574 0.7547764868375626
  outer loop
    vertex 60.062803137751615 98.12677048120446 2.245289397398019
    vertex 67.86905908340977 98.22916456968647 2.1051929856271867
    vertex 60.062220553235015 98.22916456968647 2.1563042461935815
  endloop
endfacet
facet normal 0.0049415108995833346 0.655963441349574 0.7547764868375626
  outer loop
    vertex 67.86905908340977 98.22916456968647 2.1051929856271867
    vertex 60.062803137751615 98.12677048120446 2.245289397398019
    vertex 67.86964166792639 98.12677048120446 2.1941781368316184
  endloop
endfacet
facet normal -0.8660254037844242 -0.5000000000000253 1.1677871467078407e-17
  outer loop
    vertex 62.227624751908564 101.82677048521884 1.295691000000003
    vertex 62.54546199710433 101.41255692284577 -1.9999999999999998
    vertex 62.54546199710433 101.41255692284577 1.295691000000003
  endloop
endfacet
facet normal -0.7071067811865316 -0.7071067811865633 9.331332631284268e-18
  outer loop
    vertex 62.54546199710433 101.41255692284577 -1.9999999999999998
    vertex 62.227624751908564 101.82677048521884 1.295691000000003
    vertex 62.227624751908564 101.82677048521884 -1.9999999999999998
  endloop
endfacet
facet normal 0.5000000000000169 -0.8660254037844289 -7.528908910390058e-18
  outer loop
    vertex 64.95967555947746 101.09471967765 1.295691000000003
    vertex 64.47731364968249 100.89491883264076 -1.9999999999999998
    vertex 64.95967555947746 101.09471967765 -1.9999999999999998
  endloop
endfacet
facet normal 0.25881904510249726 -0.9659258262890748 -4.24991201838384e-18
  outer loop
    vertex 64.47731364968249 100.89491883264076 -1.9999999999999998
    vertex 64.95967555947746 101.09471967765 1.295691000000003
    vertex 64.47731364968249 100.89491883264076 1.295691000000003
  endloop
endfacet
facet normal 1.0 2.434365686363581e-17 -1.3877787807814457e-17
  outer loop
    vertex 65.95967555947742 102.82677048521892 -1.9999999999999998
    vertex 65.89152721205559 102.30913239501388 1.295691000000003
    vertex 65.89152721205559 102.30913239501388 -1.9999999999999998
  endloop
endfacet
facet normal 0.9659258262890692 -0.25881904510251796 -1.3581244649668673e-17
  outer loop
    vertex 65.89152721205559 102.30913239501388 1.295691000000003
    vertex 65.95967555947742 102.82677048521892 -1.9999999999999998
    vertex 65.95967555947742 102.82677048521892 1.295691000000003
  endloop
endfacet
facet normal -0.25881904510249726 0.9659258262890748 4.24991201838384e-18
  outer loop
    vertex 63.442037469272364 104.75862213779703 1.295691000000003
    vertex 63.959675559477425 104.82677048521889 -1.9999999999999998
    vertex 63.442037469272364 104.75862213779703 -1.9999999999999998
  endloop
endfacet
facet normal -1.0125410514278136e-14 1.0 6.812906456374394e-19
  outer loop
    vertex 63.959675559477425 104.82677048521889 -1.9999999999999998
    vertex 63.442037469272364 104.75862213779703 1.295691000000003
    vertex 63.959675559477425 104.82677048521889 1.295691000000003
  endloop
endfacet
facet normal -0.9659258262890691 -0.25881904510251796 1.3228582660986425e-17
  outer loop
    vertex 62.027823906899265 102.30913239501382 1.2956910000000033
    vertex 62.227624751908564 101.82677048521884 -1.9999999999999998
    vertex 62.227624751908564 101.82677048521884 1.295691000000003
  endloop
endfacet
facet normal -0.866025403784424 -0.5000000000000254 1.1677871467078406e-17
  outer loop
    vertex 62.227624751908564 101.82677048521884 -1.9999999999999998
    vertex 62.027823906899265 102.30913239501382 1.2956910000000033
    vertex 62.027823906899265 102.30913239501382 -1.9999999999999998
  endloop
endfacet
facet normal 0.8660254037844307 -0.5000000000000139 -1.2359162112715823e-17
  outer loop
    vertex 65.69172636704629 101.8267704852189 -1.9999999999999998
    vertex 65.37388912185052 101.4125569228458 1.295691000000003
    vertex 65.37388912185052 101.4125569228458 -1.9999999999999998
  endloop
endfacet
facet normal 0.7071067811865782 -0.707106781186517 -1.0294823102263093e-17
  outer loop
    vertex 65.37388912185052 101.4125569228458 1.295691000000003
    vertex 65.69172636704629 101.8267704852189 -1.9999999999999998
    vertex 65.69172636704629 101.8267704852189 1.295691000000003
  endloop
endfacet
facet normal 0.7071067811865316 0.7071067811865633 -9.331332631284268e-18
  outer loop
    vertex 65.37388912185052 104.24098404759201 -1.9999999999999998
    vertex 65.69172636704629 103.82677048521893 1.295691000000003
    vertex 65.69172636704629 103.82677048521893 -1.9999999999999998
  endloop
endfacet
facet normal 0.866025403784424 0.5000000000000254 -1.1677871467078406e-17
  outer loop
    vertex 65.69172636704629 103.82677048521893 1.295691000000003
    vertex 65.37388912185052 104.24098404759201 -1.9999999999999998
    vertex 65.37388912185052 104.24098404759201 1.295691000000003
  endloop
endfacet
facet normal -1.0 -2.434365686363581e-17 1.3877787807814457e-17
  outer loop
    vertex 61.95967555947744 102.82677048521887 1.2956910000000033
    vertex 62.027823906899265 102.30913239501382 -1.9999999999999998
    vertex 62.027823906899265 102.30913239501382 1.2956910000000033
  endloop
endfacet
facet normal -0.9659258262890692 -0.25881904510251796 1.3228582660986426e-17
  outer loop
    vertex 62.027823906899265 102.30913239501382 -1.9999999999999998
    vertex 61.95967555947744 102.82677048521887 1.2956910000000033
    vertex 61.95967555947744 102.82677048521887 -1.9999999999999998
  endloop
endfacet
facet normal 2.140687564216703e-14 -1.0 -6.812906456375961e-19
  outer loop
    vertex 63.959675559477425 100.8267704852189 1.295691000000003
    vertex 63.442037469272364 100.89491883264073 -1.9999999999999998
    vertex 63.959675559477425 100.8267704852189 -1.9999999999999998
  endloop
endfacet
facet normal -0.2588190451025084 -0.9659258262890716 2.9337595587235483e-18
  outer loop
    vertex 63.442037469272364 100.89491883264073 -1.9999999999999998
    vertex 63.959675559477425 100.8267704852189 1.295691000000003
    vertex 63.442037469272364 100.89491883264073 1.295691000000003
  endloop
endfacet
facet normal -0.8660254037844307 0.5000000000000139 1.2359162112715823e-17
  outer loop
    vertex 62.227624751908564 103.82677048521889 1.2956910000000033
    vertex 62.027823906899265 103.34440857542391 -1.9999999999999998
    vertex 62.027823906899265 103.34440857542391 1.2956910000000033
  endloop
endfacet
facet normal -0.9659258262890692 0.25881904510251796 1.3581244649668673e-17
  outer loop
    vertex 62.027823906899265 103.34440857542391 -1.9999999999999998
    vertex 62.227624751908564 103.82677048521889 1.2956910000000033
    vertex 62.227624751908564 103.82677048521889 -1.9999999999999998
  endloop
endfacet
facet normal -0.2588190451025084 -0.9659258262890716 2.9337595587235483e-18
  outer loop
    vertex 63.442037469272364 100.89491883264073 1.295691000000003
    vertex 62.95967555947748 101.09471967764998 -1.9999999999999998
    vertex 63.442037469272364 100.89491883264073 -1.9999999999999998
  endloop
endfacet
facet normal -0.5 -0.8660254037844387 6.348878897424627e-18
  outer loop
    vertex 62.95967555947748 101.09471967764998 -1.9999999999999998
    vertex 63.442037469272364 100.89491883264073 1.295691000000003
    vertex 62.95967555947748 101.09471967764998 1.295691000000003
  endloop
endfacet
facet normal -0.5000000000000169 0.8660254037844289 7.528908910390058e-18
  outer loop
    vertex 62.95967555947739 104.55882129278778 1.295691000000003
    vertex 63.442037469272364 104.75862213779703 -1.9999999999999998
    vertex 62.95967555947739 104.55882129278778 -1.9999999999999998
  endloop
endfacet
facet normal -0.25881904510249726 0.9659258262890748 4.24991201838384e-18
  outer loop
    vertex 63.442037469272364 104.75862213779703 -1.9999999999999998
    vertex 62.95967555947739 104.55882129278778 1.295691000000003
    vertex 63.442037469272364 104.75862213779703 1.295691000000003
  endloop
endfacet
facet normal -0.7071067811865781 0.7071067811865168 1.0294823102263091e-17
  outer loop
    vertex 62.54546199710433 104.240984047592 1.295691000000003
    vertex 62.95967555947739 104.55882129278778 -1.9999999999999998
    vertex 62.54546199710433 104.240984047592 -1.9999999999999998
  endloop
endfacet
facet normal -0.5000000000000169 0.8660254037844289 7.528908910390058e-18
  outer loop
    vertex 62.95967555947739 104.55882129278778 -1.9999999999999998
    vertex 62.54546199710433 104.240984047592 1.295691000000003
    vertex 62.95967555947739 104.55882129278778 1.295691000000003
  endloop
endfacet
facet normal -0.7071067811865781 0.7071067811865168 1.0294823102263091e-17
  outer loop
    vertex 62.54546199710433 104.240984047592 1.295691000000003
    vertex 62.227624751908564 103.82677048521889 -1.9999999999999998
    vertex 62.227624751908564 103.82677048521889 1.2956910000000033
  endloop
endfacet
facet normal -0.8660254037844307 0.5000000000000139 1.2359162112715823e-17
  outer loop
    vertex 62.227624751908564 103.82677048521889 -1.9999999999999998
    vertex 62.54546199710433 104.240984047592 1.295691000000003
    vertex 62.54546199710433 104.240984047592 -1.9999999999999998
  endloop
endfacet
facet normal -0.5 -0.8660254037844387 6.348878897424627e-18
  outer loop
    vertex 62.95967555947748 101.09471967764998 1.295691000000003
    vertex 62.54546199710433 101.41255692284577 -1.9999999999999998
    vertex 62.95967555947748 101.09471967764998 -1.9999999999999998
  endloop
endfacet
facet normal -0.7071067811865316 -0.7071067811865633 9.331332631284268e-18
  outer loop
    vertex 62.54546199710433 101.41255692284577 -1.9999999999999998
    vertex 62.95967555947748 101.09471967764998 1.295691000000003
    vertex 62.54546199710433 101.41255692284577 1.295691000000003
  endloop
endfacet
facet normal -0.9659258262890692 0.25881904510251796 1.3581244649668673e-17
  outer loop
    vertex 62.027823906899265 103.34440857542391 1.2956910000000033
    vertex 61.95967555947744 102.82677048521887 -1.9999999999999998
    vertex 61.95967555947744 102.82677048521887 1.2956910000000033
  endloop
endfacet
facet normal -1.0 -2.434365686363581e-17 1.3877787807814457e-17
  outer loop
    vertex 61.95967555947744 102.82677048521887 -1.9999999999999998
    vertex 62.027823906899265 103.34440857542391 1.2956910000000033
    vertex 62.027823906899265 103.34440857542391 -1.9999999999999998
  endloop
endfacet
facet normal 0.49999999999997136 0.8660254037844554 -6.348878897424218e-18
  outer loop
    vertex 64.95967555947738 104.55882129278781 1.295691000000003
    vertex 65.37388912185052 104.24098404759201 -1.9999999999999998
    vertex 64.95967555947738 104.55882129278781 -1.9999999999999998
  endloop
endfacet
facet normal 0.7071067811865316 0.7071067811865633 -9.331332631284268e-18
  outer loop
    vertex 65.37388912185052 104.24098404759201 -1.9999999999999998
    vertex 64.95967555947738 104.55882129278781 1.295691000000003
    vertex 65.37388912185052 104.24098404759201 1.295691000000003
  endloop
endfacet
facet normal 0.9659258262890692 0.25881904510251796 -1.3228582660986426e-17
  outer loop
    vertex 65.89152721205559 103.34440857542396 -1.9999999999999998
    vertex 65.95967555947742 102.82677048521892 1.295691000000003
    vertex 65.95967555947742 102.82677048521892 -1.9999999999999998
  endloop
endfacet
facet normal 1.0 2.434365686363581e-17 -1.3877787807814457e-17
  outer loop
    vertex 65.95967555947742 102.82677048521892 1.295691000000003
    vertex 65.89152721205559 103.34440857542396 -1.9999999999999998
    vertex 65.89152721205559 103.34440857542396 1.295691000000003
  endloop
endfacet
facet normal 0.25881904510249726 -0.9659258262890748 -4.24991201838384e-18
  outer loop
    vertex 64.47731364968249 100.89491883264076 1.295691000000003
    vertex 63.959675559477425 100.8267704852189 -1.9999999999999998
    vertex 64.47731364968249 100.89491883264076 -1.9999999999999998
  endloop
endfacet
facet normal 2.140687564216703e-14 -1.0 -6.812906456375961e-19
  outer loop
    vertex 63.959675559477425 100.8267704852189 -1.9999999999999998
    vertex 64.47731364968249 100.89491883264076 1.295691000000003
    vertex 63.959675559477425 100.8267704852189 1.295691000000003
  endloop
endfacet
facet normal 0.9659258262890692 -0.25881904510251796 -1.3581244649668673e-17
  outer loop
    vertex 65.89152721205559 102.30913239501388 -1.9999999999999998
    vertex 65.69172636704629 101.8267704852189 1.295691000000003
    vertex 65.69172636704629 101.8267704852189 -1.9999999999999998
  endloop
endfacet
facet normal 0.8660254037844307 -0.5000000000000139 -1.2359162112715823e-17
  outer loop
    vertex 65.69172636704629 101.8267704852189 1.295691000000003
    vertex 65.89152721205559 102.30913239501388 -1.9999999999999998
    vertex 65.89152721205559 102.30913239501388 1.295691000000003
  endloop
endfacet
facet normal 0.866025403784424 0.5000000000000254 -1.1677871467078406e-17
  outer loop
    vertex 65.69172636704629 103.82677048521893 -1.9999999999999998
    vertex 65.89152721205559 103.34440857542396 1.295691000000003
    vertex 65.89152721205559 103.34440857542396 -1.9999999999999998
  endloop
endfacet
facet normal 0.9659258262890692 0.25881904510251796 -1.3228582660986426e-17
  outer loop
    vertex 65.89152721205559 103.34440857542396 1.295691000000003
    vertex 65.69172636704629 103.82677048521893 -1.9999999999999998
    vertex 65.69172636704629 103.82677048521893 1.295691000000003
  endloop
endfacet
facet normal -1.387778780781445e-17 6.812906456372984e-19 1.0
  outer loop
    vertex 62.027823906899265 102.30913239501382 1.2956910000000033
    vertex 62.027823906899265 103.34440857542391 1.2956910000000033
    vertex 61.95967555947744 102.82677048521887 1.2956910000000033
  endloop
endfacet
facet normal -1.387778780781445e-17 6.812906456372984e-19 1.0
  outer loop
    vertex 62.027823906899265 103.34440857542391 1.2956910000000033
    vertex 62.027823906899265 102.30913239501382 1.2956910000000033
    vertex 62.227624751908564 101.82677048521884 1.295691000000003
  endloop
endfacet
facet normal -1.387778780781445e-17 6.812906456372984e-19 1.0
  outer loop
    vertex 62.027823906899265 103.34440857542391 1.2956910000000033
    vertex 62.227624751908564 101.82677048521884 1.295691000000003
    vertex 62.227624751908564 103.82677048521889 1.2956910000000033
  endloop
endfacet
facet normal -1.387778780781445e-17 6.812906456372984e-19 1.0
  outer loop
    vertex 62.227624751908564 103.82677048521889 1.2956910000000033
    vertex 62.227624751908564 101.82677048521884 1.295691000000003
    vertex 62.54546199710433 101.41255692284577 1.295691000000003
  endloop
endfacet
facet normal -1.387778780781445e-17 6.812906456372984e-19 1.0
  outer loop
    vertex 62.227624751908564 103.82677048521889 1.2956910000000033
    vertex 62.54546199710433 101.41255692284577 1.295691000000003
    vertex 62.54546199710433 104.240984047592 1.295691000000003
  endloop
endfacet
facet normal -1.387778780781445e-17 6.812906456372984e-19 1.0
  outer loop
    vertex 62.54546199710433 104.240984047592 1.295691000000003
    vertex 62.54546199710433 101.41255692284577 1.295691000000003
    vertex 62.95967555947748 101.09471967764998 1.295691000000003
  endloop
endfacet
facet normal -1.387778780781445e-17 6.812906456372984e-19 1.0
  outer loop
    vertex 62.54546199710433 104.240984047592 1.295691000000003
    vertex 62.95967555947748 101.09471967764998 1.295691000000003
    vertex 62.95967555947739 104.55882129278778 1.295691000000003
  endloop
endfacet
facet normal -1.387778780781445e-17 6.812906456372984e-19 1.0
  outer loop
    vertex 62.95967555947739 104.55882129278778 1.295691000000003
    vertex 62.95967555947748 101.09471967764998 1.295691000000003
    vertex 63.442037469272364 104.75862213779703 1.295691000000003
  endloop
endfacet
facet normal -1.387778780781445e-17 6.812906456372984e-19 1.0
  outer loop
    vertex 63.442037469272364 104.75862213779703 1.295691000000003
    vertex 62.95967555947748 101.09471967764998 1.295691000000003
    vertex 63.442037469272364 100.89491883264073 1.295691000000003
  endloop
endfacet
facet normal -1.387778780781445e-17 6.812906456372984e-19 1.0
  outer loop
    vertex 63.442037469272364 104.75862213779703 1.295691000000003
    vertex 63.442037469272364 100.89491883264073 1.295691000000003
    vertex 63.959675559477425 100.8267704852189 1.295691000000003
  endloop
endfacet
facet normal -1.387778780781445e-17 6.812906456372984e-19 1.0
  outer loop
    vertex 63.442037469272364 104.75862213779703 1.295691000000003
    vertex 63.959675559477425 100.8267704852189 1.295691000000003
    vertex 63.959675559477425 104.82677048521889 1.295691000000003
  endloop
endfacet
facet normal -1.387778780781445e-17 6.812906456372984e-19 1.0
  outer loop
    vertex 63.959675559477425 104.82677048521889 1.295691000000003
    vertex 63.959675559477425 100.8267704852189 1.295691000000003
    vertex 64.47731364968249 100.89491883264076 1.295691000000003
  endloop
endfacet
facet normal -1.387778780781445e-17 6.812906456372984e-19 1.0
  outer loop
    vertex 63.959675559477425 104.82677048521889 1.295691000000003
    vertex 64.47731364968249 100.89491883264076 1.295691000000003
    vertex 64.4773136496824 104.75862213779706 1.295691000000003
  endloop
endfacet
facet normal -1.387778780781445e-17 6.812906456372984e-19 1.0
  outer loop
    vertex 64.4773136496824 104.75862213779706 1.295691000000003
    vertex 64.47731364968249 100.89491883264076 1.295691000000003
    vertex 64.95967555947738 104.55882129278781 1.295691000000003
  endloop
endfacet
facet normal -1.387778780781445e-17 6.812906456372984e-19 1.0
  outer loop
    vertex 64.95967555947738 104.55882129278781 1.295691000000003
    vertex 64.47731364968249 100.89491883264076 1.295691000000003
    vertex 64.95967555947746 101.09471967765 1.295691000000003
  endloop
endfacet
facet normal -1.387778780781445e-17 6.812906456372984e-19 1.0
  outer loop
    vertex 64.95967555947738 104.55882129278781 1.295691000000003
    vertex 64.95967555947746 101.09471967765 1.295691000000003
    vertex 65.37388912185052 104.24098404759201 1.295691000000003
  endloop
endfacet
facet normal -1.387778780781445e-17 6.812906456372984e-19 1.0
  outer loop
    vertex 65.37388912185052 104.24098404759201 1.295691000000003
    vertex 64.95967555947746 101.09471967765 1.295691000000003
    vertex 65.37388912185052 101.4125569228458 1.295691000000003
  endloop
endfacet
facet normal -1.387778780781445e-17 6.812906456372984e-19 1.0
  outer loop
    vertex 65.37388912185052 104.24098404759201 1.295691000000003
    vertex 65.37388912185052 101.4125569228458 1.295691000000003
    vertex 65.69172636704629 101.8267704852189 1.295691000000003
  endloop
endfacet
facet normal -1.387778780781445e-17 6.812906456372984e-19 1.0
  outer loop
    vertex 65.37388912185052 104.24098404759201 1.295691000000003
    vertex 65.69172636704629 101.8267704852189 1.295691000000003
    vertex 65.69172636704629 103.82677048521893 1.295691000000003
  endloop
endfacet
facet normal -1.387778780781445e-17 6.812906456372984e-19 1.0
  outer loop
    vertex 65.69172636704629 103.82677048521893 1.295691000000003
    vertex 65.69172636704629 101.8267704852189 1.295691000000003
    vertex 65.89152721205559 102.30913239501388 1.295691000000003
  endloop
endfacet
facet normal -1.387778780781445e-17 6.812906456372984e-19 1.0
  outer loop
    vertex 65.69172636704629 103.82677048521893 1.295691000000003
    vertex 65.89152721205559 102.30913239501388 1.295691000000003
    vertex 65.89152721205559 103.34440857542396 1.295691000000003
  endloop
endfacet
facet normal -1.387778780781445e-17 6.812906456372984e-19 1.0
  outer loop
    vertex 65.89152721205559 103.34440857542396 1.295691000000003
    vertex 65.89152721205559 102.30913239501388 1.295691000000003
    vertex 65.95967555947742 102.82677048521892 1.295691000000003
  endloop
endfacet
facet normal 1.387778780781445e-17 -6.812906456372984e-19 -1.0
  outer loop
    vertex 62.027823906899265 103.34440857542391 -1.9999999999999998
    vertex 62.027823906899265 102.30913239501382 -1.9999999999999998
    vertex 61.95967555947744 102.82677048521887 -1.9999999999999998
  endloop
endfacet
facet normal 1.387778780781445e-17 -6.812906456372984e-19 -1.0
  outer loop
    vertex 62.027823906899265 102.30913239501382 -1.9999999999999998
    vertex 62.027823906899265 103.34440857542391 -1.9999999999999998
    vertex 62.227624751908564 103.82677048521889 -1.9999999999999998
  endloop
endfacet
facet normal 1.387778780781445e-17 -6.812906456372984e-19 -1.0
  outer loop
    vertex 62.027823906899265 102.30913239501382 -1.9999999999999998
    vertex 62.227624751908564 103.82677048521889 -1.9999999999999998
    vertex 62.227624751908564 101.82677048521884 -1.9999999999999998
  endloop
endfacet
facet normal 1.387778780781445e-17 -6.812906456372984e-19 -1.0
  outer loop
    vertex 62.227624751908564 101.82677048521884 -1.9999999999999998
    vertex 62.227624751908564 103.82677048521889 -1.9999999999999998
    vertex 62.54546199710433 104.240984047592 -1.9999999999999998
  endloop
endfacet
facet normal 1.387778780781445e-17 -6.812906456372984e-19 -1.0
  outer loop
    vertex 62.227624751908564 101.82677048521884 -1.9999999999999998
    vertex 62.54546199710433 104.240984047592 -1.9999999999999998
    vertex 62.54546199710433 101.41255692284577 -1.9999999999999998
  endloop
endfacet
facet normal 1.387778780781445e-17 -6.812906456372984e-19 -1.0
  outer loop
    vertex 62.54546199710433 101.41255692284577 -1.9999999999999998
    vertex 62.54546199710433 104.240984047592 -1.9999999999999998
    vertex 62.95967555947739 104.55882129278778 -1.9999999999999998
  endloop
endfacet
facet normal 1.387778780781445e-17 -6.812906456372984e-19 -1.0
  outer loop
    vertex 62.54546199710433 101.41255692284577 -1.9999999999999998
    vertex 62.95967555947739 104.55882129278778 -1.9999999999999998
    vertex 62.95967555947748 101.09471967764998 -1.9999999999999998
  endloop
endfacet
facet normal 1.387778780781445e-17 -6.812906456372984e-19 -1.0
  outer loop
    vertex 62.95967555947748 101.09471967764998 -1.9999999999999998
    vertex 62.95967555947739 104.55882129278778 -1.9999999999999998
    vertex 63.442037469272364 104.75862213779703 -1.9999999999999998
  endloop
endfacet
facet normal 1.387778780781445e-17 -6.812906456372984e-19 -1.0
  outer loop
    vertex 62.95967555947748 101.09471967764998 -1.9999999999999998
    vertex 63.442037469272364 104.75862213779703 -1.9999999999999998
    vertex 63.442037469272364 100.89491883264073 -1.9999999999999998
  endloop
endfacet
facet normal 1.387778780781445e-17 -6.812906456372984e-19 -1.0
  outer loop
    vertex 63.442037469272364 100.89491883264073 -1.9999999999999998
    vertex 63.442037469272364 104.75862213779703 -1.9999999999999998
    vertex 63.959675559477425 104.82677048521889 -1.9999999999999998
  endloop
endfacet
facet normal 1.387778780781445e-17 -6.812906456372984e-19 -1.0
  outer loop
    vertex 63.442037469272364 100.89491883264073 -1.9999999999999998
    vertex 63.959675559477425 104.82677048521889 -1.9999999999999998
    vertex 63.959675559477425 100.8267704852189 -1.9999999999999998
  endloop
endfacet
facet normal 1.387778780781445e-17 -6.812906456372984e-19 -1.0
  outer loop
    vertex 63.959675559477425 100.8267704852189 -1.9999999999999998
    vertex 63.959675559477425 104.82677048521889 -1.9999999999999998
    vertex 64.4773136496824 104.75862213779706 -1.9999999999999998
  endloop
endfacet
facet normal 1.387778780781445e-17 -6.812906456372984e-19 -1.0
  outer loop
    vertex 63.959675559477425 100.8267704852189 -1.9999999999999998
    vertex 64.4773136496824 104.75862213779706 -1.9999999999999998
    vertex 64.47731364968249 100.89491883264076 -1.9999999999999998
  endloop
endfacet
facet normal 1.387778780781445e-17 -6.812906456372984e-19 -1.0
  outer loop
    vertex 64.47731364968249 100.89491883264076 -1.9999999999999998
    vertex 64.4773136496824 104.75862213779706 -1.9999999999999998
    vertex 64.95967555947738 104.55882129278781 -1.9999999999999998
  endloop
endfacet
facet normal 1.387778780781445e-17 -6.812906456372984e-19 -1.0
  outer loop
    vertex 64.47731364968249 100.89491883264076 -1.9999999999999998
    vertex 64.95967555947738 104.55882129278781 -1.9999999999999998
    vertex 64.95967555947746 101.09471967765 -1.9999999999999998
  endloop
endfacet
facet normal 1.387778780781445e-17 -6.812906456372984e-19 -1.0
  outer loop
    vertex 64.95967555947746 101.09471967765 -1.9999999999999998
    vertex 64.95967555947738 104.55882129278781 -1.9999999999999998
    vertex 65.37388912185052 104.24098404759201 -1.9999999999999998
  endloop
endfacet
facet normal 1.387778780781445e-17 -6.812906456372984e-19 -1.0
  outer loop
    vertex 64.95967555947746 101.09471967765 -1.9999999999999998
    vertex 65.37388912185052 104.24098404759201 -1.9999999999999998
    vertex 65.37388912185052 101.4125569228458 -1.9999999999999998
  endloop
endfacet
facet normal 1.387778780781445e-17 -6.812906456372984e-19 -1.0
  outer loop
    vertex 65.37388912185052 101.4125569228458 -1.9999999999999998
    vertex 65.37388912185052 104.24098404759201 -1.9999999999999998
    vertex 65.69172636704629 103.82677048521893 -1.9999999999999998
  endloop
endfacet
facet normal 1.387778780781445e-17 -6.812906456372984e-19 -1.0
  outer loop
    vertex 65.37388912185052 101.4125569228458 -1.9999999999999998
    vertex 65.69172636704629 103.82677048521893 -1.9999999999999998
    vertex 65.69172636704629 101.8267704852189 -1.9999999999999998
  endloop
endfacet
facet normal 1.387778780781445e-17 -6.812906456372984e-19 -1.0
  outer loop
    vertex 65.69172636704629 101.8267704852189 -1.9999999999999998
    vertex 65.69172636704629 103.82677048521893 -1.9999999999999998
    vertex 65.89152721205559 103.34440857542396 -1.9999999999999998
  endloop
endfacet
facet normal 1.387778780781445e-17 -6.812906456372984e-19 -1.0
  outer loop
    vertex 65.69172636704629 101.8267704852189 -1.9999999999999998
    vertex 65.89152721205559 103.34440857542396 -1.9999999999999998
    vertex 65.89152721205559 102.30913239501388 -1.9999999999999998
  endloop
endfacet
facet normal 1.387778780781445e-17 -6.812906456372984e-19 -1.0
  outer loop
    vertex 65.89152721205559 102.30913239501388 -1.9999999999999998
    vertex 65.89152721205559 103.34440857542396 -1.9999999999999998
    vertex 65.95967555947742 102.82677048521892 -1.9999999999999998
  endloop
endfacet
facet normal 0.2588190451024875 0.9659258262890774 -2.933759558723254e-18
  outer loop
    vertex 64.4773136496824 104.75862213779706 1.295691000000003
    vertex 64.95967555947738 104.55882129278781 -1.9999999999999998
    vertex 64.4773136496824 104.75862213779706 -1.9999999999999998
  endloop
endfacet
facet normal 0.49999999999997136 0.8660254037844554 -6.348878897424218e-18
  outer loop
    vertex 64.95967555947738 104.55882129278781 -1.9999999999999998
    vertex 64.4773136496824 104.75862213779706 1.295691000000003
    vertex 64.95967555947738 104.55882129278781 1.295691000000003
  endloop
endfacet
facet normal 0.7071067811865782 -0.707106781186517 -1.0294823102263093e-17
  outer loop
    vertex 65.37388912185052 101.4125569228458 1.295691000000003
    vertex 64.95967555947746 101.09471967765 -1.9999999999999998
    vertex 65.37388912185052 101.4125569228458 -1.9999999999999998
  endloop
endfacet
facet normal 0.5000000000000169 -0.8660254037844289 -7.528908910390058e-18
  outer loop
    vertex 64.95967555947746 101.09471967765 -1.9999999999999998
    vertex 65.37388912185052 101.4125569228458 1.295691000000003
    vertex 64.95967555947746 101.09471967765 1.295691000000003
  endloop
endfacet
facet normal -1.0125410514278136e-14 1.0 6.812906456374394e-19
  outer loop
    vertex 63.959675559477425 104.82677048521889 1.295691000000003
    vertex 64.4773136496824 104.75862213779706 -1.9999999999999998
    vertex 63.959675559477425 104.82677048521889 -1.9999999999999998
  endloop
endfacet
facet normal 0.2588190451024875 0.9659258262890774 -2.933759558723254e-18
  outer loop
    vertex 64.4773136496824 104.75862213779706 -1.9999999999999998
    vertex 63.959675559477425 104.82677048521889 1.295691000000003
    vertex 64.4773136496824 104.75862213779706 1.295691000000003
  endloop
endfacet
endsolid mars base2
