solid mars base2
facet normal -0.30338637333550866 0.9528676237937395 8.552371202335644e-19
  outer loop
    vertex 5.8965193415173776 62.869707503646545 3.459526741805385
    vertex 6.410435198489371 62.96181549266086 0.4595267418054232
    vertex 5.8965193415173776 62.869707503646545 0.4595267418054232
  endloop
endfacet
facet normal -0.046428444849525664 0.9989216183008828 3.1882255530776827e-19
  outer loop
    vertex 6.410435198489371 62.96181549266086 0.4595267418054232
    vertex 5.8965193415173776 62.869707503646545 3.459526741805385
    vertex 6.410435198489371 62.96181549266086 3.459526741805385
  endloop
endfacet
facet normal 0.9769007553168458 -0.21369350542629084 0.0
  outer loop
    vertex 8.457093598822107 60.53658524520644 0.4595267418054232
    vertex 8.279903528714017 60.04546706315396 2.459526741805423
    vertex 8.279903528714017 60.04546706315396 0.4595267418054232
  endloop
endfacet
facet normal 0.8883057202627916 -0.459252596452544 0.0
  outer loop
    vertex 8.279903528714017 60.04546706315396 2.459526741805423
    vertex 8.457093598822107 60.53658524520644 0.4595267418054232
    vertex 8.457093598822107 60.53658524520644 2.459526741805423
  endloop
endfacet
facet normal 0.9989216183008867 0.046428444849446276 6.589939031434728e-19
  outer loop
    vertex 8.50113532479021 61.05682914575812 0.4595267418054232
    vertex 8.49327443937464 60.96397225605905 2.459526741805423
    vertex 8.49327443937464 60.96397225605905 0.4595267418054232
  endloop
endfacet
facet normal 0.9999978655229944 0.0020661436192008884 1.8216420411497296e-17
  outer loop
    vertex 8.49327443937464 60.96397225605905 2.459526741805423
    vertex 8.50113532479021 61.05682914575812 0.4595267418054232
    vertex 8.49327443937464 60.96397225605905 3.4595267418053806
  endloop
endfacet
facet normal 0.9959596899220555 0.08980142565885596 3.658173987119164e-17
  outer loop
    vertex 8.49327443937464 60.96397225605905 3.4595267418053806
    vertex 8.50113532479021 61.05682914575812 0.4595267418054232
    vertex 8.50113532479021 61.05682914575812 3.459526741805385
  endloop
endfacet
facet normal 0.8883057202627916 -0.459252596452544 0.0
  outer loop
    vertex 8.279903528714017 60.04546706315396 0.4595267418054232
    vertex 7.981640324923284 59.616943492096325 2.459526741805423
    vertex 7.981640324923284 59.616943492096325 0.4595267418054232
  endloop
endfacet
facet normal 0.7391741183674428 -0.6735143819813454 0.0
  outer loop
    vertex 7.981640324923284 59.616943492096325 2.459526741805423
    vertex 8.279903528714017 60.04546706315396 0.4595267418054232
    vertex 8.279903528714017 60.04546706315396 2.459526741805423
  endloop
endfacet
facet normal -0.7391741183674428 0.6735143819813455 -4.714840555649115e-19
  outer loop
    vertex 5.024943851453518 62.31100102002178 3.459526741805385
    vertex 4.726680647662785 61.882477448964146 0.4595267418054232
    vertex 4.726680647662785 61.882477448964146 3.459526741805385
  endloop
endfacet
facet normal -0.8883057202627915 0.459252596452544 4.173296223655915e-19
  outer loop
    vertex 4.726680647662785 61.882477448964146 0.4595267418054232
    vertex 5.024943851453518 62.31100102002178 3.459526741805385
    vertex 5.024943851453518 62.31100102002178 0.4595267418054232
  endloop
endfacet
facet normal -0.046428444849525664 0.9989216183008828 3.1882255530776827e-19
  outer loop
    vertex 6.410435198489371 62.96181549266086 3.459526741805385
    vertex 6.930679099041015 62.917773766692754 0.4595267418054232
    vertex 6.410435198489371 62.96181549266086 0.4595267418054232
  endloop
endfacet
facet normal 0.21369350542631535 0.9769007553168406 1.207636233240891e-18
  outer loop
    vertex 6.930679099041015 62.917773766692754 0.4595267418054232
    vertex 6.410435198489371 62.96181549266086 3.459526741805385
    vertex 6.930679099041015 62.917773766692754 3.459526741805385
  endloop
endfacet
facet normal -0.7391741183674428 0.6735143819813455 -4.714840555649115e-19
  outer loop
    vertex 5.024943851453518 62.31100102002178 3.459526741805385
    vertex 5.423954044491685 62.64772680688559 0.4595267418054232
    vertex 5.024943851453518 62.31100102002178 0.4595267418054232
  endloop
endfacet
facet normal -0.5396690218483404 0.841877275413261 8.552371202361972e-19
  outer loop
    vertex 5.423954044491685 62.64772680688559 0.4595267418054232
    vertex 5.024943851453518 62.31100102002178 3.459526741805385
    vertex 5.423954044491685 62.64772680688559 3.459526741805385
  endloop
endfacet
facet normal 0.7391741183674428 -0.6735143819813454 0.0
  outer loop
    vertex 7.981640324923284 59.616943492096325 2.459526741805423
    vertex 7.582630131885117 59.28021770523251 0.4595267418054232
    vertex 7.981640324923284 59.616943492096325 0.4595267418054232
  endloop
endfacet
facet normal 0.5396690218483405 -0.841877275413261 0.0
  outer loop
    vertex 7.582630131885117 59.28021770523251 0.4595267418054232
    vertex 7.981640324923284 59.616943492096325 2.459526741805423
    vertex 7.582630131885117 59.28021770523251 2.459526741805423
  endloop
endfacet
facet normal 0.5396690218483405 -0.841877275413261 0.0
  outer loop
    vertex 7.582630131885117 59.28021770523251 2.459526741805423
    vertex 7.110064834859425 59.05823700847155 0.4595267418054232
    vertex 7.582630131885117 59.28021770523251 0.4595267418054232
  endloop
endfacet
facet normal 0.30338637333550866 -0.9528676237937395 0.0
  outer loop
    vertex 7.110064834859425 59.05823700847155 0.4595267418054232
    vertex 7.582630131885117 59.28021770523251 2.459526741805423
    vertex 7.110064834859425 59.05823700847155 2.459526741805423
  endloop
endfacet
facet normal -0.5396690218483404 0.841877275413261 8.552371202361972e-19
  outer loop
    vertex 5.423954044491685 62.64772680688559 3.459526741805385
    vertex 5.8965193415173776 62.869707503646545 0.4595267418054232
    vertex 5.423954044491685 62.64772680688559 0.4595267418054232
  endloop
endfacet
facet normal -0.30338637333550866 0.9528676237937395 8.552371202335644e-19
  outer loop
    vertex 5.8965193415173776 62.869707503646545 0.4595267418054232
    vertex 5.423954044491685 62.64772680688559 3.459526741805385
    vertex 5.8965193415173776 62.869707503646545 3.459526741805385
  endloop
endfacet
facet normal 0.6735143819813352 0.7391741183674521 2.523816690184604e-18
  outer loop
    vertex 7.850320852151084 62.44232049279393 0.4595267418054232
    vertex 8.187046639014987 62.043310299755724 3.459526741805385
    vertex 8.187046639014987 62.043310299755724 0.4595267418054232
  endloop
endfacet
facet normal 0.8418772754132613 0.5396690218483398 -1.1214735777459577e-18
  outer loop
    vertex 8.187046639014987 62.043310299755724 3.459526741805385
    vertex 7.850320852151084 62.44232049279393 0.4595267418054232
    vertex 7.850320852151084 62.44232049279393 3.459526741805385
  endloop
endfacet
facet normal 0.4592525964525659 0.8883057202627802 1.96839258516886e-18
  outer loop
    vertex 7.421797281093494 62.740583696584665 3.459526741805385
    vertex 7.850320852151084 62.44232049279393 0.4595267418054232
    vertex 7.421797281093494 62.740583696584665 0.4595267418054232
  endloop
endfacet
facet normal 0.6735143819813352 0.7391741183674521 2.523816690184604e-18
  outer loop
    vertex 7.850320852151084 62.44232049279393 0.4595267418054232
    vertex 7.421797281093494 62.740583696584665 3.459526741805385
    vertex 7.850320852151084 62.44232049279393 3.459526741805385
  endloop
endfacet
facet normal -0.9964358334965259 0.08435419209549484 -2.9920324761801755e-16
  outer loop
    vertex 4.513309737002163 60.96397225605905 3.459526741805385
    vertex 4.505448851586592 60.87111536635997 2.459526741805423
    vertex 4.505448851586592 60.87111536635997 3.4595267418053806
  endloop
endfacet
facet normal -0.9979018313184578 0.06474515465475705 -1.6679042951194307e-15
  outer loop
    vertex 4.505448851586592 60.87111536635997 2.459526741805423
    vertex 4.513309737002163 60.96397225605905 3.459526741805385
    vertex 4.505448851586592 60.87111536635997 0.4595267418054232
  endloop
endfacet
facet normal -0.9989216183008817 -0.046428444849549604 -1.508925303235846e-16
  outer loop
    vertex 4.505448851586592 60.87111536635997 0.4595267418054232
    vertex 4.513309737002163 60.96397225605905 3.459526741805385
    vertex 4.513309737002163 60.96397225605905 0.4595267418054232
  endloop
endfacet
facet normal -0.9964358334965259 0.08435419209549484 -2.9920324761801755e-16
  outer loop
    vertex 4.513309737002163 60.96397225605905 0.4595267418054232
    vertex 4.513309737002163 60.96397225605905 3.459526741805385
    vertex 4.549490577554695 61.391359266911664 3.459526741805385
  endloop
endfacet
facet normal -0.9964358334965259 0.08435419209549484 -2.9920324761801755e-16
  outer loop
    vertex 4.513309737002163 60.96397225605905 0.4595267418054232
    vertex 4.549490577554695 61.391359266911664 3.459526741805385
    vertex 4.549490577554695 61.391359266911664 0.4595267418054232
  endloop
endfacet
facet normal 2.169102884754248e-15 1.0259586266718432e-28 1.0
  outer loop
    vertex 2.603108511325967 50.889653573232664 0.5160546498156254
    vertex 10.403475665051015 51.843929479836106 0.5160546498156086
    vertex 2.603108511325877 51.843929479836106 0.5160546498156254
  endloop
endfacet
facet normal 2.169102884754248e-15 1.0259586266718432e-28 1.0
  outer loop
    vertex 10.403475665051015 51.843929479836106 0.5160546498156086
    vertex 2.603108511325967 50.889653573232664 0.5160546498156254
    vertex 10.403475665051015 50.88965357323271 0.5160546498156086
  endloop
endfacet
facet normal -4.534163327390964e-15 0.8752415374272815 -0.48368610809276774
  outer loop
    vertex 2.603108511325877 53.90564322139516 2.0630113739540126
    vertex 10.403475665051015 53.21636641417813 0.8157485678327914
    vertex 2.603108511325877 53.21636641417813 0.8157485678327914
  endloop
endfacet
facet normal -4.534163327390964e-15 0.8752415374272815 -0.48368610809276774
  outer loop
    vertex 10.403475665051015 53.21636641417813 0.8157485678327914
    vertex 2.603108511325877 53.90564322139516 2.0630113739540126
    vertex 10.403475665051015 53.90564322139525 2.0630113739540294
  endloop
endfacet
facet normal -7.48336322489025e-16 0.5573220938772873 -0.8302963830321293
  outer loop
    vertex 10.403475665051015 53.21636641417813 0.8157485678327914
    vertex 2.603108511325967 52.0010672312171 1.6919798895287383e-14
    vertex 2.603108511325877 53.21636641417813 0.8157485678327914
  endloop
endfacet
facet normal -7.48336322489025e-16 0.5573220938772873 -0.8302963830321293
  outer loop
    vertex 2.603108511325967 52.0010672312171 1.6919798895287383e-14
    vertex 10.403475665051015 53.21636641417813 0.8157485678327914
    vertex 10.403475665050925 52.0010672312171 2.8199664825478975e-15
  endloop
endfacet
facet normal 3.615171474590477e-16 6.180998607983156e-28 -1.0
  outer loop
    vertex 10.403475665050925 52.0010672312171 2.8199664825478975e-15
    vertex 2.603108511325967 50.889653573232664 0.0
    vertex 2.603108511325967 52.0010672312171 1.6919798895287383e-14
  endloop
endfacet
facet normal 3.615171474590477e-16 6.180998607983156e-28 -1.0
  outer loop
    vertex 2.603108511325967 50.889653573232664 0.0
    vertex 10.403475665050925 52.0010672312171 2.8199664825478975e-15
    vertex 10.403475665050925 50.889653573232756 1.973976537783528e-14
  endloop
endfacet
facet normal 8.676411539017085e-15 -1.0 -4.371578062215629e-14
  outer loop
    vertex 10.403475665050925 50.889653573232756 1.973976537783528e-14
    vertex 2.603108511325967 50.889653573232664 0.5160546498156254
    vertex 2.603108511325967 50.889653573232664 0.0
  endloop
endfacet
facet normal 8.676411539017085e-15 -1.0 -4.371578062215629e-14
  outer loop
    vertex 2.603108511325967 50.889653573232664 0.5160546498156254
    vertex 10.403475665050925 50.889653573232756 1.973976537783528e-14
    vertex 10.403475665051015 50.88965357323271 0.5160546498156086
  endloop
endfacet
facet normal 2.5132651853047464e-15 -0.557322093877275 0.8302963830321374
  outer loop
    vertex 10.403475665051015 51.843929479836106 0.5160546498156086
    vertex 2.603108511325967 52.825086979331424 1.174639660200958
    vertex 2.603108511325877 51.843929479836106 0.5160546498156254
  endloop
endfacet
facet normal 2.5132651853047464e-15 -0.557322093877275 0.8302963830321374
  outer loop
    vertex 2.603108511325967 52.825086979331424 1.174639660200958
    vertex 10.403475665051015 51.843929479836106 0.5160546498156086
    vertex 10.403475665051015 52.825086979331466 1.174639660200958
  endloop
endfacet
facet normal 2.5330308271650413e-15 -0.8752415374272657 0.4836861080927964
  outer loop
    vertex 10.403475665050925 53.389588571579665 2.196118741805433
    vertex 2.603108511325967 52.825086979331424 1.174639660200958
    vertex 10.403475665051015 52.825086979331466 1.174639660200958
  endloop
endfacet
facet normal 2.5330308271650413e-15 -0.8752415374272657 0.4836861080927964
  outer loop
    vertex 2.603108511325967 52.825086979331424 1.174639660200958
    vertex 10.403475665050925 53.389588571579665 2.196118741805433
    vertex 2.603108511325877 53.389588571579665 2.196118741805433
  endloop
endfacet
facet normal 0.0 -1.0 0.0
  outer loop
    vertex 10.403475665050925 53.389588571579665 3.459526741805423
    vertex 2.603108511325877 53.389588571579665 2.196118741805433
    vertex 10.403475665050925 53.389588571579665 2.196118741805433
  endloop
endfacet
facet normal 0.0 -1.0 0.0
  outer loop
    vertex 2.603108511325877 53.389588571579665 2.196118741805433
    vertex 10.403475665050925 53.389588571579665 3.459526741805423
    vertex 2.603108511325877 53.389588571579665 3.459526741805423
  endloop
endfacet
facet normal 0.9528676237937467 0.30338637333548585 -1.898932214864997e-18
  outer loop
    vertex 8.409027335775898 61.57074500273003 0.4595267418054232
    vertex 8.50113532479021 61.05682914575812 3.459526741805385
    vertex 8.50113532479021 61.05682914575812 0.4595267418054232
  endloop
endfacet
facet normal 0.9989216183008865 0.04642844484944818 6.589939031434827e-19
  outer loop
    vertex 8.50113532479021 61.05682914575812 3.459526741805385
    vertex 8.409027335775898 61.57074500273003 0.4595267418054232
    vertex 8.409027335775898 61.57074500273003 3.459526741805385
  endloop
endfacet
facet normal -8.676411539016948e-15 1.0 -5.689497479663521e-14
  outer loop
    vertex 2.603108511325877 53.90564322139521 2.459526741805423
    vertex 10.403475665051015 53.90564322139525 2.0630113739540294
    vertex 2.603108511325877 53.90564322139516 2.0630113739540126
  endloop
endfacet
facet normal -8.676411539016948e-15 1.0 -5.689497479663521e-14
  outer loop
    vertex 10.403475665051015 53.90564322139525 2.0630113739540294
    vertex 2.603108511325877 53.90564322139521 2.459526741805423
    vertex 10.403475665050925 53.90564322139525 2.459526741805423
  endloop
endfacet
facet normal 0.21369350542631535 0.9769007553168406 1.207636233240891e-18
  outer loop
    vertex 6.930679099041015 62.917773766692754 3.459526741805385
    vertex 7.421797281093494 62.740583696584665 0.4595267418054232
    vertex 6.930679099041015 62.917773766692754 0.4595267418054232
  endloop
endfacet
facet normal 0.4592525964525659 0.8883057202627802 1.96839258516886e-18
  outer loop
    vertex 7.421797281093494 62.740583696584665 0.4595267418054232
    vertex 6.930679099041015 62.917773766692754 3.459526741805385
    vertex 7.421797281093494 62.740583696584665 3.459526741805385
  endloop
endfacet
facet normal 0.30338637333550866 -0.9528676237937395 0.0
  outer loop
    vertex 7.110064834859425 59.05823700847155 2.459526741805423
    vertex 6.596148977887431 58.96612901945724 0.4595267418054232
    vertex 7.110064834859425 59.05823700847155 0.4595267418054232
  endloop
endfacet
facet normal 0.046428444849525664 -0.9989216183008828 0.0
  outer loop
    vertex 6.596148977887431 58.96612901945724 0.4595267418054232
    vertex 7.110064834859425 59.05823700847155 2.459526741805423
    vertex 6.596148977887431 58.96612901945724 2.459526741805423
  endloop
endfacet
facet normal 0.8418772754132613 0.5396690218483398 -1.1214735777459577e-18
  outer loop
    vertex 8.187046639014987 62.043310299755724 0.4595267418054232
    vertex 8.409027335775898 61.57074500273003 3.459526741805385
    vertex 8.409027335775898 61.57074500273003 0.4595267418054232
  endloop
endfacet
facet normal 0.9528676237937467 0.30338637333548585 -1.898932214864997e-18
  outer loop
    vertex 8.409027335775898 61.57074500273003 3.459526741805385
    vertex 8.187046639014987 62.043310299755724 0.4595267418054232
    vertex 8.187046639014987 62.043310299755724 3.459526741805385
  endloop
endfacet
facet normal 0.046428444849525664 -0.9989216183008828 0.0
  outer loop
    vertex 6.596148977887431 58.96612901945724 2.459526741805423
    vertex 6.075905077335787 59.01017074542534 0.4595267418054232
    vertex 6.596148977887431 58.96612901945724 0.4595267418054232
  endloop
endfacet
facet normal -0.21369350542631535 -0.9769007553168406 0.0
  outer loop
    vertex 6.075905077335787 59.01017074542534 0.4595267418054232
    vertex 6.596148977887431 58.96612901945724 2.459526741805423
    vertex 6.075905077335787 59.01017074542534 2.459526741805423
  endloop
endfacet
facet normal -0.21369350542631535 -0.9769007553168406 0.0
  outer loop
    vertex 6.075905077335787 59.01017074542534 2.459526741805423
    vertex 5.584786895283308 59.18736081553344 0.4595267418054232
    vertex 6.075905077335787 59.01017074542534 0.4595267418054232
  endloop
endfacet
facet normal -0.459252596452566 -0.8883057202627803 0.0
  outer loop
    vertex 5.584786895283308 59.18736081553344 0.4595267418054232
    vertex 6.075905077335787 59.01017074542534 2.459526741805423
    vertex 5.584786895283308 59.18736081553344 2.459526741805423
  endloop
endfacet
facet normal -0.8883057202627915 0.459252596452544 4.173296223655915e-19
  outer loop
    vertex 4.726680647662785 61.882477448964146 3.459526741805385
    vertex 4.549490577554695 61.391359266911664 0.4595267418054232
    vertex 4.549490577554695 61.391359266911664 3.459526741805385
  endloop
endfacet
facet normal -0.9769007553168425 0.2136935054263068 -1.5000371664564993e-16
  outer loop
    vertex 4.549490577554695 61.391359266911664 0.4595267418054232
    vertex 4.726680647662785 61.882477448964146 3.459526741805385
    vertex 4.726680647662785 61.882477448964146 0.4595267418054232
  endloop
endfacet
facet normal -0.459252596452566 -0.8883057202627803 0.0
  outer loop
    vertex 5.584786895283308 59.18736081553344 2.459526741805423
    vertex 5.156263324225718 59.48562401932417 0.4595267418054232
    vertex 5.584786895283308 59.18736081553344 0.4595267418054232
  endloop
endfacet
facet normal -0.6735143819813354 -0.7391741183674521 0.0
  outer loop
    vertex 5.156263324225718 59.48562401932417 0.4595267418054232
    vertex 5.584786895283308 59.18736081553344 2.459526741805423
    vertex 5.156263324225718 59.48562401932417 2.459526741805423
  endloop
endfacet
facet normal -0.8418772754132613 -0.5396690218483398 0.0
  outer loop
    vertex 4.819537537361815 59.88463421236238 2.459526741805423
    vertex 5.156263324225718 59.48562401932417 0.4595267418054232
    vertex 5.156263324225718 59.48562401932417 2.459526741805423
  endloop
endfacet
facet normal -0.6735143819813354 -0.7391741183674521 0.0
  outer loop
    vertex 5.156263324225718 59.48562401932417 0.4595267418054232
    vertex 4.819537537361815 59.88463421236238 2.459526741805423
    vertex 4.819537537361815 59.88463421236238 0.4595267418054232
  endloop
endfacet
facet normal -0.9528676237937468 -0.303386373335486 0.0
  outer loop
    vertex 4.597556840600904 60.357199509388074 2.459526741805423
    vertex 4.819537537361815 59.88463421236238 0.4595267418054232
    vertex 4.819537537361815 59.88463421236238 2.459526741805423
  endloop
endfacet
facet normal -0.8418772754132613 -0.5396690218483398 0.0
  outer loop
    vertex 4.819537537361815 59.88463421236238 0.4595267418054232
    vertex 4.597556840600904 60.357199509388074 2.459526741805423
    vertex 4.597556840600904 60.357199509388074 0.4595267418054232
  endloop
endfacet
facet normal -0.9979018313184578 0.06474515465475705 -1.6679042951194307e-15
  outer loop
    vertex 4.505448851586592 60.87111536635997 2.459526741805423
    vertex 4.597556840600904 60.357199509388074 0.4595267418054232
    vertex 4.597556840600904 60.357199509388074 2.459526741805423
  endloop
endfacet
facet normal -0.9528676237937468 -0.303386373335486 0.0
  outer loop
    vertex 4.597556840600904 60.357199509388074 0.4595267418054232
    vertex 4.505448851586592 60.87111536635997 2.459526741805423
    vertex 4.505448851586592 60.87111536635997 0.4595267418054232
  endloop
endfacet
facet normal 0.9964358334965288 -0.08435419209546238 0.0
  outer loop
    vertex 8.49327443937464 60.96397225605905 0.4595267418054232
    vertex 8.457093598822107 60.53658524520644 2.459526741805423
    vertex 8.457093598822107 60.53658524520644 0.4595267418054232
  endloop
endfacet
facet normal 0.9769007553168458 -0.21369350542629084 0.0
  outer loop
    vertex 8.457093598822107 60.53658524520644 2.459526741805423
    vertex 8.49327443937464 60.96397225605905 0.4595267418054232
    vertex 8.49327443937464 60.96397225605905 2.459526741805423
  endloop
endfacet
facet normal -0.0 -0.0 -1.0
  outer loop
    vertex 4.513309737002163 60.96397225605905 0.4595267418054232
    vertex 4.597556840600904 60.357199509388074 0.4595267418054232
    vertex 4.505448851586592 60.87111536635997 0.4595267418054232
  endloop
endfacet
facet normal -0.0 -0.0 -1.0
  outer loop
    vertex 4.597556840600904 60.357199509388074 0.4595267418054232
    vertex 4.513309737002163 60.96397225605905 0.4595267418054232
    vertex 4.549490577554695 61.391359266911664 0.4595267418054232
  endloop
endfacet
facet normal -0.0 -0.0 -1.0
  outer loop
    vertex 4.597556840600904 60.357199509388074 0.4595267418054232
    vertex 4.549490577554695 61.391359266911664 0.4595267418054232
    vertex 4.726680647662785 61.882477448964146 0.4595267418054232
  endloop
endfacet
facet normal -0.0 -0.0 -1.0
  outer loop
    vertex 4.597556840600904 60.357199509388074 0.4595267418054232
    vertex 4.726680647662785 61.882477448964146 0.4595267418054232
    vertex 4.819537537361815 59.88463421236238 0.4595267418054232
  endloop
endfacet
facet normal -0.0 -0.0 -1.0
  outer loop
    vertex 4.819537537361815 59.88463421236238 0.4595267418054232
    vertex 4.726680647662785 61.882477448964146 0.4595267418054232
    vertex 5.024943851453518 62.31100102002178 0.4595267418054232
  endloop
endfacet
facet normal -0.0 -0.0 -1.0
  outer loop
    vertex 4.819537537361815 59.88463421236238 0.4595267418054232
    vertex 5.024943851453518 62.31100102002178 0.4595267418054232
    vertex 5.156263324225718 59.48562401932417 0.4595267418054232
  endloop
endfacet
facet normal -0.0 -0.0 -1.0
  outer loop
    vertex 5.156263324225718 59.48562401932417 0.4595267418054232
    vertex 5.024943851453518 62.31100102002178 0.4595267418054232
    vertex 5.423954044491685 62.64772680688559 0.4595267418054232
  endloop
endfacet
facet normal -0.0 -0.0 -1.0
  outer loop
    vertex 5.156263324225718 59.48562401932417 0.4595267418054232
    vertex 5.423954044491685 62.64772680688559 0.4595267418054232
    vertex 5.584786895283308 59.18736081553344 0.4595267418054232
  endloop
endfacet
facet normal -0.0 -0.0 -1.0
  outer loop
    vertex 5.584786895283308 59.18736081553344 0.4595267418054232
    vertex 5.423954044491685 62.64772680688559 0.4595267418054232
    vertex 5.8965193415173776 62.869707503646545 0.4595267418054232
  endloop
endfacet
facet normal -0.0 -0.0 -1.0
  outer loop
    vertex 5.584786895283308 59.18736081553344 0.4595267418054232
    vertex 5.8965193415173776 62.869707503646545 0.4595267418054232
    vertex 6.075905077335787 59.01017074542534 0.4595267418054232
  endloop
endfacet
facet normal -0.0 -0.0 -1.0
  outer loop
    vertex 6.075905077335787 59.01017074542534 0.4595267418054232
    vertex 5.8965193415173776 62.869707503646545 0.4595267418054232
    vertex 6.410435198489371 62.96181549266086 0.4595267418054232
  endloop
endfacet
facet normal -0.0 -0.0 -1.0
  outer loop
    vertex 6.075905077335787 59.01017074542534 0.4595267418054232
    vertex 6.410435198489371 62.96181549266086 0.4595267418054232
    vertex 6.596148977887431 58.96612901945724 0.4595267418054232
  endloop
endfacet
facet normal -0.0 -0.0 -1.0
  outer loop
    vertex 6.596148977887431 58.96612901945724 0.4595267418054232
    vertex 6.410435198489371 62.96181549266086 0.4595267418054232
    vertex 6.930679099041015 62.917773766692754 0.4595267418054232
  endloop
endfacet
facet normal -0.0 -0.0 -1.0
  outer loop
    vertex 6.596148977887431 58.96612901945724 0.4595267418054232
    vertex 6.930679099041015 62.917773766692754 0.4595267418054232
    vertex 7.110064834859425 59.05823700847155 0.4595267418054232
  endloop
endfacet
facet normal -0.0 -0.0 -1.0
  outer loop
    vertex 7.110064834859425 59.05823700847155 0.4595267418054232
    vertex 6.930679099041015 62.917773766692754 0.4595267418054232
    vertex 7.421797281093494 62.740583696584665 0.4595267418054232
  endloop
endfacet
facet normal -0.0 -0.0 -1.0
  outer loop
    vertex 7.110064834859425 59.05823700847155 0.4595267418054232
    vertex 7.421797281093494 62.740583696584665 0.4595267418054232
    vertex 7.582630131885117 59.28021770523251 0.4595267418054232
  endloop
endfacet
facet normal -0.0 -0.0 -1.0
  outer loop
    vertex 7.582630131885117 59.28021770523251 0.4595267418054232
    vertex 7.421797281093494 62.740583696584665 0.4595267418054232
    vertex 7.850320852151084 62.44232049279393 0.4595267418054232
  endloop
endfacet
facet normal -0.0 -0.0 -1.0
  outer loop
    vertex 7.582630131885117 59.28021770523251 0.4595267418054232
    vertex 7.850320852151084 62.44232049279393 0.4595267418054232
    vertex 7.981640324923284 59.616943492096325 0.4595267418054232
  endloop
endfacet
facet normal -0.0 -0.0 -1.0
  outer loop
    vertex 7.981640324923284 59.616943492096325 0.4595267418054232
    vertex 7.850320852151084 62.44232049279393 0.4595267418054232
    vertex 8.187046639014987 62.043310299755724 0.4595267418054232
  endloop
endfacet
facet normal -0.0 -0.0 -1.0
  outer loop
    vertex 7.981640324923284 59.616943492096325 0.4595267418054232
    vertex 8.187046639014987 62.043310299755724 0.4595267418054232
    vertex 8.279903528714017 60.04546706315396 0.4595267418054232
  endloop
endfacet
facet normal -0.0 -0.0 -1.0
  outer loop
    vertex 8.279903528714017 60.04546706315396 0.4595267418054232
    vertex 8.187046639014987 62.043310299755724 0.4595267418054232
    vertex 8.409027335775898 61.57074500273003 0.4595267418054232
  endloop
endfacet
facet normal -0.0 -0.0 -1.0
  outer loop
    vertex 8.279903528714017 60.04546706315396 0.4595267418054232
    vertex 8.409027335775898 61.57074500273003 0.4595267418054232
    vertex 8.457093598822107 60.53658524520644 0.4595267418054232
  endloop
endfacet
facet normal -0.0 -0.0 -1.0
  outer loop
    vertex 8.457093598822107 60.53658524520644 0.4595267418054232
    vertex 8.409027335775898 61.57074500273003 0.4595267418054232
    vertex 8.49327443937464 60.96397225605905 0.4595267418054232
  endloop
endfacet
facet normal -0.0 -0.0 -1.0
  outer loop
    vertex 8.49327443937464 60.96397225605905 0.4595267418054232
    vertex 8.409027335775898 61.57074500273003 0.4595267418054232
    vertex 8.50113532479021 61.05682914575812 0.4595267418054232
  endloop
endfacet
facet normal 0.9999978655229944 0.0020661436192008884 1.8216420411497296e-17
  outer loop
    vertex 8.49327443937464 60.96397225605905 2.459526741805423
    vertex 10.403475665050925 53.90564322139525 3.459526741805423
    vertex 10.403475665050925 53.90564322139525 2.459526741805423
  endloop
endfacet
facet normal 0.99128090990498 0.13176554047988095 1.2735547969133095e-14
  outer loop
    vertex 10.403475665050925 53.90564322139525 3.459526741805423
    vertex 8.49327443937464 60.96397225605905 2.459526741805423
    vertex 8.49327443937464 60.96397225605905 3.4595267418053806
  endloop
endfacet
facet normal 1.0 -1.5703399537766898e-14 2.517694177996047e-14
  outer loop
    vertex 10.403475665050925 50.889653573232756 1.973976537783528e-14
    vertex 10.403475665051015 51.843929479836106 0.5160546498156086
    vertex 10.403475665051015 50.88965357323271 0.5160546498156086
  endloop
endfacet
facet normal 1.0 -1.5703399537766898e-14 2.517694177996047e-14
  outer loop
    vertex 10.403475665051015 51.843929479836106 0.5160546498156086
    vertex 10.403475665050925 50.889653573232756 1.973976537783528e-14
    vertex 10.403475665050925 52.0010672312171 2.8199664825478975e-15
  endloop
endfacet
facet normal 1.0 -1.5703399537766898e-14 2.517694177996047e-14
  outer loop
    vertex 10.403475665051015 51.843929479836106 0.5160546498156086
    vertex 10.403475665050925 52.0010672312171 2.8199664825478975e-15
    vertex 10.403475665051015 52.825086979331466 1.174639660200958
  endloop
endfacet
facet normal 1.0 -1.5703399537766898e-14 2.517694177996047e-14
  outer loop
    vertex 10.403475665051015 52.825086979331466 1.174639660200958
    vertex 10.403475665050925 52.0010672312171 2.8199664825478975e-15
    vertex 10.403475665051015 53.21636641417813 0.8157485678327914
  endloop
endfacet
facet normal 1.0 -1.5703399537766898e-14 2.517694177996047e-14
  outer loop
    vertex 10.403475665051015 52.825086979331466 1.174639660200958
    vertex 10.403475665051015 53.21636641417813 0.8157485678327914
    vertex 10.403475665050925 53.389588571579665 2.196118741805433
  endloop
endfacet
facet normal 1.0 -1.5703399537766898e-14 2.517694177996047e-14
  outer loop
    vertex 10.403475665050925 53.389588571579665 2.196118741805433
    vertex 10.403475665051015 53.21636641417813 0.8157485678327914
    vertex 10.403475665051015 53.90564322139525 2.0630113739540294
  endloop
endfacet
facet normal 1.0 -1.5703399537766898e-14 2.517694177996047e-14
  outer loop
    vertex 10.403475665050925 53.389588571579665 2.196118741805433
    vertex 10.403475665051015 53.90564322139525 2.0630113739540294
    vertex 10.403475665050925 53.389588571579665 3.459526741805423
  endloop
endfacet
facet normal 1.0 -1.5703399537766898e-14 2.517694177996047e-14
  outer loop
    vertex 10.403475665050925 53.389588571579665 3.459526741805423
    vertex 10.403475665051015 53.90564322139525 2.0630113739540294
    vertex 10.403475665050925 53.90564322139525 3.459526741805423
  endloop
endfacet
facet normal 0.99128090990498 0.13176554047988095 1.2735547969133095e-14
  outer loop
    vertex 10.403475665050925 53.90564322139525 3.459526741805423
    vertex 10.403475665051015 53.90564322139525 2.0630113739540294
    vertex 10.403475665050925 53.90564322139525 2.459526741805423
  endloop
endfacet
facet normal -0.9911281526841706 0.13290968721979293 -6.611409566600216e-15
  outer loop
    vertex 2.603108511325877 53.90564322139525 3.459526741805423
    vertex 2.603108511325877 53.389588571579665 2.196118741805433
    vertex 2.603108511325877 53.389588571579665 3.459526741805423
  endloop
endfacet
facet normal -1.0 -2.3082266043302298e-14 -7.11545042070091e-15
  outer loop
    vertex 2.603108511325877 53.389588571579665 2.196118741805433
    vertex 2.603108511325877 53.90564322139525 3.459526741805423
    vertex 2.603108511325877 53.90564322139516 2.0630113739540126
  endloop
endfacet
facet normal -1.0 -2.3082266043302298e-14 -7.11545042070091e-15
  outer loop
    vertex 2.603108511325877 53.90564322139516 2.0630113739540126
    vertex 2.603108511325877 53.90564322139525 3.459526741805423
    vertex 2.603108511325877 53.90564322139521 2.459526741805423
  endloop
endfacet
facet normal -1.0 -2.3082266043302298e-14 -7.11545042070091e-15
  outer loop
    vertex 2.603108511325877 51.843929479836106 0.5160546498156254
    vertex 2.603108511325967 50.889653573232664 0.0
    vertex 2.603108511325967 50.889653573232664 0.5160546498156254
  endloop
endfacet
facet normal -1.0 -2.3082266043302298e-14 -7.11545042070091e-15
  outer loop
    vertex 2.603108511325967 50.889653573232664 0.0
    vertex 2.603108511325877 51.843929479836106 0.5160546498156254
    vertex 2.603108511325967 52.0010672312171 1.6919798895287383e-14
  endloop
endfacet
facet normal -1.0 -2.3082266043302298e-14 -7.11545042070091e-15
  outer loop
    vertex 2.603108511325967 52.0010672312171 1.6919798895287383e-14
    vertex 2.603108511325877 51.843929479836106 0.5160546498156254
    vertex 2.603108511325967 52.825086979331424 1.174639660200958
  endloop
endfacet
facet normal -1.0 -2.3082266043302298e-14 -7.11545042070091e-15
  outer loop
    vertex 2.603108511325967 52.0010672312171 1.6919798895287383e-14
    vertex 2.603108511325967 52.825086979331424 1.174639660200958
    vertex 2.603108511325877 53.21636641417813 0.8157485678327914
  endloop
endfacet
facet normal -1.0 -2.3082266043302298e-14 -7.11545042070091e-15
  outer loop
    vertex 2.603108511325877 53.21636641417813 0.8157485678327914
    vertex 2.603108511325967 52.825086979331424 1.174639660200958
    vertex 2.603108511325877 53.389588571579665 2.196118741805433
  endloop
endfacet
facet normal -1.0 -2.3082266043302298e-14 -7.11545042070091e-15
  outer loop
    vertex 2.603108511325877 53.21636641417813 0.8157485678327914
    vertex 2.603108511325877 53.389588571579665 2.196118741805433
    vertex 2.603108511325877 53.90564322139516 2.0630113739540126
  endloop
endfacet
facet normal -0.9911281526841706 0.13290968721979293 -6.611409566600216e-15
  outer loop
    vertex 2.603108511325877 53.90564322139525 3.459526741805423
    vertex 4.505448851586592 60.87111536635997 2.459526741805423
    vertex 2.603108511325877 53.90564322139521 2.459526741805423
  endloop
endfacet
facet normal -0.9979018313184578 0.06474515465475705 -1.6679042951194307e-15
  outer loop
    vertex 4.505448851586592 60.87111536635997 2.459526741805423
    vertex 2.603108511325877 53.90564322139525 3.459526741805423
    vertex 4.505448851586592 60.87111536635997 3.4595267418053806
  endloop
endfacet
facet normal 0.0 0.0 1.0
  outer loop
    vertex 2.603108511325877 53.90564322139521 2.459526741805423
    vertex 4.597556840600904 60.357199509388074 2.459526741805423
    vertex 4.505448851586592 60.87111536635997 2.459526741805423
  endloop
endfacet
facet normal 0.0 0.0 1.0
  outer loop
    vertex 4.597556840600904 60.357199509388074 2.459526741805423
    vertex 2.603108511325877 53.90564322139521 2.459526741805423
    vertex 4.819537537361815 59.88463421236238 2.459526741805423
  endloop
endfacet
facet normal 0.0 0.0 1.0
  outer loop
    vertex 4.819537537361815 59.88463421236238 2.459526741805423
    vertex 2.603108511325877 53.90564322139521 2.459526741805423
    vertex 5.156263324225718 59.48562401932417 2.459526741805423
  endloop
endfacet
facet normal 0.0 0.0 1.0
  outer loop
    vertex 5.156263324225718 59.48562401932417 2.459526741805423
    vertex 2.603108511325877 53.90564322139521 2.459526741805423
    vertex 10.403475665050925 53.90564322139525 2.459526741805423
  endloop
endfacet
facet normal 0.0 0.0 1.0
  outer loop
    vertex 5.156263324225718 59.48562401932417 2.459526741805423
    vertex 10.403475665050925 53.90564322139525 2.459526741805423
    vertex 5.584786895283308 59.18736081553344 2.459526741805423
  endloop
endfacet
facet normal 0.0 0.0 1.0
  outer loop
    vertex 5.584786895283308 59.18736081553344 2.459526741805423
    vertex 10.403475665050925 53.90564322139525 2.459526741805423
    vertex 6.075905077335787 59.01017074542534 2.459526741805423
  endloop
endfacet
facet normal 0.0 0.0 1.0
  outer loop
    vertex 6.075905077335787 59.01017074542534 2.459526741805423
    vertex 10.403475665050925 53.90564322139525 2.459526741805423
    vertex 6.596148977887431 58.96612901945724 2.459526741805423
  endloop
endfacet
facet normal 0.0 0.0 1.0
  outer loop
    vertex 6.596148977887431 58.96612901945724 2.459526741805423
    vertex 10.403475665050925 53.90564322139525 2.459526741805423
    vertex 7.110064834859425 59.05823700847155 2.459526741805423
  endloop
endfacet
facet normal 0.0 0.0 1.0
  outer loop
    vertex 7.110064834859425 59.05823700847155 2.459526741805423
    vertex 10.403475665050925 53.90564322139525 2.459526741805423
    vertex 7.582630131885117 59.28021770523251 2.459526741805423
  endloop
endfacet
facet normal 0.0 0.0 1.0
  outer loop
    vertex 7.582630131885117 59.28021770523251 2.459526741805423
    vertex 10.403475665050925 53.90564322139525 2.459526741805423
    vertex 7.981640324923284 59.616943492096325 2.459526741805423
  endloop
endfacet
facet normal 0.0 0.0 1.0
  outer loop
    vertex 7.981640324923284 59.616943492096325 2.459526741805423
    vertex 10.403475665050925 53.90564322139525 2.459526741805423
    vertex 8.279903528714017 60.04546706315396 2.459526741805423
  endloop
endfacet
facet normal 0.0 0.0 1.0
  outer loop
    vertex 8.279903528714017 60.04546706315396 2.459526741805423
    vertex 10.403475665050925 53.90564322139525 2.459526741805423
    vertex 8.457093598822107 60.53658524520644 2.459526741805423
  endloop
endfacet
facet normal 0.0 0.0 1.0
  outer loop
    vertex 8.457093598822107 60.53658524520644 2.459526741805423
    vertex 10.403475665050925 53.90564322139525 2.459526741805423
    vertex 8.49327443937464 60.96397225605905 2.459526741805423
  endloop
endfacet
facet normal -4.011924825853194e-17 4.418056484048082e-15 1.0
  outer loop
    vertex 10.403475665050925 53.389588571579665 3.459526741805423
    vertex 2.603108511325877 53.90564322139525 3.459526741805423
    vertex 2.603108511325877 53.389588571579665 3.459526741805423
  endloop
endfacet
facet normal -4.011924825853194e-17 4.418056484048082e-15 1.0
  outer loop
    vertex 2.603108511325877 53.90564322139525 3.459526741805423
    vertex 10.403475665050925 53.389588571579665 3.459526741805423
    vertex 4.505448851586592 60.87111536635997 3.4595267418053806
  endloop
endfacet
facet normal -4.011924825853194e-17 4.418056484048082e-15 1.0
  outer loop
    vertex 4.505448851586592 60.87111536635997 3.4595267418053806
    vertex 10.403475665050925 53.389588571579665 3.459526741805423
    vertex 4.513309737002163 60.96397225605905 3.459526741805385
  endloop
endfacet
facet normal -4.011924825853194e-17 4.418056484048082e-15 1.0
  outer loop
    vertex 4.513309737002163 60.96397225605905 3.459526741805385
    vertex 10.403475665050925 53.389588571579665 3.459526741805423
    vertex 4.549490577554695 61.391359266911664 3.459526741805385
  endloop
endfacet
facet normal -4.011924825853194e-17 4.418056484048082e-15 1.0
  outer loop
    vertex 4.549490577554695 61.391359266911664 3.459526741805385
    vertex 10.403475665050925 53.389588571579665 3.459526741805423
    vertex 4.726680647662785 61.882477448964146 3.459526741805385
  endloop
endfacet
facet normal -4.011924825853194e-17 4.418056484048082e-15 1.0
  outer loop
    vertex 4.726680647662785 61.882477448964146 3.459526741805385
    vertex 10.403475665050925 53.389588571579665 3.459526741805423
    vertex 5.024943851453518 62.31100102002178 3.459526741805385
  endloop
endfacet
facet normal -4.011924825853194e-17 4.418056484048082e-15 1.0
  outer loop
    vertex 5.024943851453518 62.31100102002178 3.459526741805385
    vertex 10.403475665050925 53.389588571579665 3.459526741805423
    vertex 5.423954044491685 62.64772680688559 3.459526741805385
  endloop
endfacet
facet normal -4.011924825853194e-17 4.418056484048082e-15 1.0
  outer loop
    vertex 5.423954044491685 62.64772680688559 3.459526741805385
    vertex 10.403475665050925 53.389588571579665 3.459526741805423
    vertex 5.8965193415173776 62.869707503646545 3.459526741805385
  endloop
endfacet
facet normal -4.011924825853194e-17 4.418056484048082e-15 1.0
  outer loop
    vertex 5.8965193415173776 62.869707503646545 3.459526741805385
    vertex 10.403475665050925 53.389588571579665 3.459526741805423
    vertex 6.410435198489371 62.96181549266086 3.459526741805385
  endloop
endfacet
facet normal -4.011924825853194e-17 4.418056484048082e-15 1.0
  outer loop
    vertex 6.410435198489371 62.96181549266086 3.459526741805385
    vertex 10.403475665050925 53.389588571579665 3.459526741805423
    vertex 6.930679099041015 62.917773766692754 3.459526741805385
  endloop
endfacet
facet normal -4.011924825853194e-17 4.418056484048082e-15 1.0
  outer loop
    vertex 6.930679099041015 62.917773766692754 3.459526741805385
    vertex 10.403475665050925 53.389588571579665 3.459526741805423
    vertex 7.421797281093494 62.740583696584665 3.459526741805385
  endloop
endfacet
facet normal -4.011924825853194e-17 4.418056484048082e-15 1.0
  outer loop
    vertex 7.421797281093494 62.740583696584665 3.459526741805385
    vertex 10.403475665050925 53.389588571579665 3.459526741805423
    vertex 7.850320852151084 62.44232049279393 3.459526741805385
  endloop
endfacet
facet normal -4.011924825853194e-17 4.418056484048082e-15 1.0
  outer loop
    vertex 7.850320852151084 62.44232049279393 3.459526741805385
    vertex 10.403475665050925 53.389588571579665 3.459526741805423
    vertex 8.187046639014987 62.043310299755724 3.459526741805385
  endloop
endfacet
facet normal -4.011924825853194e-17 4.418056484048082e-15 1.0
  outer loop
    vertex 8.187046639014987 62.043310299755724 3.459526741805385
    vertex 10.403475665050925 53.389588571579665 3.459526741805423
    vertex 8.49327443937464 60.96397225605905 3.4595267418053806
  endloop
endfacet
facet normal -4.011924825853194e-17 4.418056484048082e-15 1.0
  outer loop
    vertex 8.187046639014987 62.043310299755724 3.459526741805385
    vertex 8.49327443937464 60.96397225605905 3.4595267418053806
    vertex 8.409027335775898 61.57074500273003 3.459526741805385
  endloop
endfacet
facet normal -4.011924825853194e-17 4.418056484048082e-15 1.0
  outer loop
    vertex 8.49327443937464 60.96397225605905 3.4595267418053806
    vertex 10.403475665050925 53.389588571579665 3.459526741805423
    vertex 10.403475665050925 53.90564322139525 3.459526741805423
  endloop
endfacet
facet normal -4.011924825853194e-17 4.418056484048082e-15 1.0
  outer loop
    vertex 8.50113532479021 61.05682914575812 3.459526741805385
    vertex 8.409027335775898 61.57074500273003 3.459526741805385
    vertex 8.49327443937464 60.96397225605905 3.4595267418053806
  endloop
endfacet
endsolid mars base2
