solid mars base2
facet normal -0.17747042938572266 7.771561172376096e-16 0.9841261335284454
  outer loop
    vertex 4.698162388925531 77.01948979862907 11.999999999996101
    vertex 7.69816238892548 77.82333737592249 12.540999034589635
    vertex 4.698162388925541 83.01948979862912 11.999999999996097
  endloop
endfacet
facet normal -0.7071067811865366 0.7071067811865585 -4.250551694091217e-14
  outer loop
    vertex -0.4979900337810329 86.0194897986293 11.999999999996106
    vertex 1.698162388925541 88.21564222133576 11.540999034589644
    vertex -0.497990033781084 86.01948979862912 11.540999034589644
  endloop
endfacet
facet normal -0.7071067811865366 0.7071067811865585 -4.250551694091217e-14
  outer loop
    vertex 1.698162388925541 88.21564222133576 11.540999034589644
    vertex -0.4979900337810329 86.0194897986293 11.999999999996106
    vertex 1.6981623889254986 88.21564222133571 12.540999034589648
  endloop
endfacet
facet normal 0.0 -0.0 -1.0
  outer loop
    vertex 9.89431481163215 86.01948979862911 11.540999034589644
    vertex 4.6981623889255255 89.0194897986291 11.540999034589644
    vertex 7.698162388925531 88.21564222133576 11.540999034589644
  endloop
endfacet
facet normal 0.0 -0.0 -1.0
  outer loop
    vertex 4.6981623889255255 89.0194897986291 11.540999034589644
    vertex 9.89431481163215 86.01948979862911 11.540999034589644
    vertex 10.698162388925532 83.01948979862914 11.540999034589644
  endloop
endfacet
facet normal 0.0 -0.0 -1.0
  outer loop
    vertex 4.6981623889255255 89.0194897986291 11.540999034589644
    vertex 10.698162388925532 83.01948979862914 11.540999034589644
    vertex 1.698162388925541 88.21564222133576 11.540999034589644
  endloop
endfacet
facet normal 0.0 -0.0 -1.0
  outer loop
    vertex 1.698162388925541 88.21564222133576 11.540999034589644
    vertex 10.698162388925532 83.01948979862914 11.540999034589644
    vertex 9.894314811632166 80.01948979862914 11.540999034589644
  endloop
endfacet
facet normal 0.0 -0.0 -1.0
  outer loop
    vertex 1.698162388925541 88.21564222133576 11.540999034589644
    vertex 9.894314811632166 80.01948979862914 11.540999034589644
    vertex -0.497990033781084 86.01948979862912 11.540999034589644
  endloop
endfacet
facet normal 0.0 -0.0 -1.0
  outer loop
    vertex -0.497990033781084 86.01948979862912 11.540999034589644
    vertex 9.894314811632166 80.01948979862914 11.540999034589644
    vertex 7.698162388925542 77.82333737592252 11.540999034589644
  endloop
endfacet
facet normal 0.0 -0.0 -1.0
  outer loop
    vertex -0.497990033781084 86.01948979862912 11.540999034589644
    vertex 7.698162388925542 77.82333737592252 11.540999034589644
    vertex -1.3018376110744492 83.01948979862912 11.540999034589644
  endloop
endfacet
facet normal 0.0 -0.0 -1.0
  outer loop
    vertex -1.3018376110744492 83.01948979862912 11.540999034589644
    vertex 7.698162388925542 77.82333737592252 11.540999034589644
    vertex 4.698162388925557 77.01948979862917 11.540999034589644
  endloop
endfacet
facet normal 0.0 -0.0 -1.0
  outer loop
    vertex -1.3018376110744492 83.01948979862912 11.540999034589644
    vertex 4.698162388925557 77.01948979862917 11.540999034589644
    vertex -0.4979900337810685 80.01948979862914 11.540999034589644
  endloop
endfacet
facet normal 0.0 -0.0 -1.0
  outer loop
    vertex -0.4979900337810685 80.01948979862914 11.540999034589644
    vertex 4.698162388925557 77.01948979862917 11.540999034589644
    vertex 1.6981623889255502 77.8233373759225 11.540999034589644
  endloop
endfacet
facet normal 0.0887352146928621 -0.15369390026856686 0.9841261335284454
  outer loop
    vertex -0.4979900337810713 80.0194897986291 11.9999999999961
    vertex 4.698162388925541 83.01948979862912 11.999999999996097
    vertex -1.301837611074407 83.01948979862915 12.540999034589646
  endloop
endfacet
facet normal -0.044901099418865546 -0.07777098550917769 0.9959596202075205
  outer loop
    vertex 4.698162388925541 83.01948979862912 11.999999999996097
    vertex 9.89431481163215 86.01948979862911 11.999999999996094
    vertex 7.698162388925773 88.21564222133608 12.540999034589648
  endloop
endfacet
facet normal 0.08980219883773857 -4.038436252074008e-15 0.99595962020752
  outer loop
    vertex -1.301837611074407 83.01948979862915 12.540999034589646
    vertex 4.698162388925541 83.01948979862912 11.999999999996097
    vertex -0.4979900337810329 86.0194897986293 11.999999999996106
  endloop
endfacet
facet normal 0.04490109941886562 0.07777098550918082 0.9959596202075204
  outer loop
    vertex 1.698162388925443 77.8233373759224 12.54099903458964
    vertex 4.698162388925531 77.01948979862907 11.999999999996101
    vertex 4.698162388925541 83.01948979862912 11.999999999996097
  endloop
endfacet
facet normal 0.044901099418869446 -0.0777709855091824 0.99595962020752
  outer loop
    vertex 4.698162388925541 83.01948979862912 11.999999999996097
    vertex 1.6981623889254986 88.21564222133571 12.540999034589648
    vertex -0.4979900337810329 86.0194897986293 11.999999999996106
  endloop
endfacet
facet normal -0.9659258262890692 0.25881904510251813 2.881624016140851e-14
  outer loop
    vertex -1.301837611074407 83.01948979862915 12.540999034589646
    vertex -0.497990033781084 86.01948979862912 11.540999034589644
    vertex -1.3018376110744492 83.01948979862912 11.540999034589644
  endloop
endfacet
facet normal -0.9659258262890692 0.25881904510251813 2.881624016140851e-14
  outer loop
    vertex -0.497990033781084 86.01948979862912 11.540999034589644
    vertex -1.301837611074407 83.01948979862915 12.540999034589646
    vertex -0.4979900337810329 86.0194897986293 11.999999999996106
  endloop
endfacet
facet normal -0.9659258262890686 -0.2588190451025194 3.338657916680581e-14
  outer loop
    vertex -0.4979900337810713 80.0194897986291 11.9999999999961
    vertex -1.3018376110744492 83.01948979862912 11.540999034589644
    vertex -0.4979900337810685 80.01948979862914 11.540999034589644
  endloop
endfacet
facet normal -0.9659258262890686 -0.2588190451025194 3.338657916680581e-14
  outer loop
    vertex -1.3018376110744492 83.01948979862912 11.540999034589644
    vertex -0.4979900337810713 80.0194897986291 11.9999999999961
    vertex -1.301837611074407 83.01948979862915 12.540999034589646
  endloop
endfacet
facet normal -0.7071067811865555 -0.7071067811865397 -1.3189211874311875e-13
  outer loop
    vertex 1.6981623889255502 77.8233373759225 11.540999034589644
    vertex -0.4979900337810713 80.0194897986291 11.9999999999961
    vertex -0.4979900337810685 80.01948979862914 11.540999034589644
  endloop
endfacet
facet normal -0.7071067811865555 -0.7071067811865397 -1.3189211874311875e-13
  outer loop
    vertex -0.4979900337810713 80.0194897986291 11.9999999999961
    vertex 1.6981623889255502 77.8233373759225 11.540999034589644
    vertex 1.698162388925443 77.8233373759224 12.54099903458964
  endloop
endfacet
facet normal -0.25881904510252074 -0.9659258262890683 -1.3364234591126955e-13
  outer loop
    vertex 1.6981623889255502 77.8233373759225 11.540999034589644
    vertex 4.698162388925531 77.01948979862907 11.999999999996101
    vertex 1.698162388925443 77.8233373759224 12.54099903458964
  endloop
endfacet
facet normal -0.25881904510252074 -0.9659258262890683 -1.3364234591126955e-13
  outer loop
    vertex 4.698162388925531 77.01948979862907 11.999999999996101
    vertex 1.6981623889255502 77.8233373759225 11.540999034589644
    vertex 4.698162388925557 77.01948979862917 11.540999034589644
  endloop
endfacet
facet normal 0.25881904510253156 -0.9659258262890655 -3.014184768767961e-14
  outer loop
    vertex 7.69816238892548 77.82333737592249 12.540999034589635
    vertex 4.698162388925557 77.01948979862917 11.540999034589644
    vertex 7.698162388925542 77.82333737592252 11.540999034589644
  endloop
endfacet
facet normal 0.25881904510253156 -0.9659258262890655 -3.014184768767961e-14
  outer loop
    vertex 4.698162388925557 77.01948979862917 11.540999034589644
    vertex 7.69816238892548 77.82333737592249 12.540999034589635
    vertex 4.698162388925531 77.01948979862907 11.999999999996101
  endloop
endfacet
facet normal 0.70710678118654 -0.707106781186555 8.626119614479329e-15
  outer loop
    vertex 9.894314811632075 80.01948979862898 11.999999999996097
    vertex 7.698162388925542 77.82333737592252 11.540999034589644
    vertex 9.894314811632166 80.01948979862914 11.540999034589644
  endloop
endfacet
facet normal 0.70710678118654 -0.707106781186555 8.626119614479329e-15
  outer loop
    vertex 7.698162388925542 77.82333737592252 11.540999034589644
    vertex 9.894314811632075 80.01948979862898 11.999999999996097
    vertex 7.69816238892548 77.82333737592249 12.540999034589635
  endloop
endfacet
facet normal 0.9659258262890655 -0.25881904510253084 1.0001298103742705e-15
  outer loop
    vertex 10.698162388925525 83.01948979862902 12.540999034589655
    vertex 9.894314811632166 80.01948979862914 11.540999034589644
    vertex 10.698162388925532 83.01948979862914 11.540999034589644
  endloop
endfacet
facet normal 0.9659258262890655 -0.25881904510253084 1.0001298103742705e-15
  outer loop
    vertex 9.894314811632166 80.01948979862914 11.540999034589644
    vertex 10.698162388925525 83.01948979862902 12.540999034589655
    vertex 9.894314811632075 80.01948979862898 11.999999999996097
  endloop
endfacet
facet normal 0.9659258262890675 0.2588190451025236 2.629940251502853e-14
  outer loop
    vertex 10.698162388925525 83.01948979862902 12.540999034589655
    vertex 9.89431481163215 86.01948979862911 11.540999034589644
    vertex 9.89431481163215 86.01948979862911 11.999999999996094
  endloop
endfacet
facet normal 0.9659258262890675 0.2588190451025236 2.629940251502853e-14
  outer loop
    vertex 9.89431481163215 86.01948979862911 11.540999034589644
    vertex 10.698162388925525 83.01948979862902 12.540999034589655
    vertex 10.698162388925532 83.01948979862914 11.540999034589644
  endloop
endfacet
facet normal 0.7071067811865772 0.707106781186518 -3.3366830798613726e-13
  outer loop
    vertex 7.698162388925773 88.21564222133608 12.540999034589648
    vertex 9.89431481163215 86.01948979862911 11.540999034589644
    vertex 7.698162388925531 88.21564222133576 11.540999034589644
  endloop
endfacet
facet normal 0.7071067811865772 0.707106781186518 -3.3366830798613726e-13
  outer loop
    vertex 9.89431481163215 86.01948979862911 11.540999034589644
    vertex 7.698162388925773 88.21564222133608 12.540999034589648
    vertex 9.89431481163215 86.01948979862911 11.999999999996094
  endloop
endfacet
facet normal 0.2588190451024973 0.9659258262890746 -3.474200928787789e-13
  outer loop
    vertex 7.698162388925773 88.21564222133608 12.540999034589648
    vertex 4.6981623889255255 89.0194897986291 11.540999034589644
    vertex 4.698162388925571 89.01948979862917 11.999999999996097
  endloop
endfacet
facet normal 0.2588190451024973 0.9659258262890746 -3.474200928787789e-13
  outer loop
    vertex 4.6981623889255255 89.0194897986291 11.540999034589644
    vertex 7.698162388925773 88.21564222133608 12.540999034589648
    vertex 7.698162388925531 88.21564222133576 11.540999034589644
  endloop
endfacet
facet normal -0.25881904510252984 0.965925826289066 -1.1100397165433938e-14
  outer loop
    vertex 1.6981623889254986 88.21564222133571 12.540999034589648
    vertex 4.6981623889255255 89.0194897986291 11.540999034589644
    vertex 1.698162388925541 88.21564222133576 11.540999034589644
  endloop
endfacet
facet normal -0.25881904510252984 0.965925826289066 -1.1100397165433938e-14
  outer loop
    vertex 4.6981623889255255 89.0194897986291 11.540999034589644
    vertex 1.6981623889254986 88.21564222133571 12.540999034589648
    vertex 4.698162388925571 89.01948979862917 11.999999999996097
  endloop
endfacet
facet normal -0.08980219883773927 2.1649348980190556e-15 0.9959596202075199
  outer loop
    vertex 4.698162388925541 83.01948979862912 11.999999999996097
    vertex 10.698162388925525 83.01948979862902 12.540999034589655
    vertex 9.89431481163215 86.01948979862911 11.999999999996094
  endloop
endfacet
facet normal -0.08873521469286587 -0.1536939002685655 0.9841261335284454
  outer loop
    vertex 9.894314811632075 80.01948979862898 11.999999999996097
    vertex 10.698162388925525 83.01948979862902 12.540999034589655
    vertex 4.698162388925541 83.01948979862912 11.999999999996097
  endloop
endfacet
facet normal -0.04490109941886612 0.07777098550918231 0.9959596202075202
  outer loop
    vertex 7.69816238892548 77.82333737592249 12.540999034589635
    vertex 9.894314811632075 80.01948979862898 11.999999999996097
    vertex 4.698162388925541 83.01948979862912 11.999999999996097
  endloop
endfacet
facet normal 0.044901099418869446 -0.0777709855091824 0.99595962020752
  outer loop
    vertex 4.698162388925541 83.01948979862912 11.999999999996097
    vertex 4.698162388925571 89.01948979862917 11.999999999996097
    vertex 1.6981623889254986 88.21564222133571 12.540999034589648
  endloop
endfacet
facet normal -0.044901099418865546 -0.07777098550917769 0.9959596202075205
  outer loop
    vertex 4.698162388925541 83.01948979862912 11.999999999996097
    vertex 7.698162388925773 88.21564222133608 12.540999034589648
    vertex 4.698162388925571 89.01948979862917 11.999999999996097
  endloop
endfacet
facet normal 0.04490109941886562 0.07777098550918082 0.9959596202075204
  outer loop
    vertex 1.698162388925443 77.8233373759224 12.54099903458964
    vertex 4.698162388925541 83.01948979862912 11.999999999996097
    vertex -0.4979900337810713 80.0194897986291 11.9999999999961
  endloop
endfacet
facet normal 0.08873521469286216 0.15369390026856783 0.9841261335284454
  outer loop
    vertex -0.49799003378156126 103.33999787431789 12.009000965406452
    vertex -1.3018376110748588 100.33999787431792 12.549999999999986
    vertex 4.6981623889250965 100.33999787431786 12.009000965406448
  endloop
endfacet
facet normal 0.9659258262890724 0.25881904510250564 -4.2505516940912166e-14
  outer loop
    vertex 9.894314811631848 103.33999787431772 12.009000965406457
    vertex 10.698162388925107 100.33999787431786 11.549999999999995
    vertex 9.894314811631764 103.33999787431787 11.549999999999995
  endloop
endfacet
facet normal 0.9659258262890724 0.25881904510250564 -4.2505516940912166e-14
  outer loop
    vertex 10.698162388925107 100.33999787431786 11.549999999999995
    vertex 9.894314811631848 103.33999787431772 12.009000965406457
    vertex 10.698162388925125 100.33999787431792 12.549999999999999
  endloop
endfacet
facet normal -0.0 0.0 -1.0
  outer loop
    vertex 4.698162388925094 94.33999787431786 11.549999999999995
    vertex 9.894314811631704 97.33999787431789 11.549999999999995
    vertex 7.698162388925094 95.14384545161123 11.549999999999995
  endloop
endfacet
facet normal -0.0 0.0 -1.0
  outer loop
    vertex 9.894314811631704 97.33999787431789 11.549999999999995
    vertex 4.698162388925094 94.33999787431786 11.549999999999995
    vertex 1.6981623889251216 95.14384545161124 11.549999999999995
  endloop
endfacet
facet normal -0.0 0.0 -1.0
  outer loop
    vertex 9.894314811631704 97.33999787431789 11.549999999999995
    vertex 1.6981623889251216 95.14384545161124 11.549999999999995
    vertex 10.698162388925107 100.33999787431786 11.549999999999995
  endloop
endfacet
facet normal -0.0 0.0 -1.0
  outer loop
    vertex 10.698162388925107 100.33999787431786 11.549999999999995
    vertex 1.6981623889251216 95.14384545161124 11.549999999999995
    vertex -0.4979900337814823 97.33999787431787 11.549999999999995
  endloop
endfacet
facet normal -0.0 0.0 -1.0
  outer loop
    vertex 10.698162388925107 100.33999787431786 11.549999999999995
    vertex -0.4979900337814823 97.33999787431787 11.549999999999995
    vertex 9.894314811631764 103.33999787431787 11.549999999999995
  endloop
endfacet
facet normal -0.0 0.0 -1.0
  outer loop
    vertex 9.894314811631764 103.33999787431787 11.549999999999995
    vertex -0.4979900337814823 97.33999787431787 11.549999999999995
    vertex -1.3018376110748757 100.33999787431786 11.549999999999995
  endloop
endfacet
facet normal -0.0 0.0 -1.0
  outer loop
    vertex 9.894314811631764 103.33999787431787 11.549999999999995
    vertex -1.3018376110748757 100.33999787431786 11.549999999999995
    vertex 7.698162388925112 105.53615029702448 11.549999999999995
  endloop
endfacet
facet normal -0.0 0.0 -1.0
  outer loop
    vertex 7.698162388925112 105.53615029702448 11.549999999999995
    vertex -1.3018376110748757 100.33999787431786 11.549999999999995
    vertex -0.49799003378147105 103.33999787431783 11.549999999999995
  endloop
endfacet
facet normal -0.0 0.0 -1.0
  outer loop
    vertex 7.698162388925112 105.53615029702448 11.549999999999995
    vertex -0.49799003378147105 103.33999787431783 11.549999999999995
    vertex 4.698162388925106 106.33999787431782 11.549999999999995
  endloop
endfacet
facet normal -0.0 0.0 -1.0
  outer loop
    vertex 4.698162388925106 106.33999787431782 11.549999999999995
    vertex -0.49799003378147105 103.33999787431783 11.549999999999995
    vertex 1.6981623889251456 105.53615029702448 11.549999999999995
  endloop
endfacet
facet normal -0.177470429385722 -1.2628786905111156e-15 0.9841261335284454
  outer loop
    vertex 4.698162388925083 106.33999787431786 12.00900096540645
    vertex 4.6981623889250965 100.33999787431786 12.009000965406448
    vertex 7.698162388925101 105.5361502970244 12.549999999999997
  endloop
endfacet
facet normal -0.044901099418868266 0.07777098550917612 0.9959596202075205
  outer loop
    vertex 4.6981623889250965 100.33999787431786 12.009000965406448
    vertex 4.698162388925094 94.33999787431786 12.009000965406445
    vertex 7.698162388925303 95.14384545161087 12.549999999999999
  endloop
endfacet
facet normal -0.044901099418873026 -0.07777098550918086 0.99595962020752
  outer loop
    vertex 7.698162388925101 105.5361502970244 12.549999999999997
    vertex 4.6981623889250965 100.33999787431786 12.009000965406448
    vertex 9.894314811631848 103.33999787431772 12.009000965406457
  endloop
endfacet
facet normal 0.04490109941886941 -0.07777098550917862 0.9959596202075204
  outer loop
    vertex 1.698162388925072 105.5361502970246 12.549999999999992
    vertex -0.49799003378156126 103.33999787431789 12.009000965406452
    vertex 4.6981623889250965 100.33999787431786 12.009000965406448
  endloop
endfacet
facet normal -0.0898021988377382 -1.4918621893400545e-15 0.99595962020752
  outer loop
    vertex 4.6981623889250965 100.33999787431786 12.009000965406448
    vertex 10.698162388925125 100.33999787431792 12.549999999999999
    vertex 9.894314811631848 103.33999787431772 12.009000965406457
  endloop
endfacet
facet normal 0.7071067811865462 0.707106781186549 2.881624016140849e-14
  outer loop
    vertex 7.698162388925101 105.5361502970244 12.549999999999997
    vertex 9.894314811631764 103.33999787431787 11.549999999999995
    vertex 7.698162388925112 105.53615029702448 11.549999999999995
  endloop
endfacet
facet normal 0.7071067811865462 0.707106781186549 2.881624016140849e-14
  outer loop
    vertex 9.894314811631764 103.33999787431787 11.549999999999995
    vertex 7.698162388925101 105.5361502970244 12.549999999999997
    vertex 9.894314811631848 103.33999787431772 12.009000965406457
  endloop
endfacet
facet normal 0.25881904510252296 0.9659258262890678 3.3386579166805807e-14
  outer loop
    vertex 4.698162388925083 106.33999787431786 12.00900096540645
    vertex 7.698162388925112 105.53615029702448 11.549999999999995
    vertex 4.698162388925106 106.33999787431782 11.549999999999995
  endloop
endfacet
facet normal 0.25881904510252296 0.9659258262890678 3.3386579166805807e-14
  outer loop
    vertex 7.698162388925112 105.53615029702448 11.549999999999995
    vertex 4.698162388925083 106.33999787431786 12.00900096540645
    vertex 7.698162388925101 105.5361502970244 12.549999999999997
  endloop
endfacet
facet normal -0.2588190451025093 0.9659258262890715 -1.3189211874311875e-13
  outer loop
    vertex 1.6981623889251456 105.53615029702448 11.549999999999995
    vertex 4.698162388925083 106.33999787431786 12.00900096540645
    vertex 4.698162388925106 106.33999787431782 11.549999999999995
  endloop
endfacet
facet normal -0.2588190451025093 0.9659258262890715 -1.3189211874311875e-13
  outer loop
    vertex 4.698162388925083 106.33999787431786 12.00900096540645
    vertex 1.6981623889251456 105.53615029702448 11.549999999999995
    vertex 1.698162388925072 105.5361502970246 12.549999999999992
  endloop
endfacet
facet normal -0.7071067811865474 0.7071067811865477 -1.3364234591126955e-13
  outer loop
    vertex -0.49799003378147105 103.33999787431783 11.549999999999995
    vertex 1.698162388925072 105.5361502970246 12.549999999999992
    vertex 1.6981623889251456 105.53615029702448 11.549999999999995
  endloop
endfacet
facet normal -0.7071067811865474 0.7071067811865477 -1.3364234591126955e-13
  outer loop
    vertex 1.698162388925072 105.5361502970246 12.549999999999992
    vertex -0.49799003378147105 103.33999787431783 11.549999999999995
    vertex -0.49799003378156126 103.33999787431789 12.009000965406452
  endloop
endfacet
facet normal -0.9659258262890712 0.2588190451025102 -3.01418476876796e-14
  outer loop
    vertex -1.3018376110748588 100.33999787431792 12.549999999999986
    vertex -0.49799003378147105 103.33999787431783 11.549999999999995
    vertex -1.3018376110748757 100.33999787431786 11.549999999999995
  endloop
endfacet
facet normal -0.9659258262890712 0.2588190451025102 -3.01418476876796e-14
  outer loop
    vertex -0.49799003378147105 103.33999787431783 11.549999999999995
    vertex -1.3018376110748588 100.33999787431792 12.549999999999986
    vertex -0.49799003378156126 103.33999787431789 12.009000965406452
  endloop
endfacet
facet normal -0.9659258262890711 -0.2588190451025102 8.626119614479324e-15
  outer loop
    vertex -0.4979900337815669 97.33999787431802 12.009000965406448
    vertex -1.3018376110748757 100.33999787431786 11.549999999999995
    vertex -0.4979900337814823 97.33999787431787 11.549999999999995
  endloop
endfacet
facet normal -0.9659258262890711 -0.2588190451025102 8.626119614479324e-15
  outer loop
    vertex -1.3018376110748757 100.33999787431786 11.549999999999995
    vertex -0.4979900337815669 97.33999787431802 12.009000965406448
    vertex -1.3018376110748588 100.33999787431792 12.549999999999986
  endloop
endfacet
facet normal -0.7071067811865556 -0.7071067811865397 1.0001298103742701e-15
  outer loop
    vertex 1.698162388925037 95.1438454516113 12.550000000000006
    vertex -0.4979900337814823 97.33999787431787 11.549999999999995
    vertex 1.6981623889251216 95.14384545161124 11.549999999999995
  endloop
endfacet
facet normal -0.7071067811865556 -0.7071067811865397 1.0001298103742701e-15
  outer loop
    vertex -0.4979900337814823 97.33999787431787 11.549999999999995
    vertex 1.698162388925037 95.1438454516113 12.550000000000006
    vertex -0.4979900337815669 97.33999787431802 12.009000965406448
  endloop
endfacet
facet normal -0.2588190451025186 -0.9659258262890689 2.6299402515028522e-14
  outer loop
    vertex 1.698162388925037 95.1438454516113 12.550000000000006
    vertex 4.698162388925094 94.33999787431786 11.549999999999995
    vertex 4.698162388925094 94.33999787431786 12.009000965406445
  endloop
endfacet
facet normal -0.2588190451025186 -0.9659258262890689 2.6299402515028522e-14
  outer loop
    vertex 4.698162388925094 94.33999787431786 11.549999999999995
    vertex 1.698162388925037 95.1438454516113 12.550000000000006
    vertex 1.6981623889251216 95.14384545161124 11.549999999999995
  endloop
endfacet
facet normal 0.2588190451024798 -0.9659258262890794 -3.3366830798613726e-13
  outer loop
    vertex 4.698162388925094 94.33999787431786 12.009000965406445
    vertex 7.698162388925094 95.14384545161123 11.549999999999995
    vertex 7.698162388925303 95.14384545161087 12.549999999999999
  endloop
endfacet
facet normal 0.2588190451024798 -0.9659258262890794 -3.3366830798613726e-13
  outer loop
    vertex 7.698162388925094 95.14384545161123 11.549999999999995
    vertex 4.698162388925094 94.33999787431786 12.009000965406445
    vertex 4.698162388925094 94.33999787431786 11.549999999999995
  endloop
endfacet
facet normal 0.7071067811865644 -0.7071067811865306 -3.474200928787789e-13
  outer loop
    vertex 7.698162388925303 95.14384545161087 12.549999999999999
    vertex 9.894314811631704 97.33999787431789 11.549999999999995
    vertex 9.894314811631755 97.3399978743178 12.009000965406448
  endloop
endfacet
facet normal 0.7071067811865644 -0.7071067811865306 -3.474200928787789e-13
  outer loop
    vertex 9.894314811631704 97.33999787431789 11.549999999999995
    vertex 7.698162388925303 95.14384545161087 12.549999999999999
    vertex 7.698162388925094 95.14384545161123 11.549999999999995
  endloop
endfacet
facet normal 0.9659258262890708 -0.2588190451025118 -1.1100397165433932e-14
  outer loop
    vertex 10.698162388925125 100.33999787431792 12.549999999999999
    vertex 9.894314811631704 97.33999787431789 11.549999999999995
    vertex 10.698162388925107 100.33999787431786 11.549999999999995
  endloop
endfacet
facet normal 0.9659258262890708 -0.2588190451025118 -1.1100397165433932e-14
  outer loop
    vertex 9.894314811631704 97.33999787431789 11.549999999999995
    vertex 10.698162388925125 100.33999787431792 12.549999999999999
    vertex 9.894314811631755 97.3399978743178 12.009000965406448
  endloop
endfacet
facet normal 0.04490109941887174 0.07777098550918243 0.9959596202075199
  outer loop
    vertex 4.6981623889250965 100.33999787431786 12.009000965406448
    vertex 1.698162388925037 95.1438454516113 12.550000000000006
    vertex 4.698162388925094 94.33999787431786 12.009000965406445
  endloop
endfacet
facet normal -0.08873521469285665 0.15369390026857083 0.9841261335284454
  outer loop
    vertex -0.4979900337815669 97.33999787431802 12.009000965406448
    vertex 1.698162388925037 95.1438454516113 12.550000000000006
    vertex 4.6981623889250965 100.33999787431786 12.009000965406448
  endloop
endfacet
facet normal 0.08980219883773642 -1.6445178552260135e-15 0.9959596202075203
  outer loop
    vertex -1.3018376110748588 100.33999787431792 12.549999999999986
    vertex -0.4979900337815669 97.33999787431802 12.009000965406448
    vertex 4.6981623889250965 100.33999787431786 12.009000965406448
  endloop
endfacet
facet normal -0.0898021988377382 -1.4918621893400545e-15 0.99595962020752
  outer loop
    vertex 4.6981623889250965 100.33999787431786 12.009000965406448
    vertex 9.894314811631755 97.3399978743178 12.009000965406448
    vertex 10.698162388925125 100.33999787431792 12.549999999999999
  endloop
endfacet
facet normal -0.044901099418868266 0.07777098550917612 0.9959596202075205
  outer loop
    vertex 4.6981623889250965 100.33999787431786 12.009000965406448
    vertex 7.698162388925303 95.14384545161087 12.549999999999999
    vertex 9.894314811631755 97.3399978743178 12.009000965406448
  endloop
endfacet
facet normal 0.04490109941886941 -0.07777098550917862 0.9959596202075204
  outer loop
    vertex 1.698162388925072 105.5361502970246 12.549999999999992
    vertex 4.6981623889250965 100.33999787431786 12.009000965406448
    vertex 4.698162388925083 106.33999787431786 12.00900096540645
  endloop
endfacet
facet normal 1.3863509733300429e-13 -0.9238795325112888 0.382683432365085
  outer loop
    vertex 9.698162388924704 90.97263705528657 11.70710678118655
    vertex 19.698162388924423 90.679743836473 10.9999999999961
    vertex 19.698162388924704 90.97263705528646 11.707106781182649
  endloop
endfacet
facet normal 1.3863509733300429e-13 -0.9238795325112888 0.382683432365085
  outer loop
    vertex 19.698162388924423 90.679743836473 10.9999999999961
    vertex 9.698162388924704 90.97263705528657 11.70710678118655
    vertex 9.698162388924425 90.67974383647311 11.000000000000002
  endloop
endfacet
facet normal 3.560295486449168e-13 -0.382683432365085 0.9238795325112888
  outer loop
    vertex 9.698162388924704 90.97263705528657 11.70710678118655
    vertex 19.698162388924825 91.679743836473 11.999999999996097
    vertex 9.698162388924827 91.67974383647311 12.0
  endloop
endfacet
facet normal 3.560295486449168e-13 -0.382683432365085 0.9238795325112888
  outer loop
    vertex 19.698162388924825 91.679743836473 11.999999999996097
    vertex 9.698162388924704 90.97263705528657 11.70710678118655
    vertex 19.698162388924704 90.97263705528646 11.707106781182649
  endloop
endfacet
facet normal 3.648667189662062e-13 0.382683432365085 0.9238795325112888
  outer loop
    vertex 9.698162388924827 91.67974383647311 12.0
    vertex 19.698162388924718 92.38685061765955 11.707106781182649
    vertex 9.69816238892472 92.38685061765966 11.70710678118655
  endloop
endfacet
facet normal 3.648667189662062e-13 0.382683432365085 0.9238795325112888
  outer loop
    vertex 19.698162388924718 92.38685061765955 11.707106781182649
    vertex 9.698162388924827 91.67974383647311 12.0
    vertex 19.698162388924825 91.679743836473 11.999999999996097
  endloop
endfacet
facet normal 1.5996991377566265e-13 0.9238795325112888 0.382683432365085
  outer loop
    vertex 9.698162388924446 92.67974383647311 11.000000000000002
    vertex 19.698162388924718 92.38685061765955 11.707106781182649
    vertex 19.698162388924448 92.679743836473 10.9999999999961
  endloop
endfacet
facet normal 1.5996991377566265e-13 0.9238795325112888 0.382683432365085
  outer loop
    vertex 19.698162388924718 92.38685061765955 11.707106781182649
    vertex 9.698162388924446 92.67974383647311 11.000000000000002
    vertex 9.69816238892472 92.38685061765966 11.70710678118655
  endloop
endfacet
facet normal 1.0 -1.1546319456101631e-14 -3.901462486410881e-13
  outer loop
    vertex 19.698162388924704 90.97263705528646 11.707106781182649
    vertex 19.698162388924718 92.38685061765955 11.707106781182649
    vertex 19.698162388924825 91.679743836473 11.999999999996097
  endloop
endfacet
facet normal 1.0 -1.1546319456101631e-14 -3.901462486410881e-13
  outer loop
    vertex 19.698162388924718 92.38685061765955 11.707106781182649
    vertex 19.698162388924704 90.97263705528646 11.707106781182649
    vertex 19.698162388924423 90.679743836473 10.9999999999961
  endloop
endfacet
facet normal 1.0 -1.1546319456101631e-14 -3.901462486410881e-13
  outer loop
    vertex 19.698162388924718 92.38685061765955 11.707106781182649
    vertex 19.698162388924423 90.679743836473 10.9999999999961
    vertex 19.698162388924448 92.679743836473 10.9999999999961
  endloop
endfacet
facet normal 1.0 -1.1546319456101631e-14 -3.901462486410881e-13
  outer loop
    vertex 19.698162388924448 92.679743836473 10.9999999999961
    vertex 19.698162388924423 90.679743836473 10.9999999999961
    vertex 19.698162388924153 90.97263705528646 10.29289321880955
  endloop
endfacet
facet normal 1.0 -1.1546319456101631e-14 -3.901462486410881e-13
  outer loop
    vertex 19.698162388924448 92.679743836473 10.9999999999961
    vertex 19.698162388924153 90.97263705528646 10.29289321880955
    vertex 19.698162388924167 92.38685061765955 10.29289321880955
  endloop
endfacet
facet normal 1.0 -1.1546319456101631e-14 -3.901462486410881e-13
  outer loop
    vertex 19.698162388924167 92.38685061765955 10.29289321880955
    vertex 19.698162388924153 90.97263705528646 10.29289321880955
    vertex 19.698162388924047 91.679743836473 9.999999999996101
  endloop
endfacet
facet normal -1.3863509733300429e-13 0.9238795325112888 -0.382683432365085
  outer loop
    vertex 9.698162388924167 92.38685061765966 10.292893218813452
    vertex 19.698162388924448 92.679743836473 10.9999999999961
    vertex 19.698162388924167 92.38685061765955 10.29289321880955
  endloop
endfacet
facet normal -1.3863509733300429e-13 0.9238795325112888 -0.382683432365085
  outer loop
    vertex 19.698162388924448 92.679743836473 10.9999999999961
    vertex 9.698162388924167 92.38685061765966 10.292893218813452
    vertex 9.698162388924446 92.67974383647311 11.000000000000002
  endloop
endfacet
facet normal -3.560295486449168e-13 0.382683432365085 -0.9238795325112888
  outer loop
    vertex 19.698162388924047 91.679743836473 9.999999999996101
    vertex 9.698162388924167 92.38685061765966 10.292893218813452
    vertex 19.698162388924167 92.38685061765955 10.29289321880955
  endloop
endfacet
facet normal -3.560295486449168e-13 0.382683432365085 -0.9238795325112888
  outer loop
    vertex 9.698162388924167 92.38685061765966 10.292893218813452
    vertex 19.698162388924047 91.679743836473 9.999999999996101
    vertex 9.698162388924045 91.67974383647311 10.000000000000004
  endloop
endfacet
facet normal -3.648667189662062e-13 -0.382683432365085 -0.9238795325112888
  outer loop
    vertex 19.698162388924153 90.97263705528646 10.29289321880955
    vertex 9.698162388924045 91.67974383647311 10.000000000000004
    vertex 19.698162388924047 91.679743836473 9.999999999996101
  endloop
endfacet
facet normal -3.648667189662062e-13 -0.382683432365085 -0.9238795325112888
  outer loop
    vertex 9.698162388924045 91.67974383647311 10.000000000000004
    vertex 19.698162388924153 90.97263705528646 10.29289321880955
    vertex 9.698162388924152 90.97263705528657 10.292893218813452
  endloop
endfacet
facet normal -1.5996991377566265e-13 -0.9238795325112888 -0.382683432365085
  outer loop
    vertex 9.698162388924425 90.67974383647311 11.000000000000002
    vertex 19.698162388924153 90.97263705528646 10.29289321880955
    vertex 19.698162388924423 90.679743836473 10.9999999999961
  endloop
endfacet
facet normal -1.5996991377566265e-13 -0.9238795325112888 -0.382683432365085
  outer loop
    vertex 19.698162388924153 90.97263705528646 10.29289321880955
    vertex 9.698162388924425 90.67974383647311 11.000000000000002
    vertex 9.698162388924152 90.97263705528657 10.292893218813452
  endloop
endfacet
facet normal -1.0 1.1546319456101631e-14 3.901462486410881e-13
  outer loop
    vertex 9.69816238892472 92.38685061765966 11.70710678118655
    vertex 9.698162388924704 90.97263705528657 11.70710678118655
    vertex 9.698162388924827 91.67974383647311 12.0
  endloop
endfacet
facet normal -1.0 1.1546319456101631e-14 3.901462486410881e-13
  outer loop
    vertex 9.698162388924704 90.97263705528657 11.70710678118655
    vertex 9.69816238892472 92.38685061765966 11.70710678118655
    vertex 9.698162388924446 92.67974383647311 11.000000000000002
  endloop
endfacet
facet normal -1.0 1.1546319456101631e-14 3.901462486410881e-13
  outer loop
    vertex 9.698162388924704 90.97263705528657 11.70710678118655
    vertex 9.698162388924446 92.67974383647311 11.000000000000002
    vertex 9.698162388924425 90.67974383647311 11.000000000000002
  endloop
endfacet
facet normal -1.0 1.1546319456101631e-14 3.901462486410881e-13
  outer loop
    vertex 9.698162388924425 90.67974383647311 11.000000000000002
    vertex 9.698162388924446 92.67974383647311 11.000000000000002
    vertex 9.698162388924167 92.38685061765966 10.292893218813452
  endloop
endfacet
facet normal -1.0 1.1546319456101631e-14 3.901462486410881e-13
  outer loop
    vertex 9.698162388924425 90.67974383647311 11.000000000000002
    vertex 9.698162388924167 92.38685061765966 10.292893218813452
    vertex 9.698162388924152 90.97263705528657 10.292893218813452
  endloop
endfacet
facet normal -1.0 1.1546319456101631e-14 3.901462486410881e-13
  outer loop
    vertex 9.698162388924152 90.97263705528657 10.292893218813452
    vertex 9.698162388924167 92.38685061765966 10.292893218813452
    vertex 9.698162388924045 91.67974383647311 10.000000000000004
  endloop
endfacet
facet normal -0.8001031451913408 0.46193976625551697 0.382683432365085
  outer loop
    vertex 9.085789953229867 92.03329722706692 11.70710678118655
    vertex 3.832136985141344 83.51948979862952 10.9999999999961
    vertex 4.085789953229846 83.37304318922256 11.707106781182649
  endloop
endfacet
facet normal -0.8001031451913408 0.46193976625551697 0.382683432365085
  outer loop
    vertex 3.832136985141344 83.51948979862952 10.9999999999961
    vertex 9.085789953229867 92.03329722706692 11.70710678118655
    vertex 8.832136985141364 92.1797438364739 11.000000000000002
  endloop
endfacet
facet normal -0.3314135740357675 0.19134171618223111 0.9238795325112888
  outer loop
    vertex 9.085789953229867 92.03329722706692 11.70710678118655
    vertex 4.698162388925585 83.01948979862918 11.999999999996097
    vertex 9.698162388925605 91.67974383647356 12.0
  endloop
endfacet
facet normal -0.3314135740357675 0.19134171618223111 0.9238795325112888
  outer loop
    vertex 4.698162388925585 83.01948979862918 11.999999999996097
    vertex 9.085789953229867 92.03329722706692 11.70710678118655
    vertex 4.085789953229846 83.37304318922256 11.707106781182649
  endloop
endfacet
facet normal 0.331413574035407 -0.19134171618285545 0.9238795325112888
  outer loop
    vertex 9.698162388925605 91.67974383647356 12.0
    vertex 5.3105348246214374 82.665936408036 11.707106781182649
    vertex 10.310534824621458 91.32619044588037 11.70710678118655
  endloop
endfacet
facet normal 0.331413574035407 -0.19134171618285545 0.9238795325112888
  outer loop
    vertex 5.3105348246214374 82.665936408036 11.707106781182649
    vertex 9.698162388925605 91.67974383647356 12.0
    vertex 4.698162388925585 83.01948979862918 11.999999999996097
  endloop
endfacet
facet normal 0.8001031451911914 -0.46193976625577543 0.3826834323650849
  outer loop
    vertex 10.564187792710236 91.1797438364739 11.000000000000002
    vertex 5.3105348246214374 82.665936408036 11.707106781182649
    vertex 5.564187792710216 82.51948979862952 10.9999999999961
  endloop
endfacet
facet normal 0.8001031451911914 -0.46193976625577543 0.3826834323650849
  outer loop
    vertex 5.3105348246214374 82.665936408036 11.707106781182649
    vertex 10.564187792710236 91.1797438364739 11.000000000000002
    vertex 10.310534824621458 91.32619044588037 11.70710678118655
  endloop
endfacet
facet normal -0.500000000000002 -0.8660254037844375 -3.9014624864108797e-13
  outer loop
    vertex 4.085789953229846 83.37304318922256 11.707106781182649
    vertex 5.3105348246214374 82.665936408036 11.707106781182649
    vertex 4.698162388925585 83.01948979862918 11.999999999996097
  endloop
endfacet
facet normal -0.500000000000002 -0.8660254037844375 -3.9014624864108797e-13
  outer loop
    vertex 5.3105348246214374 82.665936408036 11.707106781182649
    vertex 4.085789953229846 83.37304318922256 11.707106781182649
    vertex 3.832136985141344 83.51948979862952 10.9999999999961
  endloop
endfacet
facet normal -0.500000000000002 -0.8660254037844375 -3.9014624864108797e-13
  outer loop
    vertex 5.3105348246214374 82.665936408036 11.707106781182649
    vertex 3.832136985141344 83.51948979862952 10.9999999999961
    vertex 5.564187792710216 82.51948979862952 10.9999999999961
  endloop
endfacet
facet normal -0.500000000000002 -0.8660254037844375 -3.9014624864108797e-13
  outer loop
    vertex 5.564187792710216 82.51948979862952 10.9999999999961
    vertex 3.832136985141344 83.51948979862952 10.9999999999961
    vertex 4.0857899532301225 83.37304318922303 10.29289321880955
  endloop
endfacet
facet normal -0.500000000000002 -0.8660254037844375 -3.9014624864108797e-13
  outer loop
    vertex 5.564187792710216 82.51948979862952 10.9999999999961
    vertex 4.0857899532301225 83.37304318922303 10.29289321880955
    vertex 5.310534824621713 82.66593640803649 10.29289321880955
  endloop
endfacet
facet normal -0.500000000000002 -0.8660254037844375 -3.9014624864108797e-13
  outer loop
    vertex 5.310534824621713 82.66593640803649 10.29289321880955
    vertex 4.0857899532301225 83.37304318922303 10.29289321880955
    vertex 4.698162388925975 83.01948979862986 9.999999999996101
  endloop
endfacet
facet normal 0.8001031451913408 -0.46193976625551697 -0.382683432365085
  outer loop
    vertex 10.310534824621733 91.32619044588087 10.292893218813452
    vertex 5.564187792710216 82.51948979862952 10.9999999999961
    vertex 5.310534824621713 82.66593640803649 10.29289321880955
  endloop
endfacet
facet normal 0.8001031451913408 -0.46193976625551697 -0.382683432365085
  outer loop
    vertex 5.564187792710216 82.51948979862952 10.9999999999961
    vertex 10.310534824621733 91.32619044588087 10.292893218813452
    vertex 10.564187792710236 91.1797438364739 11.000000000000002
  endloop
endfacet
facet normal 0.3314135740357675 -0.19134171618223111 -0.9238795325112888
  outer loop
    vertex 4.698162388925975 83.01948979862986 9.999999999996101
    vertex 10.310534824621733 91.32619044588087 10.292893218813452
    vertex 5.310534824621713 82.66593640803649 10.29289321880955
  endloop
endfacet
facet normal 0.3314135740357675 -0.19134171618223111 -0.9238795325112888
  outer loop
    vertex 10.310534824621733 91.32619044588087 10.292893218813452
    vertex 4.698162388925975 83.01948979862986 9.999999999996101
    vertex 9.698162388925995 91.67974383647424 10.000000000000004
  endloop
endfacet
facet normal -0.331413574035407 0.19134171618285545 -0.9238795325112888
  outer loop
    vertex 4.0857899532301225 83.37304318922303 10.29289321880955
    vertex 9.698162388925995 91.67974383647424 10.000000000000004
    vertex 4.698162388925975 83.01948979862986 9.999999999996101
  endloop
endfacet
facet normal -0.331413574035407 0.19134171618285545 -0.9238795325112888
  outer loop
    vertex 9.698162388925995 91.67974383647424 10.000000000000004
    vertex 4.0857899532301225 83.37304318922303 10.29289321880955
    vertex 9.085789953230142 92.03329722706741 10.292893218813452
  endloop
endfacet
facet normal -0.8001031451911914 0.46193976625577543 -0.3826834323650849
  outer loop
    vertex 8.832136985141364 92.1797438364739 11.000000000000002
    vertex 4.0857899532301225 83.37304318922303 10.29289321880955
    vertex 3.832136985141344 83.51948979862952 10.9999999999961
  endloop
endfacet
facet normal -0.8001031451911914 0.46193976625577543 -0.3826834323650849
  outer loop
    vertex 4.0857899532301225 83.37304318922303 10.29289321880955
    vertex 8.832136985141364 92.1797438364739 11.000000000000002
    vertex 9.085789953230142 92.03329722706741 10.292893218813452
  endloop
endfacet
facet normal 0.500000000000002 0.8660254037844375 3.9014624864108797e-13
  outer loop
    vertex 10.310534824621458 91.32619044588037 11.70710678118655
    vertex 9.085789953229867 92.03329722706692 11.70710678118655
    vertex 9.698162388925605 91.67974383647356 12.0
  endloop
endfacet
facet normal 0.500000000000002 0.8660254037844375 3.9014624864108797e-13
  outer loop
    vertex 9.085789953229867 92.03329722706692 11.70710678118655
    vertex 10.310534824621458 91.32619044588037 11.70710678118655
    vertex 10.564187792710236 91.1797438364739 11.000000000000002
  endloop
endfacet
facet normal 0.500000000000002 0.8660254037844375 3.9014624864108797e-13
  outer loop
    vertex 9.085789953229867 92.03329722706692 11.70710678118655
    vertex 10.564187792710236 91.1797438364739 11.000000000000002
    vertex 8.832136985141364 92.1797438364739 11.000000000000002
  endloop
endfacet
facet normal 0.500000000000002 0.8660254037844375 3.9014624864108797e-13
  outer loop
    vertex 8.832136985141364 92.1797438364739 11.000000000000002
    vertex 10.564187792710236 91.1797438364739 11.000000000000002
    vertex 10.310534824621733 91.32619044588087 10.292893218813452
  endloop
endfacet
facet normal 0.500000000000002 0.8660254037844375 3.9014624864108797e-13
  outer loop
    vertex 8.832136985141364 92.1797438364739 11.000000000000002
    vertex 10.310534824621733 91.32619044588087 10.292893218813452
    vertex 9.085789953230142 92.03329722706741 10.292893218813452
  endloop
endfacet
facet normal 0.500000000000002 0.8660254037844375 3.9014624864108797e-13
  outer loop
    vertex 9.085789953230142 92.03329722706741 10.292893218813452
    vertex 10.310534824621733 91.32619044588087 10.292893218813452
    vertex 9.698162388925995 91.67974383647424 10.000000000000004
  endloop
endfacet
facet normal 0.08873521469286054 -0.15369390026856863 0.9841261335284454
  outer loop
    vertex 24.894314811632388 94.67974383647307 12.009000965406452
    vertex 22.698162388925734 96.87589625917963 12.549999999999986
    vertex 19.698162388925695 91.67974383647304 12.009000965406447
  endloop
endfacet
facet normal -0.25881904510253645 -0.9659258262890642 -4.250551694091218e-14
  outer loop
    vertex 19.698162388925514 85.67974383647301 12.009000965406457
    vertex 16.6981623889257 86.48359141376642 11.549999999999995
    vertex 19.698162388925695 85.67974383647305 11.549999999999995
  endloop
endfacet
facet normal -0.25881904510253645 -0.9659258262890642 -4.250551694091218e-14
  outer loop
    vertex 16.6981623889257 86.48359141376642 11.549999999999995
    vertex 19.698162388925514 85.67974383647301 12.009000965406457
    vertex 16.698162388925745 86.48359141376639 12.549999999999999
  endloop
endfacet
facet normal 0.08873521469285994 0.1536939002685681 0.9841261335284454
  outer loop
    vertex 24.89431481163234 88.67974383647307 12.00900096540645
    vertex 19.698162388925695 91.67974383647304 12.009000965406447
    vertex 22.698162388925645 86.48359141376645 12.549999999999999
  endloop
endfacet
facet normal 0.08980219883773212 4.89725220097611e-16 0.9959596202075205
  outer loop
    vertex 19.698162388925695 91.67974383647304 12.009000965406447
    vertex 14.502009966219093 94.67974383647304 12.009000965406445
    vertex 13.698162388925299 91.6797438364731 12.549999999999999
  endloop
endfacet
facet normal -0.04490109941886572 0.07777098550918504 0.99595962020752
  outer loop
    vertex 22.698162388925645 86.48359141376645 12.549999999999999
    vertex 19.698162388925695 91.67974383647304 12.009000965406447
    vertex 19.698162388925514 85.67974383647301 12.009000965406457
  endloop
endfacet
facet normal -0.08980219883773487 -2.0340968270347e-15 0.9959596202075204
  outer loop
    vertex 25.69816238892582 91.679743836473 12.549999999999992
    vertex 24.894314811632388 94.67974383647307 12.009000965406452
    vertex 19.698162388925695 91.67974383647304 12.009000965406447
  endloop
endfacet
facet normal 0.04490109941886875 0.07777098550918281 0.99595962020752
  outer loop
    vertex 19.698162388925695 91.67974383647304 12.009000965406447
    vertex 16.698162388925745 86.48359141376639 12.549999999999999
    vertex 19.698162388925514 85.67974383647301 12.009000965406457
  endloop
endfacet
facet normal 0.2588190451025226 -0.9659258262890678 2.88162401614085e-14
  outer loop
    vertex 22.698162388925645 86.48359141376645 12.549999999999999
    vertex 19.698162388925695 85.67974383647305 11.549999999999995
    vertex 22.698162388925688 86.48359141376642 11.549999999999995
  endloop
endfacet
facet normal 0.2588190451025226 -0.9659258262890678 2.88162401614085e-14
  outer loop
    vertex 19.698162388925695 85.67974383647305 11.549999999999995
    vertex 22.698162388925645 86.48359141376645 12.549999999999999
    vertex 19.698162388925514 85.67974383647301 12.009000965406457
  endloop
endfacet
facet normal 0.707106781186546 -0.707106781186549 3.338657916680581e-14
  outer loop
    vertex 24.89431481163234 88.67974383647307 12.00900096540645
    vertex 22.698162388925688 86.48359141376642 11.549999999999995
    vertex 24.894314811632295 88.67974383647305 11.549999999999995
  endloop
endfacet
facet normal 0.707106781186546 -0.707106781186549 3.338657916680581e-14
  outer loop
    vertex 22.698162388925688 86.48359141376642 11.549999999999995
    vertex 24.89431481163234 88.67974383647307 12.00900096540645
    vertex 22.698162388925645 86.48359141376645 12.549999999999999
  endloop
endfacet
facet normal 0.9659258262890653 -0.25881904510253234 -1.3189211874311875e-13
  outer loop
    vertex 25.698162388925684 91.67974383647304 11.549999999999995
    vertex 24.89431481163234 88.67974383647307 12.00900096540645
    vertex 24.894314811632295 88.67974383647305 11.549999999999995
  endloop
endfacet
facet normal 0.9659258262890653 -0.25881904510253234 -1.3189211874311875e-13
  outer loop
    vertex 24.89431481163234 88.67974383647307 12.00900096540645
    vertex 25.698162388925684 91.67974383647304 11.549999999999995
    vertex 25.69816238892582 91.679743836473 12.549999999999992
  endloop
endfacet
facet normal 0.9659258262890685 0.25881904510252 -1.3364234591126955e-13
  outer loop
    vertex 25.698162388925684 91.67974383647304 11.549999999999995
    vertex 24.894314811632388 94.67974383647307 12.009000965406452
    vertex 25.69816238892582 91.679743836473 12.549999999999992
  endloop
endfacet
facet normal 0.9659258262890685 0.25881904510252 -1.3364234591126955e-13
  outer loop
    vertex 24.894314811632388 94.67974383647307 12.009000965406452
    vertex 25.698162388925684 91.67974383647304 11.549999999999995
    vertex 24.894314811632295 94.67974383647304 11.549999999999995
  endloop
endfacet
facet normal 0.7071067811865402 0.7071067811865549 -3.014184768767961e-14
  outer loop
    vertex 22.698162388925734 96.87589625917963 12.549999999999986
    vertex 24.894314811632295 94.67974383647304 11.549999999999995
    vertex 22.698162388925688 96.87589625917967 11.549999999999995
  endloop
endfacet
facet normal 0.7071067811865402 0.7071067811865549 -3.014184768767961e-14
  outer loop
    vertex 24.894314811632295 94.67974383647304 11.549999999999995
    vertex 22.698162388925734 96.87589625917963 12.549999999999986
    vertex 24.894314811632388 94.67974383647307 12.009000965406452
  endloop
endfacet
facet normal 0.2588190451025318 0.9659258262890653 8.626119614479329e-15
  outer loop
    vertex 19.698162388925876 97.67974383647304 12.009000965406448
    vertex 22.698162388925688 96.87589625917967 11.549999999999995
    vertex 19.698162388925695 97.67974383647304 11.549999999999995
  endloop
endfacet
facet normal 0.2588190451025318 0.9659258262890653 8.626119614479329e-15
  outer loop
    vertex 22.698162388925688 96.87589625917967 11.549999999999995
    vertex 19.698162388925876 97.67974383647304 12.009000965406448
    vertex 22.698162388925734 96.87589625917963 12.549999999999986
  endloop
endfacet
facet normal -0.2588190451025099 0.9659258262890713 1.0001298103742707e-15
  outer loop
    vertex 16.69816238892579 96.87589625917971 12.550000000000006
    vertex 19.698162388925695 97.67974383647304 11.549999999999995
    vertex 16.6981623889257 96.87589625917967 11.549999999999995
  endloop
endfacet
facet normal -0.2588190451025099 0.9659258262890713 1.0001298103742707e-15
  outer loop
    vertex 19.698162388925695 97.67974383647304 11.549999999999995
    vertex 16.69816238892579 96.87589625917971 12.550000000000006
    vertex 19.698162388925876 97.67974383647304 12.009000965406448
  endloop
endfacet
facet normal 0.044901099418867677 -0.07777098550918475 0.9959596202075199
  outer loop
    vertex 19.698162388925695 91.67974383647304 12.009000965406447
    vertex 16.69816238892579 96.87589625917971 12.550000000000006
    vertex 14.502009966219093 94.67974383647304 12.009000965406445
  endloop
endfacet
facet normal 0.1774704293857226 -5.410087215136723e-15 0.9841261335284454
  outer loop
    vertex 19.698162388925876 97.67974383647304 12.009000965406448
    vertex 16.69816238892579 96.87589625917971 12.550000000000006
    vertex 19.698162388925695 91.67974383647304 12.009000965406447
  endloop
endfacet
facet normal -0.04490109941887033 -0.07777098550917988 0.9959596202075202
  outer loop
    vertex 22.698162388925734 96.87589625917963 12.549999999999986
    vertex 19.698162388925876 97.67974383647304 12.009000965406448
    vertex 19.698162388925695 91.67974383647304 12.009000965406447
  endloop
endfacet
facet normal 0.04490109941886875 0.07777098550918281 0.99595962020752
  outer loop
    vertex 19.698162388925695 91.67974383647304 12.009000965406447
    vertex 14.502009966219003 88.67974383647305 12.00900096540645
    vertex 16.698162388925745 86.48359141376639 12.549999999999999
  endloop
endfacet
facet normal 0.08980219883773212 4.89725220097611e-16 0.9959596202075205
  outer loop
    vertex 19.698162388925695 91.67974383647304 12.009000965406447
    vertex 13.698162388925299 91.6797438364731 12.549999999999999
    vertex 14.502009966219003 88.67974383647305 12.00900096540645
  endloop
endfacet
facet normal -0.08980219883773487 -2.0340968270347e-15 0.9959596202075204
  outer loop
    vertex 25.69816238892582 91.679743836473 12.549999999999992
    vertex 19.698162388925695 91.67974383647304 12.009000965406447
    vertex 24.89431481163234 88.67974383647307 12.00900096540645
  endloop
endfacet
facet normal 0.0 0.0 -1.0
  outer loop
    vertex 14.502009966219093 94.67974383647304 11.549999999999995
    vertex 14.502009966219093 88.67974383647305 11.549999999999995
    vertex 13.698162388925706 91.67974383647304 11.549999999999995
  endloop
endfacet
facet normal 0.0 0.0 -1.0
  outer loop
    vertex 14.502009966219093 88.67974383647305 11.549999999999995
    vertex 14.502009966219093 94.67974383647304 11.549999999999995
    vertex 16.6981623889257 96.87589625917967 11.549999999999995
  endloop
endfacet
facet normal 0.0 0.0 -1.0
  outer loop
    vertex 14.502009966219093 88.67974383647305 11.549999999999995
    vertex 16.6981623889257 96.87589625917967 11.549999999999995
    vertex 16.6981623889257 86.48359141376642 11.549999999999995
  endloop
endfacet
facet normal 0.0 0.0 -1.0
  outer loop
    vertex 16.6981623889257 86.48359141376642 11.549999999999995
    vertex 16.6981623889257 96.87589625917967 11.549999999999995
    vertex 19.698162388925695 97.67974383647304 11.549999999999995
  endloop
endfacet
facet normal 0.0 0.0 -1.0
  outer loop
    vertex 16.6981623889257 86.48359141376642 11.549999999999995
    vertex 19.698162388925695 97.67974383647304 11.549999999999995
    vertex 19.698162388925695 85.67974383647305 11.549999999999995
  endloop
endfacet
facet normal 0.0 0.0 -1.0
  outer loop
    vertex 19.698162388925695 85.67974383647305 11.549999999999995
    vertex 19.698162388925695 97.67974383647304 11.549999999999995
    vertex 22.698162388925688 96.87589625917967 11.549999999999995
  endloop
endfacet
facet normal 0.0 0.0 -1.0
  outer loop
    vertex 19.698162388925695 85.67974383647305 11.549999999999995
    vertex 22.698162388925688 96.87589625917967 11.549999999999995
    vertex 22.698162388925688 86.48359141376642 11.549999999999995
  endloop
endfacet
facet normal 0.0 0.0 -1.0
  outer loop
    vertex 22.698162388925688 86.48359141376642 11.549999999999995
    vertex 22.698162388925688 96.87589625917967 11.549999999999995
    vertex 24.894314811632295 94.67974383647304 11.549999999999995
  endloop
endfacet
facet normal 0.0 0.0 -1.0
  outer loop
    vertex 22.698162388925688 86.48359141376642 11.549999999999995
    vertex 24.894314811632295 94.67974383647304 11.549999999999995
    vertex 24.894314811632295 88.67974383647305 11.549999999999995
  endloop
endfacet
facet normal 0.0 0.0 -1.0
  outer loop
    vertex 24.894314811632295 88.67974383647305 11.549999999999995
    vertex 24.894314811632295 94.67974383647304 11.549999999999995
    vertex 25.698162388925684 91.67974383647304 11.549999999999995
  endloop
endfacet
facet normal -0.7071067811865491 0.7071067811865459 2.629940251502853e-14
  outer loop
    vertex 16.69816238892579 96.87589625917971 12.550000000000006
    vertex 14.502009966219093 94.67974383647304 11.549999999999995
    vertex 14.502009966219093 94.67974383647304 12.009000965406445
  endloop
endfacet
facet normal -0.7071067811865491 0.7071067811865459 2.629940251502853e-14
  outer loop
    vertex 14.502009966219093 94.67974383647304 11.549999999999995
    vertex 16.69816238892579 96.87589625917971 12.550000000000006
    vertex 16.6981623889257 96.87589625917967 11.549999999999995
  endloop
endfacet
facet normal -0.9659258262890574 0.25881904510256193 -3.3366830798613726e-13
  outer loop
    vertex 13.698162388925299 91.6797438364731 12.549999999999999
    vertex 14.502009966219093 94.67974383647304 11.549999999999995
    vertex 13.698162388925706 91.67974383647304 11.549999999999995
  endloop
endfacet
facet normal -0.9659258262890574 0.25881904510256193 -3.3366830798613726e-13
  outer loop
    vertex 14.502009966219093 94.67974383647304 11.549999999999995
    vertex 13.698162388925299 91.6797438364731 12.549999999999999
    vertex 14.502009966219093 94.67974383647304 12.009000965406445
  endloop
endfacet
facet normal -0.9659258262890622 -0.25881904510254344 -3.474200928787789e-13
  outer loop
    vertex 13.698162388925299 91.6797438364731 12.549999999999999
    vertex 14.502009966219093 88.67974383647305 11.549999999999995
    vertex 14.502009966219003 88.67974383647305 12.00900096540645
  endloop
endfacet
facet normal -0.9659258262890622 -0.25881904510254344 -3.474200928787789e-13
  outer loop
    vertex 14.502009966219093 88.67974383647305 11.549999999999995
    vertex 13.698162388925299 91.6797438364731 12.549999999999999
    vertex 13.698162388925706 91.67974383647304 11.549999999999995
  endloop
endfacet
facet normal -0.7071067811865415 -0.7071067811865537 -1.1100397165433938e-14
  outer loop
    vertex 16.698162388925745 86.48359141376639 12.549999999999999
    vertex 14.502009966219093 88.67974383647305 11.549999999999995
    vertex 16.6981623889257 86.48359141376642 11.549999999999995
  endloop
endfacet
facet normal -0.7071067811865415 -0.7071067811865537 -1.1100397165433938e-14
  outer loop
    vertex 14.502009966219093 88.67974383647305 11.549999999999995
    vertex 16.698162388925745 86.48359141376639 12.549999999999999
    vertex 14.502009966219003 88.67974383647305 12.00900096540645
  endloop
endfacet
facet normal 0.8001031451911955 0.46193976625576877 0.382683432365085
  outer loop
    vertex 10.310534824621305 92.03329722706579 11.70710678118655
    vertex 5.564187792710138 100.8399978743167 10.9999999999961
    vertex 5.310534824621359 100.6935512649102 11.707106781182649
  endloop
endfacet
facet normal 0.8001031451911955 0.46193976625576877 0.382683432365085
  outer loop
    vertex 5.564187792710138 100.8399978743167 10.9999999999961
    vertex 10.310534824621305 92.03329722706579 11.70710678118655
    vertex 10.564187792710085 92.17974383647227 11.000000000000002
  endloop
endfacet
facet normal 0.3314135740354086 0.19134171618285264 0.9238795325112888
  outer loop
    vertex 10.310534824621305 92.03329722706579 11.70710678118655
    vertex 4.698162388925503 100.33999787431704 11.999999999996097
    vertex 9.69816238892545 91.67974383647261 12.0
  endloop
endfacet
facet normal 0.3314135740354086 0.19134171618285264 0.9238795325112888
  outer loop
    vertex 4.698162388925503 100.33999787431704 11.999999999996097
    vertex 10.310534824621305 92.03329722706579 11.70710678118655
    vertex 5.310534824621359 100.6935512649102 11.707106781182649
  endloop
endfacet
facet normal -0.3314135740357691 -0.1913417161822283 0.9238795325112888
  outer loop
    vertex 9.69816238892545 91.67974383647261 12.0
    vertex 4.085789953229762 99.98644448372366 11.707106781182649
    vertex 9.085789953229709 91.32619044587925 11.70710678118655
  endloop
endfacet
facet normal -0.3314135740357691 -0.1913417161822283 0.9238795325112888
  outer loop
    vertex 4.085789953229762 99.98644448372366 11.707106781182649
    vertex 9.69816238892545 91.67974383647261 12.0
    vertex 4.698162388925503 100.33999787431704 11.999999999996097
  endloop
endfacet
facet normal -0.8001031451913447 -0.4619397662555102 0.382683432365085
  outer loop
    vertex 8.832136985141204 91.17974383647228 11.000000000000002
    vertex 4.085789953229762 99.98644448372366 11.707106781182649
    vertex 3.8321369851412586 99.83999787431671 10.9999999999961
  endloop
endfacet
facet normal -0.8001031451913447 -0.4619397662555102 0.382683432365085
  outer loop
    vertex 4.085789953229762 99.98644448372366 11.707106781182649
    vertex 8.832136985141204 91.17974383647228 11.000000000000002
    vertex 9.085789953229709 91.32619044587925 11.70710678118655
  endloop
endfacet
facet normal -0.49999999999999467 0.8660254037844417 -3.9014624864108777e-13
  outer loop
    vertex 5.310534824621359 100.6935512649102 11.707106781182649
    vertex 4.085789953229762 99.98644448372366 11.707106781182649
    vertex 4.698162388925503 100.33999787431704 11.999999999996097
  endloop
endfacet
facet normal -0.49999999999999467 0.8660254037844417 -3.9014624864108777e-13
  outer loop
    vertex 4.085789953229762 99.98644448372366 11.707106781182649
    vertex 5.310534824621359 100.6935512649102 11.707106781182649
    vertex 5.564187792710138 100.8399978743167 10.9999999999961
  endloop
endfacet
facet normal -0.49999999999999467 0.8660254037844417 -3.9014624864108777e-13
  outer loop
    vertex 4.085789953229762 99.98644448372366 11.707106781182649
    vertex 5.564187792710138 100.8399978743167 10.9999999999961
    vertex 3.8321369851412586 99.83999787431671 10.9999999999961
  endloop
endfacet
facet normal -0.49999999999999467 0.8660254037844417 -3.9014624864108777e-13
  outer loop
    vertex 3.8321369851412586 99.83999787431671 10.9999999999961
    vertex 5.564187792710138 100.8399978743167 10.9999999999961
    vertex 5.310534824621635 100.69355126490973 10.29289321880955
  endloop
endfacet
facet normal -0.49999999999999467 0.8660254037844417 -3.9014624864108777e-13
  outer loop
    vertex 3.8321369851412586 99.83999787431671 10.9999999999961
    vertex 5.310534824621635 100.69355126490973 10.29289321880955
    vertex 4.085789953230038 99.98644448372319 10.29289321880955
  endloop
endfacet
facet normal -0.49999999999999467 0.8660254037844417 -3.9014624864108777e-13
  outer loop
    vertex 4.085789953230038 99.98644448372319 10.29289321880955
    vertex 5.310534824621635 100.69355126490973 10.29289321880955
    vertex 4.698162388925893 100.33999787431637 9.999999999996101
  endloop
endfacet
facet normal -0.8001031451911955 -0.46193976625576877 -0.382683432365085
  outer loop
    vertex 9.085789953229986 91.32619044587878 10.292893218813452
    vertex 3.8321369851412586 99.83999787431671 10.9999999999961
    vertex 4.085789953230038 99.98644448372319 10.29289321880955
  endloop
endfacet
facet normal -0.8001031451911955 -0.46193976625576877 -0.382683432365085
  outer loop
    vertex 3.8321369851412586 99.83999787431671 10.9999999999961
    vertex 9.085789953229986 91.32619044587878 10.292893218813452
    vertex 8.832136985141204 91.17974383647228 11.000000000000002
  endloop
endfacet
facet normal -0.3314135740354086 -0.19134171618285264 -0.9238795325112888
  outer loop
    vertex 4.698162388925893 100.33999787431637 9.999999999996101
    vertex 9.085789953229986 91.32619044587878 10.292893218813452
    vertex 4.085789953230038 99.98644448372319 10.29289321880955
  endloop
endfacet
facet normal -0.3314135740354086 -0.19134171618285264 -0.9238795325112888
  outer loop
    vertex 9.085789953229986 91.32619044587878 10.292893218813452
    vertex 4.698162388925893 100.33999787431637 9.999999999996101
    vertex 9.69816238892584 91.67974383647194 10.000000000000004
  endloop
endfacet
facet normal 0.3314135740357691 0.1913417161822283 -0.9238795325112888
  outer loop
    vertex 5.310534824621635 100.69355126490973 10.29289321880955
    vertex 9.69816238892584 91.67974383647194 10.000000000000004
    vertex 4.698162388925893 100.33999787431637 9.999999999996101
  endloop
endfacet
facet normal 0.3314135740357691 0.1913417161822283 -0.9238795325112888
  outer loop
    vertex 9.69816238892584 91.67974383647194 10.000000000000004
    vertex 5.310534824621635 100.69355126490973 10.29289321880955
    vertex 10.31053482462158 92.03329722706532 10.292893218813452
  endloop
endfacet
facet normal 0.8001031451913447 0.4619397662555102 -0.382683432365085
  outer loop
    vertex 10.564187792710085 92.17974383647227 11.000000000000002
    vertex 5.310534824621635 100.69355126490973 10.29289321880955
    vertex 5.564187792710138 100.8399978743167 10.9999999999961
  endloop
endfacet
facet normal 0.8001031451913447 0.4619397662555102 -0.382683432365085
  outer loop
    vertex 5.310534824621635 100.69355126490973 10.29289321880955
    vertex 10.564187792710085 92.17974383647227 11.000000000000002
    vertex 10.31053482462158 92.03329722706532 10.292893218813452
  endloop
endfacet
facet normal 0.49999999999999467 -0.8660254037844417 3.9014624864108777e-13
  outer loop
    vertex 9.085789953229709 91.32619044587925 11.70710678118655
    vertex 10.310534824621305 92.03329722706579 11.70710678118655
    vertex 9.69816238892545 91.67974383647261 12.0
  endloop
endfacet
facet normal 0.49999999999999467 -0.8660254037844417 3.9014624864108777e-13
  outer loop
    vertex 10.310534824621305 92.03329722706579 11.70710678118655
    vertex 9.085789953229709 91.32619044587925 11.70710678118655
    vertex 8.832136985141204 91.17974383647228 11.000000000000002
  endloop
endfacet
facet normal 0.49999999999999467 -0.8660254037844417 3.9014624864108777e-13
  outer loop
    vertex 10.310534824621305 92.03329722706579 11.70710678118655
    vertex 8.832136985141204 91.17974383647228 11.000000000000002
    vertex 10.564187792710085 92.17974383647227 11.000000000000002
  endloop
endfacet
facet normal 0.49999999999999467 -0.8660254037844417 3.9014624864108777e-13
  outer loop
    vertex 10.564187792710085 92.17974383647227 11.000000000000002
    vertex 8.832136985141204 91.17974383647228 11.000000000000002
    vertex 9.085789953229986 91.32619044587878 10.292893218813452
  endloop
endfacet
facet normal 0.49999999999999467 -0.8660254037844417 3.9014624864108777e-13
  outer loop
    vertex 10.564187792710085 92.17974383647227 11.000000000000002
    vertex 9.085789953229986 91.32619044587878 10.292893218813452
    vertex 10.31053482462158 92.03329722706532 10.292893218813452
  endloop
endfacet
facet normal 0.49999999999999467 -0.8660254037844417 3.9014624864108777e-13
  outer loop
    vertex 10.31053482462158 92.03329722706532 10.292893218813452
    vertex 9.085789953229986 91.32619044587878 10.292893218813452
    vertex 9.69816238892584 91.67974383647194 10.000000000000004
  endloop
endfacet
facet normal -0.5000000000000038 -0.8660254037844365 0.0
  outer loop
    vertex 8.698162388925219 89.94769302890418 11.99999999999989
    vertex 8.283948826552027 90.26553027410003 -5.639932965095795e-15
    vertex 8.698162388925219 89.94769302890418 -5.639932965095795e-15
  endloop
endfacet
facet normal -0.7071067811865565 -0.7071067811865387 0.0
  outer loop
    vertex 8.283948826552027 90.26553027410003 -5.639932965095795e-15
    vertex 8.698162388925219 89.94769302890418 11.99999999999989
    vertex 8.283948826552027 90.26553027410003 11.99999999999989
  endloop
endfacet
facet normal -0.8660254037844397 -0.4999999999999982 0.0
  outer loop
    vertex 7.96611158135626 90.67974383647305 11.99999999999989
    vertex 8.283948826552027 90.26553027410003 -5.639932965095795e-15
    vertex 8.283948826552027 90.26553027410003 11.99999999999989
  endloop
endfacet
facet normal -0.7071067811865565 -0.7071067811865387 0.0
  outer loop
    vertex 8.283948826552027 90.26553027410003 -5.639932965095795e-15
    vertex 7.96611158135626 90.67974383647305 11.99999999999989
    vertex 7.96611158135626 90.67974383647305 -5.639932965095795e-15
  endloop
endfacet
facet normal -0.2588190451025171 -0.9659258262890693 0.0
  outer loop
    vertex 9.18052429872015 89.74789218389492 11.99999999999989
    vertex 8.698162388925219 89.94769302890418 -5.639932965095795e-15
    vertex 9.18052429872015 89.74789218389492 -5.639932965095795e-15
  endloop
endfacet
facet normal -0.5000000000000038 -0.8660254037844365 0.0
  outer loop
    vertex 8.698162388925219 89.94769302890418 -5.639932965095795e-15
    vertex 9.18052429872015 89.74789218389492 11.99999999999989
    vertex 8.698162388925219 89.94769302890418 11.99999999999989
  endloop
endfacet
facet normal 0.8660254037844365 -0.5000000000000038 0.0
  outer loop
    vertex 11.430213196493993 90.67974383647305 -5.639932965095795e-15
    vertex 11.112375951298226 90.26553027409994 11.99999999999989
    vertex 11.112375951298226 90.26553027409994 -5.639932965095795e-15
  endloop
endfacet
facet normal 0.7071067811865425 -0.7071067811865527 0.0
  outer loop
    vertex 11.112375951298226 90.26553027409994 11.99999999999989
    vertex 11.430213196493993 90.67974383647305 -5.639932965095795e-15
    vertex 11.430213196493993 90.67974383647305 11.99999999999989
  endloop
endfacet
facet normal 0.500000000000017 -0.866025403784429 0.0
  outer loop
    vertex 10.69816238892517 89.94769302890418 11.99999999999989
    vertex 10.21580047913024 89.74789218389496 -5.639932965095795e-15
    vertex 10.69816238892517 89.94769302890418 -5.639932965095795e-15
  endloop
endfacet
facet normal 0.2588190451025164 -0.9659258262890695 0.0
  outer loop
    vertex 10.21580047913024 89.74789218389496 -5.639932965095795e-15
    vertex 10.69816238892517 89.94769302890418 11.99999999999989
    vertex 10.21580047913024 89.74789218389496 11.99999999999989
  endloop
endfacet
facet normal -0.500000000000017 0.866025403784429 0.0
  outer loop
    vertex 8.698162388925173 93.4117946440419 11.99999999999989
    vertex 9.18052429872015 93.61159548905113 -5.639932965095795e-15
    vertex 8.698162388925173 93.4117946440419 -5.639932965095795e-15
  endloop
endfacet
facet normal -0.2588190451025164 0.9659258262890695 0.0
  outer loop
    vertex 9.18052429872015 93.61159548905113 -5.639932965095795e-15
    vertex 8.698162388925173 93.4117946440419 11.99999999999989
    vertex 9.18052429872015 93.61159548905113 11.99999999999989
  endloop
endfacet
facet normal 0.0 0.0 1.0
  outer loop
    vertex 7.76631073634705 91.16210574626807 11.99999999999989
    vertex 7.76631073634705 92.19738192667806 11.99999999999989
    vertex 7.69816238892513 91.67974383647304 11.99999999999989
  endloop
endfacet
facet normal 0.0 0.0 1.0
  outer loop
    vertex 7.76631073634705 92.19738192667806 11.99999999999989
    vertex 7.76631073634705 91.16210574626807 11.99999999999989
    vertex 7.96611158135626 90.67974383647305 11.99999999999989
  endloop
endfacet
facet normal 0.0 0.0 1.0
  outer loop
    vertex 7.76631073634705 92.19738192667806 11.99999999999989
    vertex 7.96611158135626 90.67974383647305 11.99999999999989
    vertex 7.966111581356305 92.67974383647304 11.99999999999989
  endloop
endfacet
facet normal 0.0 0.0 1.0
  outer loop
    vertex 7.966111581356305 92.67974383647304 11.99999999999989
    vertex 7.96611158135626 90.67974383647305 11.99999999999989
    vertex 8.283948826552027 90.26553027410003 11.99999999999989
  endloop
endfacet
facet normal 0.0 0.0 1.0
  outer loop
    vertex 7.966111581356305 92.67974383647304 11.99999999999989
    vertex 8.283948826552027 90.26553027410003 11.99999999999989
    vertex 8.283948826552074 93.09395739884614 11.99999999999989
  endloop
endfacet
facet normal 0.0 0.0 1.0
  outer loop
    vertex 8.283948826552074 93.09395739884614 11.99999999999989
    vertex 8.283948826552027 90.26553027410003 11.99999999999989
    vertex 8.698162388925219 89.94769302890418 11.99999999999989
  endloop
endfacet
facet normal 0.0 0.0 1.0
  outer loop
    vertex 8.283948826552074 93.09395739884614 11.99999999999989
    vertex 8.698162388925219 89.94769302890418 11.99999999999989
    vertex 8.698162388925173 93.4117946440419 11.99999999999989
  endloop
endfacet
facet normal 0.0 0.0 1.0
  outer loop
    vertex 8.698162388925173 93.4117946440419 11.99999999999989
    vertex 8.698162388925219 89.94769302890418 11.99999999999989
    vertex 9.18052429872015 93.61159548905113 11.99999999999989
  endloop
endfacet
facet normal 0.0 0.0 1.0
  outer loop
    vertex 9.18052429872015 93.61159548905113 11.99999999999989
    vertex 8.698162388925219 89.94769302890418 11.99999999999989
    vertex 9.18052429872015 89.74789218389492 11.99999999999989
  endloop
endfacet
facet normal 0.0 0.0 1.0
  outer loop
    vertex 9.18052429872015 93.61159548905113 11.99999999999989
    vertex 9.18052429872015 89.74789218389492 11.99999999999989
    vertex 9.698162388925127 89.67974383647305 11.99999999999989
  endloop
endfacet
facet normal 0.0 0.0 1.0
  outer loop
    vertex 9.18052429872015 93.61159548905113 11.99999999999989
    vertex 9.698162388925127 89.67974383647305 11.99999999999989
    vertex 9.698162388925217 93.679743836473 11.99999999999989
  endloop
endfacet
facet normal 0.0 0.0 1.0
  outer loop
    vertex 9.698162388925217 93.679743836473 11.99999999999989
    vertex 9.698162388925127 89.67974383647305 11.99999999999989
    vertex 10.21580047913024 89.74789218389496 11.99999999999989
  endloop
endfacet
facet normal 0.0 0.0 1.0
  outer loop
    vertex 9.698162388925217 93.679743836473 11.99999999999989
    vertex 10.21580047913024 89.74789218389496 11.99999999999989
    vertex 10.21580047913024 93.61159548905117 11.99999999999989
  endloop
endfacet
facet normal 0.0 0.0 1.0
  outer loop
    vertex 10.21580047913024 93.61159548905117 11.99999999999989
    vertex 10.21580047913024 89.74789218389496 11.99999999999989
    vertex 10.69816238892517 89.94769302890418 11.99999999999989
  endloop
endfacet
facet normal 0.0 0.0 1.0
  outer loop
    vertex 10.21580047913024 93.61159548905117 11.99999999999989
    vertex 10.69816238892517 89.94769302890418 11.99999999999989
    vertex 10.698162388925216 93.4117946440419 11.99999999999989
  endloop
endfacet
facet normal 0.0 0.0 1.0
  outer loop
    vertex 10.698162388925216 93.4117946440419 11.99999999999989
    vertex 10.69816238892517 89.94769302890418 11.99999999999989
    vertex 11.112375951298226 90.26553027409994 11.99999999999989
  endloop
endfacet
facet normal 0.0 0.0 1.0
  outer loop
    vertex 10.698162388925216 93.4117946440419 11.99999999999989
    vertex 11.112375951298226 90.26553027409994 11.99999999999989
    vertex 11.11237595129827 93.0939573988461 11.99999999999989
  endloop
endfacet
facet normal 0.0 0.0 1.0
  outer loop
    vertex 11.11237595129827 93.0939573988461 11.99999999999989
    vertex 11.112375951298226 90.26553027409994 11.99999999999989
    vertex 11.430213196493993 90.67974383647305 11.99999999999989
  endloop
endfacet
facet normal 0.0 0.0 1.0
  outer loop
    vertex 11.11237595129827 93.0939573988461 11.99999999999989
    vertex 11.430213196493993 90.67974383647305 11.99999999999989
    vertex 11.430213196494083 92.679743836473 11.99999999999989
  endloop
endfacet
facet normal 0.0 0.0 1.0
  outer loop
    vertex 11.430213196494083 92.679743836473 11.99999999999989
    vertex 11.430213196493993 90.67974383647305 11.99999999999989
    vertex 11.630014041503292 91.16210574626797 11.99999999999989
  endloop
endfacet
facet normal 0.0 0.0 1.0
  outer loop
    vertex 11.430213196494083 92.679743836473 11.99999999999989
    vertex 11.630014041503292 91.16210574626797 11.99999999999989
    vertex 11.630014041503339 92.19738192667802 11.99999999999989
  endloop
endfacet
facet normal 0.0 0.0 1.0
  outer loop
    vertex 11.630014041503339 92.19738192667802 11.99999999999989
    vertex 11.630014041503292 91.16210574626797 11.99999999999989
    vertex 11.698162388925168 91.67974383647304 11.99999999999989
  endloop
endfacet
facet normal 0.7071067811865565 0.7071067811865387 0.0
  outer loop
    vertex 11.11237595129827 93.0939573988461 -5.639932965095795e-15
    vertex 11.430213196494083 92.679743836473 11.99999999999989
    vertex 11.430213196494083 92.679743836473 -5.639932965095795e-15
  endloop
endfacet
facet normal 0.8660254037844397 0.4999999999999982 0.0
  outer loop
    vertex 11.430213196494083 92.679743836473 11.99999999999989
    vertex 11.11237595129827 93.0939573988461 -5.639932965095795e-15
    vertex 11.11237595129827 93.0939573988461 11.99999999999989
  endloop
endfacet
facet normal 1.0 -1.131710956747159e-14 0.0
  outer loop
    vertex 11.698162388925168 91.67974383647304 -5.639932965095795e-15
    vertex 11.630014041503292 91.16210574626797 11.99999999999989
    vertex 11.630014041503292 91.16210574626797 -5.639932965095795e-15
  endloop
endfacet
facet normal 0.9659258262890679 -0.25881904510252235 0.0
  outer loop
    vertex 11.630014041503292 91.16210574626797 11.99999999999989
    vertex 11.698162388925168 91.67974383647304 -5.639932965095795e-15
    vertex 11.698162388925168 91.67974383647304 11.99999999999989
  endloop
endfacet
facet normal -2.0192575023535858e-14 -1.0 0.0
  outer loop
    vertex 9.698162388925127 89.67974383647305 11.99999999999989
    vertex 9.18052429872015 89.74789218389492 -5.639932965095795e-15
    vertex 9.698162388925127 89.67974383647305 -5.639932965095795e-15
  endloop
endfacet
facet normal -0.2588190451025171 -0.9659258262890693 0.0
  outer loop
    vertex 9.18052429872015 89.74789218389492 -5.639932965095795e-15
    vertex 9.698162388925127 89.67974383647305 11.99999999999989
    vertex 9.18052429872015 89.74789218389492 11.99999999999989
  endloop
endfacet
facet normal -0.9659258262890685 -0.2588190451025202 0.0
  outer loop
    vertex 7.76631073634705 91.16210574626807 11.99999999999989
    vertex 7.96611158135626 90.67974383647305 -5.639932965095795e-15
    vertex 7.96611158135626 90.67974383647305 11.99999999999989
  endloop
endfacet
facet normal -0.8660254037844397 -0.4999999999999982 0.0
  outer loop
    vertex 7.96611158135626 90.67974383647305 -5.639932965095795e-15
    vertex 7.76631073634705 91.16210574626807 11.99999999999989
    vertex 7.76631073634705 91.16210574626807 -5.639932965095795e-15
  endloop
endfacet
facet normal 0.2588190451025171 0.9659258262890693 0.0
  outer loop
    vertex 10.21580047913024 93.61159548905117 11.99999999999989
    vertex 10.698162388925216 93.4117946440419 -5.639932965095795e-15
    vertex 10.21580047913024 93.61159548905117 -5.639932965095795e-15
  endloop
endfacet
facet normal 0.5000000000000038 0.8660254037844365 0.0
  outer loop
    vertex 10.698162388925216 93.4117946440419 -5.639932965095795e-15
    vertex 10.21580047913024 93.61159548905117 11.99999999999989
    vertex 10.698162388925216 93.4117946440419 11.99999999999989
  endloop
endfacet
facet normal 2.0192575023535858e-14 1.0 0.0
  outer loop
    vertex 9.698162388925217 93.679743836473 11.99999999999989
    vertex 10.21580047913024 93.61159548905117 -5.639932965095795e-15
    vertex 9.698162388925217 93.679743836473 -5.639932965095795e-15
  endloop
endfacet
facet normal 0.2588190451025171 0.9659258262890693 0.0
  outer loop
    vertex 10.21580047913024 93.61159548905117 -5.639932965095795e-15
    vertex 9.698162388925217 93.679743836473 11.99999999999989
    vertex 10.21580047913024 93.61159548905117 11.99999999999989
  endloop
endfacet
facet normal 0.7071067811865425 -0.7071067811865527 0.0
  outer loop
    vertex 11.112375951298226 90.26553027409994 11.99999999999989
    vertex 10.69816238892517 89.94769302890418 -5.639932965095795e-15
    vertex 11.112375951298226 90.26553027409994 -5.639932965095795e-15
  endloop
endfacet
facet normal 0.500000000000017 -0.866025403784429 0.0
  outer loop
    vertex 10.69816238892517 89.94769302890418 -5.639932965095795e-15
    vertex 11.112375951298226 90.26553027409994 11.99999999999989
    vertex 10.69816238892517 89.94769302890418 11.99999999999989
  endloop
endfacet
facet normal -0.8660254037844365 0.5000000000000038 0.0
  outer loop
    vertex 7.966111581356305 92.67974383647304 11.99999999999989
    vertex 7.76631073634705 92.19738192667806 -5.639932965095795e-15
    vertex 7.76631073634705 92.19738192667806 11.99999999999989
  endloop
endfacet
facet normal -0.9659258262890679 0.25881904510252235 0.0
  outer loop
    vertex 7.76631073634705 92.19738192667806 -5.639932965095795e-15
    vertex 7.966111581356305 92.67974383647304 11.99999999999989
    vertex 7.966111581356305 92.67974383647304 -5.639932965095795e-15
  endloop
endfacet
facet normal 0.2588190451025164 -0.9659258262890695 0.0
  outer loop
    vertex 10.21580047913024 89.74789218389496 11.99999999999989
    vertex 9.698162388925127 89.67974383647305 -5.639932965095795e-15
    vertex 10.21580047913024 89.74789218389496 -5.639932965095795e-15
  endloop
endfacet
facet normal -2.0192575023535858e-14 -1.0 0.0
  outer loop
    vertex 9.698162388925127 89.67974383647305 -5.639932965095795e-15
    vertex 10.21580047913024 89.74789218389496 11.99999999999989
    vertex 9.698162388925127 89.67974383647305 11.99999999999989
  endloop
endfacet
facet normal -0.2588190451025164 0.9659258262890695 0.0
  outer loop
    vertex 9.18052429872015 93.61159548905113 11.99999999999989
    vertex 9.698162388925217 93.679743836473 -5.639932965095795e-15
    vertex 9.18052429872015 93.61159548905113 -5.639932965095795e-15
  endloop
endfacet
facet normal 2.0192575023535858e-14 1.0 0.0
  outer loop
    vertex 9.698162388925217 93.679743836473 -5.639932965095795e-15
    vertex 9.18052429872015 93.61159548905113 11.99999999999989
    vertex 9.698162388925217 93.679743836473 11.99999999999989
  endloop
endfacet
facet normal 0.9659258262890685 0.2588190451025202 0.0
  outer loop
    vertex 11.630014041503339 92.19738192667802 -5.639932965095795e-15
    vertex 11.698162388925168 91.67974383647304 11.99999999999989
    vertex 11.698162388925168 91.67974383647304 -5.639932965095795e-15
  endloop
endfacet
facet normal 1.0 -1.131710956747159e-14 0.0
  outer loop
    vertex 11.698162388925168 91.67974383647304 11.99999999999989
    vertex 11.630014041503339 92.19738192667802 -5.639932965095795e-15
    vertex 11.630014041503339 92.19738192667802 11.99999999999989
  endloop
endfacet
facet normal 0.9659258262890679 -0.25881904510252235 0.0
  outer loop
    vertex 11.630014041503292 91.16210574626797 -5.639932965095795e-15
    vertex 11.430213196493993 90.67974383647305 11.99999999999989
    vertex 11.430213196493993 90.67974383647305 -5.639932965095795e-15
  endloop
endfacet
facet normal 0.8660254037844365 -0.5000000000000038 0.0
  outer loop
    vertex 11.430213196493993 90.67974383647305 11.99999999999989
    vertex 11.630014041503292 91.16210574626797 -5.639932965095795e-15
    vertex 11.630014041503292 91.16210574626797 11.99999999999989
  endloop
endfacet
facet normal -0.7071067811865425 0.7071067811865527 0.0
  outer loop
    vertex 8.283948826552074 93.09395739884614 11.99999999999989
    vertex 8.698162388925173 93.4117946440419 -5.639932965095795e-15
    vertex 8.283948826552074 93.09395739884614 -5.639932965095795e-15
  endloop
endfacet
facet normal -0.500000000000017 0.866025403784429 0.0
  outer loop
    vertex 8.698162388925173 93.4117946440419 -5.639932965095795e-15
    vertex 8.283948826552074 93.09395739884614 11.99999999999989
    vertex 8.698162388925173 93.4117946440419 11.99999999999989
  endloop
endfacet
facet normal -0.7071067811865425 0.7071067811865527 0.0
  outer loop
    vertex 8.283948826552074 93.09395739884614 11.99999999999989
    vertex 7.966111581356305 92.67974383647304 -5.639932965095795e-15
    vertex 7.966111581356305 92.67974383647304 11.99999999999989
  endloop
endfacet
facet normal -0.8660254037844365 0.5000000000000038 0.0
  outer loop
    vertex 7.966111581356305 92.67974383647304 -5.639932965095795e-15
    vertex 8.283948826552074 93.09395739884614 11.99999999999989
    vertex 8.283948826552074 93.09395739884614 -5.639932965095795e-15
  endloop
endfacet
facet normal 0.0 0.0 -1.0
  outer loop
    vertex 7.76631073634705 92.19738192667806 -5.639932965095795e-15
    vertex 7.76631073634705 91.16210574626807 -5.639932965095795e-15
    vertex 7.69816238892513 91.67974383647304 -5.639932965095795e-15
  endloop
endfacet
facet normal 0.0 0.0 -1.0
  outer loop
    vertex 7.76631073634705 91.16210574626807 -5.639932965095795e-15
    vertex 7.76631073634705 92.19738192667806 -5.639932965095795e-15
    vertex 7.966111581356305 92.67974383647304 -5.639932965095795e-15
  endloop
endfacet
facet normal 0.0 0.0 -1.0
  outer loop
    vertex 7.76631073634705 91.16210574626807 -5.639932965095795e-15
    vertex 7.966111581356305 92.67974383647304 -5.639932965095795e-15
    vertex 7.96611158135626 90.67974383647305 -5.639932965095795e-15
  endloop
endfacet
facet normal 0.0 0.0 -1.0
  outer loop
    vertex 7.96611158135626 90.67974383647305 -5.639932965095795e-15
    vertex 7.966111581356305 92.67974383647304 -5.639932965095795e-15
    vertex 8.283948826552027 90.26553027410003 -5.639932965095795e-15
  endloop
endfacet
facet normal 0.0 0.0 -1.0
  outer loop
    vertex 8.283948826552027 90.26553027410003 -5.639932965095795e-15
    vertex 7.966111581356305 92.67974383647304 -5.639932965095795e-15
    vertex 8.283948826552074 93.09395739884614 -5.639932965095795e-15
  endloop
endfacet
facet normal 0.0 0.0 -1.0
  outer loop
    vertex 8.283948826552027 90.26553027410003 -5.639932965095795e-15
    vertex 8.283948826552074 93.09395739884614 -5.639932965095795e-15
    vertex 8.698162388925219 89.94769302890418 -5.639932965095795e-15
  endloop
endfacet
facet normal 0.0 0.0 -1.0
  outer loop
    vertex 8.698162388925219 89.94769302890418 -5.639932965095795e-15
    vertex 8.283948826552074 93.09395739884614 -5.639932965095795e-15
    vertex 8.698162388925173 93.4117946440419 -5.639932965095795e-15
  endloop
endfacet
facet normal 0.0 0.0 -1.0
  outer loop
    vertex 8.698162388925219 89.94769302890418 -5.639932965095795e-15
    vertex 8.698162388925173 93.4117946440419 -5.639932965095795e-15
    vertex 9.18052429872015 93.61159548905113 -5.639932965095795e-15
  endloop
endfacet
facet normal 0.0 0.0 -1.0
  outer loop
    vertex 8.698162388925219 89.94769302890418 -5.639932965095795e-15
    vertex 9.18052429872015 93.61159548905113 -5.639932965095795e-15
    vertex 9.18052429872015 89.74789218389492 -5.639932965095795e-15
  endloop
endfacet
facet normal 0.0 0.0 -1.0
  outer loop
    vertex 9.18052429872015 89.74789218389492 -5.639932965095795e-15
    vertex 9.18052429872015 93.61159548905113 -5.639932965095795e-15
    vertex 9.698162388925217 93.679743836473 -5.639932965095795e-15
  endloop
endfacet
facet normal 0.0 0.0 -1.0
  outer loop
    vertex 9.18052429872015 89.74789218389492 -5.639932965095795e-15
    vertex 9.698162388925217 93.679743836473 -5.639932965095795e-15
    vertex 9.698162388925127 89.67974383647305 -5.639932965095795e-15
  endloop
endfacet
facet normal 0.0 0.0 -1.0
  outer loop
    vertex 9.698162388925127 89.67974383647305 -5.639932965095795e-15
    vertex 9.698162388925217 93.679743836473 -5.639932965095795e-15
    vertex 10.21580047913024 89.74789218389496 -5.639932965095795e-15
  endloop
endfacet
facet normal 0.0 0.0 -1.0
  outer loop
    vertex 10.21580047913024 89.74789218389496 -5.639932965095795e-15
    vertex 9.698162388925217 93.679743836473 -5.639932965095795e-15
    vertex 10.21580047913024 93.61159548905117 -5.639932965095795e-15
  endloop
endfacet
facet normal 0.0 0.0 -1.0
  outer loop
    vertex 10.21580047913024 89.74789218389496 -5.639932965095795e-15
    vertex 10.21580047913024 93.61159548905117 -5.639932965095795e-15
    vertex 10.698162388925216 93.4117946440419 -5.639932965095795e-15
  endloop
endfacet
facet normal 0.0 0.0 -1.0
  outer loop
    vertex 10.21580047913024 89.74789218389496 -5.639932965095795e-15
    vertex 10.698162388925216 93.4117946440419 -5.639932965095795e-15
    vertex 10.69816238892517 89.94769302890418 -5.639932965095795e-15
  endloop
endfacet
facet normal 0.0 0.0 -1.0
  outer loop
    vertex 10.69816238892517 89.94769302890418 -5.639932965095795e-15
    vertex 10.698162388925216 93.4117946440419 -5.639932965095795e-15
    vertex 11.112375951298226 90.26553027409994 -5.639932965095795e-15
  endloop
endfacet
facet normal 0.0 0.0 -1.0
  outer loop
    vertex 11.112375951298226 90.26553027409994 -5.639932965095795e-15
    vertex 10.698162388925216 93.4117946440419 -5.639932965095795e-15
    vertex 11.11237595129827 93.0939573988461 -5.639932965095795e-15
  endloop
endfacet
facet normal 0.0 0.0 -1.0
  outer loop
    vertex 11.112375951298226 90.26553027409994 -5.639932965095795e-15
    vertex 11.11237595129827 93.0939573988461 -5.639932965095795e-15
    vertex 11.430213196493993 90.67974383647305 -5.639932965095795e-15
  endloop
endfacet
facet normal 0.0 0.0 -1.0
  outer loop
    vertex 11.430213196493993 90.67974383647305 -5.639932965095795e-15
    vertex 11.11237595129827 93.0939573988461 -5.639932965095795e-15
    vertex 11.430213196494083 92.679743836473 -5.639932965095795e-15
  endloop
endfacet
facet normal 0.0 0.0 -1.0
  outer loop
    vertex 11.430213196493993 90.67974383647305 -5.639932965095795e-15
    vertex 11.430213196494083 92.679743836473 -5.639932965095795e-15
    vertex 11.630014041503292 91.16210574626797 -5.639932965095795e-15
  endloop
endfacet
facet normal 0.0 0.0 -1.0
  outer loop
    vertex 11.630014041503292 91.16210574626797 -5.639932965095795e-15
    vertex 11.430213196494083 92.679743836473 -5.639932965095795e-15
    vertex 11.630014041503339 92.19738192667802 -5.639932965095795e-15
  endloop
endfacet
facet normal 0.0 0.0 -1.0
  outer loop
    vertex 11.630014041503292 91.16210574626797 -5.639932965095795e-15
    vertex 11.630014041503339 92.19738192667802 -5.639932965095795e-15
    vertex 11.698162388925168 91.67974383647304 -5.639932965095795e-15
  endloop
endfacet
facet normal -0.9659258262890679 0.25881904510252235 0.0
  outer loop
    vertex 7.76631073634705 92.19738192667806 11.99999999999989
    vertex 7.69816238892513 91.67974383647304 -5.639932965095795e-15
    vertex 7.69816238892513 91.67974383647304 11.99999999999989
  endloop
endfacet
facet normal -1.0 1.131710956747159e-14 0.0
  outer loop
    vertex 7.69816238892513 91.67974383647304 -5.639932965095795e-15
    vertex 7.76631073634705 92.19738192667806 11.99999999999989
    vertex 7.76631073634705 92.19738192667806 -5.639932965095795e-15
  endloop
endfacet
facet normal 0.5000000000000038 0.8660254037844365 0.0
  outer loop
    vertex 10.698162388925216 93.4117946440419 11.99999999999989
    vertex 11.11237595129827 93.0939573988461 -5.639932965095795e-15
    vertex 10.698162388925216 93.4117946440419 -5.639932965095795e-15
  endloop
endfacet
facet normal 0.7071067811865565 0.7071067811865387 0.0
  outer loop
    vertex 11.11237595129827 93.0939573988461 -5.639932965095795e-15
    vertex 10.698162388925216 93.4117946440419 11.99999999999989
    vertex 11.11237595129827 93.0939573988461 11.99999999999989
  endloop
endfacet
facet normal 0.8660254037844397 0.4999999999999982 0.0
  outer loop
    vertex 11.430213196494083 92.679743836473 -5.639932965095795e-15
    vertex 11.630014041503339 92.19738192667802 11.99999999999989
    vertex 11.630014041503339 92.19738192667802 -5.639932965095795e-15
  endloop
endfacet
facet normal 0.9659258262890685 0.2588190451025202 0.0
  outer loop
    vertex 11.630014041503339 92.19738192667802 11.99999999999989
    vertex 11.430213196494083 92.679743836473 -5.639932965095795e-15
    vertex 11.430213196494083 92.679743836473 11.99999999999989
  endloop
endfacet
facet normal -1.0 1.131710956747159e-14 0.0
  outer loop
    vertex 7.69816238892513 91.67974383647304 11.99999999999989
    vertex 7.76631073634705 91.16210574626807 -5.639932965095795e-15
    vertex 7.76631073634705 91.16210574626807 11.99999999999989
  endloop
endfacet
facet normal -0.9659258262890685 -0.2588190451025202 0.0
  outer loop
    vertex 7.76631073634705 91.16210574626807 -5.639932965095795e-15
    vertex 7.69816238892513 91.67974383647304 11.99999999999989
    vertex 7.69816238892513 91.67974383647304 -5.639932965095795e-15
  endloop
endfacet
endsolid mars base2
