solid
 facet normal -44.980309 0.000000 0.000000
  outer loop
   vertex 403.465952 306.7105901 -10.87607002 
   vertex 403.465952 302.6179387 -10.87607002 
   vertex 403.465952 306.7105901 0.1144361496 
  endloop
 endfacet
 facet normal -53.185116 0.000000 0.000000
  outer loop
   vertex 403.465952 193.5083349 -10.87607193 
   vertex 403.465952 193.5083349 0.1144332886 
   vertex 403.465952 198.3475225 -10.87607193 
  endloop
 endfacet
 facet normal -0.024330 0.000000 0.000000
  outer loop
   vertex 403.465952 193.5083349 0.1144332886 
   vertex 403.465952 193.5105474 0.1144361496 
   vertex 403.465952 198.3475225 -10.87607193 
  endloop
 endfacet
 facet normal -1187.360474 0.000000 0.000000
  outer loop
   vertex 403.465952 193.5105474 0.1144361496 
   vertex 403.465952 301.5456426 0.1144361496 
   vertex 403.465952 198.3475225 -10.87607193 
  endloop
 endfacet
 facet normal -919.337524 -0.000451 0.000000
  outer loop
   vertex 403.465952 198.3475225 -10.87607193 
   vertex 403.465952 301.5456426 0.1144361496 
   vertex 403.465952 281.9958532 -10.87607002 
  endloop
 endfacet
 facet normal -226.647156 0.000000 0.000000
  outer loop
   vertex 403.465952 281.9958532 -10.87607002 
   vertex 403.465952 301.5456426 0.1144361496 
   vertex 403.465952 302.6179387 -10.87607002 
  endloop
 endfacet
 facet normal -56.765388 0.000000 0.000000
  outer loop
   vertex 403.465952 302.6179387 -10.87607002 
   vertex 403.465952 301.5456426 0.1144361496 
   vertex 403.465952 306.7105901 0.1144361496 
  endloop
 endfacet
 facet normal -147.163788 0.000000 0.000000
  outer loop
   vertex 403.465952 301.5456426 0.1144361496 
   vertex 403.465952 301.5456426 28.60723305 
   vertex 403.465952 306.7105901 0.1144361496 
  endloop
 endfacet
 facet normal -147.162933 0.000000 0.000000
  outer loop
   vertex 403.465952 306.7105901 0.1144361496 
   vertex 403.465952 301.5456426 28.60723305 
   vertex 403.465952 306.7105596 28.60723305 
  endloop
 endfacet
 facet normal -49.170471 0.000000 0.000000
  outer loop
   vertex 403.465952 301.5456426 28.60723305 
   vertex 403.465952 301.5455816 38.12731552 
   vertex 403.465952 306.7105596 28.60723305 
  endloop
 endfacet
 facet normal -49.171326 0.000000 0.000000
  outer loop
   vertex 403.465952 301.5455816 38.12731552 
   vertex 403.465952 306.7105901 38.12731934 
   vertex 403.465952 306.7105596 28.60723305 
  endloop
 endfacet
 facet normal 0.000000 -133.179352 0.000000
  outer loop
   vertex 403.465952 193.5083349 0.1144332886 
   vertex 403.465952 193.5083349 -10.87607193 
   vertex 415.5835972 193.5083349 0.1144361496 
  endloop
 endfacet
 facet normal 0.000000 -64.176758 0.000000
  outer loop
   vertex 403.465952 193.5083349 -10.87607193 
   vertex 409.3052769 193.5083349 -10.87607193 
   vertex 415.5835972 193.5083349 0.1144361496 
  endloop
 endfacet
 facet normal 0.000000 -904.050781 0.000488
  outer loop
   vertex 409.3052769 193.5083349 -10.87607193 
   vertex 491.5626927 193.5083349 -10.87607002 
   vertex 415.5835972 193.5083349 0.1144361496 
  endloop
 endfacet
 facet normal 0.000000 -287.124023 0.000000
  outer loop
   vertex 415.5835972 193.5083349 0.1144361496 
   vertex 491.5626927 193.5083349 -10.87607002 
   vertex 441.7082921 193.5083349 0.1144361496 
  endloop
 endfacet
 facet normal 0.000000 -287.127930 0.000000
  outer loop
   vertex 441.7082921 193.5083349 0.1144361496 
   vertex 491.5626927 193.5083349 -10.87607002 
   vertex 467.8333836 193.5083349 0.1144361496 
  endloop
 endfacet
 facet normal 0.000000 -287.121094 0.000000
  outer loop
   vertex 467.8333836 193.5083349 0.1144361496 
   vertex 491.5626927 193.5083349 -10.87607002 
   vertex 493.9578953 193.5083349 0.1144361496 
  endloop
 endfacet
 facet normal 0.000000 -226.441406 -0.000183
  outer loop
   vertex 491.5626927 193.5083349 -10.87607002 
   vertex 512.1659947 193.5083349 -10.87607002 
   vertex 493.9578953 193.5083349 0.1144361496 
  endloop
 endfacet
 facet normal 0.000000 -182.458984 0.000000
  outer loop
   vertex 493.9578953 193.5083349 0.1144361496 
   vertex 512.1659947 193.5083349 -10.87607002 
   vertex 510.5594578 193.5083349 0.1144361496 
  endloop
 endfacet
 facet normal 0.000000 -17.960938 0.000000
  outer loop
   vertex 510.5594578 193.5083349 0.1144361496 
   vertex 512.1659947 193.5083349 -10.87607002 
   vertex 512.1936741 193.5083349 0.1144361496 
  endloop
 endfacet
 facet normal 0.000000 -51.488281 -0.000006
  outer loop
   vertex 512.1659947 193.5083349 -10.87607002 
   vertex 516.8507481 193.5083349 -10.87607002 
   vertex 512.1936741 193.5083349 0.1144361496 
  endloop
 endfacet
 facet normal 0.000000 -51.182617 0.000000
  outer loop
   vertex 516.8507481 193.5083349 -10.87607002 
   vertex 516.8507481 193.5083349 0.1144361496 
   vertex 512.1936741 193.5083349 0.1144361496 
  endloop
 endfacet
 facet normal 0.000000 -132.691406 0.000000
  outer loop
   vertex 516.8507481 193.5083349 0.1144361496 
   vertex 516.8507481 193.5083349 28.60723114 
   vertex 512.1936741 193.5083349 0.1144361496 
  endloop
 endfacet
 facet normal 0.000000 -132.695313 0.000000
  outer loop
   vertex 512.1936741 193.5083349 0.1144361496 
   vertex 516.8507481 193.5083349 28.60723114 
   vertex 512.1936741 193.5083349 28.60723114 
  endloop
 endfacet
 facet normal 0.000000 -44.335938 0.000000
  outer loop
   vertex 516.8507481 193.5083349 28.60723114 
   vertex 516.8507481 193.5083349 38.12731171 
   vertex 512.1936741 193.5083349 28.60723114 
  endloop
 endfacet
 facet normal 0.000000 -44.335938 0.000000
  outer loop
   vertex 516.8507481 193.5083349 38.12731171 
   vertex 512.1936741 193.5083349 38.12731171 
   vertex 512.1936741 193.5083349 28.60723114 
  endloop
 endfacet
 facet normal 0.000000 0.000000 105.334473
  outer loop
   vertex 480.7111302 247.8732488 38.12731171 
   vertex 511.8615513 247.7254827 38.12731171 
   vertex 484.0352269 251.2389714 38.12731171 
  endloop
 endfacet
 facet normal -0.000001 0.000000 109.788086
  outer loop
   vertex 484.0352269 251.2389714 38.12731171 
   vertex 511.8615513 247.7254827 38.12731171 
   vertex 516.5263157 251.0819585 38.12731171 
  endloop
 endfacet
 facet normal 1.494775 309.317383 0.000000
  outer loop
   vertex 516.5263157 251.0819585 28.60723495 
   vertex 484.0352269 251.2389714 28.60723114 
   vertex 516.5263157 251.0819585 38.12731171 
  endloop
 endfacet
 facet normal 1.494776 309.318359 0.000000
  outer loop
   vertex 516.5263157 251.0819585 38.12731171 
   vertex 484.0352269 251.2389714 28.60723114 
   vertex 484.0352269 251.2389714 38.12731171 
  endloop
 endfacet
 facet normal 4.473738 925.761719 0.000000
  outer loop
   vertex 516.5263157 251.0819585 0.1144361496 
   vertex 484.0352269 251.2389714 0.1144361496 
   vertex 516.5263157 251.0819585 28.60723495 
  endloop
 endfacet
 facet normal 4.473738 925.761902 0.000000
  outer loop
   vertex 516.5263157 251.0819585 28.60723495 
   vertex 484.0352269 251.2389714 0.1144361496 
   vertex 484.0352269 251.2389714 28.60723114 
  endloop
 endfacet
 facet normal 1.725652 357.093750 0.000000
  outer loop
   vertex 484.0352269 251.2389714 0.1144361496 
   vertex 516.5263157 251.0819585 0.1144361496 
   vertex 484.0352269 251.2389714 -10.87607002 
  endloop
 endfacet
 facet normal 1.725652 357.093750 0.000000
  outer loop
   vertex 484.0352269 251.2389714 -10.87607002 
   vertex 516.5263157 251.0819585 0.1144361496 
   vertex 516.5263157 251.0819585 -10.87607002 
  endloop
 endfacet
 facet normal 313.479309 178.125977 0.000000
  outer loop
   vertex 467.828043 279.761707 0.1144361496 
   vertex 484.0352269 251.2389714 0.1144361496 
   vertex 467.828043 279.761707 -10.87607002 
  endloop
 endfacet
 facet normal 313.479309 178.124023 0.000000
  outer loop
   vertex 467.828043 279.761707 -10.87607002 
   vertex 484.0352269 251.2389714 0.1144361496 
   vertex 484.0352269 251.2389714 -10.87607002 
  endloop
 endfacet
 facet normal 812.692444 461.787109 0.000000
  outer loop
   vertex 484.0352269 251.2389714 0.1144361496 
   vertex 467.828043 279.761707 0.1144361496 
   vertex 484.0352269 251.2389714 28.60723114 
  endloop
 endfacet
 facet normal 812.692566 461.788727 0.000000
  outer loop
   vertex 484.0352269 251.2389714 28.60723114 
   vertex 467.828043 279.761707 0.1144361496 
   vertex 467.828043 279.761707 28.60723495 
  endloop
 endfacet
 facet normal 271.538574 154.292969 0.000000
  outer loop
   vertex 484.0352269 251.2389714 28.60723114 
   vertex 467.828043 279.761707 28.60723495 
   vertex 484.0352269 251.2389714 38.12731171 
  endloop
 endfacet
 facet normal 271.538818 154.293945 0.000000
  outer loop
   vertex 484.0352269 251.2389714 38.12731171 
   vertex 467.828043 279.761707 28.60723495 
   vertex 467.828043 279.761707 38.12731171 
  endloop
 endfacet
 facet normal 0.000000 0.000000 141.507324
  outer loop
   vertex 480.7111302 247.8732488 38.12731171 
   vertex 484.0352269 251.2389714 38.12731171 
   vertex 465.172617 274.7102544 38.12731171 
  endloop
 endfacet
 facet normal -0.000031 0.000000 157.609497
  outer loop
   vertex 465.172617 274.7102544 38.12731171 
   vertex 484.0352269 251.2389714 38.12731171 
   vertex 467.828043 279.761707 38.12731171 
  endloop
 endfacet
 facet normal -255.490356 -147.927734 0.000000
  outer loop
   vertex 465.172617 274.7102544 28.60723495 
   vertex 480.7111302 247.8732488 28.60723114 
   vertex 465.172617 274.7102544 38.12731171 
  endloop
 endfacet
 facet normal -255.490479 -147.927734 0.000000
  outer loop
   vertex 465.172617 274.7102544 38.12731171 
   vertex 480.7111302 247.8732488 28.60723114 
   vertex 480.7111302 247.8732488 38.12731171 
  endloop
 endfacet
 facet normal -1.406745 -296.554688 0.000000
  outer loop
   vertex 480.7111302 247.8732488 28.60723114 
   vertex 511.8615513 247.7254827 28.60723495 
   vertex 480.7111302 247.8732488 38.12731171 
  endloop
 endfacet
 facet normal -1.406745 -296.554688 0.000000
  outer loop
   vertex 480.7111302 247.8732488 38.12731171 
   vertex 511.8615513 247.7254827 28.60723495 
   vertex 511.8615513 247.7254827 38.12731171 
  endloop
 endfacet
 facet normal -253.379028 -147.042969 0.000000
  outer loop
   vertex 511.8615513 247.7254827 28.60723495 
   vertex 527.3071385 221.1102483 28.60723495 
   vertex 511.8615513 247.7254827 38.12731171 
  endloop
 endfacet
 facet normal -253.379150 -147.042969 0.000000
  outer loop
   vertex 511.8615513 247.7254827 38.12731171 
   vertex 527.3071385 221.1102483 28.60723495 
   vertex 527.3071385 221.1102483 38.12731171 
  endloop
 endfacet
 facet normal 0.000031 0.000000 175.996460
  outer loop
   vertex 511.8615513 247.7254827 38.12731171 
   vertex 527.3071385 221.1102483 38.12731171 
   vertex 516.5263157 251.0819585 38.12731171 
  endloop
 endfacet
 facet normal 0.000000 0.000000 173.657227
  outer loop
   vertex 516.5263157 251.0819585 38.12731171 
   vertex 527.3071385 221.1102483 38.12731171 
   vertex 532.6366673 222.4015996 38.12731171 
  endloop
 endfacet
 facet normal 273.039063 153.372070 0.000000
  outer loop
   vertex 532.6366673 222.4015996 28.60723495 
   vertex 516.5263157 251.0819585 28.60723495 
   vertex 532.6366673 222.4015996 38.12731171 
  endloop
 endfacet
 facet normal 273.039429 153.372070 0.000000
  outer loop
   vertex 532.6366673 222.4015996 38.12731171 
   vertex 516.5263157 251.0819585 28.60723495 
   vertex 516.5263157 251.0819585 38.12731171 
  endloop
 endfacet
 facet normal 817.183716 459.029297 0.000000
  outer loop
   vertex 532.6366673 222.4015996 0.1144361496 
   vertex 516.5263157 251.0819585 0.1144361496 
   vertex 532.6366673 222.4015996 28.60723495 
  endloop
 endfacet
 facet normal 817.183655 459.029297 0.000000
  outer loop
   vertex 532.6366673 222.4015996 28.60723495 
   vertex 516.5263157 251.0819585 0.1144361496 
   vertex 516.5263157 251.0819585 28.60723495 
  endloop
 endfacet
 facet normal 315.211670 177.060547 0.000000
  outer loop
   vertex 516.5263157 251.0819585 0.1144361496 
   vertex 532.6366673 222.4015996 0.1144361496 
   vertex 516.5263157 251.0819585 -10.87607002 
  endloop
 endfacet
 facet normal 315.211670 177.061523 0.000000
  outer loop
   vertex 516.5263157 251.0819585 -10.87607002 
   vertex 532.6366673 222.4015996 0.1144361496 
   vertex 532.6366673 222.4015996 -10.87607002 
  endloop
 endfacet
 facet normal -0.000038 0.000000 -132.448853
  outer loop
   vertex 516.5263157 251.0819585 -10.87607002 
   vertex 532.6366673 222.4015996 -10.87607002 
   vertex 514.1635228 247.0669744 -10.87607002 
  endloop
 endfacet
 facet normal 0.000000 0.000000 -115.480469
  outer loop
   vertex 514.1635228 247.0669744 -10.87607002 
   vertex 532.6366673 222.4015996 -10.87607002 
   vertex 527.9447117 222.4150274 -10.87607002 
  endloop
 endfacet
 facet normal -0.000000 0.000000 -130.822266
  outer loop
   vertex 516.5263157 251.0819585 -10.87607002 
   vertex 514.1635228 247.0669744 -10.87607002 
   vertex 484.0352269 251.2389714 -10.87607002 
  endloop
 endfacet
 facet normal 0.000000 0.000000 -131.141846
  outer loop
   vertex 484.0352269 251.2389714 -10.87607002 
   vertex 514.1635228 247.0669744 -10.87607002 
   vertex 481.6789647 247.2124822 -10.87607002 
  endloop
 endfacet
 facet normal 0.000015 0.000000 -132.308350
  outer loop
   vertex 467.828043 279.761707 -10.87607002 
   vertex 484.0352269 251.2389714 -10.87607002 
   vertex 465.477335 275.7351262 -10.87607002 
  endloop
 endfacet
 facet normal -0.000061 0.000000 -132.442383
  outer loop
   vertex 465.477335 275.7351262 -10.87607002 
   vertex 484.0352269 251.2389714 -10.87607002 
   vertex 481.6789647 247.2124822 -10.87607002 
  endloop
 endfacet
 facet normal 0.000002 0.000000 -129.136719
  outer loop
   vertex 467.828043 279.761707 -10.87607002 
   vertex 465.477335 275.7351262 -10.87607002 
   vertex 435.8084508 279.8500554 -10.87607002 
  endloop
 endfacet
 facet normal 0.000000 0.000000 -131.122681
  outer loop
   vertex 435.8084508 279.8500554 -10.87607002 
   vertex 465.477335 275.7351262 -10.87607002 
   vertex 433.500803 275.7505986 -10.87607002 
  endloop
 endfacet
 facet normal 0.970994 351.912109 0.000000
  outer loop
   vertex 435.8084508 279.8500554 0.1144361496 
   vertex 467.828043 279.761707 0.1144361496 
   vertex 435.8084508 279.8500554 -10.87607002 
  endloop
 endfacet
 facet normal 0.970994 351.911133 0.000000
  outer loop
   vertex 435.8084508 279.8500554 -10.87607002 
   vertex 467.828043 279.761707 0.1144361496 
   vertex 467.828043 279.761707 -10.87607002 
  endloop
 endfacet
 facet normal 2.517293 912.328125 0.000000
  outer loop
   vertex 467.828043 279.761707 0.1144361496 
   vertex 435.8084508 279.8500554 0.1144361496 
   vertex 467.828043 279.761707 28.60723495 
  endloop
 endfacet
 facet normal 2.517293 912.328125 0.000000
  outer loop
   vertex 467.828043 279.761707 28.60723495 
   vertex 435.8084508 279.8500554 0.1144361496 
   vertex 435.8084508 279.8500554 28.60723495 
  endloop
 endfacet
 facet normal 0.841083 304.828125 0.000000
  outer loop
   vertex 467.828043 279.761707 28.60723495 
   vertex 435.8084508 279.8500554 28.60723495 
   vertex 467.828043 279.761707 38.12731171 
  endloop
 endfacet
 facet normal 0.841084 304.829498 0.000000
  outer loop
   vertex 467.828043 279.761707 38.12731171 
   vertex 435.8084508 279.8500554 28.60723495 
   vertex 435.8084508 279.8500554 38.12731934 
  endloop
 endfacet
 facet normal 0.000061 -0.000010 155.341187
  outer loop
   vertex 434.4743138 274.7934148 38.12731934 
   vertex 465.172617 274.7102544 38.12731171 
   vertex 435.8084508 279.8500554 38.12731934 
  endloop
 endfacet
 facet normal 0.000026 -0.000020 161.979492
  outer loop
   vertex 435.8084508 279.8500554 38.12731934 
   vertex 465.172617 274.7102544 38.12731171 
   vertex 467.828043 279.761707 38.12731171 
  endloop
 endfacet
 facet normal -0.791694 -292.250488 0.000000
  outer loop
   vertex 434.4743138 274.7934148 28.60723495 
   vertex 465.172617 274.7102544 28.60723495 
   vertex 434.4743138 274.7934148 38.12731934 
  endloop
 endfacet
 facet normal -0.791693 -292.249878 0.000000
  outer loop
   vertex 434.4743138 274.7934148 38.12731934 
   vertex 465.172617 274.7102544 28.60723495 
   vertex 465.172617 274.7102544 38.12731171 
  endloop
 endfacet
 facet normal -2.369473 -874.679688 0.000000
  outer loop
   vertex 434.4743138 274.7934148 0.1144361496 
   vertex 465.172617 274.7102544 0.1144361496 
   vertex 434.4743138 274.7934148 28.60723495 
  endloop
 endfacet
 facet normal -2.369473 -874.681641 0.000000
  outer loop
   vertex 434.4743138 274.7934148 28.60723495 
   vertex 465.172617 274.7102544 0.1144361496 
   vertex 465.172617 274.7102544 28.60723495 
  endloop
 endfacet
 facet normal -764.661377 -442.734375 0.000000
  outer loop
   vertex 465.172617 274.7102544 0.1144361496 
   vertex 480.7111302 247.8732488 0.1144361496 
   vertex 465.172617 274.7102544 28.60723495 
  endloop
 endfacet
 facet normal -764.661316 -442.735962 0.000000
  outer loop
   vertex 465.172617 274.7102544 28.60723495 
   vertex 480.7111302 247.8732488 0.1144361496 
   vertex 480.7111302 247.8732488 28.60723114 
  endloop
 endfacet
 facet normal -4.210269 -887.562500 0.000000
  outer loop
   vertex 480.7111302 247.8732488 0.1144361496 
   vertex 511.8615513 247.7254827 0.1144361496 
   vertex 480.7111302 247.8732488 28.60723114 
  endloop
 endfacet
 facet normal -4.210270 -887.562683 0.000000
  outer loop
   vertex 480.7111302 247.8732488 28.60723114 
   vertex 511.8615513 247.7254827 0.1144361496 
   vertex 511.8615513 247.7254827 28.60723495 
  endloop
 endfacet
 facet normal -758.342529 -440.089844 0.000000
  outer loop
   vertex 511.8615513 247.7254827 0.1144361496 
   vertex 527.3071385 221.1102483 0.1144361496 
   vertex 511.8615513 247.7254827 28.60723495 
  endloop
 endfacet
 facet normal -758.342468 -440.085938 0.000000
  outer loop
   vertex 511.8615513 247.7254827 28.60723495 
   vertex 527.3071385 221.1102483 0.1144361496 
   vertex 527.3071385 221.1102483 28.60723495 
  endloop
 endfacet
 facet normal -257.210327 147.136719 0.000000
  outer loop
   vertex 527.3071385 221.1102483 28.60723495 
   vertex 511.8516942 194.0925786 28.60723114 
   vertex 527.3071385 221.1102483 38.12731171 
  endloop
 endfacet
 facet normal -257.210327 147.136719 0.000000
  outer loop
   vertex 527.3071385 221.1102483 38.12731171 
   vertex 511.8516942 194.0925786 28.60723114 
   vertex 511.8516942 194.0925786 38.12731171 
  endloop
 endfacet
 facet normal 0.000000 0.000000 126.169922
  outer loop
   vertex 511.8516942 194.0925786 38.12731171 
   vertex 516.5160618 194.0829046 38.12731171 
   vertex 527.3071385 221.1102483 38.12731171 
  endloop
 endfacet
 facet normal 0.000076 0.000000 130.107788
  outer loop
   vertex 527.3071385 221.1102483 38.12731171 
   vertex 516.5160618 194.0829046 38.12731171 
   vertex 532.6366673 222.4015996 38.12731171 
  endloop
 endfacet
 facet normal 269.596191 -153.469727 0.000000
  outer loop
   vertex 516.5160618 194.0829046 28.60723114 
   vertex 532.6366673 222.4015996 28.60723495 
   vertex 516.5160618 194.0829046 38.12731171 
  endloop
 endfacet
 facet normal 269.596191 -153.469727 0.000000
  outer loop
   vertex 516.5160618 194.0829046 38.12731171 
   vertex 532.6366673 222.4015996 28.60723495 
   vertex 532.6366673 222.4015996 38.12731171 
  endloop
 endfacet
 facet normal 806.878784 -459.320313 0.000000
  outer loop
   vertex 516.5160618 194.0829046 0.1144361496 
   vertex 532.6366673 222.4015996 0.1144361496 
   vertex 516.5160618 194.0829046 28.60723114 
  endloop
 endfacet
 facet normal 806.878845 -459.322235 0.000000
  outer loop
   vertex 516.5160618 194.0829046 28.60723114 
   vertex 532.6366673 222.4015996 0.1144361496 
   vertex 532.6366673 222.4015996 28.60723495 
  endloop
 endfacet
 facet normal 311.236786 -177.173828 0.000000
  outer loop
   vertex 532.6366673 222.4015996 0.1144361496 
   vertex 516.5160618 194.0829046 0.1144361496 
   vertex 532.6366673 222.4015996 -10.87607002 
  endloop
 endfacet
 facet normal 44.972263 -25.600586 0.000000
  outer loop
   vertex 516.5160618 194.0829046 -10.87607002 
   vertex 518.8454075 198.1748235 -10.87607002 
   vertex 516.5160618 194.0829046 0.1144361496 
  endloop
 endfacet
 facet normal 266.264526 -151.573242 0.000000
  outer loop
   vertex 516.5160618 194.0829046 0.1144361496 
   vertex 518.8454075 198.1748235 -10.87607002 
   vertex 532.6366673 222.4015996 -10.87607002 
  endloop
 endfacet
 facet normal -0.000029 0.000000 -113.856323
  outer loop
   vertex 532.6366673 222.4015996 -10.87607002 
   vertex 518.8454075 198.1748235 -10.87607002 
   vertex 527.9447117 222.4150274 -10.87607002 
  endloop
 endfacet
 facet normal 0.000000 0.000000 -113.019531
  outer loop
   vertex 527.9447117 222.4150274 -10.87607002 
   vertex 518.8454075 198.1748235 -10.87607002 
   vertex 514.1855565 198.1817968 -10.87607002 
  endloop
 endfacet
 facet normal 0.000046 -0.000026 -500.505859
  outer loop
   vertex 527.9447117 222.4150274 -1.567268372 
   vertex 514.1855565 198.1817968 -1.567268372 
   vertex 504.2510472 217.0609624 -1.567270279 
  endloop
 endfacet
 facet normal 0.000008 -0.000035 -389.289063
  outer loop
   vertex 504.2510472 217.0609624 -1.567270279 
   vertex 514.1855565 198.1817968 -1.567268372 
   vertex 493.549265 198.2126958 -1.567268848 
  endloop
 endfacet
 facet normal 0.000053 0.000004 -657.880859
  outer loop
   vertex 527.9447117 222.4150274 -1.567268372 
   vertex 504.2510472 217.0609624 -1.567270279 
   vertex 514.1635228 247.0669896 -1.567269325 
  endloop
 endfacet
 facet normal 0.000013 0.000011 -532.641602
  outer loop
   vertex 514.1635228 247.0669896 -1.567269325 
   vertex 504.2510472 217.0609624 -1.567270279 
   vertex 493.0933323 237.0199773 -1.567270279 
  endloop
 endfacet
 facet normal 0.000010 0.000011 -329.438477
  outer loop
   vertex 514.1635228 247.0669896 -1.567269325 
   vertex 493.0933323 237.0199773 -1.567270279 
   vertex 481.6789647 247.2124822 -1.567270279 
  endloop
 endfacet
 facet normal 0.000010 0.000011 -266.724121
  outer loop
   vertex 481.6789647 247.2124822 -1.567270279 
   vertex 493.0933323 237.0199773 -1.567270279 
   vertex 466.7927952 237.1377752 -1.567271233 
  endloop
 endfacet
 facet normal -0.000004 0.000000 -587.818848
  outer loop
   vertex 465.477335 275.7351415 -1.567270279 
   vertex 481.6789647 247.2124822 -1.567270279 
   vertex 453.6754246 260.2306707 -1.567270279 
  endloop
 endfacet
 facet normal 0.000015 0.000027 -475.918457
  outer loop
   vertex 453.6754246 260.2306707 -1.567270279 
   vertex 481.6789647 247.2124822 -1.567270279 
   vertex 466.7927952 237.1377752 -1.567271233 
  endloop
 endfacet
 facet normal -0.000016 0.000011 -495.961914
  outer loop
   vertex 465.477335 275.7351415 -1.567270279 
   vertex 453.6754246 260.2306707 -1.567270279 
   vertex 433.500803 275.7505986 -1.567269325 
  endloop
 endfacet
 facet normal 0.000000 0.000025 -401.548584
  outer loop
   vertex 433.500803 275.7505986 -1.567269325 
   vertex 453.6754246 260.2306707 -1.567270279 
   vertex 427.7861424 260.2430913 -1.567270279 
  endloop
 endfacet
 facet normal 0.000031 0.000025 -406.495117
  outer loop
   vertex 417.1511632 302.5159795 -1.567268848 
   vertex 433.500803 275.7505986 -1.567269325 
   vertex 414.5489903 281.9132726 -1.567270279 
  endloop
 endfacet
 facet normal 0.000023 0.000013 -329.112305
  outer loop
   vertex 414.5489903 281.9132726 -1.567270279 
   vertex 433.500803 275.7505986 -1.567269325 
   vertex 427.7861424 260.2430913 -1.567270279 
  endloop
 endfacet
 facet normal -0.000031 0.000000 -128.985840
  outer loop
   vertex 419.4675084 306.6154058 -10.87607002 
   vertex 435.8084508 279.8500554 -10.87607002 
   vertex 417.1511632 302.5159795 -10.87607002 
  endloop
 endfacet
 facet normal 0.000000 0.000000 -128.790527
  outer loop
   vertex 417.1511632 302.5159795 -10.87607002 
   vertex 435.8084508 279.8500554 -10.87607002 
   vertex 433.500803 275.7505986 -10.87607002 
  endloop
 endfacet
 facet normal 294.164764 179.595703 0.000000
  outer loop
   vertex 419.4675084 306.6154058 0.1144361496 
   vertex 435.8084508 279.8500554 0.1144361496 
   vertex 419.4675084 306.6154058 -10.87607002 
  endloop
 endfacet
 facet normal 294.164764 179.594727 0.000000
  outer loop
   vertex 419.4675084 306.6154058 -10.87607002 
   vertex 435.8084508 279.8500554 0.1144361496 
   vertex 435.8084508 279.8500554 -10.87607002 
  endloop
 endfacet
 facet normal 762.619751 465.597656 0.000000
  outer loop
   vertex 435.8084508 279.8500554 0.1144361496 
   vertex 419.4675084 306.6154058 0.1144361496 
   vertex 435.8084508 279.8500554 28.60723495 
  endloop
 endfacet
 facet normal 762.619751 465.599609 0.000000
  outer loop
   vertex 435.8084508 279.8500554 28.60723495 
   vertex 419.4675084 306.6154058 0.1144361496 
   vertex 419.4675084 306.6154058 28.60723495 
  endloop
 endfacet
 facet normal 254.808472 155.567383 0.000000
  outer loop
   vertex 435.8084508 279.8500554 28.60723495 
   vertex 419.4675084 306.6154058 28.60723495 
   vertex 435.8084508 279.8500554 38.12731934 
  endloop
 endfacet
 facet normal 254.808350 155.566895 0.000000
  outer loop
   vertex 435.8084508 279.8500554 38.12731934 
   vertex 419.4675084 306.6154058 28.60723495 
   vertex 419.4675084 306.6154058 38.12731934 
  endloop
 endfacet
 facet normal 0.000000 0.000000 114.791016
  outer loop
   vertex 434.4743138 274.7934148 38.12731934 
   vertex 435.8084508 279.8500554 38.12731934 
   vertex 418.8075657 301.4548223 38.12731934 
  endloop
 endfacet
 facet normal 0.000000 0.000000 101.992523
  outer loop
   vertex 418.8075657 301.4548223 38.12731934 
   vertex 435.8084508 279.8500554 38.12731934 
   vertex 419.4675084 306.6154058 38.12731934 
  endloop
 endfacet
 facet normal -253.818970 -149.148438 0.000000
  outer loop
   vertex 418.8075657 301.4548223 28.60723495 
   vertex 434.4743138 274.7934148 28.60723495 
   vertex 418.8075657 301.4548223 38.12731934 
  endloop
 endfacet
 facet normal -253.818726 -149.148926 0.000000
  outer loop
   vertex 418.8075657 301.4548223 38.12731934 
   vertex 434.4743138 274.7934148 28.60723495 
   vertex 434.4743138 274.7934148 38.12731934 
  endloop
 endfacet
 facet normal -759.658142 -446.388672 0.000000
  outer loop
   vertex 418.8075657 301.4548223 0.1144361496 
   vertex 434.4743138 274.7934148 0.1144361496 
   vertex 418.8075657 301.4548223 28.60723495 
  endloop
 endfacet
 facet normal -759.658142 -446.390625 0.000000
  outer loop
   vertex 418.8075657 301.4548223 28.60723495 
   vertex 434.4743138 274.7934148 0.1144361496 
   vertex 434.4743138 274.7934148 28.60723495 
  endloop
 endfacet
 facet normal 0.000000 0.000000 2123.512695
  outer loop
   vertex 441.7085057 193.5105474 0.1144361496 
   vertex 434.4743138 274.7934148 0.1144361496 
   vertex 415.5835362 193.5105474 0.1144361496 
  endloop
 endfacet
 facet normal -0.000002 0.000000 1777.092773
  outer loop
   vertex 415.5835362 193.5105474 0.1144361496 
   vertex 434.4743138 274.7934148 0.1144361496 
   vertex 418.8075657 301.4548223 0.1144361496 
  endloop
 endfacet
 facet normal 0.000000 0.000000 2121.337402
  outer loop
   vertex 467.8334446 193.5105474 0.1144361496 
   vertex 465.172617 274.7102544 0.1144361496 
   vertex 441.7085057 193.5105474 0.1144361496 
  endloop
 endfacet
 facet normal 0.000000 0.000000 2494.644287
  outer loop
   vertex 441.7085057 193.5105474 0.1144361496 
   vertex 465.172617 274.7102544 0.1144361496 
   vertex 434.4743138 274.7934148 0.1144361496 
  endloop
 endfacet
 facet normal 0.000000 0.000000 1420.226074
  outer loop
   vertex 493.9584446 193.5105474 0.1144361496 
   vertex 480.7111302 247.8732488 0.1144361496 
   vertex 467.8334446 193.5105474 0.1144361496 
  endloop
 endfacet
 facet normal 0.000000 0.000000 1190.313965
  outer loop
   vertex 467.8334446 193.5105474 0.1144361496 
   vertex 480.7111302 247.8732488 0.1144361496 
   vertex 465.172617 274.7102544 0.1144361496 
  endloop
 endfacet
 facet normal -0.000000 0.000000 892.378418
  outer loop
   vertex 510.5496312 193.9077947 0.1144361496 
   vertex 511.8615513 247.7254827 0.1144361496 
   vertex 493.9584446 193.5105474 0.1144361496 
  endloop
 endfacet
 facet normal 0.000001 0.000000 1691.463867
  outer loop
   vertex 493.9584446 193.5105474 0.1144361496 
   vertex 511.8615513 247.7254827 0.1144361496 
   vertex 480.7111302 247.8732488 0.1144361496 
  endloop
 endfacet
 facet normal 0.000000 0.000000 69.831604
  outer loop
   vertex 510.5496312 193.9077947 0.1144361496 
   vertex 511.8516942 194.0925786 0.1144361496 
   vertex 511.8615513 247.7254827 0.1144361496 
  endloop
 endfacet
 facet normal 0.000001 0.000000 828.654175
  outer loop
   vertex 511.8516942 194.0925786 0.1144361496 
   vertex 527.3071385 221.1102483 0.1144361496 
   vertex 511.8615513 247.7254827 0.1144361496 
  endloop
 endfacet
 facet normal -769.809082 440.369141 0.000000
  outer loop
   vertex 527.3071385 221.1102483 0.1144361496 
   vertex 511.8516942 194.0925786 0.1144361496 
   vertex 527.3071385 221.1102483 28.60723495 
  endloop
 endfacet
 facet normal -769.808838 440.367218 0.000000
  outer loop
   vertex 527.3071385 221.1102483 28.60723495 
   vertex 511.8516942 194.0925786 0.1144361496 
   vertex 511.8516942 194.0925786 28.60723114 
  endloop
 endfacet
 facet normal -5.562050 -3.255859 0.000000
  outer loop
   vertex 512.1936741 193.5083349 28.60723114 
   vertex 512.1936741 193.5083349 38.12731171 
   vertex 511.8516942 194.0925786 28.60723114 
  endloop
 endfacet
 facet normal -5.562046 -3.254883 0.000000
  outer loop
   vertex 511.8516942 194.0925786 28.60723114 
   vertex 512.1936741 193.5083349 38.12731171 
   vertex 511.8516942 194.0925786 38.12731171 
  endloop
 endfacet
 facet normal 0.000000 0.000000 2.675659
  outer loop
   vertex 516.8507481 193.5083349 38.12731171 
   vertex 516.5160618 194.0829046 38.12731171 
   vertex 512.1936741 193.5083349 38.12731171 
  endloop
 endfacet
 facet normal 0.000000 0.000000 2.721855
  outer loop
   vertex 512.1936741 193.5083349 38.12731171 
   vertex 516.5160618 194.0829046 38.12731171 
   vertex 511.8516942 194.0925786 38.12731171 
  endloop
 endfacet
 facet normal 5.469948 3.186523 0.000000
  outer loop
   vertex 516.8507481 193.5083349 38.12731171 
   vertex 516.8507481 193.5083349 28.60723114 
   vertex 516.5160618 194.0829046 38.12731171 
  endloop
 endfacet
 facet normal 5.469952 3.186523 0.000000
  outer loop
   vertex 516.5160618 194.0829046 38.12731171 
   vertex 516.8507481 193.5083349 28.60723114 
   vertex 516.5160618 194.0829046 28.60723114 
  endloop
 endfacet
 facet normal 16.371096 9.535156 0.000000
  outer loop
   vertex 516.8507481 193.5083349 28.60723114 
   vertex 516.8507481 193.5083349 0.1144361496 
   vertex 516.5160618 194.0829046 28.60723114 
  endloop
 endfacet
 facet normal 16.371098 9.537109 0.000000
  outer loop
   vertex 516.5160618 194.0829046 28.60723114 
   vertex 516.8507481 193.5083349 0.1144361496 
   vertex 516.5160618 194.0829046 0.1144361496 
  endloop
 endfacet
 facet normal 6.314812 3.677734 0.000000
  outer loop
   vertex 516.8507481 193.5083349 0.1144361496 
   vertex 516.8507481 193.5083349 -10.87607002 
   vertex 516.5160618 194.0829046 0.1144361496 
  endloop
 endfacet
 facet normal 6.314812 3.678711 0.000000
  outer loop
   vertex 516.5160618 194.0829046 0.1144361496 
   vertex 516.8507481 193.5083349 -10.87607002 
   vertex 516.5160618 194.0829046 -10.87607002 
  endloop
 endfacet
 facet normal 0.000000 0.000000 -2.691574
  outer loop
   vertex 516.8507481 193.5083349 -10.87607002 
   vertex 512.1659947 193.5083349 -10.87607002 
   vertex 516.5160618 194.0829046 -10.87607002 
  endloop
 endfacet
 facet normal 0.000000 0.000000 -2.582520
  outer loop
   vertex 516.5160618 194.0829046 -10.87607002 
   vertex 512.1659947 193.5083349 -10.87607002 
   vertex 511.8450718 194.0596196 -10.87607002 
  endloop
 endfacet
 facet normal 0.000000 0.000000 -11.358589
  outer loop
   vertex 512.1659947 193.5083349 -10.87607002 
   vertex 491.5626927 193.5083349 -10.87607002 
   vertex 511.8450718 194.0596196 -10.87607002 
  endloop
 endfacet
 facet normal 0.000000 0.000000 -12.263184
  outer loop
   vertex 511.8450718 194.0596196 -10.87607002 
   vertex 491.5626927 193.5083349 -10.87607002 
   vertex 491.2161961 194.103565 -10.87607002 
  endloop
 endfacet
 facet normal -0.000031 0.000013 -477.652893
  outer loop
   vertex 408.8363743 281.9558294 -1.567269802 
   vertex 414.5489903 281.9132726 -1.567270279 
   vertex 409.2796727 198.338825 -1.567272186 
  endloop
 endfacet
 facet normal 0.000031 0.000025 -1220.475098
  outer loop
   vertex 414.5489903 281.9132726 -1.567270279 
   vertex 427.7861424 260.2430913 -1.567270279 
   vertex 409.2796727 198.338825 -1.567272186 
  endloop
 endfacet
 facet normal 0.000200 0.000099 -5218.982422
  outer loop
   vertex 409.2796727 198.338825 -1.567272186 
   vertex 427.7861424 260.2430913 -1.567270279 
   vertex 493.549265 198.2126958 -1.567268848 
  endloop
 endfacet
 facet normal -0.000000 0.000025 -597.695313
  outer loop
   vertex 453.6754246 260.2306707 -1.567270279 
   vertex 466.7927952 237.1377752 -1.567271233 
   vertex 427.7861424 260.2430913 -1.567270279 
  endloop
 endfacet
 facet normal -0.000092 -0.000119 -900.119141
  outer loop
   vertex 427.7861424 260.2430913 -1.567270279 
   vertex 466.7927952 237.1377752 -1.567271233 
   vertex 493.549265 198.2126958 -1.567268848 
  endloop
 endfacet
 facet normal 0.000038 -0.000037 -1020.598633
  outer loop
   vertex 466.7927952 237.1377752 -1.567271233 
   vertex 493.0933323 237.0199773 -1.567270279 
   vertex 493.549265 198.2126958 -1.567268848 
  endloop
 endfacet
 facet normal -0.000023 -0.000016 -423.900635
  outer loop
   vertex 493.549265 198.2126958 -1.567268848 
   vertex 493.0933323 237.0199773 -1.567270279 
   vertex 504.2510472 217.0609624 -1.567270279 
  endloop
 endfacet
 facet normal -0.000012 0.000003 -117.806396
  outer loop
   vertex 408.8363743 281.9558294 -1.567269802 
   vertex 408.7270299 302.5787542 -1.567269325 
   vertex 414.5489903 281.9132726 -1.567270279 
  endloop
 endfacet
 facet normal 0.000008 0.000011 -173.722900
  outer loop
   vertex 414.5489903 281.9132726 -1.567270279 
   vertex 408.7270299 302.5787542 -1.567269325 
   vertex 417.1511632 302.5159795 -1.567268848 
  endloop
 endfacet
 facet normal -0.000003 0.000000 -34.543457
  outer loop
   vertex 408.7270299 302.5787542 -10.87607002 
   vertex 408.7052708 306.6794317 -10.87607002 
   vertex 417.1511632 302.5159795 -10.87607002 
  endloop
 endfacet
 facet normal 0.000000 0.000000 -44.267090
  outer loop
   vertex 417.1511632 302.5159795 -10.87607002 
   vertex 408.7052708 306.6794317 -10.87607002 
   vertex 419.4675084 306.6154058 -10.87607002 
  endloop
 endfacet
 facet normal 0.342447 57.583008 0.000000
  outer loop
   vertex 403.465952 306.7105901 -10.87607002 
   vertex 403.465952 306.7105901 0.1144361496 
   vertex 408.7052708 306.6794317 -10.87607002 
  endloop
 endfacet
 facet normal 1.046124 175.865234 -0.000244
  outer loop
   vertex 403.465952 306.7105901 0.1144361496 
   vertex 419.4675084 306.6154058 0.1144361496 
   vertex 408.7052708 306.6794317 -10.87607002 
  endloop
 endfacet
 facet normal 0.703677 118.282227 0.000000
  outer loop
   vertex 419.4675084 306.6154058 0.1144361496 
   vertex 419.4675084 306.6154058 -10.87607002 
   vertex 408.7052708 306.6794317 -10.87607002 
  endloop
 endfacet
 facet normal 2.712068 455.929688 0.000977
  outer loop
   vertex 403.465952 306.7105901 0.1144361496 
   vertex 403.465952 306.7105596 28.60723305 
   vertex 419.4675084 306.6154058 0.1144361496 
  endloop
 endfacet
 facet normal 2.711199 455.927734 0.000000
  outer loop
   vertex 419.4675084 306.6154058 0.1144361496 
   vertex 403.465952 306.7105596 28.60723305 
   vertex 419.4675084 306.6154058 28.60723495 
  endloop
 endfacet
 facet normal 0.905873 152.336487 -0.000977
  outer loop
   vertex 403.465952 306.7105596 28.60723305 
   vertex 403.465952 306.7105901 38.12731934 
   vertex 419.4675084 306.6154058 28.60723495 
  endloop
 endfacet
 facet normal 0.906162 152.335938 0.000000
  outer loop
   vertex 419.4675084 306.6154058 28.60723495 
   vertex 403.465952 306.7105901 38.12731934 
   vertex 419.4675084 306.6154058 38.12731934 
  endloop
 endfacet
 facet normal 0.000000 -0.000059 79.239258
  outer loop
   vertex 403.465952 301.5455816 38.12731552 
   vertex 418.8075657 301.4548223 38.12731934 
   vertex 403.465952 306.7105901 38.12731934 
  endloop
 endfacet
 facet normal -0.000007 0.000000 82.640625
  outer loop
   vertex 403.465952 306.7105901 38.12731934 
   vertex 418.8075657 301.4548223 38.12731934 
   vertex 419.4675084 306.6154058 38.12731934 
  endloop
 endfacet
 facet normal -0.864037 -146.053085 -0.000977
  outer loop
   vertex 403.465952 301.5455816 38.12731552 
   vertex 403.465952 301.5456426 28.60723305 
   vertex 418.8075657 301.4548223 38.12731934 
  endloop
 endfacet
 facet normal -0.864616 -146.053711 0.000000
  outer loop
   vertex 418.8075657 301.4548223 38.12731934 
   vertex 403.465952 301.5456426 28.60723305 
   vertex 418.8075657 301.4548223 28.60723495 
  endloop
 endfacet
 facet normal -2.587725 -437.125427 0.000000
  outer loop
   vertex 403.465952 301.5456426 28.60723305 
   vertex 403.465952 301.5456426 0.1144361496 
   vertex 418.8075657 301.4548223 28.60723495 
  endloop
 endfacet
 facet normal -2.587725 -437.125000 0.000000
  outer loop
   vertex 418.8075657 301.4548223 28.60723495 
   vertex 403.465952 301.5456426 0.1144361496 
   vertex 418.8075657 301.4548223 0.1144361496 
  endloop
 endfacet
 facet normal 0.000000 0.000000 1309.124512
  outer loop
   vertex 403.465952 193.5105474 0.1144361496 
   vertex 415.5835362 193.5105474 0.1144361496 
   vertex 403.465952 301.5456426 0.1144361496 
  endloop
 endfacet
 facet normal 0.000000 0.000000 1656.332031
  outer loop
   vertex 403.465952 301.5456426 0.1144361496 
   vertex 415.5835362 193.5105474 0.1144361496 
   vertex 418.8075657 301.4548223 0.1144361496 
  endloop
 endfacet
 facet normal 0.000000 -0.000035 0.026611
  outer loop
   vertex 403.465952 193.5105474 0.1144361496 
   vertex 403.465952 193.5083349 0.1144332886 
   vertex 415.5835362 193.5105474 0.1144361496 
  endloop
 endfacet
 facet normal -0.000000 -0.000000 0.026913
  outer loop
   vertex 415.5835362 193.5105474 0.1144361496 
   vertex 403.465952 193.5083349 0.1144332886 
   vertex 415.5835972 193.5083349 0.1144361496 
  endloop
 endfacet
 facet normal 0.000000 0.000000 0.058292
  outer loop
   vertex 415.5835972 193.5083349 0.1144361496 
   vertex 441.7082921 193.5083349 0.1144361496 
   vertex 415.5835362 193.5105474 0.1144361496 
  endloop
 endfacet
 facet normal 0.000000 0.000000 0.057129
  outer loop
   vertex 415.5835362 193.5105474 0.1144361496 
   vertex 441.7082921 193.5083349 0.1144361496 
   vertex 441.7085057 193.5105474 0.1144361496 
  endloop
 endfacet
 facet normal 0.000000 0.000000 0.058431
  outer loop
   vertex 441.7082921 193.5083349 0.1144361496 
   vertex 467.8333836 193.5083349 0.1144361496 
   vertex 441.7085057 193.5105474 0.1144361496 
  endloop
 endfacet
 facet normal 0.000000 0.000000 0.057129
  outer loop
   vertex 441.7085057 193.5105474 0.1144361496 
   vertex 467.8333836 193.5083349 0.1144361496 
   vertex 467.8334446 193.5105474 0.1144361496 
  endloop
 endfacet
 facet normal 0.000000 0.000000 0.058408
  outer loop
   vertex 467.8333836 193.5083349 0.1144361496 
   vertex 493.9578953 193.5083349 0.1144361496 
   vertex 467.8334446 193.5105474 0.1144361496 
  endloop
 endfacet
 facet normal 0.000000 0.000000 0.057129
  outer loop
   vertex 467.8334446 193.5105474 0.1144361496 
   vertex 493.9578953 193.5083349 0.1144361496 
   vertex 493.9584446 193.5105474 0.1144361496 
  endloop
 endfacet
 facet normal 0.000000 0.000000 0.036899
  outer loop
   vertex 493.9578953 193.5083349 0.1144361496 
   vertex 510.5594578 193.5083349 0.1144361496 
   vertex 493.9584446 193.5105474 0.1144361496 
  endloop
 endfacet
 facet normal -0.000000 0.000000 6.631348
  outer loop
   vertex 510.5594578 193.5083349 0.1144361496 
   vertex 510.5496312 193.9077947 0.1144361496 
   vertex 493.9584446 193.5105474 0.1144361496 
  endloop
 endfacet
 facet normal 0.000000 0.000000 0.954803
  outer loop
   vertex 512.1936741 193.5083349 0.1144361496 
   vertex 511.8516942 194.0925786 0.1144361496 
   vertex 510.5594578 193.5083349 0.1144361496 
  endloop
 endfacet
 facet normal 0.000000 0.000000 0.521916
  outer loop
   vertex 510.5594578 193.5083349 0.1144361496 
   vertex 511.8516942 194.0925786 0.1144361496 
   vertex 510.5496312 193.9077947 0.1144361496 
  endloop
 endfacet
 facet normal -16.646740 -9.744141 0.000000
  outer loop
   vertex 512.1936741 193.5083349 0.1144361496 
   vertex 512.1936741 193.5083349 28.60723114 
   vertex 511.8516942 194.0925786 0.1144361496 
  endloop
 endfacet
 facet normal -16.646736 -9.742188 0.000000
  outer loop
   vertex 511.8516942 194.0925786 0.1144361496 
   vertex 512.1936741 193.5083349 28.60723114 
   vertex 511.8516942 194.0925786 28.60723114 
  endloop
 endfacet
 facet normal -0.000003 0.000000 -19.083862
  outer loop
   vertex 518.8454075 198.1748235 -10.87607002 
   vertex 516.5160618 194.0829046 -10.87607002 
   vertex 514.1855565 198.1817968 -10.87607002 
  endloop
 endfacet
 facet normal 0.000000 0.000000 -19.200195
  outer loop
   vertex 514.1855565 198.1817968 -10.87607002 
   vertex 516.5160618 194.0829046 -10.87607002 
   vertex 511.8450718 194.0596196 -10.87607002 
  endloop
 endfacet
 facet normal -0.000005 0.000000 -85.138184
  outer loop
   vertex 514.1855565 198.1817968 -10.87607002 
   vertex 511.8450718 194.0596196 -10.87607002 
   vertex 493.549265 198.2126806 -10.87607002 
  endloop
 endfacet
 facet normal 0.000000 0.000000 -84.869202
  outer loop
   vertex 493.549265 198.2126806 -10.87607002 
   vertex 511.8450718 194.0596196 -10.87607002 
   vertex 491.2161961 194.103565 -10.87607002 
  endloop
 endfacet
 facet normal 0.000001 0.000001 -48.964165
  outer loop
   vertex 491.5626927 193.5083349 -10.87607002 
   vertex 409.3052769 193.5083349 -10.87607193 
   vertex 491.2161961 194.103565 -10.87607002 
  endloop
 endfacet
 facet normal 0.000008 -0.000004 -346.566406
  outer loop
   vertex 493.549265 198.2126806 -10.87607002 
   vertex 491.2161961 194.103565 -10.87607002 
   vertex 409.2796727 198.338825 -10.87607193 
  endloop
 endfacet
 facet normal 0.000010 0.000000 -395.683594
  outer loop
   vertex 409.3052769 193.5083349 -10.87607193 
   vertex 409.2796727 198.338825 -10.87607193 
   vertex 491.2161961 194.103565 -10.87607002 
  endloop
 endfacet
 facet normal 0.000000 0.000000 -28.206669
  outer loop
   vertex 409.3052769 193.5083349 -10.87607193 
   vertex 403.465952 193.5083349 -10.87607193 
   vertex 409.2796727 198.338825 -10.87607193 
  endloop
 endfacet
 facet normal -0.000003 0.000000 -28.133789
  outer loop
   vertex 409.2796727 198.338825 -10.87607193 
   vertex 403.465952 193.5083349 -10.87607193 
   vertex 403.465952 198.3475225 -10.87607193 
  endloop
 endfacet
 facet normal 0.000000 0.000011 -486.122009
  outer loop
   vertex 409.2796727 198.338825 -10.87607193 
   vertex 403.465952 198.3475225 -10.87607193 
   vertex 408.8363743 281.9558294 -10.87607002 
  endloop
 endfacet
 facet normal 0.000002 0.000010 -449.227051
  outer loop
   vertex 408.8363743 281.9558294 -10.87607002 
   vertex 403.465952 198.3475225 -10.87607193 
   vertex 403.465952 281.9958532 -10.87607002 
  endloop
 endfacet
 facet normal 0.000000 0.000000 -108.494385
  outer loop
   vertex 403.465952 302.6179387 -10.87607002 
   vertex 408.7270299 302.5787542 -10.87607002 
   vertex 403.465952 281.9958532 -10.87607002 
  endloop
 endfacet
 facet normal -0.000002 0.000000 -110.749268
  outer loop
   vertex 403.465952 281.9958532 -10.87607002 
   vertex 408.7270299 302.5787542 -10.87607002 
   vertex 408.8363743 281.9558294 -10.87607002 
  endloop
 endfacet
 facet normal 0.000000 0.000000 -21.442871
  outer loop
   vertex 403.465952 306.7105901 -10.87607002 
   vertex 408.7052708 306.6794317 -10.87607002 
   vertex 403.465952 302.6179387 -10.87607002 
  endloop
 endfacet
 facet normal -0.000000 0.000000 -21.572754
  outer loop
   vertex 403.465952 302.6179387 -10.87607002 
   vertex 408.7052708 306.6794317 -10.87607002 
   vertex 408.7270299 302.5787542 -10.87607002 
  endloop
 endfacet
 facet normal -225.582336 128.082031 0.000000
  outer loop
   vertex 527.9447117 222.4150274 -10.87607002 
   vertex 514.1855565 198.1817968 -10.87607002 
   vertex 527.9447117 222.4150274 -1.567268372 
  endloop
 endfacet
 facet normal -225.582336 128.081055 0.000000
  outer loop
   vertex 527.9447117 222.4150274 -1.567268372 
   vertex 514.1855565 198.1817968 -10.87607002 
   vertex 514.1855565 198.1817968 -1.567268372 
  endloop
 endfacet
 facet normal 0.287491 192.098633 0.000000
  outer loop
   vertex 514.1855565 198.1817968 -10.87607002 
   vertex 493.549265 198.2126806 -10.87607002 
   vertex 514.1855565 198.1817968 -1.567268372 
  endloop
 endfacet
 facet normal 0.287633 192.099136 -0.000488
  outer loop
   vertex 514.1855565 198.1817968 -1.567268372 
   vertex 493.549265 198.2126806 -10.87607002 
   vertex 493.549265 198.2126958 -1.567268848 
  endloop
 endfacet
 facet normal -229.480042 -128.286133 0.000488
  outer loop
   vertex 514.1635228 247.0669744 -10.87607002 
   vertex 527.9447117 222.4150274 -10.87607002 
   vertex 514.1635228 247.0669896 -1.567269325 
  endloop
 endfacet
 facet normal -229.480240 -128.287109 0.000000
  outer loop
   vertex 514.1635228 247.0669896 -1.567269325 
   vertex 527.9447117 222.4150274 -10.87607002 
   vertex 527.9447117 222.4150274 -1.567268372 
  endloop
 endfacet
 facet normal -1.354503 -302.392578 0.000000
  outer loop
   vertex 481.6789647 247.2124822 -10.87607002 
   vertex 514.1635228 247.0669744 -10.87607002 
   vertex 481.6789647 247.2124822 -1.567270279 
  endloop
 endfacet
 facet normal -1.354361 -302.391632 0.000000
  outer loop
   vertex 481.6789647 247.2124822 -1.567270279 
   vertex 514.1635228 247.0669744 -10.87607002 
   vertex 514.1635228 247.0669896 -1.567269325 
  endloop
 endfacet
 facet normal -265.511566 -150.817383 0.000000
  outer loop
   vertex 465.477335 275.7351262 -10.87607002 
   vertex 481.6789647 247.2124822 -10.87607002 
   vertex 465.477335 275.7351415 -1.567270279 
  endloop
 endfacet
 facet normal -265.511719 -150.818359 0.000000
  outer loop
   vertex 465.477335 275.7351415 -1.567270279 
   vertex 481.6789647 247.2124822 -10.87607002 
   vertex 481.6789647 247.2124822 -1.567270279 
  endloop
 endfacet
 facet normal -0.144030 -297.663574 0.000000
  outer loop
   vertex 433.500803 275.7505986 -10.87607002 
   vertex 465.477335 275.7351262 -10.87607002 
   vertex 433.500803 275.7505986 -1.567269325 
  endloop
 endfacet
 facet normal -0.143888 -297.662445 0.000977
  outer loop
   vertex 433.500803 275.7505986 -1.567269325 
   vertex 465.477335 275.7351262 -10.87607002 
   vertex 465.477335 275.7351415 -1.567270279 
  endloop
 endfacet
 facet normal -249.153595 -152.195801 0.000000
  outer loop
   vertex 417.1511632 302.5159795 -10.87607002 
   vertex 433.500803 275.7505986 -10.87607002 
   vertex 417.1511632 302.5159795 -1.567268848 
  endloop
 endfacet
 facet normal -249.153580 -152.194733 0.000000
  outer loop
   vertex 417.1511632 302.5159795 -1.567268848 
   vertex 433.500803 275.7505986 -10.87607002 
   vertex 433.500803 275.7505986 -1.567269325 
  endloop
 endfacet
 facet normal 1.174253 784.449219 -0.001953
  outer loop
   vertex 493.549265 198.2126806 -10.87607002 
   vertex 409.2796727 198.338825 -10.87607193 
   vertex 493.549265 198.2126958 -1.567268848 
  endloop
 endfacet
 facet normal 1.174111 784.448730 0.000000
  outer loop
   vertex 493.549265 198.2126958 -1.567268848 
   vertex 409.2796727 198.338825 -10.87607193 
   vertex 409.2796727 198.338825 -1.567272186 
  endloop
 endfacet
 facet normal 778.374023 4.126953 0.000000
  outer loop
   vertex 409.2796727 198.338825 -10.87607193 
   vertex 408.8363743 281.9558294 -10.87607002 
   vertex 409.2796727 198.338825 -1.567272186 
  endloop
 endfacet
 facet normal 778.373962 4.126904 0.000000
  outer loop
   vertex 409.2796727 198.338825 -1.567272186 
   vertex 408.8363743 281.9558294 -10.87607002 
   vertex 408.8363743 281.9558294 -1.567269802 
  endloop
 endfacet
 facet normal 191.974670 1.018066 0.000000
  outer loop
   vertex 408.8363743 281.9558294 -10.87607002 
   vertex 408.7270299 302.5787542 -10.87607002 
   vertex 408.8363743 281.9558294 -1.567269802 
  endloop
 endfacet
 facet normal 191.974701 1.017470 0.000000
  outer loop
   vertex 408.8363743 281.9558294 -1.567269802 
   vertex 408.7270299 302.5787542 -10.87607002 
   vertex 408.7270299 302.5787542 -1.567269325 
  endloop
 endfacet
 facet normal -0.584357 -78.418945 0.000000
  outer loop
   vertex 408.7270299 302.5787542 -10.87607002 
   vertex 417.1511632 302.5159795 -10.87607002 
   vertex 408.7270299 302.5787542 -1.567269325 
  endloop
 endfacet
 facet normal -0.584357 -78.419052 0.000000
  outer loop
   vertex 408.7270299 302.5787542 -1.567269325 
   vertex 417.1511632 302.5159795 -10.87607002 
   vertex 417.1511632 302.5159795 -1.567268848 
  endloop
 endfacet
endsolid
