solid
 facet normal -1157.796631 -0.000299 0.000000
  outer loop
   vertex 400.8522418 137.2923953 0.1144390106 
   vertex 400.8522418 137.2923953 -10.87607193 
   vertex 400.8522418 31.94727585 0.1144361496 
  endloop
 endfacet
 facet normal -71.113159 0.000000 0.000000
  outer loop
   vertex 400.8522418 137.2923953 -10.87607193 
   vertex 400.8522418 130.8219821 -10.87607193 
   vertex 400.8522418 31.94727585 0.1144361496 
  endloop
 endfacet
 facet normal -552.494507 0.000000 0.000000
  outer loop
   vertex 400.8522418 130.8219821 -10.87607193 
   vertex 400.8522418 80.55181763 -10.87607002 
   vertex 400.8522418 31.94727585 0.1144361496 
  endloop
 endfacet
 facet normal -332.477356 -0.068359 -0.299625
  outer loop
   vertex 400.8522418 80.55181763 -10.87607002 
   vertex 400.8584063 50.30049775 -10.87607002 
   vertex 400.8522418 31.94727585 0.1144361496 
  endloop
 endfacet
 facet normal -226.824341 0.004883 -0.119384
  outer loop
   vertex 400.8584063 50.30049775 -10.87607002 
   vertex 400.8579791 29.66229127 -10.87607002 
   vertex 400.8522418 31.94727585 0.1144361496 
  endloop
 endfacet
 facet normal -13.107784 -0.057617 0.005151
  outer loop
   vertex 400.8522418 31.94727585 0.1144361496 
   vertex 400.8579791 29.66229127 -10.87607002 
   vertex 400.8574908 30.75462983 0.1144361496 
  endloop
 endfacet
 facet normal -44.798603 0.004883 0.000000
  outer loop
   vertex 400.8575518 25.5861728 -10.87607002 
   vertex 400.8575518 25.5861728 0.1144361496 
   vertex 400.8579791 29.66229127 -10.87607002 
  endloop
 endfacet
 facet normal -56.803963 -0.000977 -0.002457
  outer loop
   vertex 400.8579791 29.66229127 -10.87607002 
   vertex 400.8575518 25.5861728 0.1144361496 
   vertex 400.8574908 30.75462983 0.1144361496 
  endloop
 endfacet
 facet normal -147.263809 -0.001953 0.000000
  outer loop
   vertex 400.8575518 25.5861728 0.1144361496 
   vertex 400.8575518 25.5861728 28.60723495 
   vertex 400.8574908 30.75462983 0.1144361496 
  endloop
 endfacet
 facet normal -147.264877 -0.001953 0.000000
  outer loop
   vertex 400.8574908 30.75462983 0.1144361496 
   vertex 400.8575518 25.5861728 28.60723495 
   vertex 400.8574908 30.75466798 28.60723495 
  endloop
 endfacet
 facet normal -49.204498 -0.000977 0.000000
  outer loop
   vertex 400.8575518 25.5861728 28.60723495 
   vertex 400.8575518 25.5861728 38.12731552 
   vertex 400.8574908 30.75466798 28.60723495 
  endloop
 endfacet
 facet normal -49.204529 -0.000488 0.000000
  outer loop
   vertex 400.8575518 25.5861728 38.12731552 
   vertex 400.8574908 30.75466798 38.12731934 
   vertex 400.8574908 30.75466798 28.60723495 
  endloop
 endfacet
 facet normal 0.000000 44.334961 0.000000
  outer loop
   vertex 509.580086 137.2923953 38.12731171 
   vertex 514.2371295 137.2923953 38.12731171 
   vertex 509.580086 137.2923953 28.60723114 
  endloop
 endfacet
 facet normal 0.000000 44.335938 0.000000
  outer loop
   vertex 514.2371295 137.2923953 38.12731171 
   vertex 514.2371295 137.2923953 28.60723114 
   vertex 509.580086 137.2923953 28.60723114 
  endloop
 endfacet
 facet normal 0.000000 132.691406 0.000000
  outer loop
   vertex 509.580086 137.2923953 28.60723114 
   vertex 514.2371295 137.2923953 28.60723114 
   vertex 509.580086 137.2923953 0.1144361496 
  endloop
 endfacet
 facet normal 0.000000 132.693359 0.000000
  outer loop
   vertex 514.2371295 137.2923953 28.60723114 
   vertex 514.2371295 137.2923953 0.1144361496 
   vertex 509.580086 137.2923953 0.1144361496 
  endloop
 endfacet
 facet normal 0.000000 51.182617 0.000000
  outer loop
   vertex 514.2371295 137.2923953 0.1144361496 
   vertex 514.2371295 137.2923953 -10.87607002 
   vertex 509.580086 137.2923953 0.1144361496 
  endloop
 endfacet
 facet normal 0.000000 51.488281 0.000000
  outer loop
   vertex 514.2371295 137.2923953 -10.87607002 
   vertex 509.552376 137.2923953 -10.87607002 
   vertex 509.580086 137.2923953 0.1144361496 
  endloop
 endfacet
 facet normal 0.000000 17.961914 0.000000
  outer loop
   vertex 509.580086 137.2923953 0.1144361496 
   vertex 509.552376 137.2923953 -10.87607002 
   vertex 507.9457476 137.2923953 0.1144361496 
  endloop
 endfacet
 facet normal 0.000000 226.440430 0.000214
  outer loop
   vertex 509.552376 137.2923953 -10.87607002 
   vertex 488.9491046 137.2923953 -10.87607002 
   vertex 507.9457476 137.2923953 0.1144361496 
  endloop
 endfacet
 facet normal 0.000000 182.459961 0.000000
  outer loop
   vertex 507.9457476 137.2923953 0.1144361496 
   vertex 488.9491046 137.2923953 -10.87607002 
   vertex 491.3441546 137.2923953 0.1144361496 
  endloop
 endfacet
 facet normal 0.000000 287.121094 0.000000
  outer loop
   vertex 491.3441546 137.2923953 0.1144361496 
   vertex 488.9491046 137.2923953 -10.87607002 
   vertex 465.2196734 137.2923953 0.1144361496 
  endloop
 endfacet
 facet normal 0.000000 900.769531 0.000488
  outer loop
   vertex 488.9491046 137.2923953 -10.87607002 
   vertex 406.9903033 137.2923953 -10.87607193 
   vertex 465.2196734 137.2923953 0.1144361496 
  endloop
 endfacet
 facet normal 0.000000 287.127930 -0.001465
  outer loop
   vertex 465.2196734 137.2923953 0.1144361496 
   vertex 406.9903033 137.2923953 -10.87607193 
   vertex 439.0945819 137.2923953 0.1144361496 
  endloop
 endfacet
 facet normal 0.000000 287.123047 0.000488
  outer loop
   vertex 439.0945819 137.2923953 0.1144361496 
   vertex 406.9903033 137.2923953 -10.87607193 
   vertex 412.9699175 137.2923953 0.1144361496 
  endloop
 endfacet
 facet normal 0.000000 133.179047 0.000000
  outer loop
   vertex 412.9699175 137.2923953 0.1144361496 
   vertex 406.9903033 137.2923953 -10.87607193 
   vertex 400.8522418 137.2923953 0.1144390106 
  endloop
 endfacet
 facet normal 0.000000 67.460938 0.000000
  outer loop
   vertex 406.9903033 137.2923953 -10.87607193 
   vertex 400.8522418 137.2923953 -10.87607193 
   vertex 400.8522418 137.2923953 0.1144390106 
  endloop
 endfacet
 facet normal -0.461942 -75.784180 0.000000
  outer loop
   vertex 451.5052874 52.52309296 28.60723495 
   vertex 451.5052874 52.52309296 38.12731171 
   vertex 443.5448687 52.57161591 28.60723495 
  endloop
 endfacet
 facet normal -0.461942 -75.784180 0.000000
  outer loop
   vertex 443.5448687 52.57161591 28.60723495 
   vertex 451.5052874 52.52309296 38.12731171 
   vertex 443.5448687 52.57161591 38.12731171 
  endloop
 endfacet
 facet normal -0.000005 0.000000 40.145386
  outer loop
   vertex 451.5052874 52.52309296 38.12731171 
   vertex 450.6829302 57.57123444 38.12731171 
   vertex 443.5448687 52.57161591 38.12731171 
  endloop
 endfacet
 facet normal 0.000000 0.000000 33.194206
  outer loop
   vertex 443.5448687 52.57161591 38.12731171 
   vertex 450.6829302 57.57123444 38.12731171 
   vertex 444.0996783 57.61052582 38.12731171 
  endloop
 endfacet
 facet normal -0.000024 -0.000017 40.151855
  outer loop
   vertex 459.4657366 52.47464631 38.12731934 
   vertex 457.2661822 57.53194306 38.12731934 
   vertex 451.5052874 52.52309296 38.12731171 
  endloop
 endfacet
 facet normal -0.000061 -0.000006 33.200890
  outer loop
   vertex 451.5052874 52.52309296 38.12731171 
   vertex 457.2661822 57.53194306 38.12731934 
   vertex 450.6829302 57.57123444 38.12731171 
  endloop
 endfacet
 facet normal -0.461216 -75.784180 0.000000
  outer loop
   vertex 459.4657366 52.47464631 28.60723495 
   vertex 459.4657366 52.47464631 38.12731934 
   vertex 451.5052874 52.52309296 28.60723495 
  endloop
 endfacet
 facet normal -0.461216 -75.783203 0.000000
  outer loop
   vertex 451.5052874 52.52309296 28.60723495 
   vertex 459.4657366 52.47464631 38.12731934 
   vertex 451.5052874 52.52309296 38.12731171 
  endloop
 endfacet
 facet normal -0.344278 -56.655273 0.000000
  outer loop
   vertex 459.4657366 52.47464631 28.60723495 
   vertex 465.416878 52.43848298 28.60723495 
   vertex 459.4657366 52.47464631 38.12731934 
  endloop
 endfacet
 facet normal -0.344278 -56.656250 0.000000
  outer loop
   vertex 459.4657366 52.47464631 38.12731934 
   vertex 465.416878 52.43848298 28.60723495 
   vertex 465.416878 52.43848298 38.12731934 
  endloop
 endfacet
 facet normal -0.461216 -78.961304 0.000000
  outer loop
   vertex 443.5448687 52.57161591 28.60723495 
   vertex 443.5448687 52.57161591 38.12731171 
   vertex 435.2507098 52.62006257 28.60723114 
  endloop
 endfacet
 facet normal -0.461216 -78.960449 0.000000
  outer loop
   vertex 435.2507098 52.62006257 28.60723114 
   vertex 443.5448687 52.57161591 38.12731171 
   vertex 435.2507098 52.62006257 38.12731171 
  endloop
 endfacet
 facet normal 0.000000 0.000000 -40.145424
  outer loop
   vertex 451.5052874 52.52309296 28.60723495 
   vertex 443.5448687 52.57161591 28.60723495 
   vertex 450.6829302 57.57123444 28.60723495 
  endloop
 endfacet
 facet normal 0.000019 0.000000 -33.194214
  outer loop
   vertex 450.6829302 57.57123444 28.60723495 
   vertex 443.5448687 52.57161591 28.60723495 
   vertex 444.0996783 57.61052582 28.60723495 
  endloop
 endfacet
 facet normal 0.374057 62.672852 0.000000
  outer loop
   vertex 450.6829302 57.57123444 38.12731171 
   vertex 450.6829302 57.57123444 28.60723495 
   vertex 444.0996783 57.61052582 38.12731171 
  endloop
 endfacet
 facet normal 0.374057 62.673828 0.000000
  outer loop
   vertex 444.0996783 57.61052582 38.12731171 
   vertex 450.6829302 57.57123444 28.60723495 
   vertex 444.0996783 57.61052582 28.60723495 
  endloop
 endfacet
 facet normal 0.000031 0.000000 33.194283
  outer loop
   vertex 444.0996783 57.61052582 38.12731171 
   vertex 437.5164263 57.6498935 38.12731171 
   vertex 443.5448687 52.57161591 38.12731171 
  endloop
 endfacet
 facet normal -0.000024 0.000000 41.827881
  outer loop
   vertex 443.5448687 52.57161591 38.12731171 
   vertex 437.5164263 57.6498935 38.12731171 
   vertex 435.2507098 52.62006257 38.12731171 
  endloop
 endfacet
 facet normal -0.141125 -19.930664 0.000000
  outer loop
   vertex 433.1572039 52.63488648 28.60723114 
   vertex 435.2507098 52.62006257 28.60723114 
   vertex 433.1572039 52.63488648 38.12731171 
  endloop
 endfacet
 facet normal -0.141125 -19.930176 0.000000
  outer loop
   vertex 433.1572039 52.63488648 38.12731171 
   vertex 435.2507098 52.62006257 28.60723114 
   vertex 435.2507098 52.62006257 38.12731171 
  endloop
 endfacet
 facet normal 0.000000 0.000000 -56.384277
  outer loop
   vertex 465.416878 52.43848298 -10.87607002 
   vertex 459.4657366 52.47464631 -10.87607002 
   vertex 461.9721453 61.93395112 -10.87607002 
  endloop
 endfacet
 facet normal 312.396698 -177.697266 0.000000
  outer loop
   vertex 481.5851824 80.86271546 0.1144361496 
   vertex 465.416878 52.43848298 0.1144361496 
   vertex 481.5851824 80.86271546 -10.87607002 
  endloop
 endfacet
 facet normal 312.396729 -177.698242 0.000000
  outer loop
   vertex 481.5851824 80.86271546 -10.87607002 
   vertex 465.416878 52.43848298 0.1144361496 
   vertex 465.416878 52.43848298 -10.87607002 
  endloop
 endfacet
 facet normal 0.895473 -0.509766 0.000000
  outer loop
   vertex 481.5851824 80.86271546 31.3125 
   vertex 481.5851824 80.86271546 38.12731171 
   vertex 481.5104144 80.7313144 31.3125 
  endloop
 endfacet
 facet normal 193.705734 -110.184082 -0.000926
  outer loop
   vertex 481.5851824 80.86271546 38.12731171 
   vertex 465.416878 52.43848298 38.12731934 
   vertex 481.5104144 80.7313144 31.3125 
  endloop
 endfacet
 facet normal 269.350220 -153.210938 0.000000
  outer loop
   vertex 465.416878 52.43848298 28.60723495 
   vertex 481.5104144 80.7313144 28.60723495 
   vertex 465.416878 52.43848298 38.12731934 
  endloop
 endfacet
 facet normal 76.539429 -43.537598 0.000000
  outer loop
   vertex 481.5104144 80.7313144 31.3125 
   vertex 465.416878 52.43848298 38.12731934 
   vertex 481.5104144 80.7313144 28.60723495 
  endloop
 endfacet
 facet normal 0.000003 0.000000 -0.263697
  outer loop
   vertex 481.5104144 80.7313144 31.3125 
   vertex 481.5104144 84.2581775 31.3125 
   vertex 481.5851824 80.86271546 31.3125 
  endloop
 endfacet
 facet normal 0.000000 0.000000 -85.324242
  outer loop
   vertex 481.5104144 84.2581775 31.3125 
   vertex 506.6368487 84.37063477 31.3125 
   vertex 481.5851824 80.86271546 31.3125 
  endloop
 endfacet
 facet normal 0.000004 0.000000 -85.016113
  outer loop
   vertex 481.5851824 80.86271546 31.3125 
   vertex 506.6368487 84.37063477 31.3125 
   vertex 506.6368487 80.97700379 31.3125 
  endloop
 endfacet
 facet normal 217.872070 -123.930664 0.000000
  outer loop
   vertex 481.5104144 80.7313144 28.60723495 
   vertex 465.416878 52.43848298 28.60723495 
   vertex 481.5104144 80.7313144 20.90662956 
  endloop
 endfacet
 facet normal 806.141907 -458.549316 0.000000
  outer loop
   vertex 465.416878 52.43848298 28.60723495 
   vertex 465.416878 52.43848298 0.1144361496 
   vertex 481.5104144 80.7313144 20.90662956 
  endloop
 endfacet
 facet normal 591.002136 -336.173828 0.000000
  outer loop
   vertex 481.5851824 80.86271546 0.1144361496 
   vertex 481.5851824 80.86271546 20.90662956 
   vertex 465.416878 52.43848298 0.1144361496 
  endloop
 endfacet
 facet normal 2.732100 -1.556641 0.000926
  outer loop
   vertex 481.5104144 80.7313144 20.90662956 
   vertex 465.416878 52.43848298 0.1144361496 
   vertex 481.5851824 80.86271546 20.90662956 
  endloop
 endfacet
 facet normal 0.000122 0.000025 141.490601
  outer loop
   vertex 478.2542803 84.24360535 38.12731171 
   vertex 462.7531512 57.49913666 38.12731934 
   vertex 481.5851824 80.86271546 38.12731171 
  endloop
 endfacet
 facet normal 0.000244 0.000020 157.537109
  outer loop
   vertex 481.5851824 80.86271546 38.12731171 
   vertex 462.7531512 57.49913666 38.12731934 
   vertex 465.416878 52.43848298 38.12731934 
  endloop
 endfacet
 facet normal 0.000008 0.000000 27.677063
  outer loop
   vertex 457.2661822 57.53194306 38.12731934 
   vertex 459.4657366 52.47464631 38.12731934 
   vertex 462.7531512 57.49913666 38.12731934 
  endloop
 endfacet
 facet normal 0.000000 0.000000 30.020325
  outer loop
   vertex 462.7531512 57.49913666 38.12731934 
   vertex 459.4657366 52.47464631 38.12731934 
   vertex 465.416878 52.43848298 38.12731934 
  endloop
 endfacet
 facet normal 0.374057 62.672871 0.000000
  outer loop
   vertex 457.2661822 57.53194306 38.12731934 
   vertex 457.2661822 57.53194306 28.60723495 
   vertex 450.6829302 57.57123444 38.12731171 
  endloop
 endfacet
 facet normal 0.374057 62.672852 0.000000
  outer loop
   vertex 450.6829302 57.57123444 38.12731171 
   vertex 457.2661822 57.53194306 28.60723495 
   vertex 450.6829302 57.57123444 28.60723495 
  endloop
 endfacet
 facet normal 0.000000 0.000000 -40.151825
  outer loop
   vertex 459.4657366 52.47464631 28.60723495 
   vertex 451.5052874 52.52309296 28.60723495 
   vertex 457.2661822 57.53194306 28.60723495 
  endloop
 endfacet
 facet normal -0.000011 0.000000 -33.200867
  outer loop
   vertex 457.2661822 57.53194306 28.60723495 
   vertex 451.5052874 52.52309296 28.60723495 
   vertex 450.6829302 57.57123444 28.60723495 
  endloop
 endfacet
 facet normal -1.030394 -169.564453 0.000000
  outer loop
   vertex 459.4657366 52.47464631 0.1144361496 
   vertex 465.416878 52.43848298 0.1144361496 
   vertex 459.4657366 52.47464631 28.60723495 
  endloop
 endfacet
 facet normal -1.030395 -169.566406 0.000000
  outer loop
   vertex 459.4657366 52.47464631 28.60723495 
   vertex 465.416878 52.43848298 0.1144361496 
   vertex 465.416878 52.43848298 28.60723495 
  endloop
 endfacet
 facet normal -0.397453 -65.406250 0.000000
  outer loop
   vertex 465.416878 52.43848298 0.1144361496 
   vertex 459.4657366 52.47464631 0.1144361496 
   vertex 465.416878 52.43848298 -10.87607002 
  endloop
 endfacet
 facet normal -0.397453 -65.406250 0.000000
  outer loop
   vertex 465.416878 52.43848298 -10.87607002 
   vertex 459.4657366 52.47464631 0.1144361496 
   vertex 459.4657366 52.47464631 -10.87607002 
  endloop
 endfacet
 facet normal 0.000015 0.000000 -33.481903
  outer loop
   vertex 459.4657366 52.47464631 -10.87607002 
   vertex 457.2661822 57.53194306 -10.87607002 
   vertex 461.9721453 61.93395112 -10.87607002 
  endloop
 endfacet
 facet normal -0.162922 -23.008789 0.000000
  outer loop
   vertex 435.2507098 52.62006257 0.1144361496 
   vertex 433.1572039 52.63488648 0.1144361496 
   vertex 435.2507098 52.62006257 -10.87607002 
  endloop
 endfacet
 facet normal -0.162922 -23.008789 0.000000
  outer loop
   vertex 435.2507098 52.62006257 -10.87607002 
   vertex 433.1572039 52.63488648 0.1144361496 
   vertex 433.1572039 52.63488648 -10.87607002 
  endloop
 endfacet
 facet normal -0.422375 -59.650391 0.000000
  outer loop
   vertex 433.1572039 52.63488648 0.1144361496 
   vertex 435.2507098 52.62006257 0.1144361496 
   vertex 433.1572039 52.63488648 28.60723114 
  endloop
 endfacet
 facet normal -0.422375 -59.650391 0.000000
  outer loop
   vertex 433.1572039 52.63488648 28.60723114 
   vertex 435.2507098 52.62006257 0.1144361496 
   vertex 435.2507098 52.62006257 28.60723114 
  endloop
 endfacet
 facet normal 0.000020 -0.000002 -33.194275
  outer loop
   vertex 444.0996783 57.61052582 28.60723495 
   vertex 443.5448687 52.57161591 28.60723495 
   vertex 437.5164263 57.6498935 28.60723114 
  endloop
 endfacet
 facet normal 0.000000 -0.000009 -41.827911
  outer loop
   vertex 437.5164263 57.6498935 28.60723114 
   vertex 443.5448687 52.57161591 28.60723495 
   vertex 435.2507098 52.62006257 28.60723114 
  endloop
 endfacet
 facet normal 0.374783 62.672852 0.000000
  outer loop
   vertex 444.0996783 57.61052582 38.12731171 
   vertex 444.0996783 57.61052582 28.60723495 
   vertex 437.5164263 57.6498935 38.12731171 
  endloop
 endfacet
 facet normal 0.374783 62.672852 0.000000
  outer loop
   vertex 437.5164263 57.6498935 38.12731171 
   vertex 444.0996783 57.61052582 28.60723495 
   vertex 437.5164263 57.6498935 28.60723114 
  endloop
 endfacet
 facet normal 0.000000 0.000000 28.706085
  outer loop
   vertex 437.5164263 57.6498935 38.12731171 
   vertex 431.8245928 57.6839206 38.12731171 
   vertex 435.2507098 52.62006257 38.12731171 
  endloop
 endfacet
 facet normal 0.000021 0.000000 10.550415
  outer loop
   vertex 435.2507098 52.62006257 38.12731171 
   vertex 431.8245928 57.6839206 38.12731171 
   vertex 433.1572039 52.63488648 38.12731171 
  endloop
 endfacet
 facet normal -256.544800 147.485352 0.000000
  outer loop
   vertex 431.8245928 57.6839206 28.60723114 
   vertex 416.3325579 30.73615906 28.60723495 
   vertex 431.8245928 57.6839206 38.12731171 
  endloop
 endfacet
 facet normal -256.544800 147.485352 0.000000
  outer loop
   vertex 431.8245928 57.6839206 38.12731171 
   vertex 416.3325579 30.73615906 28.60723495 
   vertex 416.3325579 30.73615906 38.12731171 
  endloop
 endfacet
 facet normal -0.000122 0.000000 114.130768
  outer loop
   vertex 431.8245928 57.6839206 38.12731171 
   vertex 416.3325579 30.73615906 38.12731171 
   vertex 433.1572039 52.63488648 38.12731171 
  endloop
 endfacet
 facet normal 0.000000 0.000000 101.555054
  outer loop
   vertex 433.1572039 52.63488648 38.12731171 
   vertex 416.3325579 30.73615906 38.12731171 
   vertex 416.9984515 25.56678651 38.12731171 
  endloop
 endfacet
 facet normal 257.690430 -153.832520 0.000000
  outer loop
   vertex 416.9984515 25.56678651 28.60723495 
   vertex 433.1572039 52.63488648 28.60723114 
   vertex 416.9984515 25.56678651 38.12731171 
  endloop
 endfacet
 facet normal 257.690552 -153.832520 0.000000
  outer loop
   vertex 416.9984515 25.56678651 38.12731171 
   vertex 433.1572039 52.63488648 28.60723114 
   vertex 433.1572039 52.63488648 38.12731171 
  endloop
 endfacet
 facet normal 771.245972 -460.408203 0.000000
  outer loop
   vertex 416.9984515 25.56678651 0.1144361496 
   vertex 433.1572039 52.63488648 0.1144361496 
   vertex 416.9984515 25.56678651 28.60723495 
  endloop
 endfacet
 facet normal 771.245789 -460.407471 0.000000
  outer loop
   vertex 416.9984515 25.56678651 28.60723495 
   vertex 433.1572039 52.63488648 0.1144361496 
   vertex 433.1572039 52.63488648 28.60723114 
  endloop
 endfacet
 facet normal 297.492096 -177.592773 0.000000
  outer loop
   vertex 433.1572039 52.63488648 0.1144361496 
   vertex 416.9984515 25.56678651 0.1144361496 
   vertex 433.1572039 52.63488648 -10.87607002 
  endloop
 endfacet
 facet normal 297.492157 -177.592773 0.000000
  outer loop
   vertex 433.1572039 52.63488648 -10.87607002 
   vertex 416.9984515 25.56678651 0.1144361496 
   vertex 416.9984515 25.56678651 -10.87607002 
  endloop
 endfacet
 facet normal 0.000000 0.000000 -128.421875
  outer loop
   vertex 416.9984515 25.56678651 -10.87607002 
   vertex 414.6875994 29.6433017 -10.87607002 
   vertex 433.1572039 52.63488648 -10.87607002 
  endloop
 endfacet
 facet normal 0.000015 0.000000 -128.119720
  outer loop
   vertex 433.1572039 52.63488648 -10.87607002 
   vertex 414.6875994 29.6433017 -10.87607002 
   vertex 430.8594439 56.71134827 -10.87607002 
  endloop
 endfacet
 facet normal 0.000000 0.000000 -7.633301
  outer loop
   vertex 435.2507098 52.62006257 -10.87607002 
   vertex 433.1572039 52.63488648 -10.87607002 
   vertex 433.0848773 56.28158448 -10.87607002 
  endloop
 endfacet
 facet normal 0.000000 0.000000 -8.084412
  outer loop
   vertex 433.0848773 56.28158448 -10.87607002 
   vertex 433.1572039 52.63488648 -10.87607002 
   vertex 430.8594439 56.71134827 -10.87607002 
  endloop
 endfacet
 facet normal -0.000008 0.000000 -19.189972
  outer loop
   vertex 435.2507098 52.62006257 -10.87607002 
   vertex 433.0848773 56.28158448 -10.87607002 
   vertex 437.5164263 57.64996979 -10.87607002 
  endloop
 endfacet
 facet normal 0.000000 0.000000 -19.646271
  outer loop
   vertex 437.5164263 57.64996979 -10.87607002 
   vertex 433.0848773 56.28158448 -10.87607002 
   vertex 435.0167315 61.31139252 -10.87607002 
  endloop
 endfacet
 facet normal -0.000061 0.000000 -251.439941
  outer loop
   vertex 465.416878 52.43848298 -10.87607002 
   vertex 461.9721453 61.93395112 -10.87607002 
   vertex 481.5851824 80.86271546 -10.87607002 
  endloop
 endfacet
 facet normal 0.000015 0.000000 -123.570618
  outer loop
   vertex 481.5851824 80.86271546 -10.87607002 
   vertex 461.9721453 61.93395112 -10.87607002 
   vertex 479.2302325 84.89037202 -10.87607002 
  endloop
 endfacet
 facet normal 0.000000 0.000000 -130.297119
  outer loop
   vertex 513.9126055 81.01021455 -10.87607002 
   vertex 481.5851824 80.86271546 -10.87607002 
   vertex 511.5532305 85.02998994 -10.87607002 
  endloop
 endfacet
 facet normal 0.000001 0.000000 -130.514160
  outer loop
   vertex 511.5532305 85.02998994 -10.87607002 
   vertex 481.5851824 80.86271546 -10.87607002 
   vertex 479.2302325 84.89037202 -10.87607002 
  endloop
 endfacet
 facet normal 1.621090 -355.294922 0.000000
  outer loop
   vertex 513.9126055 81.01021455 0.1144361496 
   vertex 481.5851824 80.86271546 0.1144361496 
   vertex 513.9126055 81.01021455 -10.87607002 
  endloop
 endfacet
 facet normal 1.621090 -355.294922 0.000000
  outer loop
   vertex 513.9126055 81.01021455 -10.87607002 
   vertex 481.5851824 80.86271546 0.1144361496 
   vertex 481.5851824 80.86271546 -10.87607002 
  endloop
 endfacet
 facet normal 0.255743 -56.027832 0.000000
  outer loop
   vertex 506.6368487 80.97700379 28.60723495 
   vertex 506.6368487 80.97700379 20.90662956 
   vertex 513.9126055 81.01021455 28.60723495 
  endloop
 endfacet
 facet normal 0.946267 -207.304688 0.000000
  outer loop
   vertex 513.9126055 81.01021455 28.60723495 
   vertex 506.6368487 80.97700379 20.90662956 
   vertex 513.9126055 81.01021455 0.1144361496 
  endloop
 endfacet
 facet normal 3.066829 -672.158203 -0.000977
  outer loop
   vertex 513.9126055 81.01021455 0.1144361496 
   vertex 506.6368487 80.97700379 20.90662956 
   vertex 481.5851824 80.86271546 0.1144361496 
  endloop
 endfacet
 facet normal 2.376305 -520.878906 0.000000
  outer loop
   vertex 506.6368487 80.97700379 20.90662956 
   vertex 481.5851824 80.86271546 20.90662956 
   vertex 481.5851824 80.86271546 0.1144361496 
  endloop
 endfacet
 facet normal 0.089844 -19.682861 0.000000
  outer loop
   vertex 506.6368487 80.97700379 28.60723495 
   vertex 513.9126055 81.01021455 28.60723495 
   vertex 506.6368487 80.97700379 31.3125 
  endloop
 endfacet
 facet normal 0.316169 -69.265381 0.000000
  outer loop
   vertex 513.9126055 81.01021455 28.60723495 
   vertex 513.9126055 81.01021455 38.12731171 
   vertex 506.6368487 80.97700379 31.3125 
  endloop
 endfacet
 facet normal 1.005178 -220.305176 0.000854
  outer loop
   vertex 513.9126055 81.01021455 38.12731171 
   vertex 481.5851824 80.86271546 38.12731171 
   vertex 506.6368487 80.97700379 31.3125 
  endloop
 endfacet
 facet normal 0.778853 -170.722656 0.000000
  outer loop
   vertex 506.6368487 80.97700379 31.3125 
   vertex 481.5851824 80.86271546 38.12731171 
   vertex 481.5851824 80.86271546 31.3125 
  endloop
 endfacet
 facet normal -0.000023 0.000000 105.248047
  outer loop
   vertex 478.2542803 84.24360535 38.12731171 
   vertex 481.5851824 80.86271546 38.12731171 
   vertex 509.2478411 84.38230775 38.12731171 
  endloop
 endfacet
 facet normal 0.000000 0.000000 109.698730
  outer loop
   vertex 509.2478411 84.38230775 38.12731171 
   vertex 481.5851824 80.86271546 38.12731171 
   vertex 513.9126055 81.01021455 38.12731171 
  endloop
 endfacet
 facet normal 0.000000 0.000000 -142.470459
  outer loop
   vertex 515.9535601 84.62610505 31.3125 
   vertex 511.0430682 87.4611728 31.3125 
   vertex 528.3048785 106.5085819 31.3125 
  endloop
 endfacet
 facet normal 0.000061 0.000000 -133.611816
  outer loop
   vertex 528.3048785 106.5085819 31.3125 
   vertex 511.0430682 87.4611728 31.3125 
   vertex 523.6997149 109.1673648 31.3125 
  endloop
 endfacet
 facet normal -0.000015 0.000000 133.611816
  outer loop
   vertex 523.6997149 109.1673648 20.90662956 
   vertex 511.0430682 87.4611728 20.90662956 
   vertex 528.3048785 106.5085819 20.90662956 
  endloop
 endfacet
 facet normal 0.000000 0.000000 142.470459
  outer loop
   vertex 528.3048785 106.5085819 20.90662956 
   vertex 511.0430682 87.4611728 20.90662956 
   vertex 515.9535601 84.62610505 20.90662956 
  endloop
 endfacet
 facet normal 21.831734 37.813965 0.000000
  outer loop
   vertex 515.9535601 84.62610505 20.90662956 
   vertex 511.0430682 87.4611728 20.90662956 
   vertex 515.9535601 84.62610505 28.60723495 
  endloop
 endfacet
 facet normal 21.831741 37.813477 0.000000
  outer loop
   vertex 511.0430682 87.4611728 20.90662956 
   vertex 511.0430682 87.4611728 28.60723495 
   vertex 515.9535601 84.62610505 28.60723495 
  endloop
 endfacet
 facet normal 7.669617 13.284180 0.000000
  outer loop
   vertex 511.0430682 87.4611728 28.60723495 
   vertex 511.0430682 87.4611728 31.3125 
   vertex 515.9535601 84.62610505 28.60723495 
  endloop
 endfacet
 facet normal 7.669601 13.284180 0.000000
  outer loop
   vertex 511.0430682 87.4611728 31.3125 
   vertex 515.9535601 84.62610505 31.3125 
   vertex 515.9535601 84.62610505 28.60723495 
  endloop
 endfacet
 facet normal -7.192719 -12.458252 0.000000
  outer loop
   vertex 528.3048785 106.5085819 31.3125 
   vertex 523.6997149 109.1673648 31.3125 
   vertex 528.3048785 106.5085819 28.60723495 
  endloop
 endfacet
 facet normal -7.192703 -12.458008 0.000000
  outer loop
   vertex 523.6997149 109.1673648 31.3125 
   vertex 523.6997149 109.1673648 28.60723495 
   vertex 528.3048785 106.5085819 28.60723495 
  endloop
 endfacet
 facet normal -20.474243 -35.463379 0.000000
  outer loop
   vertex 528.3048785 106.5085819 28.60723495 
   vertex 523.6997149 109.1673648 28.60723495 
   vertex 528.3048785 106.5085819 20.90662956 
  endloop
 endfacet
 facet normal -20.474243 -35.461914 0.000000
  outer loop
   vertex 523.6997149 109.1673648 28.60723495 
   vertex 523.6997149 109.1673648 20.90662956 
   vertex 528.3048785 106.5085819 20.90662956 
  endloop
 endfacet
 facet normal 27.158981 0.000000 0.000000
  outer loop
   vertex 481.5104144 80.7313144 20.90662956 
   vertex 481.5104144 84.2581775 20.90662956 
   vertex 481.5104144 80.7313144 28.60723495 
  endloop
 endfacet
 facet normal 27.158981 0.000000 0.000000
  outer loop
   vertex 481.5104144 84.2581775 20.90662956 
   vertex 481.5104144 84.2581775 28.60723495 
   vertex 481.5104144 80.7313144 28.60723495 
  endloop
 endfacet
 facet normal 9.541107 0.000000 0.000000
  outer loop
   vertex 481.5104144 80.7313144 28.60723495 
   vertex 481.5104144 84.2581775 28.60723495 
   vertex 481.5104144 80.7313144 31.3125 
  endloop
 endfacet
 facet normal 9.541092 0.000000 0.000000
  outer loop
   vertex 481.5104144 84.2581775 28.60723495 
   vertex 481.5104144 84.2581775 31.3125 
   vertex 481.5104144 80.7313144 31.3125 
  endloop
 endfacet
 facet normal -0.039421 8.808838 0.000000
  outer loop
   vertex 481.5104144 84.2581775 28.60723495 
   vertex 478.2542803 84.24360535 28.60723495 
   vertex 481.5104144 84.2581775 31.3125 
  endloop
 endfacet
 facet normal -0.138728 30.998291 0.000000
  outer loop
   vertex 478.2542803 84.24360535 28.60723495 
   vertex 478.2542803 84.24360535 38.12731171 
   vertex 481.5104144 84.2581775 31.3125 
  endloop
 endfacet
 facet normal -0.945230 211.215332 -0.000061
  outer loop
   vertex 478.2542803 84.24360535 38.12731171 
   vertex 509.2478411 84.38230775 38.12731171 
   vertex 481.5104144 84.2581775 31.3125 
  endloop
 endfacet
 facet normal -0.111128 24.857422 0.000000
  outer loop
   vertex 509.2478411 84.38230775 28.60723495 
   vertex 506.6368487 84.37063477 28.60723495 
   vertex 509.2478411 84.38230775 38.12731171 
  endloop
 endfacet
 facet normal -0.031579 7.063477 0.000000
  outer loop
   vertex 506.6368487 84.37063477 28.60723495 
   vertex 506.6368487 84.37063477 31.3125 
   vertex 509.2478411 84.38230775 38.12731171 
  endloop
 endfacet
 facet normal -0.766375 171.231445 0.000000
  outer loop
   vertex 481.5104144 84.2581775 31.3125 
   vertex 509.2478411 84.38230775 38.12731171 
   vertex 506.6368487 84.37063477 31.3125 
  endloop
 endfacet
 facet normal -9.180664 0.000000 0.000000
  outer loop
   vertex 506.6368487 80.97700379 31.3125 
   vertex 506.6368487 84.37063477 31.3125 
   vertex 506.6368487 80.97700379 28.60723495 
  endloop
 endfacet
 facet normal -9.180679 0.000000 0.000000
  outer loop
   vertex 506.6368487 84.37063477 31.3125 
   vertex 506.6368487 84.37063477 28.60723495 
   vertex 506.6368487 80.97700379 28.60723495 
  endloop
 endfacet
 facet normal -26.133011 0.000000 0.000000
  outer loop
   vertex 506.6368487 84.37063477 28.60723495 
   vertex 506.6368487 84.37063477 20.90662956 
   vertex 506.6368487 80.97700379 28.60723495 
  endloop
 endfacet
 facet normal -26.133011 0.000000 0.000000
  outer loop
   vertex 506.6368487 84.37063477 20.90662956 
   vertex 506.6368487 80.97700379 20.90662956 
   vertex 506.6368487 80.97700379 28.60723495 
  endloop
 endfacet
 facet normal 0.000000 0.000000 0.263697
  outer loop
   vertex 481.5104144 80.7313144 20.90662956 
   vertex 481.5851824 80.86271546 20.90662956 
   vertex 481.5104144 84.2581775 20.90662956 
  endloop
 endfacet
 facet normal 0.000000 0.000000 85.269531
  outer loop
   vertex 506.6368487 84.37063477 20.90662956 
   vertex 481.5104144 84.2581775 20.90662956 
   vertex 506.6368487 80.97700379 20.90662956 
  endloop
 endfacet
 facet normal -0.000005 0.000000 85.070801
  outer loop
   vertex 506.6368487 80.97700379 20.90662956 
   vertex 481.5104144 84.2581775 20.90662956 
   vertex 481.5851824 80.86271546 20.90662956 
  endloop
 endfacet
 facet normal -254.609253 147.572266 0.000000
  outer loop
   vertex 478.2542803 84.24360535 28.60723495 
   vertex 462.7531512 57.49913666 28.60723495 
   vertex 478.2542803 84.24360535 38.12731171 
  endloop
 endfacet
 facet normal -254.609741 147.571518 0.000000
  outer loop
   vertex 478.2542803 84.24360535 38.12731171 
   vertex 462.7531512 57.49913666 28.60723495 
   vertex 462.7531512 57.49913666 38.12731934 
  endloop
 endfacet
 facet normal 0.312320 52.237305 0.000000
  outer loop
   vertex 462.7531512 57.49913666 28.60723495 
   vertex 457.2661822 57.53194306 28.60723495 
   vertex 462.7531512 57.49913666 38.12731934 
  endloop
 endfacet
 facet normal 0.312320 52.236328 0.000000
  outer loop
   vertex 462.7531512 57.49913666 38.12731934 
   vertex 457.2661822 57.53194306 28.60723495 
   vertex 457.2661822 57.53194306 38.12731934 
  endloop
 endfacet
 facet normal -144.096542 -62.671875 0.000000
  outer loop
   vertex 457.2661822 57.53194306 0.1144361496 
   vertex 459.4657366 52.47464631 0.1144361496 
   vertex 457.2661822 57.53194306 28.60723495 
  endloop
 endfacet
 facet normal -144.096542 -62.669922 0.000000
  outer loop
   vertex 457.2661822 57.53194306 28.60723495 
   vertex 459.4657366 52.47464631 0.1144361496 
   vertex 459.4657366 52.47464631 28.60723495 
  endloop
 endfacet
 facet normal 0.000001 0.000000 23.888184
  outer loop
   vertex 457.016701 57.53343842 -1.893918037 
   vertex 457.016701 58.76651642 -1.893918037 
   vertex 437.6438983 57.64920685 -1.893917084 
  endloop
 endfacet
 facet normal 0.000000 0.000018 21.645264
  outer loop
   vertex 437.6438983 57.64920685 -1.893917084 
   vertex 457.016701 58.76651642 -1.893918037 
   vertex 437.6438983 58.76651642 -1.893918037 
  endloop
 endfacet
 facet normal -55.582249 -24.173828 0.000000
  outer loop
   vertex 459.4657366 52.47464631 0.1144361496 
   vertex 457.2661822 57.53194306 0.1144361496 
   vertex 459.4657366 52.47464631 -10.87607002 
  endloop
 endfacet
 facet normal -55.582253 -24.173828 0.000000
  outer loop
   vertex 459.4657366 52.47464631 -10.87607002 
   vertex 457.2661822 57.53194306 0.1144361496 
   vertex 457.2661822 57.53194306 -10.87607002 
  endloop
 endfacet
 facet normal 0.000005 0.000000 -72.017090
  outer loop
   vertex 437.5164263 57.64996979 -10.87607002 
   vertex 435.0167315 61.31139252 -10.87607002 
   vertex 457.2661822 57.53194306 -10.87607002 
  endloop
 endfacet
 facet normal 0.000000 0.000000 -115.728271
  outer loop
   vertex 457.2661822 57.53194306 -10.87607002 
   vertex 435.0167315 61.31139252 -10.87607002 
   vertex 461.9721453 61.93395112 -10.87607002 
  endloop
 endfacet
 facet normal 55.281227 -24.901367 0.000000
  outer loop
   vertex 437.5164263 57.64996979 0.1144361496 
   vertex 435.2507098 52.62006257 0.1144361496 
   vertex 437.5164263 57.64996979 -10.87607002 
  endloop
 endfacet
 facet normal 55.281227 -24.901367 0.000000
  outer loop
   vertex 437.5164263 57.64996979 -10.87607002 
   vertex 435.2507098 52.62006257 0.1144361496 
   vertex 435.2507098 52.62006257 -10.87607002 
  endloop
 endfacet
 facet normal 143.316132 -64.554688 0.000000
  outer loop
   vertex 435.2507098 52.62006257 0.1144361496 
   vertex 437.5164263 57.64996979 0.1144361496 
   vertex 435.2507098 52.62006257 28.60723114 
  endloop
 endfacet
 facet normal 143.313950 -64.558594 -0.000153
  outer loop
   vertex 435.2507098 52.62006257 28.60723114 
   vertex 437.5164263 57.64996979 0.1144361496 
   vertex 437.5164263 57.6498935 28.60723114 
  endloop
 endfacet
 facet normal 0.323941 54.186523 0.000000
  outer loop
   vertex 437.5164263 57.6498935 28.60723114 
   vertex 431.8245928 57.6839206 28.60723114 
   vertex 437.5164263 57.6498935 38.12731171 
  endloop
 endfacet
 facet normal 0.323941 54.186523 0.000000
  outer loop
   vertex 437.5164263 57.6498935 38.12731171 
   vertex 431.8245928 57.6839206 28.60723114 
   vertex 431.8245928 57.6839206 38.12731171 
  endloop
 endfacet
 facet normal -767.817078 441.412109 0.000000
  outer loop
   vertex 431.8245928 57.6839206 0.1144361496 
   vertex 416.3325579 30.73615906 0.1144361496 
   vertex 431.8245928 57.6839206 28.60723114 
  endloop
 endfacet
 facet normal -767.817078 441.409424 0.000000
  outer loop
   vertex 431.8245928 57.6839206 28.60723114 
   vertex 416.3325579 30.73615906 0.1144361496 
   vertex 416.3325579 30.73615906 28.60723495 
  endloop
 endfacet
 facet normal 0.526284 440.927734 0.000000
  outer loop
   vertex 416.3325579 30.73615906 0.1144361496 
   vertex 400.8574908 30.75462983 0.1144361496 
   vertex 416.3325579 30.73615906 28.60723495 
  endloop
 endfacet
 facet normal 0.527371 440.929688 -0.000610
  outer loop
   vertex 416.3325579 30.73615906 28.60723495 
   vertex 400.8574908 30.75462983 0.1144361496 
   vertex 400.8574908 30.75466798 28.60723495 
  endloop
 endfacet
 facet normal 0.176206 147.323242 0.000000
  outer loop
   vertex 416.3325579 30.73615906 28.60723495 
   vertex 400.8574908 30.75466798 28.60723495 
   vertex 416.3325579 30.73615906 38.12731171 
  endloop
 endfacet
 facet normal 0.176206 147.324478 0.000000
  outer loop
   vertex 416.3325579 30.73615906 38.12731171 
   vertex 400.8574908 30.75466798 28.60723495 
   vertex 400.8574908 30.75466798 38.12731934 
  endloop
 endfacet
 facet normal 0.000078 -0.000059 79.982788
  outer loop
   vertex 400.8574908 30.75466798 38.12731934 
   vertex 400.8575518 25.5861728 38.12731552 
   vertex 416.3325579 30.73615906 38.12731171 
  endloop
 endfacet
 facet normal 0.000000 0.000003 83.425400
  outer loop
   vertex 416.3325579 30.73615906 38.12731171 
   vertex 400.8575518 25.5861728 38.12731552 
   vertex 416.9984515 25.56678651 38.12731171 
  endloop
 endfacet
 facet normal -0.184559 -153.662109 0.000000
  outer loop
   vertex 400.8575518 25.5861728 28.60723495 
   vertex 416.9984515 25.56678651 28.60723495 
   vertex 400.8575518 25.5861728 38.12731552 
  endloop
 endfacet
 facet normal -0.184559 -153.662735 0.000000
  outer loop
   vertex 400.8575518 25.5861728 38.12731552 
   vertex 416.9984515 25.56678651 28.60723495 
   vertex 416.9984515 25.56678651 38.12731171 
  endloop
 endfacet
 facet normal -0.552370 -459.898438 0.000000
  outer loop
   vertex 400.8575518 25.5861728 0.1144361496 
   vertex 416.9984515 25.56678651 0.1144361496 
   vertex 400.8575518 25.5861728 28.60723495 
  endloop
 endfacet
 facet normal -0.552370 -459.900391 0.000000
  outer loop
   vertex 400.8575518 25.5861728 28.60723495 
   vertex 416.9984515 25.56678651 0.1144361496 
   vertex 416.9984515 25.56678651 28.60723495 
  endloop
 endfacet
 facet normal -0.213065 -177.396484 0.000000
  outer loop
   vertex 416.9984515 25.56678651 0.1144361496 
   vertex 400.8575518 25.5861728 0.1144361496 
   vertex 416.9984515 25.56678651 -10.87607002 
  endloop
 endfacet
 facet normal -0.149380 -124.383789 0.000061
  outer loop
   vertex 416.9984515 25.56678651 -10.87607002 
   vertex 400.8575518 25.5861728 0.1144361496 
   vertex 405.6810381 25.58037827 -10.87607002 
  endloop
 endfacet
 facet normal -0.063685 -53.012695 0.000000
  outer loop
   vertex 400.8575518 25.5861728 0.1144361496 
   vertex 400.8575518 25.5861728 -10.87607002 
   vertex 405.6810381 25.58037827 -10.87607002 
  endloop
 endfacet
 facet normal 0.000000 0.000000 -46.104111
  outer loop
   vertex 416.9984515 25.56678651 -10.87607002 
   vertex 405.6810381 25.58037827 -10.87607002 
   vertex 414.6875994 29.6433017 -10.87607002 
  endloop
 endfacet
 facet normal -0.000003 0.000000 -36.509827
  outer loop
   vertex 414.6875994 29.6433017 -10.87607002 
   vertex 405.6810381 25.58037827 -10.87607002 
   vertex 405.7287676 29.65560029 -10.87607002 
  endloop
 endfacet
 facet normal -0.000023 0.000006 -184.894135
  outer loop
   vertex 414.6875994 29.6433017 -1.567271233 
   vertex 405.7287676 29.65560029 -1.567270279 
   vertex 412.0568316 50.28510926 -1.567270279 
  endloop
 endfacet
 facet normal 0.000004 0.000000 -125.607849
  outer loop
   vertex 412.0568316 50.28510926 -1.567270279 
   vertex 405.7287676 29.65560029 -1.567270279 
   vertex 405.97065 50.29347108 -1.567270279 
  endloop
 endfacet
 facet normal -0.000015 0.000017 -405.026489
  outer loop
   vertex 414.6875994 29.6433017 -1.567271233 
   vertex 412.0568316 50.28510926 -1.567270279 
   vertex 430.8594744 56.71134827 -1.567270756 
  endloop
 endfacet
 facet normal -0.000011 0.000006 -327.921265
  outer loop
   vertex 430.8594744 56.71134827 -1.567270756 
   vertex 412.0568316 50.28510926 -1.567270279 
   vertex 425.1501544 72.20022462 -1.567270279 
  endloop
 endfacet
 facet normal 0.000011 0.000003 -32.015686
  outer loop
   vertex 433.0849078 56.28158448 -1.567269802 
   vertex 430.8594744 56.71134827 -1.567270756 
   vertex 426.9519122 71.85224793 -1.567271233 
  endloop
 endfacet
 facet normal -0.000015 -0.000005 -25.920471
  outer loop
   vertex 426.9519122 71.85224793 -1.567271233 
   vertex 430.8594744 56.71134827 -1.567270756 
   vertex 425.1501544 72.20022462 -1.567270279 
  endloop
 endfacet
 facet normal 0.000001 -0.000006 -60.927704
  outer loop
   vertex 433.0849078 56.28158448 -1.567269802 
   vertex 426.9519122 71.85224793 -1.567271233 
   vertex 435.0167315 61.31139252 -1.567270279 
  endloop
 endfacet
 facet normal 0.000011 0.000006 -49.328735
  outer loop
   vertex 435.0167315 61.31139252 -1.567270279 
   vertex 426.9519122 71.85224793 -1.567271233 
   vertex 428.5159381 75.92458985 -1.567270279 
  endloop
 endfacet
 facet normal -0.000011 0.000014 -330.602417
  outer loop
   vertex 461.9721453 61.93395112 -1.567271233 
   vertex 435.0167315 61.31139252 -1.567270279 
   vertex 449.6645587 73.91447327 -1.567270279 
  endloop
 endfacet
 facet normal 0.000001 0.000000 -295.981445
  outer loop
   vertex 449.6645587 73.91447327 -1.567270279 
   vertex 435.0167315 61.31139252 -1.567270279 
   vertex 428.5159381 75.92458985 -1.567270279 
  endloop
 endfacet
 facet normal -0.000015 0.000022 -489.299561
  outer loop
   vertex 461.9721453 61.93395112 -1.567271233 
   vertex 449.6645587 73.91447327 -1.567270279 
   vertex 479.230263 84.89037202 -1.567270756 
  endloop
 endfacet
 facet normal -0.000002 -0.000021 -463.072021
  outer loop
   vertex 479.230263 84.89037202 -1.567270756 
   vertex 449.6645587 73.91447327 -1.567270279 
   vertex 464.3125994 95.01486085 -1.567271233 
  endloop
 endfacet
 facet normal 0.000004 0.000010 -329.338379
  outer loop
   vertex 511.553261 85.03000519 -1.567270279 
   vertex 479.230263 84.89037202 -1.567270756 
   vertex 490.4823687 95.12795136 -1.567270279 
  endloop
 endfacet
 facet normal 0.000012 0.000002 -266.642578
  outer loop
   vertex 490.4823687 95.12795136 -1.567270279 
   vertex 479.230263 84.89037202 -1.567270756 
   vertex 464.3125994 95.01486085 -1.567271233 
  endloop
 endfacet
 facet normal -0.000002 0.000000 -664.021973
  outer loop
   vertex 525.5303423 109.8454273 -1.567270279 
   vertex 511.553261 85.03000519 -1.567270279 
   vertex 501.7987139 115.2193362 -1.567270279 
  endloop
 endfacet
 facet normal -0.000004 0.000000 -537.615234
  outer loop
   vertex 501.7987139 115.2193362 -1.567270279 
   vertex 511.553261 85.03000519 -1.567270279 
   vertex 490.4823687 95.12795136 -1.567270279 
  endloop
 endfacet
 facet normal 0.000000 0.000000 -133.604492
  outer loop
   vertex 513.9126055 81.01021455 -10.87607002 
   vertex 511.5532305 85.02998994 -10.87607002 
   vertex 530.2061846 109.8771579 -10.87607002 
  endloop
 endfacet
 facet normal 0.000007 0.000000 -115.589478
  outer loop
   vertex 530.2061846 109.8771579 -10.87607002 
   vertex 511.5532305 85.02998994 -10.87607002 
   vertex 525.5303423 109.8454196 -10.87607002 
  endloop
 endfacet
 facet normal 317.262329 -179.075195 0.000000
  outer loop
   vertex 530.2061846 109.8771579 0.1144361496 
   vertex 513.9126055 81.01021455 0.1144361496 
   vertex 530.2061846 109.8771579 -10.87607002 
  endloop
 endfacet
 facet normal 317.262299 -179.074219 0.000000
  outer loop
   vertex 530.2061846 109.8771579 -10.87607002 
   vertex 513.9126055 81.01021455 0.1144361496 
   vertex 513.9126055 81.01021455 -10.87607002 
  endloop
 endfacet
 facet normal 27.844543 -15.716309 0.000000
  outer loop
   vertex 515.9535601 84.62610505 28.60723495 
   vertex 513.9126055 81.01021455 28.60723495 
   vertex 515.9535601 84.62610505 20.90662956 
  endloop
 endfacet
 facet normal 103.026848 -58.155273 0.000000
  outer loop
   vertex 513.9126055 81.01021455 28.60723495 
   vertex 513.9126055 81.01021455 0.1144361496 
   vertex 515.9535601 84.62610505 20.90662956 
  endloop
 endfacet
 facet normal 600.207031 -338.779297 -0.000244
  outer loop
   vertex 513.9126055 81.01021455 0.1144361496 
   vertex 530.2061846 109.8771579 0.1144361496 
   vertex 515.9535601 84.62610505 20.90662956 
  endloop
 endfacet
 facet normal 95.980156 -54.171875 0.000000
  outer loop
   vertex 530.2061846 109.8771579 28.60723495 
   vertex 528.3048785 106.5085819 28.60723495 
   vertex 530.2061846 109.8771579 0.1144361496 
  endloop
 endfacet
 facet normal 25.940079 -14.638672 0.000000
  outer loop
   vertex 528.3048785 106.5085819 28.60723495 
   vertex 528.3048785 106.5085819 20.90662956 
   vertex 530.2061846 109.8771579 0.1144361496 
  endloop
 endfacet
 facet normal 454.984711 -256.812500 -0.001160
  outer loop
   vertex 528.3048785 106.5085819 20.90662956 
   vertex 515.9535601 84.62610505 20.90662956 
   vertex 530.2061846 109.8771579 0.1144361496 
  endloop
 endfacet
 facet normal 9.112885 -5.143799 0.000000
  outer loop
   vertex 528.3048785 106.5085819 28.60723495 
   vertex 530.2061846 109.8771579 28.60723495 
   vertex 528.3048785 106.5085819 31.3125 
  endloop
 endfacet
 facet normal 32.069107 -18.099609 0.000000
  outer loop
   vertex 530.2061846 109.8771579 28.60723495 
   vertex 530.2061846 109.8771579 38.12731171 
   vertex 528.3048785 106.5085819 31.3125 
  endloop
 endfacet
 facet normal 196.722702 -111.038574 0.001160
  outer loop
   vertex 530.2061846 109.8771579 38.12731171 
   vertex 513.9126055 81.01021455 38.12731171 
   vertex 528.3048785 106.5085819 31.3125 
  endloop
 endfacet
 facet normal 34.423538 -19.430664 0.000000
  outer loop
   vertex 513.9126055 81.01021455 28.60723495 
   vertex 515.9535601 84.62610505 28.60723495 
   vertex 513.9126055 81.01021455 38.12731171 
  endloop
 endfacet
 facet normal 9.781967 -5.521484 0.000000
  outer loop
   vertex 515.9535601 84.62610505 28.60723495 
   vertex 515.9535601 84.62610505 31.3125 
   vertex 513.9126055 81.01021455 38.12731171 
  endloop
 endfacet
 facet normal 149.124878 -84.171387 0.000244
  outer loop
   vertex 528.3048785 106.5085819 31.3125 
   vertex 513.9126055 81.01021455 38.12731171 
   vertex 515.9535601 84.62610505 31.3125 
  endloop
 endfacet
 facet normal 0.000122 0.000000 177.648193
  outer loop
   vertex 509.2478411 84.38230775 38.12731171 
   vertex 513.9126055 81.01021455 38.12731171 
   vertex 524.8691485 111.1729266 38.12731171 
  endloop
 endfacet
 facet normal -0.000008 0.000000 175.176880
  outer loop
   vertex 524.8691485 111.1729266 38.12731171 
   vertex 513.9126055 81.01021455 38.12731171 
   vertex 530.2061846 109.8771579 38.12731171 
  endloop
 endfacet
 facet normal -8.329147 4.856689 0.000000
  outer loop
   vertex 511.0430682 87.4611728 28.60723495 
   vertex 509.2478411 84.38230775 28.60723495 
   vertex 511.0430682 87.4611728 31.3125 
  endloop
 endfacet
 facet normal -29.311035 17.090332 0.000000
  outer loop
   vertex 509.2478411 84.38230775 28.60723495 
   vertex 509.2478411 84.38230775 38.12731171 
   vertex 511.0430682 87.4611728 31.3125 
  endloop
 endfacet
 facet normal -182.573090 106.456543 0.000916
  outer loop
   vertex 509.2478411 84.38230775 38.12731171 
   vertex 524.8691485 111.1729266 38.12731171 
   vertex 511.0430682 87.4611728 31.3125 
  endloop
 endfacet
 facet normal -19.093102 11.132813 0.000000
  outer loop
   vertex 524.8691485 111.1729266 28.60723495 
   vertex 523.6997149 109.1673648 28.60723495 
   vertex 524.8691485 111.1729266 38.12731171 
  endloop
 endfacet
 facet normal -5.425583 3.164063 0.000000
  outer loop
   vertex 523.6997149 109.1673648 28.60723495 
   vertex 523.6997149 109.1673648 31.3125 
   vertex 524.8691485 111.1729266 38.12731171 
  endloop
 endfacet
 facet normal -147.923584 86.252441 0.000000
  outer loop
   vertex 511.0430682 87.4611728 31.3125 
   vertex 524.8691485 111.1729266 38.12731171 
   vertex 523.6997149 109.1673648 31.3125 
  endloop
 endfacet
 facet normal -15.444038 9.005371 0.000000
  outer loop
   vertex 523.6997149 109.1673648 28.60723495 
   vertex 524.8691485 111.1729266 28.60723495 
   vertex 523.6997149 109.1673648 20.90662956 
  endloop
 endfacet
 facet normal -57.144070 33.318848 0.000000
  outer loop
   vertex 524.8691485 111.1729266 28.60723495 
   vertex 524.8691485 111.1729266 0.1144361496 
   vertex 523.6997149 109.1673648 20.90662956 
  endloop
 endfacet
 facet normal -557.035706 324.800781 -0.000244
  outer loop
   vertex 524.8691485 111.1729266 0.1144361496 
   vertex 509.2478411 84.38230775 0.1144361496 
   vertex 523.6997149 109.1673648 20.90662956 
  endloop
 endfacet
 facet normal -87.725471 51.150391 0.000000
  outer loop
   vertex 509.2478411 84.38230775 28.60723495 
   vertex 511.0430682 87.4611728 28.60723495 
   vertex 509.2478411 84.38230775 0.1144361496 
  endloop
 endfacet
 facet normal -23.709129 13.826172 0.000000
  outer loop
   vertex 511.0430682 87.4611728 28.60723495 
   vertex 511.0430682 87.4611728 20.90662956 
   vertex 509.2478411 84.38230775 0.1144361496 
  endloop
 endfacet
 facet normal -451.319336 263.160156 -0.000732
  outer loop
   vertex 523.6997149 109.1673648 20.90662956 
   vertex 509.2478411 84.38230775 0.1144361496 
   vertex 511.0430682 87.4611728 20.90662956 
  endloop
 endfacet
 facet normal -0.089889 20.106445 0.000000
  outer loop
   vertex 506.6368487 84.37063477 28.60723495 
   vertex 509.2478411 84.38230775 28.60723495 
   vertex 506.6368487 84.37063477 20.90662956 
  endloop
 endfacet
 facet normal -0.332596 74.393555 0.000000
  outer loop
   vertex 509.2478411 84.38230775 28.60723495 
   vertex 509.2478411 84.38230775 0.1144361496 
   vertex 506.6368487 84.37063477 20.90662956 
  endloop
 endfacet
 facet normal -2.883927 644.423828 -0.000031
  outer loop
   vertex 509.2478411 84.38230775 0.1144361496 
   vertex 478.2542803 84.24360535 0.1144361496 
   vertex 506.6368487 84.37063477 20.90662956 
  endloop
 endfacet
 facet normal -0.415201 92.775391 0.000000
  outer loop
   vertex 478.2542803 84.24360535 28.60723495 
   vertex 481.5104144 84.2581775 28.60723495 
   vertex 478.2542803 84.24360535 0.1144361496 
  endloop
 endfacet
 facet normal -0.112214 25.076172 0.000000
  outer loop
   vertex 481.5104144 84.2581775 28.60723495 
   vertex 481.5104144 84.2581775 20.90662956 
   vertex 478.2542803 84.24360535 0.1144361496 
  endloop
 endfacet
 facet normal -2.338233 522.433594 0.000061
  outer loop
   vertex 481.5104144 84.2581775 20.90662956 
   vertex 506.6368487 84.37063477 20.90662956 
   vertex 478.2542803 84.24360535 0.1144361496 
  endloop
 endfacet
 facet normal -762.024780 441.669922 0.000000
  outer loop
   vertex 478.2542803 84.24360535 0.1144361496 
   vertex 462.7531512 57.49913666 0.1144361496 
   vertex 478.2542803 84.24360535 28.60723495 
  endloop
 endfacet
 facet normal -762.024780 441.671875 0.000000
  outer loop
   vertex 478.2542803 84.24360535 28.60723495 
   vertex 462.7531512 57.49913666 0.1144361496 
   vertex 462.7531512 57.49913666 28.60723495 
  endloop
 endfacet
 facet normal 0.934746 156.339844 0.000000
  outer loop
   vertex 462.7531512 57.49913666 0.1144361496 
   vertex 457.2661822 57.53194306 0.1144361496 
   vertex 462.7531512 57.49913666 28.60723495 
  endloop
 endfacet
 facet normal 0.934746 156.337891 0.000000
  outer loop
   vertex 462.7531512 57.49913666 28.60723495 
   vertex 457.2661822 57.53194306 0.1144361496 
   vertex 457.2661822 57.53194306 28.60723495 
  endloop
 endfacet
 facet normal -2.476457 0.000000 0.000000
  outer loop
   vertex 457.016701 57.53343842 0.1144361496 
   vertex 457.016701 58.76651642 0.1144351959 
   vertex 457.016701 57.53343842 -1.893918037 
  endloop
 endfacet
 facet normal -2.476456 0.000000 0.000000
  outer loop
   vertex 457.016701 57.53343842 -1.893918037 
   vertex 457.016701 58.76651642 0.1144351959 
   vertex 457.016701 58.76651642 -1.893918037 
  endloop
 endfacet
 facet normal 0.000000 -38.907471 0.000000
  outer loop
   vertex 437.6438983 58.76651642 0.1144351959 
   vertex 437.6438983 58.76651642 -1.893918037 
   vertex 457.016701 58.76651642 0.1144351959 
  endloop
 endfacet
 facet normal 0.000000 -38.907349 0.000000
  outer loop
   vertex 457.016701 58.76651642 0.1144351959 
   vertex 437.6438983 58.76651642 -1.893918037 
   vertex 457.016701 58.76651642 -1.893918037 
  endloop
 endfacet
 facet normal 2.243952 0.000000 0.000000
  outer loop
   vertex 437.6438983 57.64920685 -1.893917084 
   vertex 437.6438983 58.76651642 -1.893918037 
   vertex 437.6438983 57.64920685 0.1144361496 
  endloop
 endfacet
 facet normal 2.243952 0.000033 0.000000
  outer loop
   vertex 437.6438983 57.64920685 0.1144361496 
   vertex 437.6438983 58.76651642 -1.893918037 
   vertex 437.6438983 58.76651642 0.1144351959 
  endloop
 endfacet
 facet normal -0.001532 -0.256104 0.000000
  outer loop
   vertex 437.6438983 57.64920685 0.1144361496 
   vertex 437.5164263 57.64996979 0.1144361496 
   vertex 437.6438983 57.64920685 -1.893917084 
  endloop
 endfacet
 facet normal -0.008385 -1.400757 0.000000
  outer loop
   vertex 437.5164263 57.64996979 0.1144361496 
   vertex 437.5164263 57.64996979 -10.87607002 
   vertex 437.6438983 57.64920685 -1.893917084 
  endloop
 endfacet
 facet normal -1.060134 -177.395508 0.000069
  outer loop
   vertex 437.5164263 57.64996979 -10.87607002 
   vertex 457.2661822 57.53194306 -10.87607002 
   vertex 437.6438983 57.64920685 -1.893917084 
  endloop
 endfacet
 facet normal -0.016435 -2.742188 0.000000
  outer loop
   vertex 457.2661822 57.53194306 0.1144361496 
   vertex 457.016701 57.53343842 0.1144361496 
   vertex 457.2661822 57.53194306 -10.87607002 
  endloop
 endfacet
 facet normal -0.003003 -0.501953 0.000000
  outer loop
   vertex 457.016701 57.53343842 0.1144361496 
   vertex 457.016701 57.53343842 -1.893918037 
   vertex 457.2661822 57.53194306 -10.87607002 
  endloop
 endfacet
 facet normal -1.039850 -174.009140 0.000000
  outer loop
   vertex 437.6438983 57.64920685 -1.893917084 
   vertex 457.2661822 57.53194306 -10.87607002 
   vertex 457.016701 57.53343842 -1.893918037 
  endloop
 endfacet
 facet normal 0.967353 162.175781 0.000427
  outer loop
   vertex 437.5164263 57.64996979 0.1144361496 
   vertex 431.8245928 57.6839206 0.1144361496 
   vertex 437.5164263 57.6498935 28.60723114 
  endloop
 endfacet
 facet normal 0.969527 162.177734 0.000000
  outer loop
   vertex 437.5164263 57.6498935 28.60723114 
   vertex 431.8245928 57.6839206 0.1144361496 
   vertex 431.8245928 57.6839206 28.60723114 
  endloop
 endfacet
 facet normal 0.000000 0.000000 2079.744629
  outer loop
   vertex 439.0945819 137.2923953 0.1144361496 
   vertex 412.9699175 137.2923953 0.1144361496 
   vertex 431.8245928 57.6839206 0.1144361496 
  endloop
 endfacet
 facet normal 0.000000 0.000000 1741.388306
  outer loop
   vertex 431.8245928 57.6839206 0.1144361496 
   vertex 412.9699175 137.2923953 0.1144361496 
   vertex 416.3325579 30.73615906 0.1144361496 
  endloop
 endfacet
 facet normal -0.000001 0.000000 1648.902588
  outer loop
   vertex 416.3325579 30.73615906 0.1144361496 
   vertex 412.9699175 137.2923953 0.1144361496 
   vertex 400.8574908 30.75462983 0.1144361496 
  endloop
 endfacet
 facet normal 0.000001 0.000000 15.005154
  outer loop
   vertex 400.8574908 30.75462983 0.1144361496 
   vertex 412.9699175 137.2923953 0.1144361496 
   vertex 400.8522418 31.94727585 0.1144361496 
  endloop
 endfacet
 facet normal 0.000301 -0.000035 1276.538086
  outer loop
   vertex 412.9699175 137.2923953 0.1144361496 
   vertex 400.8522418 137.2923953 0.1144390106 
   vertex 400.8522418 31.94727585 0.1144361496 
  endloop
 endfacet
 facet normal -0.000004 -0.000012 -490.667542
  outer loop
   vertex 405.97065 50.29347108 -1.567270279 
   vertex 406.9155352 130.9121005 -1.567272186 
   vertex 412.0568316 50.28510926 -1.567270279 
  endloop
 endfacet
 facet normal 0.000046 -0.000025 -1168.346924
  outer loop
   vertex 412.0568316 50.28510926 -1.567270279 
   vertex 406.9155352 130.9121005 -1.567272186 
   vertex 425.1501544 72.20022462 -1.567270279 
  endloop
 endfacet
 facet normal -0.000004 0.000003 -7.881622
  outer loop
   vertex 426.9519122 71.85224793 -1.567271233 
   vertex 425.1501544 72.20022462 -1.567270279 
   vertex 428.5159381 75.92458985 -1.567270279 
  endloop
 endfacet
 facet normal 0.000005 -0.000006 -265.523804
  outer loop
   vertex 425.1501544 72.20022462 -1.567270279 
   vertex 406.9155352 130.9121005 -1.567272186 
   vertex 428.5159381 75.92458985 -1.567270279 
  endloop
 endfacet
 facet normal 0.000153 -0.000100 -4701.905762
  outer loop
   vertex 406.9155352 130.9121005 -1.567272186 
   vertex 491.9278338 132.1755435 -1.567269325 
   vertex 428.5159381 75.92458985 -1.567270279 
  endloop
 endfacet
 facet normal -0.000031 0.000070 -1630.471680
  outer loop
   vertex 491.9278338 132.1755435 -1.567269325 
   vertex 501.7987139 115.2193362 -1.567270279 
   vertex 428.5159381 75.92458985 -1.567270279 
  endloop
 endfacet
 facet normal 0.000019 -0.000011 -524.507080
  outer loop
   vertex 490.4823687 95.12795136 -1.567270279 
   vertex 464.3125994 95.01486085 -1.567271233 
   vertex 501.7987139 115.2193362 -1.567270279 
  endloop
 endfacet
 facet normal -0.000046 0.000070 -7.632813
  outer loop
   vertex 501.7987139 115.2193362 -1.567270279 
   vertex 464.3125994 95.01486085 -1.567271233 
   vertex 428.5159381 75.92458985 -1.567270279 
  endloop
 endfacet
 facet normal 0.000004 -0.000020 -475.687988
  outer loop
   vertex 464.3125994 95.01486085 -1.567271233 
   vertex 449.6645587 73.91447327 -1.567270279 
   vertex 428.5159381 75.92458985 -1.567270279 
  endloop
 endfacet
 facet normal 0.000000 0.000020 -349.352783
  outer loop
   vertex 491.9278338 132.1755435 -1.567269325 
   vertex 512.4966815 132.2346561 -1.567269325 
   vertex 501.7987139 115.2193362 -1.567270279 
  endloop
 endfacet
 facet normal 0.000006 0.000023 -461.291504
  outer loop
   vertex 501.7987139 115.2193362 -1.567270279 
   vertex 512.4966815 132.2346561 -1.567269325 
   vertex 525.5303423 109.8454273 -1.567270279 
  endloop
 endfacet
 facet normal 0.000000 0.000000 -104.927002
  outer loop
   vertex 512.4966815 132.2346561 -10.87607002 
   vertex 517.1753619 132.2480991 -10.87607002 
   vertex 525.5303423 109.8454196 -10.87607002 
  endloop
 endfacet
 facet normal -0.000007 0.000000 -105.016479
  outer loop
   vertex 525.5303423 109.8454196 -10.87607002 
   vertex 517.1753619 132.2480991 -10.87607002 
   vertex 530.2061846 109.8771579 -10.87607002 
  endloop
 endfacet
 facet normal 55.439365 32.292969 0.000000
  outer loop
   vertex 514.2371295 137.2923953 -10.87607002 
   vertex 514.2371295 137.2923953 0.1144361496 
   vertex 517.1753619 132.2480991 -10.87607002 
  endloop
 endfacet
 facet normal 301.307343 175.507813 -0.000610
  outer loop
   vertex 514.2371295 137.2923953 0.1144361496 
   vertex 530.2061846 109.8771579 0.1144361496 
   vertex 517.1753619 132.2480991 -10.87607002 
  endloop
 endfacet
 facet normal 245.867966 143.215820 0.000000
  outer loop
   vertex 530.2061846 109.8771579 0.1144361496 
   vertex 530.2061846 109.8771579 -10.87607002 
   vertex 517.1753619 132.2480991 -10.87607002 
  endloop
 endfacet
 facet normal 781.136780 455.000000 0.000000
  outer loop
   vertex 514.2371295 137.2923953 0.1144361496 
   vertex 514.2371295 137.2923953 28.60723114 
   vertex 530.2061846 109.8771579 0.1144361496 
  endloop
 endfacet
 facet normal 781.136841 455.005859 0.000000
  outer loop
   vertex 530.2061846 109.8771579 0.1144361496 
   vertex 514.2371295 137.2923953 28.60723114 
   vertex 530.2061846 109.8771579 28.60723495 
  endloop
 endfacet
 facet normal 260.995117 152.025421 0.000000
  outer loop
   vertex 514.2371295 137.2923953 28.60723114 
   vertex 514.2371295 137.2923953 38.12731171 
   vertex 530.2061846 109.8771579 28.60723495 
  endloop
 endfacet
 facet normal 260.995239 152.027344 0.000000
  outer loop
   vertex 530.2061846 109.8771579 28.60723495 
   vertex 514.2371295 137.2923953 38.12731171 
   vertex 530.2061846 109.8771579 38.12731171 
  endloop
 endfacet
 facet normal 0.000000 0.000000 121.639771
  outer loop
   vertex 509.580086 137.2923953 38.12731171 
   vertex 524.8691485 111.1729266 38.12731171 
   vertex 514.2371295 137.2923953 38.12731171 
  endloop
 endfacet
 facet normal 0.000000 0.000000 125.624023
  outer loop
   vertex 514.2371295 137.2923953 38.12731171 
   vertex 524.8691485 111.1729266 38.12731171 
   vertex 530.2061846 109.8771579 38.12731171 
  endloop
 endfacet
 facet normal -248.659424 -145.552734 0.000000
  outer loop
   vertex 509.580086 137.2923953 38.12731171 
   vertex 509.580086 137.2923953 28.60723114 
   vertex 524.8691485 111.1729266 38.12731171 
  endloop
 endfacet
 facet normal -248.659302 -145.552734 0.000000
  outer loop
   vertex 524.8691485 111.1729266 38.12731171 
   vertex 509.580086 137.2923953 28.60723114 
   vertex 524.8691485 111.1729266 28.60723495 
  endloop
 endfacet
 facet normal -744.216675 -435.628906 0.000000
  outer loop
   vertex 509.580086 137.2923953 28.60723114 
   vertex 509.580086 137.2923953 0.1144361496 
   vertex 524.8691485 111.1729266 28.60723495 
  endloop
 endfacet
 facet normal -744.216797 -435.626953 0.000000
  outer loop
   vertex 524.8691485 111.1729266 28.60723495 
   vertex 509.580086 137.2923953 0.1144361496 
   vertex 524.8691485 111.1729266 0.1144361496 
  endloop
 endfacet
 facet normal 0.000000 0.000000 86.472961
  outer loop
   vertex 507.9457476 137.2923953 0.1144361496 
   vertex 509.2478411 84.38230775 0.1144361496 
   vertex 509.580086 137.2923953 0.1144361496 
  endloop
 endfacet
 facet normal 0.000000 0.000000 817.623535
  outer loop
   vertex 509.580086 137.2923953 0.1144361496 
   vertex 509.2478411 84.38230775 0.1144361496 
   vertex 524.8691485 111.1729266 0.1144361496 
  endloop
 endfacet
 facet normal 0.000000 0.000000 878.391907
  outer loop
   vertex 507.9457476 137.2923953 0.1144361496 
   vertex 491.3441546 137.2923953 0.1144361496 
   vertex 509.2478411 84.38230775 0.1144361496 
  endloop
 endfacet
 facet normal -0.000000 0.000000 1642.354980
  outer loop
   vertex 509.2478411 84.38230775 0.1144361496 
   vertex 491.3441546 137.2923953 0.1144361496 
   vertex 478.2542803 84.24360535 0.1144361496 
  endloop
 endfacet
 facet normal 0.000000 0.000000 1385.872314
  outer loop
   vertex 491.3441546 137.2923953 0.1144361496 
   vertex 465.2196734 137.2923953 0.1144361496 
   vertex 478.2542803 84.24360535 0.1144361496 
  endloop
 endfacet
 facet normal 0.000000 0.000000 1170.919678
  outer loop
   vertex 478.2542803 84.24360535 0.1144361496 
   vertex 465.2196734 137.2923953 0.1144361496 
   vertex 462.7531512 57.49913666 0.1144361496 
  endloop
 endfacet
 facet normal 0.000000 0.000000 453.364990
  outer loop
   vertex 431.8245928 57.6839206 0.1144361496 
   vertex 437.5164263 57.64996979 0.1144361496 
   vertex 439.0945819 137.2923953 0.1144361496 
  endloop
 endfacet
 facet normal 0.000000 0.000000 2084.606201
  outer loop
   vertex 465.2196734 137.2923953 0.1144361496 
   vertex 439.0945819 137.2923953 0.1144361496 
   vertex 462.7531512 57.49913666 0.1144361496 
  endloop
 endfacet
 facet normal 0.000000 0.000000 0.142426
  outer loop
   vertex 437.6438983 57.64920685 0.1144361496 
   vertex 437.6438983 58.76651642 0.1144351959 
   vertex 437.5164263 57.64996979 0.1144361496 
  endloop
 endfacet
 facet normal 0.000076 -0.000002 8.390106
  outer loop
   vertex 437.5164263 57.64996979 0.1144361496 
   vertex 437.6438983 58.76651642 0.1144351959 
   vertex 439.0945819 137.2923953 0.1144361496 
  endloop
 endfacet
 facet normal 0.000000 0.000000 0.307629
  outer loop
   vertex 457.016701 57.53343842 0.1144361496 
   vertex 457.2661822 57.53194306 0.1144361496 
   vertex 457.016701 58.76651642 0.1144351959 
  endloop
 endfacet
 facet normal 0.000000 0.000005 6.765926
  outer loop
   vertex 457.2661822 57.53194306 0.1144361496 
   vertex 462.7531512 57.49913666 0.1144361496 
   vertex 457.016701 58.76651642 0.1144351959 
  endloop
 endfacet
 facet normal -0.000075 -0.000023 427.745972
  outer loop
   vertex 462.7531512 57.49913666 0.1144361496 
   vertex 439.0945819 137.2923953 0.1144361496 
   vertex 457.016701 58.76651642 0.1144351959 
  endloop
 endfacet
 facet normal 0.000000 -0.000018 1521.266357
  outer loop
   vertex 439.0945819 137.2923953 0.1144361496 
   vertex 437.6438983 58.76651642 0.1144351959 
   vertex 457.016701 58.76651642 0.1144351959 
  endloop
 endfacet
 facet normal -0.000002 0.000000 -19.661163
  outer loop
   vertex 400.8575518 25.5861728 -10.87607002 
   vertex 400.8579791 29.66229127 -10.87607002 
   vertex 405.6810381 25.58037827 -10.87607002 
  endloop
 endfacet
 facet normal 0.000000 0.000000 -19.849836
  outer loop
   vertex 405.6810381 25.58037827 -10.87607002 
   vertex 400.8579791 29.66229127 -10.87607002 
   vertex 405.7287676 29.65560029 -10.87607002 
  endloop
 endfacet
 facet normal 0.000009 0.000000 -105.507568
  outer loop
   vertex 405.97065 50.29347489 -10.87607002 
   vertex 405.7287676 29.65560029 -10.87607002 
   vertex 400.8584063 50.30049775 -10.87607002 
  endloop
 endfacet
 facet normal 0.000000 0.000000 -100.524338
  outer loop
   vertex 400.8584063 50.30049775 -10.87607002 
   vertex 405.7287676 29.65560029 -10.87607002 
   vertex 400.8579791 29.66229127 -10.87607002 
  endloop
 endfacet
 facet normal 0.000064 -0.000012 -488.729248
  outer loop
   vertex 406.9155352 130.9121005 -10.87607193 
   vertex 405.97065 50.29347489 -10.87607002 
   vertex 400.8522418 130.8219821 -10.87607193 
  endloop
 endfacet
 facet normal 0.000000 -0.000010 -257.303223
  outer loop
   vertex 400.8522418 130.8219821 -10.87607193 
   vertex 405.97065 50.29347489 -10.87607002 
   vertex 400.8522418 80.55181763 -10.87607002 
  endloop
 endfacet
 facet normal 0.000000 0.000000 -154.652039
  outer loop
   vertex 405.97065 50.29347489 -10.87607002 
   vertex 400.8584063 50.30049775 -10.87607002 
   vertex 400.8522418 80.55181763 -10.87607002 
  endloop
 endfacet
 facet normal 0.000000 0.000000 -39.162842
  outer loop
   vertex 406.9903033 137.2923953 -10.87607193 
   vertex 406.9155352 130.9121005 -10.87607193 
   vertex 400.8522418 137.2923953 -10.87607193 
  endloop
 endfacet
 facet normal 0.000000 0.000000 -39.231934
  outer loop
   vertex 400.8522418 137.2923953 -10.87607193 
   vertex 406.9155352 130.9121005 -10.87607193 
   vertex 400.8522418 130.8219821 -10.87607193 
  endloop
 endfacet
 facet normal 0.000015 -0.000000 -522.922668
  outer loop
   vertex 406.9903033 137.2923953 -10.87607193 
   vertex 488.9491046 137.2923953 -10.87607002 
   vertex 406.9155352 130.9121005 -10.87607193 
  endloop
 endfacet
 facet normal 0.000013 0.000006 -438.755859
  outer loop
   vertex 406.9155352 130.9121005 -10.87607193 
   vertex 488.9491046 137.2923953 -10.87607002 
   vertex 491.9278338 132.1755435 -10.87607002 
  endloop
 endfacet
 facet normal 0.000000 0.000000 -105.424255
  outer loop
   vertex 488.9491046 137.2923953 -10.87607002 
   vertex 509.552376 137.2923953 -10.87607002 
   vertex 491.9278338 132.1755435 -10.87607002 
  endloop
 endfacet
 facet normal -0.000004 0.000000 -104.206055
  outer loop
   vertex 491.9278338 132.1755435 -10.87607002 
   vertex 509.552376 137.2923953 -10.87607002 
   vertex 512.4966815 132.2346561 -10.87607002 
  endloop
 endfacet
 facet normal 0.000000 0.000000 -23.694336
  outer loop
   vertex 509.552376 137.2923953 -10.87607002 
   vertex 514.2371295 137.2923953 -10.87607002 
   vertex 512.4966815 132.2346561 -10.87607002 
  endloop
 endfacet
 facet normal 0.000006 0.000000 -23.640137
  outer loop
   vertex 512.4966815 132.2346561 -10.87607002 
   vertex 514.2371295 137.2923953 -10.87607002 
   vertex 517.1753619 132.2480991 -10.87607002 
  endloop
 endfacet
 facet normal 0.114485 83.395996 0.000000
  outer loop
   vertex 414.6875994 29.6433017 -10.87607002 
   vertex 405.7287676 29.65560029 -10.87607002 
   vertex 414.6875994 29.6433017 -1.567271233 
  endloop
 endfacet
 facet normal 0.114485 83.396278 0.000000
  outer loop
   vertex 414.6875994 29.6433017 -1.567271233 
   vertex 405.7287676 29.65560029 -10.87607002 
   vertex 405.7287676 29.65560029 -1.567270279 
  endloop
 endfacet
 facet normal 192.113831 -2.251953 0.000000
  outer loop
   vertex 405.7287676 29.65560029 -10.87607002 
   vertex 405.97065 50.29347489 -10.87607002 
   vertex 405.7287676 29.65560029 -1.567270279 
  endloop
 endfacet
 facet normal 192.113800 -2.251465 0.000000
  outer loop
   vertex 405.7287676 29.65560029 -1.567270279 
   vertex 405.97065 50.29347489 -10.87607002 
   vertex 405.97065 50.29347108 -1.567270279 
  endloop
 endfacet
 facet normal -251.971039 150.540039 0.000848
  outer loop
   vertex 430.8594439 56.71134827 -10.87607002 
   vertex 414.6875994 29.6433017 -10.87607002 
   vertex 430.8594744 56.71134827 -1.567270756 
  endloop
 endfacet
 facet normal -251.970993 150.541107 0.000000
  outer loop
   vertex 430.8594744 56.71134827 -1.567270756 
   vertex 414.6875994 29.6433017 -10.87607002 
   vertex 414.6875994 29.6433017 -1.567271233 
  endloop
 endfacet
 facet normal 4.000585 20.716309 -0.000002
  outer loop
   vertex 433.0848773 56.28158448 -10.87607002 
   vertex 430.8594439 56.71134827 -10.87607002 
   vertex 433.0849078 56.28158448 -1.567269802 
  endloop
 endfacet
 facet normal 4.000585 20.715498 -0.000031
  outer loop
   vertex 433.0849078 56.28158448 -1.567269802 
   vertex 430.8594439 56.71134827 -10.87607002 
   vertex 430.8594744 56.71134827 -1.567270756 
  endloop
 endfacet
 facet normal -46.821476 17.983887 0.000000
  outer loop
   vertex 435.0167315 61.31139252 -10.87607002 
   vertex 433.0848773 56.28158448 -10.87607002 
   vertex 435.0167315 61.31139252 -1.567270279 
  endloop
 endfacet
 facet normal -46.821476 17.982828 0.000153
  outer loop
   vertex 435.0167315 61.31139252 -1.567270279 
   vertex 433.0848773 56.28158448 -10.87607002 
   vertex 433.0849078 56.28158448 -1.567269802 
  endloop
 endfacet
 facet normal -5.795273 250.922852 0.000000
  outer loop
   vertex 461.9721453 61.93395112 -10.87607002 
   vertex 435.0167315 61.31139252 -10.87607002 
   vertex 461.9721453 61.93395112 -1.567271233 
  endloop
 endfacet
 facet normal -5.795273 250.922226 0.000000
  outer loop
   vertex 461.9721453 61.93395112 -1.567271233 
   vertex 435.0167315 61.31139252 -10.87607002 
   vertex 435.0167315 61.31139252 -1.567270279 
  endloop
 endfacet
 facet normal -213.696716 160.651367 0.000615
  outer loop
   vertex 479.2302325 84.89037202 -10.87607002 
   vertex 461.9721453 61.93395112 -10.87607002 
   vertex 479.230263 84.89037202 -1.567270756 
  endloop
 endfacet
 facet normal -213.696716 160.652878 0.000000
  outer loop
   vertex 479.230263 84.89037202 -1.567270756 
   vertex 461.9721453 61.93395112 -10.87607002 
   vertex 461.9721453 61.93395112 -1.567271233 
  endloop
 endfacet
 facet normal -1.299675 300.887695 -0.000842
  outer loop
   vertex 511.5532305 85.02998994 -10.87607002 
   vertex 479.2302325 84.89037202 -10.87607002 
   vertex 511.553261 85.03000519 -1.567270279 
  endloop
 endfacet
 facet normal -1.299817 300.888214 0.000488
  outer loop
   vertex 511.553261 85.03000519 -1.567270279 
   vertex 479.2302325 84.89037202 -10.87607002 
   vertex 479.230263 84.89037202 -1.567270756 
  endloop
 endfacet
 facet normal -231.001862 130.110352 0.000000
  outer loop
   vertex 525.5303423 109.8454196 -10.87607002 
   vertex 511.5532305 85.02998994 -10.87607002 
   vertex 525.5303423 109.8454273 -1.567270279 
  endloop
 endfacet
 facet normal -231.001801 130.110352 0.000244
  outer loop
   vertex 525.5303423 109.8454273 -1.567270279 
   vertex 511.5532305 85.02998994 -10.87607002 
   vertex 511.553261 85.03000519 -1.567270279 
  endloop
 endfacet
 facet normal 11.761138 -791.363281 0.000000
  outer loop
   vertex 406.9155352 130.9121005 -10.87607193 
   vertex 491.9278338 132.1755435 -10.87607002 
   vertex 406.9155352 130.9121005 -1.567272186 
  endloop
 endfacet
 facet normal 11.761139 -791.361755 0.000000
  outer loop
   vertex 406.9155352 130.9121005 -1.567272186 
   vertex 491.9278338 132.1755435 -10.87607002 
   vertex 491.9278338 132.1755435 -1.567269325 
  endloop
 endfacet
 facet normal 750.462524 -8.795898 0.000000
  outer loop
   vertex 405.97065 50.29347489 -10.87607002 
   vertex 406.9155352 130.9121005 -10.87607193 
   vertex 405.97065 50.29347108 -1.567270279 
  endloop
 endfacet
 facet normal 750.462708 -8.795468 0.000000
  outer loop
   vertex 405.97065 50.29347108 -1.567270279 
   vertex 406.9155352 130.9121005 -10.87607193 
   vertex 406.9155352 130.9121005 -1.567272186 
  endloop
 endfacet
 facet normal 0.550267 -191.471680 0.000000
  outer loop
   vertex 491.9278338 132.1755435 -10.87607002 
   vertex 512.4966815 132.2346561 -10.87607002 
   vertex 491.9278338 132.1755435 -1.567269325 
  endloop
 endfacet
 facet normal 0.550267 -191.471680 0.000000
  outer loop
   vertex 491.9278338 132.1755435 -1.567269325 
   vertex 512.4966815 132.2346561 -10.87607002 
   vertex 512.4966815 132.2346561 -1.567269325 
  endloop
 endfacet
 facet normal -208.416931 -121.327148 0.000000
  outer loop
   vertex 512.4966815 132.2346561 -10.87607002 
   vertex 525.5303423 109.8454196 -10.87607002 
   vertex 512.4966815 132.2346561 -1.567269325 
  endloop
 endfacet
 facet normal -208.416840 -121.328125 0.000000
  outer loop
   vertex 512.4966815 132.2346561 -1.567269325 
   vertex 525.5303423 109.8454196 -10.87607002 
   vertex 525.5303423 109.8454273 -1.567270279 
  endloop
 endfacet
endsolid
