solid
 facet normal 49.204529 0.000000 0.000000
  outer loop
   vertex 371.6780815 43.93609619 38.12731934 
   vertex 371.6780815 38.76760101 38.12731552 
   vertex 371.6780815 43.93609619 28.60723495 
  endloop
 endfacet
 facet normal 49.204498 0.000000 0.000000
  outer loop
   vertex 371.6780815 38.76760101 38.12731552 
   vertex 371.6780815 38.76760101 28.60723495 
   vertex 371.6780815 43.93609619 28.60723495 
  endloop
 endfacet
 facet normal 147.264877 0.000000 0.000000
  outer loop
   vertex 371.6780815 43.93609619 28.60723495 
   vertex 371.6780815 38.76760101 28.60723495 
   vertex 371.6780815 43.93605804 0.1144361496 
  endloop
 endfacet
 facet normal 147.263809 0.000000 0.000000
  outer loop
   vertex 371.6780815 38.76760101 28.60723495 
   vertex 371.6780815 38.76760101 0.1144361496 
   vertex 371.6780815 43.93605804 0.1144361496 
  endloop
 endfacet
 facet normal 56.803963 0.000000 0.000000
  outer loop
   vertex 371.6780815 38.76760101 0.1144361496 
   vertex 371.6780815 38.76760101 -10.87607002 
   vertex 371.6780815 43.93605804 0.1144361496 
  endloop
 endfacet
 facet normal 44.798649 0.000000 0.000000
  outer loop
   vertex 371.6780815 38.76760101 -10.87607002 
   vertex 371.6780815 42.8437233 -10.87607002 
   vertex 371.6780815 43.93605804 0.1144361496 
  endloop
 endfacet
 facet normal 226.824341 0.000000 0.000000
  outer loop
   vertex 371.6780815 42.8437233 -10.87607002 
   vertex 371.6780815 63.48192978 -10.87607002 
   vertex 371.6780815 43.93605804 0.1144361496 
  endloop
 endfacet
 facet normal 15.691235 0.000000 0.000000
  outer loop
   vertex 371.6780815 43.93605804 0.1144361496 
   vertex 371.6780815 63.48192978 -10.87607002 
   vertex 371.6780815 45.36376572 0.1144361496 
  endloop
 endfacet
 facet normal 1155.212769 0.000299 0.000000
  outer loop
   vertex 371.6780815 45.36376572 0.1144361496 
   vertex 371.6780815 63.48192978 -10.87607002 
   vertex 371.6780815 150.4738159 0.1144390106 
  endloop
 endfacet
 facet normal 388.707275 0.000000 0.000000
  outer loop
   vertex 371.6780815 63.48192978 -10.87607002 
   vertex 371.6780815 98.84947205 -10.87607002 
   vertex 371.6780815 150.4738159 0.1144390106 
  endloop
 endfacet
 facet normal 67.740486 0.000000 0.000000
  outer loop
   vertex 371.6780815 150.4738159 -10.87607193 
   vertex 371.6780815 150.4738159 0.1144390106 
   vertex 371.6780815 144.3102722 -10.87607193 
  endloop
 endfacet
 facet normal 499.637451 0.000977 0.000000
  outer loop
   vertex 371.6780815 98.84947205 -10.87607002 
   vertex 371.6780815 144.3102722 -10.87607193 
   vertex 371.6780815 150.4738159 0.1144390106 
  endloop
 endfacet
 facet normal 0.000000 10.196969 0.000000
  outer loop
   vertex 371.6780815 150.4738159 0.1144390106 
   vertex 371.6780815 150.4738159 -10.87607193 
   vertex 370.7501945 150.4738159 0.1144361496 
  endloop
 endfacet
 facet normal 0.000000 0.230469 0.000000
  outer loop
   vertex 371.6780815 150.4738159 -10.87607193 
   vertex 371.6570854 150.4738159 -10.87607002 
   vertex 370.7501945 150.4738159 0.1144361496 
  endloop
 endfacet
 facet normal 0.000000 969.442871 0.001068
  outer loop
   vertex 371.6570854 150.4738159 -10.87607002 
   vertex 283.4498405 150.4738159 -10.87607002 
   vertex 370.7501945 150.4738159 0.1144361496 
  endloop
 endfacet
 facet normal 0.000000 143.728516 -0.000488
  outer loop
   vertex 370.7501945 150.4738159 0.1144361496 
   vertex 283.4498405 150.4738159 -10.87607002 
   vertex 357.6726799 150.4738159 0.1144361496 
  endloop
 endfacet
 facet normal 0.000000 287.122559 -0.000488
  outer loop
   vertex 357.6726799 150.4738159 0.1144361496 
   vertex 283.4498405 150.4738159 -10.87607002 
   vertex 331.5480155 150.4738159 0.1144361496 
  endloop
 endfacet
 facet normal 0.000000 287.128418 0.000000
  outer loop
   vertex 331.5480155 150.4738159 0.1144361496 
   vertex 283.4498405 150.4738159 -10.87607002 
   vertex 305.422924 150.4738159 0.1144361496 
  endloop
 endfacet
 facet normal 0.000000 287.121582 0.000000
  outer loop
   vertex 305.422924 150.4738159 0.1144361496 
   vertex 283.4498405 150.4738159 -10.87607002 
   vertex 279.2984428 150.4738159 0.1144361496 
  endloop
 endfacet
 facet normal 0.000000 226.885742 0.000244
  outer loop
   vertex 283.4498405 150.4738159 -10.87607002 
   vertex 262.8059806 150.4738159 -10.87607002 
   vertex 279.2984428 150.4738159 0.1144361496 
  endloop
 endfacet
 facet normal 0.000000 102.624023 -0.000244
  outer loop
   vertex 279.2984428 150.4738159 0.1144361496 
   vertex 262.8059806 150.4738159 -10.87607002 
   vertex 269.9609794 150.4738159 0.1144361496 
  endloop
 endfacet
 facet normal 0.000000 78.706055 0.000000
  outer loop
   vertex 269.9609794 150.4738159 0.1144361496 
   vertex 262.8059806 150.4738159 -10.87607002 
   vertex 262.7996635 150.4738159 0.1144361496 
  endloop
 endfacet
 facet normal 0.000000 51.336426 -0.000005
  outer loop
   vertex 262.8059806 150.4738159 -10.87607002 
   vertex 258.1350517 150.4738159 -10.87607002 
   vertex 262.7996635 150.4738159 0.1144361496 
  endloop
 endfacet
 facet normal 0.000000 51.266113 0.000000
  outer loop
   vertex 258.1350517 150.4738159 -10.87607002 
   vertex 258.1350517 150.4738159 0.1144361496 
   vertex 262.7996635 150.4738159 0.1144361496 
  endloop
 endfacet
 facet normal 0.000000 132.907227 0.000000
  outer loop
   vertex 258.1350517 150.4738159 0.1144361496 
   vertex 258.1350517 150.4738159 28.60723495 
   vertex 262.7996635 150.4738159 0.1144361496 
  endloop
 endfacet
 facet normal 0.000000 132.908203 -0.000093
  outer loop
   vertex 262.7996635 150.4738159 0.1144361496 
   vertex 258.1350517 150.4738159 28.60723495 
   vertex 262.799694 150.4738159 28.60723495 
  endloop
 endfacet
 facet normal 0.000000 44.408203 0.000000
  outer loop
   vertex 258.1350517 150.4738159 28.60723495 
   vertex 258.1350517 150.4738159 38.12731171 
   vertex 262.799694 150.4738159 28.60723495 
  endloop
 endfacet
 facet normal 0.000000 44.407227 0.000000
  outer loop
   vertex 258.1350517 150.4738159 38.12731171 
   vertex 262.799694 150.4738159 38.12731171 
   vertex 262.799694 150.4738159 28.60723495 
  endloop
 endfacet
 facet normal -0.000031 0.000000 -127.017090
  outer loop
   vertex 338.0940055 65.75626373 31.3125 
   vertex 312.9675712 65.80223083 31.3125 
   vertex 338.0940055 70.81138611 31.3125 
  endloop
 endfacet
 facet normal 0.000023 0.000000 -126.995605
  outer loop
   vertex 338.0940055 70.81138611 31.3125 
   vertex 312.9675712 65.80223083 31.3125 
   vertex 312.9675712 70.85649109 31.3125 
  endloop
 endfacet
 facet normal 0.000046 0.000000 -120.084656
  outer loop
   vertex 304.0866508 71.10105896 31.3125 
   vertex 291.7383842 92.98529053 31.3125 
   vertex 308.2255668 73.49067688 31.3125 
  endloop
 endfacet
 facet normal -0.000122 0.000000 -114.985107
  outer loop
   vertex 308.2255668 73.49067688 31.3125 
   vertex 291.7383842 92.98529053 31.3125 
   vertex 295.7015495 95.27342224 31.3125 
  endloop
 endfacet
 facet normal 0.000000 0.000000 140.905518
  outer loop
   vertex 294.3499565 97.62422943 38.12731171 
   vertex 291.0214653 94.25585175 38.12731171 
   vertex 309.7367668 70.86228943 38.12731171 
  endloop
 endfacet
 facet normal 0.000000 0.000000 156.872955
  outer loop
   vertex 309.7367668 70.86228943 38.12731171 
   vertex 291.0214653 94.25585175 38.12731171 
   vertex 307.070446 65.81302643 38.12731171 
  endloop
 endfacet
 facet normal -14.305542 -8.071899 0.000000
  outer loop
   vertex 304.0866508 71.10105896 28.60723495 
   vertex 307.070446 65.81302643 28.60723495 
   vertex 304.0866508 71.10105896 31.3125 
  endloop
 endfacet
 facet normal -50.342468 -28.406128 0.000000
  outer loop
   vertex 307.070446 65.81302643 28.60723495 
   vertex 307.070446 65.81302643 38.12731171 
   vertex 304.0866508 71.10105896 31.3125 
  endloop
 endfacet
 facet normal -193.832489 -109.370605 0.000061
  outer loop
   vertex 307.070446 65.81302643 38.12731171 
   vertex 291.0214653 94.25585175 38.12731171 
   vertex 304.0866508 71.10105896 31.3125 
  endloop
 endfacet
 facet normal -12.095833 -6.825195 0.000000
  outer loop
   vertex 291.0214653 94.25585175 28.60723495 
   vertex 291.7383842 92.98529053 28.60723495 
   vertex 291.0214653 94.25585175 38.12731171 
  endloop
 endfacet
 facet normal -3.437210 -1.939941 0.000000
  outer loop
   vertex 291.7383842 92.98529053 28.60723495 
   vertex 291.7383842 92.98529053 31.3125 
   vertex 291.0214653 94.25585175 38.12731171 
  endloop
 endfacet
 facet normal -149.136963 -84.150879 -0.000031
  outer loop
   vertex 291.7383842 92.98529053 31.3125 
   vertex 304.0866508 71.10105896 31.3125 
   vertex 291.0214653 94.25585175 38.12731171 
  endloop
 endfacet
 facet normal -9.784096 -5.520508 0.000000
  outer loop
   vertex 291.7383842 92.98529053 28.60723495 
   vertex 291.0214653 94.25585175 28.60723495 
   vertex 291.7383842 92.98529053 20.90662956 
  endloop
 endfacet
 facet normal -36.201843 -20.427734 0.000000
  outer loop
   vertex 291.0214653 94.25585175 28.60723495 
   vertex 291.0214653 94.25585175 0.1144361496 
   vertex 291.7383842 92.98529053 20.90662956 
  endloop
 endfacet
 facet normal -591.388733 -333.693359 -0.000092
  outer loop
   vertex 291.0214653 94.25585175 0.1144361496 
   vertex 307.070446 65.81302643 0.1144361496 
   vertex 291.7383842 92.98529053 20.90662956 
  endloop
 endfacet
 facet normal -455.021149 -256.747070 0.000122
  outer loop
   vertex 291.7383842 92.98529053 20.90662956 
   vertex 307.070446 65.81302643 0.1144361496 
   vertex 304.0866508 71.10105896 20.90662956 
  endloop
 endfacet
 facet normal -150.670837 -85.017578 0.000000
  outer loop
   vertex 307.070446 65.81302643 28.60723495 
   vertex 304.0866508 71.10105896 28.60723495 
   vertex 307.070446 65.81302643 0.1144361496 
  endloop
 endfacet
 facet normal -40.721062 -22.975586 0.000000
  outer loop
   vertex 307.070446 65.81302643 0.1144361496 
   vertex 304.0866508 71.10105896 28.60723495 
   vertex 304.0866508 71.10105896 20.90662956 
  endloop
 endfacet
 facet normal -312.601044 -176.386719 0.000000
  outer loop
   vertex 307.070446 65.81302643 0.1144361496 
   vertex 291.0214653 94.25585175 0.1144361496 
   vertex 307.070446 65.81302643 -10.87607002 
  endloop
 endfacet
 facet normal -312.601044 -176.386230 0.000000
  outer loop
   vertex 307.070446 65.81302643 -10.87607002 
   vertex 291.0214653 94.25585175 0.1144361496 
   vertex 291.0214653 94.25585175 -10.87607002 
  endloop
 endfacet
 facet normal 0.000000 0.000000 -131.409485
  outer loop
   vertex 307.070446 65.81302643 -10.87607002 
   vertex 291.0214653 94.25585175 -10.87607002 
   vertex 309.4225883 69.83247375 -10.87607002 
  endloop
 endfacet
 facet normal 0.000000 0.000000 -131.387451
  outer loop
   vertex 309.4225883 69.83247375 -10.87607002 
   vertex 291.0214653 94.25585175 -10.87607002 
   vertex 293.3726921 98.27532196 -10.87607002 
  endloop
 endfacet
 facet normal -0.000005 0.000000 -130.217285
  outer loop
   vertex 307.070446 65.81302643 -10.87607002 
   vertex 309.4225883 69.83247375 -10.87607002 
   vertex 339.4325675 65.75387573 -10.87607002 
  endloop
 endfacet
 facet normal 0.000000 0.000000 -131.773071
  outer loop
   vertex 339.4325675 65.75387573 -10.87607002 
   vertex 309.4225883 69.83247375 -10.87607002 
   vertex 341.7521476 69.82959747 -10.87607002 
  endloop
 endfacet
 facet normal -0.650096 -355.675781 0.000000
  outer loop
   vertex 339.4325675 65.75387573 0.1144361496 
   vertex 307.070446 65.81302643 0.1144361496 
   vertex 339.4325675 65.75387573 -10.87607002 
  endloop
 endfacet
 facet normal -0.650096 -355.676270 0.000000
  outer loop
   vertex 339.4325675 65.75387573 -10.87607002 
   vertex 307.070446 65.81302643 0.1144361496 
   vertex 307.070446 65.81302643 -10.87607002 
  endloop
 endfacet
 facet normal -0.083133 -45.411133 0.000000
  outer loop
   vertex 312.9675712 65.80223083 28.60723495 
   vertex 307.070446 65.81302643 28.60723495 
   vertex 312.9675712 65.80223083 20.90662956 
  endloop
 endfacet
 facet normal -0.307597 -168.027832 0.000000
  outer loop
   vertex 307.070446 65.81302643 28.60723495 
   vertex 307.070446 65.81302643 0.1144361496 
   vertex 312.9675712 65.80223083 20.90662956 
  endloop
 endfacet
 facet normal -1.229873 -672.878906 -0.000183
  outer loop
   vertex 307.070446 65.81302643 0.1144361496 
   vertex 339.4325675 65.75387573 0.1144361496 
   vertex 312.9675712 65.80223083 20.90662956 
  endloop
 endfacet
 facet normal -0.070215 -38.140625 -0.000092
  outer loop
   vertex 339.4325675 65.75379944 28.60723495 
   vertex 338.0940055 65.75626373 28.60723495 
   vertex 339.4325675 65.75387573 0.1144361496 
  endloop
 endfacet
 facet normal -0.019041 -10.306641 -0.000031
  outer loop
   vertex 338.0940055 65.75626373 28.60723495 
   vertex 338.0940055 65.75628662 20.90662956 
   vertex 339.4325675 65.75387573 0.1144361496 
  endloop
 endfacet
 facet normal -0.955281 -522.433594 -0.000977
  outer loop
   vertex 312.9675712 65.80223083 20.90662956 
   vertex 339.4325675 65.75387573 0.1144361496 
   vertex 338.0940055 65.75628662 20.90662956 
  endloop
 endfacet
 facet normal -0.006667 -3.621094 0.000000
  outer loop
   vertex 338.0940055 65.75626373 28.60723495 
   vertex 339.4325675 65.75379944 28.60723495 
   vertex 338.0940055 65.75626373 31.3125 
  endloop
 endfacet
 facet normal -0.023460 -12.743408 0.000000
  outer loop
   vertex 339.4325675 65.75379944 28.60723495 
   vertex 339.4325675 65.75379944 38.12731934 
   vertex 338.0940055 65.75626373 31.3125 
  endloop
 endfacet
 facet normal -0.403621 -220.541992 -0.000443
  outer loop
   vertex 339.4325675 65.75379944 38.12731934 
   vertex 307.070446 65.81302643 38.12731171 
   vertex 338.0940055 65.75626373 31.3125 
  endloop
 endfacet
 facet normal -0.313257 -171.231934 0.000244
  outer loop
   vertex 338.0940055 65.75626373 31.3125 
   vertex 307.070446 65.81302643 38.12731171 
   vertex 312.9675712 65.80223083 31.3125 
  endloop
 endfacet
 facet normal -0.102775 -56.141602 0.000000
  outer loop
   vertex 307.070446 65.81302643 28.60723495 
   vertex 312.9675712 65.80223083 28.60723495 
   vertex 307.070446 65.81302643 38.12731171 
  endloop
 endfacet
 facet normal -0.029205 -15.952637 0.000000
  outer loop
   vertex 307.070446 65.81302643 38.12731171 
   vertex 312.9675712 65.80223083 28.60723495 
   vertex 312.9675712 65.80223083 31.3125 
  endloop
 endfacet
 facet normal -0.000061 0.000010 156.845932
  outer loop
   vertex 340.7635307 70.80659485 38.12731934 
   vertex 309.7367668 70.86228943 38.12731171 
   vertex 339.4325675 65.75379944 38.12731934 
  endloop
 endfacet
 facet normal -0.000025 0.000020 163.562500
  outer loop
   vertex 339.4325675 65.75379944 38.12731934 
   vertex 309.7367668 70.86228943 38.12731171 
   vertex 307.070446 65.81302643 38.12731171 
  endloop
 endfacet
 facet normal 0.000000 0.000000 126.995605
  outer loop
   vertex 312.9675712 70.85649109 20.90662956 
   vertex 312.9675712 65.80223083 20.90662956 
   vertex 338.0940055 70.81138611 20.90662956 
  endloop
 endfacet
 facet normal 0.000015 0.000000 127.016602
  outer loop
   vertex 338.0940055 70.81138611 20.90662956 
   vertex 312.9675712 65.80223083 20.90662956 
   vertex 338.0940055 65.75628662 20.90662956 
  endloop
 endfacet
 facet normal 13.673096 0.000000 0.000000
  outer loop
   vertex 312.9675712 70.85649109 31.3125 
   vertex 312.9675712 65.80223083 31.3125 
   vertex 312.9675712 70.85649109 28.60723495 
  endloop
 endfacet
 facet normal 13.673126 0.000000 0.000000
  outer loop
   vertex 312.9675712 65.80223083 31.3125 
   vertex 312.9675712 65.80223083 28.60723495 
   vertex 312.9675712 70.85649109 28.60723495 
  endloop
 endfacet
 facet normal 38.920868 0.000000 0.000000
  outer loop
   vertex 312.9675712 65.80223083 28.60723495 
   vertex 312.9675712 65.80223083 20.90662956 
   vertex 312.9675712 70.85649109 28.60723495 
  endloop
 endfacet
 facet normal 38.920853 0.000000 0.000000
  outer loop
   vertex 312.9675712 65.80223083 20.90662956 
   vertex 312.9675712 70.85649109 20.90662956 
   vertex 312.9675712 70.85649109 28.60723495 
  endloop
 endfacet
 facet normal 0.015686 8.740234 0.000000
  outer loop
   vertex 312.9675712 70.85649109 28.60723495 
   vertex 309.7367668 70.86228943 28.60723495 
   vertex 312.9675712 70.85649109 31.3125 
  endloop
 endfacet
 facet normal 0.055201 30.757446 0.000000
  outer loop
   vertex 309.7367668 70.86228943 28.60723495 
   vertex 309.7367668 70.86228943 38.12731171 
   vertex 312.9675712 70.85649109 31.3125 
  endloop
 endfacet
 facet normal 0.379548 211.441406 0.000183
  outer loop
   vertex 309.7367668 70.86228943 38.12731171 
   vertex 340.7635307 70.80659485 38.12731934 
   vertex 312.9675712 70.85649109 31.3125 
  endloop
 endfacet
 facet normal 0.045613 25.414063 0.000000
  outer loop
   vertex 340.7635307 70.80659485 28.60723495 
   vertex 338.0940055 70.81138611 28.60723495 
   vertex 340.7635307 70.80659485 38.12731934 
  endloop
 endfacet
 facet normal 0.012962 7.222168 0.000000
  outer loop
   vertex 338.0940055 70.81138611 28.60723495 
   vertex 338.0940055 70.81138611 31.3125 
   vertex 340.7635307 70.80659485 38.12731934 
  endloop
 endfacet
 facet normal 0.307382 171.231934 0.000031
  outer loop
   vertex 338.0940055 70.81138611 31.3125 
   vertex 312.9675712 70.85649109 31.3125 
   vertex 340.7635307 70.80659485 38.12731934 
  endloop
 endfacet
 facet normal -38.927322 0.000000 0.000000
  outer loop
   vertex 338.0940055 70.81138611 20.90662956 
   vertex 338.0940055 65.75628662 20.90662956 
   vertex 338.0940055 70.81138611 28.60723495 
  endloop
 endfacet
 facet normal -38.927505 0.000000 0.000000
  outer loop
   vertex 338.0940055 65.75628662 20.90662956 
   vertex 338.0940055 65.75626373 28.60723495 
   vertex 338.0940055 70.81138611 28.60723495 
  endloop
 endfacet
 facet normal -13.675446 0.000000 0.000000
  outer loop
   vertex 338.0940055 70.81138611 28.60723495 
   vertex 338.0940055 65.75626373 28.60723495 
   vertex 338.0940055 70.81138611 31.3125 
  endloop
 endfacet
 facet normal -13.675446 0.000000 0.000000
  outer loop
   vertex 338.0940055 65.75626373 28.60723495 
   vertex 338.0940055 65.75626373 31.3125 
   vertex 338.0940055 70.81138611 31.3125 
  endloop
 endfacet
 facet normal 0.000061 0.000000 114.985107
  outer loop
   vertex 295.7015495 95.27342224 20.90662956 
   vertex 291.7383842 92.98529053 20.90662956 
   vertex 308.2255668 73.49067688 20.90662956 
  endloop
 endfacet
 facet normal -0.000053 0.000000 120.084656
  outer loop
   vertex 308.2255668 73.49067688 20.90662956 
   vertex 291.7383842 92.98529053 20.90662956 
   vertex 304.0866508 71.10105896 20.90662956 
  endloop
 endfacet
 facet normal 6.190002 -10.721436 0.000000
  outer loop
   vertex 295.7015495 95.27342224 31.3125 
   vertex 291.7383842 92.98529053 31.3125 
   vertex 295.7015495 95.27342224 28.60723495 
  endloop
 endfacet
 facet normal 6.190002 -10.721313 0.000000
  outer loop
   vertex 291.7383842 92.98529053 31.3125 
   vertex 291.7383842 92.98529053 28.60723495 
   vertex 295.7015495 95.27342224 28.60723495 
  endloop
 endfacet
 facet normal 17.620003 -30.518555 0.000000
  outer loop
   vertex 291.7383842 92.98529053 28.60723495 
   vertex 291.7383842 92.98529053 20.90662956 
   vertex 295.7015495 95.27342224 28.60723495 
  endloop
 endfacet
 facet normal 17.619995 -30.519043 0.000000
  outer loop
   vertex 291.7383842 92.98529053 20.90662956 
   vertex 295.7015495 95.27342224 20.90662956 
   vertex 295.7015495 95.27342224 28.60723495 
  endloop
 endfacet
 facet normal 6.359558 3.656494 0.000000
  outer loop
   vertex 295.7015495 95.27342224 28.60723495 
   vertex 294.3499565 97.62422943 28.60723495 
   vertex 295.7015495 95.27342224 31.3125 
  endloop
 endfacet
 facet normal 22.379868 12.867188 0.000000
  outer loop
   vertex 294.3499565 97.62422943 28.60723495 
   vertex 294.3499565 97.62422943 38.12731171 
   vertex 295.7015495 95.27342224 31.3125 
  endloop
 endfacet
 facet normal 182.377579 104.858398 -0.000122
  outer loop
   vertex 294.3499565 97.62422943 38.12731171 
   vertex 309.7367668 70.86228943 38.12731171 
   vertex 295.7015495 95.27342224 31.3125 
  endloop
 endfacet
 facet normal 25.022446 14.386230 0.000000
  outer loop
   vertex 309.7367668 70.86228943 28.60723495 
   vertex 308.2255668 73.49067688 28.60723495 
   vertex 309.7367668 70.86228943 38.12731171 
  endloop
 endfacet
 facet normal 7.110489 4.088379 0.000000
  outer loop
   vertex 308.2255668 73.49067688 28.60723495 
   vertex 308.2255668 73.49067688 31.3125 
   vertex 309.7367668 70.86228943 38.12731171 
  endloop
 endfacet
 facet normal 148.445358 85.349121 -0.000046
  outer loop
   vertex 308.2255668 73.49067688 31.3125 
   vertex 295.7015495 95.27342224 31.3125 
   vertex 309.7367668 70.86228943 38.12731171 
  endloop
 endfacet
 facet normal -18.401497 31.872070 0.000000
  outer loop
   vertex 308.2255668 73.49067688 20.90662956 
   vertex 304.0866508 71.10105896 20.90662956 
   vertex 308.2255668 73.49067688 28.60723495 
  endloop
 endfacet
 facet normal -18.401505 31.872070 0.000000
  outer loop
   vertex 304.0866508 71.10105896 20.90662956 
   vertex 304.0866508 71.10105896 28.60723495 
   vertex 308.2255668 73.49067688 28.60723495 
  endloop
 endfacet
 facet normal -6.464554 11.196899 0.000000
  outer loop
   vertex 308.2255668 73.49067688 28.60723495 
   vertex 304.0866508 71.10105896 28.60723495 
   vertex 308.2255668 73.49067688 31.3125 
  endloop
 endfacet
 facet normal -6.464554 11.196777 0.000000
  outer loop
   vertex 304.0866508 71.10105896 28.60723495 
   vertex 304.0866508 71.10105896 31.3125 
   vertex 308.2255668 73.49067688 31.3125 
  endloop
 endfacet
 facet normal 0.432889 296.662109 0.000000
  outer loop
   vertex 294.3499565 97.62422943 28.60723495 
   vertex 263.1882133 97.66970062 28.60723495 
   vertex 294.3499565 97.62422943 38.12731171 
  endloop
 endfacet
 facet normal 0.432890 296.662292 0.000000
  outer loop
   vertex 294.3499565 97.62422943 38.12731171 
   vertex 263.1882133 97.66970062 28.60723495 
   vertex 263.1882133 97.66970062 38.12731934 
  endloop
 endfacet
 facet normal 0.000031 -0.000025 105.115967
  outer loop
   vertex 294.3499565 97.62422943 38.12731171 
   vertex 263.1882133 97.66970062 38.12731934 
   vertex 291.0214653 94.25585175 38.12731171 
  endloop
 endfacet
 facet normal 0.000029 -0.000036 109.615723
  outer loop
   vertex 291.0214653 94.25585175 38.12731171 
   vertex 263.1882133 97.66970062 38.12731934 
   vertex 258.518505 94.30414581 38.12731934 
  endloop
 endfacet
 facet normal -0.459764 -309.431152 0.000000
  outer loop
   vertex 258.518505 94.30414581 28.60723495 
   vertex 291.0214653 94.25585175 28.60723495 
   vertex 258.518505 94.30414581 38.12731934 
  endloop
 endfacet
 facet normal -0.459763 -309.430298 0.000000
  outer loop
   vertex 258.518505 94.30414581 38.12731934 
   vertex 291.0214653 94.25585175 28.60723495 
   vertex 291.0214653 94.25585175 38.12731171 
  endloop
 endfacet
 facet normal -1.376033 -926.100586 0.000000
  outer loop
   vertex 258.518505 94.30414581 0.1144361496 
   vertex 291.0214653 94.25585175 0.1144361496 
   vertex 258.518505 94.30414581 28.60723495 
  endloop
 endfacet
 facet normal -1.376033 -926.099609 0.000000
  outer loop
   vertex 258.518505 94.30414581 28.60723495 
   vertex 291.0214653 94.25585175 0.1144361496 
   vertex 291.0214653 94.25585175 28.60723495 
  endloop
 endfacet
 facet normal -0.530776 -357.223633 0.000000
  outer loop
   vertex 291.0214653 94.25585175 0.1144361496 
   vertex 258.518505 94.30414581 0.1144361496 
   vertex 291.0214653 94.25585175 -10.87607002 
  endloop
 endfacet
 facet normal -0.530776 -357.224121 0.000000
  outer loop
   vertex 291.0214653 94.25585175 -10.87607002 
   vertex 258.518505 94.30414581 0.1144361496 
   vertex 258.518505 94.30414581 -10.87607002 
  endloop
 endfacet
 facet normal 0.000000 -0.000062 -130.559570
  outer loop
   vertex 258.518505 94.30414581 -10.87607002 
   vertex 260.873394 98.31751251 -10.87607193 
   vertex 291.0214653 94.25585175 -10.87607002 
  endloop
 endfacet
 facet normal 0.000015 -0.000004 -130.729126
  outer loop
   vertex 291.0214653 94.25585175 -10.87607002 
   vertex 260.873394 98.31751251 -10.87607193 
   vertex 293.3726921 98.27532196 -10.87607002 
  endloop
 endfacet
 facet normal 0.000000 0.000041 -660.673096
  outer loop
   vertex 247.0767021 123.0428619 -1.567270756 
   vertex 270.8003044 128.4136505 -1.567270279 
   vertex 260.873394 98.31751251 -1.567272186 
  endloop
 endfacet
 facet normal -0.000017 0.000040 -534.901855
  outer loop
   vertex 260.873394 98.31751251 -1.567272186 
   vertex 270.8003044 128.4136505 -1.567270279 
   vertex 281.9705619 108.3953323 -1.567272186 
  endloop
 endfacet
 facet normal 0.000029 -0.000060 -328.412109
  outer loop
   vertex 260.873394 98.31751251 -1.567272186 
   vertex 281.9705619 108.3953323 -1.567272186 
   vertex 293.3726921 98.27532196 -1.567269325 
  endloop
 endfacet
 facet normal 0.000010 -0.000064 -265.892334
  outer loop
   vertex 293.3726921 98.27532196 -1.567269325 
   vertex 281.9705619 108.3953323 -1.567272186 
   vertex 308.2829704 108.3611755 -1.567271233 
  endloop
 endfacet
 facet normal -0.000019 -0.000002 -585.967651
  outer loop
   vertex 309.4225883 69.83247375 -1.567269802 
   vertex 293.3726921 98.27532196 -1.567269325 
   vertex 321.2775077 85.33289337 -1.567270279 
  endloop
 endfacet
 facet normal -0.000031 -0.000039 -474.419189
  outer loop
   vertex 321.2775077 85.33289337 -1.567270279 
   vertex 293.3726921 98.27532196 -1.567269325 
   vertex 308.2829704 108.3611755 -1.567271233 
  endloop
 endfacet
 facet normal -0.000002 -0.000015 -501.155762
  outer loop
   vertex 309.4225883 69.83247375 -1.567269802 
   vertex 321.2775077 85.33289337 -1.567270279 
   vertex 341.7521476 69.82959747 -1.567269802 
  endloop
 endfacet
 facet normal 0.000004 -0.000012 -405.750488
  outer loop
   vertex 341.7521476 69.82959747 -1.567269802 
   vertex 321.2775077 85.33289337 -1.567270279 
   vertex 347.452526 85.33052826 -1.567270279 
  endloop
 endfacet
 facet normal -0.000015 -0.000017 -403.036407
  outer loop
   vertex 357.8360404 42.86273956 -1.567269325 
   vertex 341.7521476 69.82959747 -1.567269802 
   vertex 360.4745292 63.49732971 -1.567270279 
  endloop
 endfacet
 facet normal -0.000015 -0.000006 -326.310425
  outer loop
   vertex 360.4745292 63.49732971 -1.567270279 
   vertex 341.7521476 69.82959747 -1.567269802 
   vertex 347.452526 85.33052826 -1.567270279 
  endloop
 endfacet
 facet normal -0.000031 0.000000 -128.066208
  outer loop
   vertex 355.5181694 38.78701782 -10.87607002 
   vertex 339.4325675 65.75387573 -10.87607002 
   vertex 357.8360404 42.86273956 -10.87607002 
  endloop
 endfacet
 facet normal 0.000061 0.000000 -128.105225
  outer loop
   vertex 357.8360404 42.86273956 -10.87607002 
   vertex 339.4325675 65.75387573 -10.87607002 
   vertex 341.7521476 69.82959747 -10.87607002 
  endloop
 endfacet
 facet normal -296.379425 -176.788086 0.000000
  outer loop
   vertex 355.5181694 38.78701782 0.1144361496 
   vertex 339.4325675 65.75387573 0.1144361496 
   vertex 355.5181694 38.78701782 -10.87607002 
  endloop
 endfacet
 facet normal -296.379395 -176.789551 0.000000
  outer loop
   vertex 355.5181694 38.78701782 -10.87607002 
   vertex 339.4325675 65.75387573 0.1144361496 
   vertex 339.4325675 65.75387573 -10.87607002 
  endloop
 endfacet
 facet normal -768.361328 -458.324219 -0.001221
  outer loop
   vertex 339.4325675 65.75387573 0.1144361496 
   vertex 355.5181694 38.78701782 0.1144361496 
   vertex 339.4325675 65.75379944 28.60723495 
  endloop
 endfacet
 facet normal -768.359070 -458.322266 0.000000
  outer loop
   vertex 339.4325675 65.75379944 28.60723495 
   vertex 355.5181694 38.78701782 0.1144361496 
   vertex 355.5181694 38.78701782 28.60723495 
  endloop
 endfacet
 facet normal -256.726074 -153.136230 0.000000
  outer loop
   vertex 339.4325675 65.75379944 28.60723495 
   vertex 355.5181694 38.78701782 28.60723495 
   vertex 339.4325675 65.75379944 38.12731934 
  endloop
 endfacet
 facet normal -256.726074 -153.136230 0.000000
  outer loop
   vertex 339.4325675 65.75379944 38.12731934 
   vertex 355.5181694 38.78701782 28.60723495 
   vertex 355.5181694 38.78701782 38.12731934 
  endloop
 endfacet
 facet normal 0.000000 0.000000 113.662720
  outer loop
   vertex 340.7635307 70.80659485 38.12731934 
   vertex 339.4325675 65.75379944 38.12731934 
   vertex 356.1854362 43.95463562 38.12731934 
  endloop
 endfacet
 facet normal 0.000092 0.000000 101.118340
  outer loop
   vertex 356.1854362 43.95463562 38.12731934 
   vertex 339.4325675 65.75379944 38.12731934 
   vertex 355.5181694 38.78701782 38.12731934 
  endloop
 endfacet
 facet normal 255.633057 146.817871 0.000000
  outer loop
   vertex 356.1854362 43.95463562 28.60723495 
   vertex 340.7635307 70.80659485 28.60723495 
   vertex 356.1854362 43.95463562 38.12731934 
  endloop
 endfacet
 facet normal 255.632813 146.817871 0.000000
  outer loop
   vertex 356.1854362 43.95463562 38.12731934 
   vertex 340.7635307 70.80659485 28.60723495 
   vertex 340.7635307 70.80659485 38.12731934 
  endloop
 endfacet
 facet normal 765.089661 439.414063 -0.001221
  outer loop
   vertex 356.1854362 43.95455933 0.1144361496 
   vertex 340.7635307 70.80659485 0.1144361496 
   vertex 356.1854362 43.95463562 28.60723495 
  endloop
 endfacet
 facet normal 765.087402 439.412109 0.000000
  outer loop
   vertex 356.1854362 43.95463562 28.60723495 
   vertex 340.7635307 70.80659485 0.1144361496 
   vertex 340.7635307 70.80659485 28.60723495 
  endloop
 endfacet
 facet normal 0.036896 20.556641 0.000000
  outer loop
   vertex 338.0940055 70.81138611 28.60723495 
   vertex 340.7635307 70.80659485 28.60723495 
   vertex 338.0940055 70.81138611 20.90662956 
  endloop
 endfacet
 facet normal 0.136516 76.062988 0.000000
  outer loop
   vertex 340.7635307 70.80659485 28.60723495 
   vertex 340.7635307 70.80659485 0.1144361496 
   vertex 338.0940055 70.81138611 20.90662956 
  endloop
 endfacet
 facet normal 1.158013 645.113281 -0.000275
  outer loop
   vertex 340.7635307 70.80659485 0.1144361496 
   vertex 309.7367668 70.86228943 0.1144361496 
   vertex 338.0940055 70.81138611 20.90662956 
  endloop
 endfacet
 facet normal 0.165211 92.054688 0.000000
  outer loop
   vertex 309.7367668 70.86228943 28.60723495 
   vertex 312.9675712 70.85649109 28.60723495 
   vertex 309.7367668 70.86228943 0.1144361496 
  endloop
 endfacet
 facet normal 0.044651 24.880859 0.000000
  outer loop
   vertex 312.9675712 70.85649109 28.60723495 
   vertex 312.9675712 70.85649109 20.90662956 
   vertex 309.7367668 70.86228943 0.1144361496 
  endloop
 endfacet
 facet normal 0.937831 522.434570 0.000000
  outer loop
   vertex 338.0940055 70.81138611 20.90662956 
   vertex 309.7367668 70.86228943 0.1144361496 
   vertex 312.9675712 70.85649109 20.90662956 
  endloop
 endfacet
 facet normal 20.240173 11.637207 0.000000
  outer loop
   vertex 308.2255668 73.49067688 28.60723495 
   vertex 309.7367668 70.86228943 28.60723495 
   vertex 308.2255668 73.49067688 20.90662956 
  endloop
 endfacet
 facet normal 74.890114 43.056152 0.000000
  outer loop
   vertex 309.7367668 70.86228943 28.60723495 
   vertex 309.7367668 70.86228943 0.1144361496 
   vertex 308.2255668 73.49067688 20.90662956 
  endloop
 endfacet
 facet normal 556.439392 319.925781 0.000046
  outer loop
   vertex 309.7367668 70.86228943 0.1144361496 
   vertex 294.3499565 97.62422943 0.1144361496 
   vertex 308.2255668 73.49067688 20.90662956 
  endloop
 endfacet
 facet normal 66.981071 38.509766 0.000000
  outer loop
   vertex 294.3499565 97.62422943 28.60723495 
   vertex 295.7015495 95.27342224 28.60723495 
   vertex 294.3499565 97.62422943 0.1144361496 
  endloop
 endfacet
 facet normal 18.102642 10.410156 0.000000
  outer loop
   vertex 295.7015495 95.27342224 28.60723495 
   vertex 295.7015495 95.27342224 20.90662956 
   vertex 294.3499565 97.62422943 0.1144361496 
  endloop
 endfacet
 facet normal 452.911072 260.402344 0.000000
  outer loop
   vertex 308.2255668 73.49067688 20.90662956 
   vertex 294.3499565 97.62422943 0.1144361496 
   vertex 295.7015495 95.27342224 20.90662956 
  endloop
 endfacet
 facet normal 1.295602 887.884766 0.000000
  outer loop
   vertex 294.3499565 97.62422943 0.1144361496 
   vertex 263.1882133 97.66970062 0.1144361496 
   vertex 294.3499565 97.62422943 28.60723495 
  endloop
 endfacet
 facet normal 1.295601 887.885742 0.000000
  outer loop
   vertex 294.3499565 97.62422943 28.60723495 
   vertex 263.1882133 97.66970062 0.1144361496 
   vertex 263.1882133 97.66970062 28.60723495 
  endloop
 endfacet
 facet normal 760.555298 440.608398 0.000000
  outer loop
   vertex 263.1882133 97.66970062 0.1144361496 
   vertex 247.7243461 124.3625946 0.1144361496 
   vertex 263.1882133 97.66970062 28.60723495 
  endloop
 endfacet
 facet normal 760.553101 440.609375 0.000977
  outer loop
   vertex 263.1882133 97.66970062 28.60723495 
   vertex 247.7243461 124.3625946 0.1144361496 
   vertex 247.7243461 124.3625183 28.60723495 
  endloop
 endfacet
 facet normal 254.117920 147.217285 0.000000
  outer loop
   vertex 263.1882133 97.66970062 28.60723495 
   vertex 247.7243461 124.3625183 28.60723495 
   vertex 263.1882133 97.66970062 38.12731934 
  endloop
 endfacet
 facet normal 254.117554 147.217453 0.000000
  outer loop
   vertex 263.1882133 97.66970062 38.12731934 
   vertex 247.7243461 124.3625183 28.60723495 
   vertex 247.7243461 124.3625183 38.12731171 
  endloop
 endfacet
 facet normal 0.000000 0.000036 176.692200
  outer loop
   vertex 263.1882133 97.66970062 38.12731934 
   vertex 247.7243461 124.3625183 38.12731171 
   vertex 258.518505 94.30414581 38.12731934 
  endloop
 endfacet
 facet normal 0.000000 0.000041 174.350342
  outer loop
   vertex 258.518505 94.30414581 38.12731934 
   vertex 247.7243461 124.3625183 38.12731171 
   vertex 242.3891105 123.0671997 38.12731171 
  endloop
 endfacet
 facet normal -273.826416 -153.553223 0.000000
  outer loop
   vertex 242.3891105 123.0671997 28.60723495 
   vertex 258.518505 94.30414581 28.60723495 
   vertex 242.3891105 123.0671997 38.12731171 
  endloop
 endfacet
 facet normal -273.826904 -153.552979 0.000000
  outer loop
   vertex 242.3891105 123.0671997 38.12731171 
   vertex 258.518505 94.30414581 28.60723495 
   vertex 258.518505 94.30414581 38.12731934 
  endloop
 endfacet
 facet normal -819.539917 -459.571289 0.000000
  outer loop
   vertex 242.3891105 123.0671997 0.1144361496 
   vertex 258.518505 94.30414581 0.1144361496 
   vertex 242.3891105 123.0671997 28.60723495 
  endloop
 endfacet
 facet normal -819.539856 -459.572266 0.000000
  outer loop
   vertex 242.3891105 123.0671997 28.60723495 
   vertex 258.518505 94.30414581 0.1144361496 
   vertex 258.518505 94.30414581 28.60723495 
  endloop
 endfacet
 facet normal -316.120514 -177.270508 0.000000
  outer loop
   vertex 258.518505 94.30414581 0.1144361496 
   vertex 242.3891105 123.0671997 0.1144361496 
   vertex 258.518505 94.30414581 -10.87607002 
  endloop
 endfacet
 facet normal -316.120514 -177.270020 0.000000
  outer loop
   vertex 258.518505 94.30414581 -10.87607002 
   vertex 242.3891105 123.0671997 0.1144361496 
   vertex 242.3891105 123.0671997 -10.87607002 
  endloop
 endfacet
 facet normal -0.000069 -0.000031 -132.466980
  outer loop
   vertex 258.518505 94.30414581 -10.87607002 
   vertex 242.3891105 123.0671997 -10.87607002 
   vertex 260.873394 98.31751251 -10.87607193 
  endloop
 endfacet
 facet normal 0.000000 0.000009 -115.566895
  outer loop
   vertex 260.873394 98.31751251 -10.87607193 
   vertex 242.3891105 123.0671997 -10.87607002 
   vertex 247.0767021 123.0428619 -10.87607002 
  endloop
 endfacet
 facet normal 0.000016 -0.000009 -347.222168
  outer loop
   vertex 280.4448661 145.2332764 -1.567270279 
   vertex 270.8003044 128.4136505 -1.567270279 
   vertex 259.9200553 145.4409332 -1.567271233 
  endloop
 endfacet
 facet normal 0.000015 -0.000017 -462.384033
  outer loop
   vertex 259.9200553 145.4409332 -1.567271233 
   vertex 270.8003044 128.4136505 -1.567270279 
   vertex 247.0767021 123.0428619 -1.567270756 
  endloop
 endfacet
 facet normal -0.000050 -0.000000 -0.840736
  outer loop
   vertex 371.6780815 144.3102722 -10.87607193 
   vertex 371.6780815 98.84947205 -10.87607002 
   vertex 371.6595878 144.3104401 -10.87607002 
  endloop
 endfacet
 facet normal 0.000076 0.000001 -503.399292
  outer loop
   vertex 366.6982231 63.48877716 -1.567269325 
   vertex 360.4745292 63.49732971 -1.567270279 
   vertex 365.2714958 144.375061 -1.567269325 
  endloop
 endfacet
 facet normal 0.000015 0.000012 -1157.923584
  outer loop
   vertex 360.4745292 63.49732971 -1.567270279 
   vertex 347.452526 85.33052826 -1.567270279 
   vertex 365.2714958 144.375061 -1.567269325 
  endloop
 endfacet
 facet normal 0.000060 0.000064 -5023.839844
  outer loop
   vertex 365.2714958 144.375061 -1.567269325 
   vertex 347.452526 85.33052826 -1.567270279 
   vertex 280.4448661 145.2332764 -1.567270279 
  endloop
 endfacet
 facet normal -0.000002 -0.000025 -602.735352
  outer loop
   vertex 321.2775077 85.33289337 -1.567270279 
   vertex 308.2829704 108.3611755 -1.567271233 
   vertex 347.452526 85.33052826 -1.567270279 
  endloop
 endfacet
 facet normal 0.000061 0.000064 -803.134766
  outer loop
   vertex 347.452526 85.33052826 -1.567270279 
   vertex 308.2829704 108.3611755 -1.567271233 
   vertex 280.4448661 145.2332764 -1.567270279 
  endloop
 endfacet
 facet normal 0.000031 0.000052 -969.243164
  outer loop
   vertex 308.2829704 108.3611755 -1.567271233 
   vertex 281.9705619 108.3953323 -1.567272186 
   vertex 280.4448661 145.2332764 -1.567270279 
  endloop
 endfacet
 facet normal -0.000038 0.000018 -380.947144
  outer loop
   vertex 281.9705619 108.3953323 -1.567272186 
   vertex 270.8003044 128.4136505 -1.567270279 
   vertex 280.4448661 145.2332764 -1.567270279 
  endloop
 endfacet
 facet normal 0.000024 0.000000 -128.445862
  outer loop
   vertex 366.6982231 63.48877716 -1.567269325 
   vertex 367.0622978 42.85006714 -1.567269325 
   vertex 360.4745292 63.49732971 -1.567270279 
  endloop
 endfacet
 facet normal -0.000008 -0.000009 -190.413483
  outer loop
   vertex 360.4745292 63.49732971 -1.567270279 
   vertex 367.0622978 42.85006714 -1.567269325 
   vertex 357.8360404 42.86273956 -1.567269325 
  endloop
 endfacet
 facet normal 0.000005 0.000000 -37.614563
  outer loop
   vertex 367.0622978 42.85006714 -10.87607002 
   vertex 367.1341667 38.77305984 -10.87607002 
   vertex 357.8360404 42.86273956 -10.87607002 
  endloop
 endfacet
 facet normal 0.000000 0.000000 -47.375992
  outer loop
   vertex 357.8360404 42.86273956 -10.87607002 
   vertex 367.1341667 38.77305984 -10.87607002 
   vertex 355.5181694 38.78701782 -10.87607002 
  endloop
 endfacet
 facet normal -0.059995 -49.940430 0.000000
  outer loop
   vertex 371.6780815 38.76760101 -10.87607002 
   vertex 371.6780815 38.76760101 0.1144361496 
   vertex 367.1341667 38.77305984 -10.87607002 
  endloop
 endfacet
 facet normal -0.213401 -177.605469 0.000092
  outer loop
   vertex 371.6780815 38.76760101 0.1144361496 
   vertex 355.5181694 38.78701782 0.1144361496 
   vertex 367.1341667 38.77305984 -10.87607002 
  endloop
 endfacet
 facet normal -0.153405 -127.666016 0.000000
  outer loop
   vertex 355.5181694 38.78701782 0.1144361496 
   vertex 355.5181694 38.78701782 -10.87607002 
   vertex 367.1341667 38.77305984 -10.87607002 
  endloop
 endfacet
 facet normal -0.553239 -460.441406 0.000000
  outer loop
   vertex 371.6780815 38.76760101 0.1144361496 
   vertex 371.6780815 38.76760101 28.60723495 
   vertex 355.5181694 38.78701782 0.1144361496 
  endloop
 endfacet
 facet normal -0.553239 -460.441406 0.000000
  outer loop
   vertex 355.5181694 38.78701782 0.1144361496 
   vertex 371.6780815 38.76760101 28.60723495 
   vertex 355.5181694 38.78701782 28.60723495 
  endloop
 endfacet
 facet normal -0.184850 -153.843750 0.000000
  outer loop
   vertex 371.6780815 38.76760101 28.60723495 
   vertex 371.6780815 38.76760101 38.12731552 
   vertex 355.5181694 38.78701782 28.60723495 
  endloop
 endfacet
 facet normal -0.184850 -153.843750 0.000000
  outer loop
   vertex 355.5181694 38.78701782 28.60723495 
   vertex 371.6780815 38.76760101 38.12731552 
   vertex 355.5181694 38.78701782 38.12731934 
  endloop
 endfacet
 facet normal 0.000000 -0.000059 80.073608
  outer loop
   vertex 371.6780815 43.93609619 38.12731934 
   vertex 356.1854362 43.95463562 38.12731934 
   vertex 371.6780815 38.76760101 38.12731552 
  endloop
 endfacet
 facet normal 0.000000 -0.000003 83.521240
  outer loop
   vertex 371.6780815 38.76760101 38.12731552 
   vertex 356.1854362 43.95463562 38.12731934 
   vertex 355.5181694 38.78701782 38.12731934 
  endloop
 endfacet
 facet normal 0.176497 147.491699 0.000000
  outer loop
   vertex 371.6780815 43.93609619 38.12731934 
   vertex 371.6780815 43.93609619 28.60723495 
   vertex 356.1854362 43.95463562 38.12731934 
  endloop
 endfacet
 facet normal 0.176497 147.491211 0.000000
  outer loop
   vertex 356.1854362 43.95463562 38.12731934 
   vertex 371.6780815 43.93609619 28.60723495 
   vertex 356.1854362 43.95463562 28.60723495 
  endloop
 endfacet
 facet normal 0.528240 441.429688 -0.000610
  outer loop
   vertex 371.6780815 43.93609619 28.60723495 
   vertex 371.6780815 43.93605804 0.1144361496 
   vertex 356.1854362 43.95463562 28.60723495 
  endloop
 endfacet
 facet normal 0.527153 441.427734 -0.001099
  outer loop
   vertex 356.1854362 43.95463562 28.60723495 
   vertex 371.6780815 43.93605804 0.1144361496 
   vertex 356.1854362 43.95455933 0.1144361496 
  endloop
 endfacet
 facet normal -0.000301 -0.000003 97.530243
  outer loop
   vertex 371.6780815 45.36376572 0.1144361496 
   vertex 371.6780815 150.4738159 0.1144390106 
   vertex 370.7501945 150.4738159 0.1144361496 
  endloop
 endfacet
 facet normal 0.000000 0.000000 1650.292725
  outer loop
   vertex 356.1854362 43.95455933 0.1144361496 
   vertex 371.6780815 43.93605804 0.1144361496 
   vertex 357.6726799 150.4738159 0.1144361496 
  endloop
 endfacet
 facet normal 0.000000 0.000000 19.995361
  outer loop
   vertex 371.6780815 43.93605804 0.1144361496 
   vertex 371.6780815 45.36376572 0.1144361496 
   vertex 357.6726799 150.4738159 0.1144361496 
  endloop
 endfacet
 facet normal 0.000000 0.000000 1374.578125
  outer loop
   vertex 370.7501945 150.4738159 0.1144361496 
   vertex 357.6726799 150.4738159 0.1144361496 
   vertex 371.6780815 45.36376572 0.1144361496 
  endloop
 endfacet
 facet normal 0.000000 0.000000 2081.279297
  outer loop
   vertex 331.5480155 150.4738159 0.1144361496 
   vertex 340.7635307 70.80659485 0.1144361496 
   vertex 357.6726799 150.4738159 0.1144361496 
  endloop
 endfacet
 facet normal 0.000000 0.000000 1682.665527
  outer loop
   vertex 357.6726799 150.4738159 0.1144361496 
   vertex 340.7635307 70.80659485 0.1144361496 
   vertex 356.1854362 43.95455933 0.1144361496 
  endloop
 endfacet
 facet normal 0.000000 0.000000 2079.858887
  outer loop
   vertex 305.422924 150.4738159 0.1144361496 
   vertex 309.7367668 70.86228943 0.1144361496 
   vertex 331.5480155 150.4738159 0.1144361496 
  endloop
 endfacet
 facet normal 0.000000 0.000000 2471.302734
  outer loop
   vertex 331.5480155 150.4738159 0.1144361496 
   vertex 309.7367668 70.86228943 0.1144361496 
   vertex 340.7635307 70.80659485 0.1144361496 
  endloop
 endfacet
 facet normal 0.000000 0.000000 1380.667969
  outer loop
   vertex 279.2984428 150.4738159 0.1144361496 
   vertex 294.3499565 97.62422943 0.1144361496 
   vertex 305.422924 150.4738159 0.1144361496 
  endloop
 endfacet
 facet normal 0.000000 0.000000 1109.520752
  outer loop
   vertex 305.422924 150.4738159 0.1144361496 
   vertex 294.3499565 97.62422943 0.1144361496 
   vertex 309.7367668 70.86228943 0.1144361496 
  endloop
 endfacet
 facet normal 0.000000 0.000000 493.056152
  outer loop
   vertex 269.9609794 150.4738159 0.1144361496 
   vertex 263.1882133 97.66970062 0.1144361496 
   vertex 279.2984428 150.4738159 0.1144361496 
  endloop
 endfacet
 facet normal 0.000001 0.000000 1646.201172
  outer loop
   vertex 279.2984428 150.4738159 0.1144361496 
   vertex 263.1882133 97.66970062 0.1144361496 
   vertex 294.3499565 97.62422943 0.1144361496 
  endloop
 endfacet
 facet normal 0.000000 0.000000 186.990723
  outer loop
   vertex 262.7996635 150.4738159 0.1144361496 
   vertex 247.7243461 124.3625946 0.1144361496 
   vertex 269.9609794 150.4738159 0.1144361496 
  endloop
 endfacet
 facet normal 0.000000 0.000000 997.341187
  outer loop
   vertex 269.9609794 150.4738159 0.1144361496 
   vertex 247.7243461 124.3625946 0.1144361496 
   vertex 263.1882133 97.66970062 0.1144361496 
  endloop
 endfacet
 facet normal 743.981812 -429.538086 -0.000977
  outer loop
   vertex 262.7996635 150.4738159 0.1144361496 
   vertex 262.799694 150.4738159 28.60723495 
   vertex 247.7243461 124.3625946 0.1144361496 
  endloop
 endfacet
 facet normal 743.983948 -429.538086 -0.001465
  outer loop
   vertex 247.7243461 124.3625946 0.1144361496 
   vertex 262.799694 150.4738159 28.60723495 
   vertex 247.7243461 124.3625183 28.60723495 
  endloop
 endfacet
 facet normal 248.581421 -143.518555 0.000000
  outer loop
   vertex 262.799694 150.4738159 28.60723495 
   vertex 262.799694 150.4738159 38.12731171 
   vertex 247.7243461 124.3625183 28.60723495 
  endloop
 endfacet
 facet normal 248.581665 -143.518555 0.000000
  outer loop
   vertex 247.7243461 124.3625183 28.60723495 
   vertex 262.799694 150.4738159 38.12731171 
   vertex 247.7243461 124.3625183 38.12731171 
  endloop
 endfacet
 facet normal 0.000000 0.000000 121.799805
  outer loop
   vertex 262.799694 150.4738159 38.12731171 
   vertex 258.1350517 150.4738159 38.12731171 
   vertex 247.7243461 124.3625183 38.12731171 
  endloop
 endfacet
 facet normal -0.000107 0.000000 125.824585
  outer loop
   vertex 247.7243461 124.3625183 38.12731171 
   vertex 258.1350517 150.4738159 38.12731171 
   vertex 242.3891105 123.0671997 38.12731171 
  endloop
 endfacet
 facet normal -260.913086 149.902832 0.000000
  outer loop
   vertex 258.1350517 150.4738159 38.12731171 
   vertex 258.1350517 150.4738159 28.60723495 
   vertex 242.3891105 123.0671997 38.12731171 
  endloop
 endfacet
 facet normal -260.912964 149.902344 0.000000
  outer loop
   vertex 242.3891105 123.0671997 38.12731171 
   vertex 258.1350517 150.4738159 28.60723495 
   vertex 242.3891105 123.0671997 28.60723495 
  endloop
 endfacet
 facet normal -780.891235 448.647461 0.000000
  outer loop
   vertex 258.1350517 150.4738159 28.60723495 
   vertex 258.1350517 150.4738159 0.1144361496 
   vertex 242.3891105 123.0671997 28.60723495 
  endloop
 endfacet
 facet normal -780.891174 448.644531 0.000000
  outer loop
   vertex 242.3891105 123.0671997 28.60723495 
   vertex 258.1350517 150.4738159 0.1144361496 
   vertex 242.3891105 123.0671997 0.1144361496 
  endloop
 endfacet
 facet normal -301.212585 173.056152 0.000000
  outer loop
   vertex 258.1350517 150.4738159 0.1144361496 
   vertex 258.1350517 150.4738159 -10.87607002 
   vertex 242.3891105 123.0671997 0.1144361496 
  endloop
 endfacet
 facet normal -54.796906 31.482422 -0.000488
  outer loop
   vertex 258.1350517 150.4738159 -10.87607002 
   vertex 255.2705497 145.4879761 -10.87607002 
   vertex 242.3891105 123.0671997 0.1144361496 
  endloop
 endfacet
 facet normal -246.415680 141.573242 0.000000
  outer loop
   vertex 255.2705497 145.4879761 -10.87607002 
   vertex 242.3891105 123.0671997 -10.87607002 
   vertex 242.3891105 123.0671997 0.1144361496 
  endloop
 endfacet
 facet normal 0.000002 0.000000 -104.743896
  outer loop
   vertex 259.9200553 145.4409332 -10.87607002 
   vertex 247.0767021 123.0428619 -10.87607002 
   vertex 255.2705497 145.4879761 -10.87607002 
  endloop
 endfacet
 facet normal -0.000031 0.000000 -105.413330
  outer loop
   vertex 255.2705497 145.4879761 -10.87607002 
   vertex 247.0767021 123.0428619 -10.87607002 
   vertex 242.3891105 123.0671997 -10.87607002 
  endloop
 endfacet
 facet normal 0.000000 0.000000 -23.508301
  outer loop
   vertex 262.8059806 150.4738159 -10.87607002 
   vertex 259.9200553 145.4409332 -10.87607002 
   vertex 258.1350517 150.4738159 -10.87607002 
  endloop
 endfacet
 facet normal 0.000008 0.000000 -23.316467
  outer loop
   vertex 258.1350517 150.4738159 -10.87607002 
   vertex 259.9200553 145.4409332 -10.87607002 
   vertex 255.2705497 145.4879761 -10.87607002 
  endloop
 endfacet
 facet normal 0.000000 0.000000 -108.185059
  outer loop
   vertex 283.4498405 150.4738159 -10.87607002 
   vertex 280.4448661 145.2332764 -10.87607002 
   vertex 262.8059806 150.4738159 -10.87607002 
  endloop
 endfacet
 facet normal 0.000000 0.000000 -103.898438
  outer loop
   vertex 262.8059806 150.4738159 -10.87607002 
   vertex 280.4448661 145.2332764 -10.87607002 
   vertex 259.9200553 145.4409332 -10.87607002 
  endloop
 endfacet
 facet normal 0.000006 0.000000 -447.115234
  outer loop
   vertex 280.4448661 145.2332764 -10.87607002 
   vertex 283.4498405 150.4738159 -10.87607002 
   vertex 365.2714958 144.375061 -10.87607002 
  endloop
 endfacet
 facet normal -0.000015 0.000000 -39.372200
  outer loop
   vertex 371.6595878 144.3104401 -10.87607002 
   vertex 365.2714958 144.375061 -10.87607002 
   vertex 371.6570854 150.4738159 -10.87607002 
  endloop
 endfacet
 facet normal 0.000000 0.000000 -537.954346
  outer loop
   vertex 365.2714958 144.375061 -10.87607002 
   vertex 283.4498405 150.4738159 -10.87607002 
   vertex 371.6570854 150.4738159 -10.87607002 
  endloop
 endfacet
 facet normal 0.000000 0.000000 -0.129410
  outer loop
   vertex 371.6780815 150.4738159 -10.87607193 
   vertex 371.6780815 144.3102722 -10.87607193 
   vertex 371.6570854 150.4738159 -10.87607002 
  endloop
 endfacet
 facet normal -0.000015 -0.000000 -0.113983
  outer loop
   vertex 371.6570854 150.4738159 -10.87607002 
   vertex 371.6780815 144.3102722 -10.87607193 
   vertex 371.6595878 144.3104401 -10.87607002 
  endloop
 endfacet
 facet normal 0.000000 0.000000 -176.125366
  outer loop
   vertex 371.6780815 63.48192978 -10.87607002 
   vertex 366.6982231 63.48877716 -10.87607002 
   vertex 371.6780815 98.84947205 -10.87607002 
  endloop
 endfacet
 facet normal 0.000061 0.000000 -453.252319
  outer loop
   vertex 366.6982231 63.48877716 -10.87607002 
   vertex 365.2714958 144.375061 -10.87607002 
   vertex 371.6780815 98.84947205 -10.87607002 
  endloop
 endfacet
 facet normal 0.000000 0.000000 -290.407562
  outer loop
   vertex 371.6780815 98.84947205 -10.87607002 
   vertex 365.2714958 144.375061 -10.87607002 
   vertex 371.6595878 144.3104401 -10.87607002 
  endloop
 endfacet
 facet normal 0.000000 0.000000 -95.261536
  outer loop
   vertex 371.6780815 42.8437233 -10.87607002 
   vertex 367.0622978 42.85006714 -10.87607002 
   vertex 371.6780815 63.48192978 -10.87607002 
  endloop
 endfacet
 facet normal -0.000019 0.000000 -102.775330
  outer loop
   vertex 371.6780815 63.48192978 -10.87607002 
   vertex 367.0622978 42.85006714 -10.87607002 
   vertex 366.6982231 63.48877716 -10.87607002 
  endloop
 endfacet
 facet normal 0.000000 0.000000 -18.521545
  outer loop
   vertex 371.6780815 38.76760101 -10.87607002 
   vertex 367.1341667 38.77305984 -10.87607002 
   vertex 371.6780815 42.8437233 -10.87607002 
  endloop
 endfacet
 facet normal 0.000001 0.000000 -18.818115
  outer loop
   vertex 371.6780815 42.8437233 -10.87607002 
   vertex 367.1341667 38.77305984 -10.87607002 
   vertex 367.0622978 42.85006714 -10.87607002 
  endloop
 endfacet
 facet normal 230.163300 128.430664 0.000000
  outer loop
   vertex 260.873394 98.31751251 -10.87607193 
   vertex 247.0767021 123.0428619 -10.87607002 
   vertex 260.873394 98.31751251 -1.567272186 
  endloop
 endfacet
 facet normal 230.163315 128.430481 0.000000
  outer loop
   vertex 260.873394 98.31751251 -1.567272186 
   vertex 247.0767021 123.0428619 -10.87607002 
   vertex 247.0767021 123.0428619 -1.567270756 
  endloop
 endfacet
 facet normal 0.392743 302.529297 0.000000
  outer loop
   vertex 293.3726921 98.27532196 -10.87607002 
   vertex 260.873394 98.31751251 -10.87607193 
   vertex 293.3726921 98.27532196 -1.567269325 
  endloop
 endfacet
 facet normal 0.392743 302.529541 0.000000
  outer loop
   vertex 293.3726921 98.27532196 -1.567269325 
   vertex 260.873394 98.31751251 -10.87607193 
   vertex 260.873394 98.31751251 -1.567272186 
  endloop
 endfacet
 facet normal 264.768768 149.405762 0.000000
  outer loop
   vertex 309.4225883 69.83247375 -10.87607002 
   vertex 293.3726921 98.27532196 -10.87607002 
   vertex 309.4225883 69.83247375 -1.567269802 
  endloop
 endfacet
 facet normal 264.768829 149.404602 0.000000
  outer loop
   vertex 309.4225883 69.83247375 -1.567269802 
   vertex 293.3726921 98.27532196 -10.87607002 
   vertex 293.3726921 98.27532196 -1.567269325 
  endloop
 endfacet
 facet normal 0.026775 300.949219 0.000000
  outer loop
   vertex 341.7521476 69.82959747 -10.87607002 
   vertex 309.4225883 69.83247375 -10.87607002 
   vertex 341.7521476 69.82959747 -1.567269802 
  endloop
 endfacet
 facet normal 0.026775 300.949707 0.000000
  outer loop
   vertex 341.7521476 69.82959747 -1.567269802 
   vertex 309.4225883 69.83247375 -10.87607002 
   vertex 309.4225883 69.83247375 -1.567269802 
  endloop
 endfacet
 facet normal 251.029083 149.721191 0.000000
  outer loop
   vertex 357.8360404 42.86273956 -10.87607002 
   vertex 341.7521476 69.82959747 -10.87607002 
   vertex 357.8360404 42.86273956 -1.567269325 
  endloop
 endfacet
 facet normal 251.029099 149.722305 0.000000
  outer loop
   vertex 357.8360404 42.86273956 -1.567269325 
   vertex 341.7521476 69.82959747 -10.87607002 
   vertex 341.7521476 69.82959747 -1.567269802 
  endloop
 endfacet
 facet normal -1.933036 -191.061523 0.000000
  outer loop
   vertex 259.9200553 145.4409332 -10.87607002 
   vertex 280.4448661 145.2332764 -10.87607002 
   vertex 259.9200553 145.4409332 -1.567271233 
  endloop
 endfacet
 facet normal -1.933036 -191.060959 0.000000
  outer loop
   vertex 259.9200553 145.4409332 -1.567271233 
   vertex 280.4448661 145.2332764 -10.87607002 
   vertex 280.4448661 145.2332764 -1.567270279 
  endloop
 endfacet
 facet normal 208.499176 -119.556641 0.000000
  outer loop
   vertex 247.0767021 123.0428619 -10.87607002 
   vertex 259.9200553 145.4409332 -10.87607002 
   vertex 247.0767021 123.0428619 -1.567270756 
  endloop
 endfacet
 facet normal 208.499115 -119.555923 0.000000
  outer loop
   vertex 247.0767021 123.0428619 -1.567270756 
   vertex 259.9200553 145.4409332 -10.87607002 
   vertex 259.9200553 145.4409332 -1.567271233 
  endloop
 endfacet
 facet normal -752.954346 -13.280762 0.000000
  outer loop
   vertex 365.2714958 144.375061 -10.87607002 
   vertex 366.6982231 63.48877716 -10.87607002 
   vertex 365.2714958 144.375061 -1.567269325 
  endloop
 endfacet
 facet normal -752.954285 -13.281250 0.000000
  outer loop
   vertex 365.2714958 144.375061 -1.567269325 
   vertex 366.6982231 63.48877716 -10.87607002 
   vertex 366.6982231 63.48877716 -1.567269325 
  endloop
 endfacet
 facet normal -7.988955 -789.634277 0.000000
  outer loop
   vertex 280.4448661 145.2332764 -10.87607002 
   vertex 365.2714958 144.375061 -10.87607002 
   vertex 280.4448661 145.2332764 -1.567270279 
  endloop
 endfacet
 facet normal -7.988955 -789.634094 0.000000
  outer loop
   vertex 280.4448661 145.2332764 -1.567270279 
   vertex 365.2714958 144.375061 -10.87607002 
   vertex 365.2714958 144.375061 -1.567269325 
  endloop
 endfacet
 facet normal -192.121613 -3.389160 0.000000
  outer loop
   vertex 366.6982231 63.48877716 -10.87607002 
   vertex 367.0622978 42.85006714 -10.87607002 
   vertex 366.6982231 63.48877716 -1.567269325 
  endloop
 endfacet
 facet normal -192.121643 -3.389160 0.000000
  outer loop
   vertex 366.6982231 63.48877716 -1.567269325 
   vertex 367.0622978 42.85006714 -10.87607002 
   vertex 367.0622978 42.85006714 -1.567269325 
  endloop
 endfacet
 facet normal 0.117965 85.885254 0.000000
  outer loop
   vertex 367.0622978 42.85006714 -10.87607002 
   vertex 357.8360404 42.86273956 -10.87607002 
   vertex 367.0622978 42.85006714 -1.567269325 
  endloop
 endfacet
 facet normal 0.117965 85.885742 0.000000
  outer loop
   vertex 367.0622978 42.85006714 -1.567269325 
   vertex 357.8360404 42.86273956 -10.87607002 
   vertex 357.8360404 42.86273956 -1.567269325 
  endloop
 endfacet
endsolid
