solid
 facet normal 0.000000 -44.408203 0.000000
  outer loop
   vertex 264.903536 202.9084681 68.69900875 
   vertex 260.2388936 202.9084681 68.69900875 
   vertex 264.903536 202.9084681 59.178932 
  endloop
 endfacet
 facet normal 0.000000 -44.407715 0.000000
  outer loop
   vertex 260.2388936 202.9084681 68.69900875 
   vertex 260.2388936 202.9084681 59.178932 
   vertex 264.903536 202.9084681 59.178932 
  endloop
 endfacet
 facet normal 0.000000 -132.909180 -0.000029
  outer loop
   vertex 264.903536 202.9084681 59.178932 
   vertex 260.2388936 202.9084681 59.178932 
   vertex 264.9035055 202.9084681 30.68613319 
  endloop
 endfacet
 facet normal 0.000000 -132.908203 0.000000
  outer loop
   vertex 260.2388936 202.9084681 59.178932 
   vertex 260.2388936 202.9084681 30.68613319 
   vertex 264.9035055 202.9084681 30.68613319 
  endloop
 endfacet
 facet normal 0.000000 -51.266602 0.000000
  outer loop
   vertex 260.2388936 202.9084681 30.68613319 
   vertex 260.2388936 202.9084681 19.69562702 
   vertex 264.9035055 202.9084681 30.68613319 
  endloop
 endfacet
 facet normal 0.000000 -51.335449 0.000000
  outer loop
   vertex 260.2388936 202.9084681 19.69562702 
   vertex 264.9098226 202.9084681 19.69562702 
   vertex 264.9035055 202.9084681 30.68613319 
  endloop
 endfacet
 facet normal 0.000000 -78.705566 0.000000
  outer loop
   vertex 264.9035055 202.9084681 30.68613319 
   vertex 264.9098226 202.9084681 19.69562702 
   vertex 272.0647603 202.9084681 30.68613319 
  endloop
 endfacet
 facet normal 0.000000 -226.887207 0.000000
  outer loop
   vertex 264.9098226 202.9084681 19.69562702 
   vertex 285.5536825 202.9084681 19.69562702 
   vertex 272.0647603 202.9084681 30.68613319 
  endloop
 endfacet
 facet normal 0.012242 -102.618652 0.015381
  outer loop
   vertex 272.0647603 202.9084681 30.68613319 
   vertex 285.5536825 202.9084681 19.69562702 
   vertex 281.401827 202.909582 30.68613319 
  endloop
 endfacet
 facet normal 0.000000 -287.124512 0.028809
  outer loop
   vertex 281.401827 202.909582 30.68613319 
   vertex 285.5536825 202.9084681 19.69562702 
   vertex 307.5266134 202.909582 30.68613319 
  endloop
 endfacet
 facet normal 0.000000 -904.477539 0.091309
  outer loop
   vertex 285.5536825 202.9084681 19.69562702 
   vertex 367.8499471 202.9084681 19.69562702 
   vertex 307.5266134 202.909582 30.68613319 
  endloop
 endfacet
 facet normal 0.000000 -287.126953 0.029785
  outer loop
   vertex 307.5266134 202.909582 30.68613319 
   vertex 367.8499471 202.9084681 19.69562702 
   vertex 333.6516134 202.909582 30.68613319 
  endloop
 endfacet
 facet normal 0.000000 -287.125488 0.028320
  outer loop
   vertex 333.6516134 202.909582 30.68613319 
   vertex 367.8499471 202.9084681 19.69562702 
   vertex 359.7764608 202.909582 30.68613319 
  endloop
 endfacet
 facet normal 0.000000 -143.727539 0.014160
  outer loop
   vertex 359.7764608 202.909582 30.68613319 
   vertex 367.8499471 202.9084681 19.69562702 
   vertex 372.8539144 202.909582 30.68613319 
  endloop
 endfacet
 facet normal -0.000000 -10.199219 0.001023
  outer loop
   vertex 373.7818319 202.909582 30.68613462 
   vertex 372.8539144 202.909582 30.68613319 
   vertex 373.7713338 202.9084681 19.69562607 
  endloop
 endfacet
 facet normal 0.000000 -65.079102 0.006714
  outer loop
   vertex 367.8499471 202.9084681 19.69562702 
   vertex 373.7713338 202.9084681 19.69562607 
   vertex 372.8539144 202.909582 30.68613319 
  endloop
 endfacet
 facet normal 54.460175 0.010742 -0.052021
  outer loop
   vertex 373.7713338 202.9084681 19.69562607 
   vertex 373.7703267 207.8636683 19.69562607 
   vertex 373.7818319 202.909582 30.68613462 
  endloop
 endfacet
 facet normal 1187.374756 0.316257 -1.101159
  outer loop
   vertex 373.7818319 202.909582 30.68613462 
   vertex 373.7703267 207.8636683 19.69562607 
   vertex 373.7532064 310.9459589 30.68613319 
  endloop
 endfacet
 facet normal 918.064941 0.185547 -0.318970
  outer loop
   vertex 373.7703267 207.8636683 19.69562607 
   vertex 373.753359 291.3962153 19.69562702 
   vertex 373.7532064 310.9459589 30.68613319 
  endloop
 endfacet
 facet normal 226.647980 0.096680 -0.169274
  outer loop
   vertex 373.753359 291.3962153 19.69562702 
   vertex 373.7445394 312.0183771 19.69562702 
   vertex 373.7532064 310.9459589 30.68613319 
  endloop
 endfacet
 facet normal 44.978970 -0.079102 0.000000
  outer loop
   vertex 373.7517415 316.1109064 19.69562702 
   vertex 373.7517415 316.1109064 30.68613319 
   vertex 373.7445394 312.0183771 19.69562702 
  endloop
 endfacet
 facet normal 56.765388 0.016602 -0.043194
  outer loop
   vertex 373.7445394 312.0183771 19.69562702 
   vertex 373.7517415 316.1109064 30.68613319 
   vertex 373.7532064 310.9459589 30.68613319 
  endloop
 endfacet
 facet normal 147.163788 0.041016 0.000000
  outer loop
   vertex 373.7517415 316.1109064 30.68613319 
   vertex 373.7517415 316.1108759 59.17893009 
   vertex 373.7532064 310.9459589 30.68613319 
  endloop
 endfacet
 facet normal 147.162933 0.042969 0.000000
  outer loop
   vertex 373.7532064 310.9459589 30.68613319 
   vertex 373.7517415 316.1108759 59.17893009 
   vertex 373.7532064 310.9459589 59.17893009 
  endloop
 endfacet
 facet normal 49.170441 0.014160 0.000000
  outer loop
   vertex 373.7517415 316.1108759 59.17893009 
   vertex 373.7517415 316.1109064 68.69901638 
   vertex 373.7532064 310.9459589 59.17893009 
  endloop
 endfacet
 facet normal 49.171356 0.013672 0.000000
  outer loop
   vertex 373.7517415 316.1109064 68.69901638 
   vertex 373.7532064 310.9458979 68.69901256 
   vertex 373.7532064 310.9459589 59.17893009 
  endloop
 endfacet
 facet normal -26.606369 15.032227 0.000000
  outer loop
   vertex 292.9558431 260.7686518 51.4783266 
   vertex 293.6788045 262.0482843 51.4783266 
   vertex 292.9558431 260.7686518 30.68613319 
  endloop
 endfacet
 facet normal -592.488586 334.734375 0.000488
  outer loop
   vertex 292.9558431 260.7686518 30.68613319 
   vertex 293.6788045 262.0482843 51.4783266 
   vertex 309.0549337 289.2643793 30.68613319 
  endloop
 endfacet
 facet normal -209.580444 118.405273 0.000000
  outer loop
   vertex 293.6788045 262.0482843 59.178932 
   vertex 309.0549337 289.2643793 59.178932 
   vertex 293.6788045 262.0482843 51.4783266 
  endloop
 endfacet
 facet normal -775.462708 438.108398 0.000000
  outer loop
   vertex 293.6788045 262.0482843 51.4783266 
   vertex 309.0549337 289.2643793 59.178932 
   vertex 309.0549337 289.2643793 30.68613319 
  endloop
 endfacet
 facet normal -8.720459 4.926758 0.000000
  outer loop
   vertex 292.9558431 260.7686518 61.88419704 
   vertex 292.9558431 260.7686518 68.69901638 
   vertex 293.6788045 262.0482843 61.88419704 
  endloop
 endfacet
 facet normal -194.193207 109.711914 -0.000397
  outer loop
   vertex 292.9558431 260.7686518 68.69901638 
   vertex 309.0549337 289.2643793 68.69900875 
   vertex 293.6788045 262.0482843 61.88419704 
  endloop
 endfacet
 facet normal -259.099243 146.382324 0.000000
  outer loop
   vertex 309.0549337 289.2643793 59.178932 
   vertex 293.6788045 262.0482843 59.178932 
   vertex 309.0549337 289.2643793 68.69900875 
  endloop
 endfacet
 facet normal -73.626831 41.596802 0.000000
  outer loop
   vertex 293.6788045 262.0482843 61.88419704 
   vertex 309.0549337 289.2643793 68.69900875 
   vertex 293.6788045 262.0482843 59.178932 
  endloop
 endfacet
 facet normal 0.000000 0.000000 -3.366211
  outer loop
   vertex 293.6788045 262.0482843 61.88419704 
   vertex 293.6788045 257.3921412 61.88419704 
   vertex 292.9558431 260.7686518 61.88419704 
  endloop
 endfacet
 facet normal 0.000000 0.000000 -84.861420
  outer loop
   vertex 293.6788045 257.3921412 61.88419704 
   vertex 268.5523702 257.3624628 61.88419704 
   vertex 292.9558431 260.7686518 61.88419704 
  endloop
 endfacet
 facet normal 0.000000 0.000000 -82.406250
  outer loop
   vertex 268.5523702 257.3624628 61.88419704 
   vertex 268.5523702 260.7392939 61.88419704 
   vertex 292.9558431 260.7686518 61.88419704 
  endloop
 endfacet
 facet normal 0.000000 0.000025 141.498901
  outer loop
   vertex 296.2913534 257.3952387 68.69901638 
   vertex 311.7261373 284.2069758 68.69900875 
   vertex 292.9558431 260.7686518 68.69901638 
  endloop
 endfacet
 facet normal 0.000000 0.000020 157.537109
  outer loop
   vertex 292.9558431 260.7686518 68.69901638 
   vertex 311.7261373 284.2069758 68.69900875 
   vertex 309.0549337 289.2643793 68.69900875 
  endloop
 endfacet
 facet normal 0.000023 0.000005 156.667969
  outer loop
   vertex 342.7188131 284.1838739 68.69900493 
   vertex 341.3815328 289.239889 68.69900493 
   vertex 311.7261373 284.2069758 68.69900875 
  endloop
 endfacet
 facet normal 0.000000 0.000010 163.423828
  outer loop
   vertex 311.7261373 284.2069758 68.69900875 
   vertex 341.3815328 289.239889 68.69900493 
   vertex 309.0549337 289.2643793 68.69900875 
  endloop
 endfacet
 facet normal 0.233150 307.751953 0.000000
  outer loop
   vertex 341.3815328 289.239889 59.17892246 
   vertex 309.0549337 289.2643793 59.178932 
   vertex 341.3815328 289.239889 68.69900493 
  endloop
 endfacet
 facet normal 0.233150 307.751648 0.000000
  outer loop
   vertex 341.3815328 289.239889 68.69900493 
   vertex 309.0549337 289.2643793 59.178932 
   vertex 309.0549337 289.2643793 68.69900875 
  endloop
 endfacet
 facet normal 0.697799 921.076172 0.000000
  outer loop
   vertex 341.3815328 289.239889 30.68613319 
   vertex 309.0549337 289.2643793 30.68613319 
   vertex 341.3815328 289.239889 59.17892246 
  endloop
 endfacet
 facet normal 0.697799 921.076904 0.000000
  outer loop
   vertex 341.3815328 289.239889 59.17892246 
   vertex 309.0549337 289.2643793 30.68613319 
   vertex 309.0549337 289.2643793 59.178932 
  endloop
 endfacet
 facet normal 0.269161 355.285645 0.000000
  outer loop
   vertex 309.0549337 289.2643793 30.68613319 
   vertex 341.3815328 289.239889 30.68613319 
   vertex 309.0549337 289.2643793 19.69562702 
  endloop
 endfacet
 facet normal 0.269161 355.285645 0.000000
  outer loop
   vertex 309.0549337 289.2643793 19.69562702 
   vertex 341.3815328 289.239889 30.68613319 
   vertex 341.3815328 289.239889 19.69562702 
  endloop
 endfacet
 facet normal -313.182465 176.937500 0.000000
  outer loop
   vertex 292.9558431 260.7686518 30.68613319 
   vertex 309.0549337 289.2643793 30.68613319 
   vertex 292.9558431 260.7686518 19.69562702 
  endloop
 endfacet
 facet normal -313.182495 176.936523 0.000000
  outer loop
   vertex 292.9558431 260.7686518 19.69562702 
   vertex 309.0549337 289.2643793 30.68613319 
   vertex 309.0549337 289.2643793 19.69562702 
  endloop
 endfacet
 facet normal -0.428646 356.132324 0.000000
  outer loop
   vertex 260.5522176 260.7296503 30.68613319 
   vertex 292.9558431 260.7686518 30.68613319 
   vertex 260.5522176 260.7296503 19.69562702 
  endloop
 endfacet
 facet normal -0.428646 356.132324 0.000000
  outer loop
   vertex 260.5522176 260.7296503 19.69562702 
   vertex 292.9558431 260.7686518 30.68613319 
   vertex 292.9558431 260.7686518 19.69562702 
  endloop
 endfacet
 facet normal -0.610415 507.401367 0.000000
  outer loop
   vertex 292.9558431 260.7686518 51.4783266 
   vertex 292.9558431 260.7686518 30.68613319 
   vertex 268.5523702 260.7392939 51.4783266 
  endloop
 endfacet
 facet normal -0.810926 673.743164 0.000000
  outer loop
   vertex 292.9558431 260.7686518 30.68613319 
   vertex 260.5522176 260.7296503 30.68613319 
   vertex 268.5523702 260.7392939 51.4783266 
  endloop
 endfacet
 facet normal -0.274772 227.945313 0.000000
  outer loop
   vertex 260.5522176 260.7296503 59.178932 
   vertex 268.5523702 260.7392939 59.178932 
   vertex 260.5522176 260.7296503 30.68613319 
  endloop
 endfacet
 facet normal -0.074261 61.607910 0.000000
  outer loop
   vertex 268.5523702 260.7392939 51.4783266 
   vertex 260.5522176 260.7296503 30.68613319 
   vertex 268.5523702 260.7392939 59.178932 
  endloop
 endfacet
 facet normal -0.026088 21.642578 0.000000
  outer loop
   vertex 268.5523702 260.7392939 59.178932 
   vertex 260.5522176 260.7296503 59.178932 
   vertex 268.5523702 260.7392939 61.88419704 
  endloop
 endfacet
 facet normal -0.091807 76.161987 0.000000
  outer loop
   vertex 260.5522176 260.7296503 59.178932 
   vertex 260.5522176 260.7296503 68.69900875 
   vertex 268.5523702 260.7392939 61.88419704 
  endloop
 endfacet
 facet normal -0.265788 220.825195 0.000000
  outer loop
   vertex 260.5522176 260.7296503 68.69900875 
   vertex 292.9558431 260.7686518 68.69901638 
   vertex 268.5523702 260.7392939 61.88419704 
  endloop
 endfacet
 facet normal -0.200069 166.305176 0.000000
  outer loop
   vertex 268.5523702 260.7392939 61.88419704 
   vertex 292.9558431 260.7686518 68.69901638 
   vertex 292.9558431 260.7686518 61.88419704 
  endloop
 endfacet
 facet normal -0.000040 -0.000025 104.922852
  outer loop
   vertex 296.2913534 257.3952387 68.69901638 
   vertex 292.9558431 260.7686518 68.69901638 
   vertex 265.224764 257.358526 68.69900875 
  endloop
 endfacet
 facet normal -0.000031 -0.000036 109.419189
  outer loop
   vertex 265.224764 257.358526 68.69900875 
   vertex 292.9558431 260.7686518 68.69901638 
   vertex 260.5522176 260.7296503 68.69900875 
  endloop
 endfacet
 facet normal 0.000122 0.000000 -142.850586
  outer loop
   vertex 258.9659444 257.8745936 61.88419704 
   vertex 263.8895284 255.0319574 61.88419704 
   vertex 246.7611104 235.9075373 61.88419704 
  endloop
 endfacet
 facet normal -0.000092 0.000000 -134.088013
  outer loop
   vertex 246.7611104 235.9075373 61.88419704 
   vertex 263.8895284 255.0319574 61.88419704 
   vertex 251.3826925 233.2392786 61.88419704 
  endloop
 endfacet
 facet normal 0.000046 0.000000 134.088013
  outer loop
   vertex 251.3826925 233.2392786 51.4783266 
   vertex 263.8895284 255.0319574 51.4783266 
   vertex 246.7611104 235.9075373 51.4783266 
  endloop
 endfacet
 facet normal 0.000000 0.000000 142.850586
  outer loop
   vertex 246.7611104 235.9075373 51.4783266 
   vertex 263.8895284 255.0319574 51.4783266 
   vertex 258.9659444 257.8745936 51.4783266 
  endloop
 endfacet
 facet normal -21.890015 -37.914551 0.000000
  outer loop
   vertex 258.9659444 257.8745936 51.4783266 
   vertex 263.8895284 255.0319574 51.4783266 
   vertex 258.9659444 257.8745936 59.178932 
  endloop
 endfacet
 facet normal -21.890030 -37.914551 0.000000
  outer loop
   vertex 263.8895284 255.0319574 51.4783266 
   vertex 263.8895284 255.0319574 59.178932 
   vertex 258.9659444 257.8745936 59.178932 
  endloop
 endfacet
 facet normal -7.690079 -13.319702 0.000000
  outer loop
   vertex 263.8895284 255.0319574 59.178932 
   vertex 263.8895284 255.0319574 61.88419704 
   vertex 258.9659444 257.8745936 59.178932 
  endloop
 endfacet
 facet normal -7.690079 -13.319580 0.000000
  outer loop
   vertex 263.8895284 255.0319574 61.88419704 
   vertex 258.9659444 257.8745936 61.88419704 
   vertex 258.9659444 257.8745936 59.178932 
  endloop
 endfacet
 facet normal 7.218353 12.502563 0.000000
  outer loop
   vertex 246.7611104 235.9075373 61.88419704 
   vertex 251.3826925 233.2392786 61.88419704 
   vertex 246.7611104 235.9075373 59.178932 
  endloop
 endfacet
 facet normal 7.218338 12.502563 0.000000
  outer loop
   vertex 251.3826925 233.2392786 61.88419704 
   vertex 251.3826925 233.2392786 59.178932 
   vertex 246.7611104 235.9075373 59.178932 
  endloop
 endfacet
 facet normal 20.547211 35.588867 0.000000
  outer loop
   vertex 246.7611104 235.9075373 59.178932 
   vertex 251.3826925 233.2392786 59.178932 
   vertex 246.7611104 235.9075373 51.4783266 
  endloop
 endfacet
 facet normal 20.547211 35.588867 0.000000
  outer loop
   vertex 251.3826925 233.2392786 59.178932 
   vertex 251.3826925 233.2392786 51.4783266 
   vertex 246.7611104 235.9075373 51.4783266 
  endloop
 endfacet
 facet normal -0.000015 0.000000 3.366211
  outer loop
   vertex 293.6788045 262.0482843 51.4783266 
   vertex 292.9558431 260.7686518 51.4783266 
   vertex 293.6788045 257.3921412 51.4783266 
  endloop
 endfacet
 facet normal 0.000003 0.000000 84.861328
  outer loop
   vertex 293.6788045 257.3921412 51.4783266 
   vertex 292.9558431 260.7686518 51.4783266 
   vertex 268.5523702 257.3624628 51.4783266 
  endloop
 endfacet
 facet normal 0.000000 0.000000 82.406250
  outer loop
   vertex 292.9558431 260.7686518 51.4783266 
   vertex 268.5523702 260.7392939 51.4783266 
   vertex 268.5523702 257.3624628 51.4783266 
  endloop
 endfacet
 facet normal -35.855118 0.000000 0.000000
  outer loop
   vertex 293.6788045 262.0482843 51.4783266 
   vertex 293.6788045 257.3921412 51.4783266 
   vertex 293.6788045 262.0482843 59.178932 
  endloop
 endfacet
 facet normal -35.855133 0.000000 0.000000
  outer loop
   vertex 293.6788045 257.3921412 51.4783266 
   vertex 293.6788045 257.3921412 59.178932 
   vertex 293.6788045 262.0482843 59.178932 
  endloop
 endfacet
 facet normal -12.596100 0.000000 0.000000
  outer loop
   vertex 293.6788045 257.3921412 59.178932 
   vertex 293.6788045 257.3921412 61.88419704 
   vertex 293.6788045 262.0482843 59.178932 
  endloop
 endfacet
 facet normal -12.596100 0.000000 0.000000
  outer loop
   vertex 293.6788045 257.3921412 61.88419704 
   vertex 293.6788045 262.0482843 61.88419704 
   vertex 293.6788045 262.0482843 59.178932 
  endloop
 endfacet
 facet normal 0.008380 -7.067749 0.000000
  outer loop
   vertex 293.6788045 257.3921412 59.178932 
   vertex 296.2913534 257.3952387 59.178932 
   vertex 293.6788045 257.3921412 61.88419704 
  endloop
 endfacet
 facet normal 0.029489 -24.871338 0.000000
  outer loop
   vertex 296.2913534 257.3952387 59.178932 
   vertex 296.2913534 257.3952387 68.69901638 
   vertex 293.6788045 257.3921412 61.88419704 
  endloop
 endfacet
 facet normal 0.250190 -211.713135 -0.000244
  outer loop
   vertex 296.2913534 257.3952387 68.69901638 
   vertex 265.224764 257.358526 68.69900875 
   vertex 293.6788045 257.3921412 61.88419704 
  endloop
 endfacet
 facet normal 0.037478 -31.679199 0.000000
  outer loop
   vertex 265.224764 257.358526 59.178932 
   vertex 268.5523702 257.3624628 59.178932 
   vertex 265.224764 257.358526 68.69900875 
  endloop
 endfacet
 facet normal 0.010650 -9.001953 0.000000
  outer loop
   vertex 268.5523702 257.3624628 59.178932 
   vertex 268.5523702 257.3624628 61.88419704 
   vertex 265.224764 257.358526 68.69900875 
  endloop
 endfacet
 facet normal 0.202252 -171.231689 0.000977
  outer loop
   vertex 268.5523702 257.3624628 61.88419704 
   vertex 293.6788045 257.3921412 61.88419704 
   vertex 265.224764 257.358526 68.69900875 
  endloop
 endfacet
 facet normal 26.003647 0.000000 0.000000
  outer loop
   vertex 268.5523702 257.3624628 51.4783266 
   vertex 268.5523702 260.7392939 51.4783266 
   vertex 268.5523702 257.3624628 59.178932 
  endloop
 endfacet
 facet normal 26.003647 0.000000 0.000000
  outer loop
   vertex 268.5523702 260.7392939 51.4783266 
   vertex 268.5523702 260.7392939 59.178932 
   vertex 268.5523702 257.3624628 59.178932 
  endloop
 endfacet
 facet normal 9.135223 0.000000 0.000000
  outer loop
   vertex 268.5523702 257.3624628 59.178932 
   vertex 268.5523702 260.7392939 59.178932 
   vertex 268.5523702 257.3624628 61.88419704 
  endloop
 endfacet
 facet normal 9.135223 0.000000 0.000000
  outer loop
   vertex 268.5523702 260.7392939 59.178932 
   vertex 268.5523702 260.7392939 61.88419704 
   vertex 268.5523702 257.3624628 61.88419704 
  endloop
 endfacet
 facet normal 255.250122 -146.940918 0.000000
  outer loop
   vertex 296.2913534 257.3952387 59.178932 
   vertex 311.7261373 284.2069758 59.178932 
   vertex 296.2913534 257.3952387 68.69901638 
  endloop
 endfacet
 facet normal 255.249756 -146.940002 0.000000
  outer loop
   vertex 296.2913534 257.3952387 68.69901638 
   vertex 311.7261373 284.2069758 59.178932 
   vertex 311.7261373 284.2069758 68.69900875 
  endloop
 endfacet
 facet normal -0.219931 -295.052246 0.000000
  outer loop
   vertex 311.7261373 284.2069758 59.178932 
   vertex 342.7188131 284.1838739 59.17892246 
   vertex 311.7261373 284.2069758 68.69900875 
  endloop
 endfacet
 facet normal -0.219931 -295.052948 0.000000
  outer loop
   vertex 311.7261373 284.2069758 68.69900875 
   vertex 342.7188131 284.1838739 59.17892246 
   vertex 342.7188131 284.1838739 68.69900493 
  endloop
 endfacet
 facet normal 255.648438 -148.223145 0.000000
  outer loop
   vertex 342.7188131 284.1838739 59.17892246 
   vertex 358.2883321 311.0374506 59.17892818 
   vertex 342.7188131 284.1838739 68.69900493 
  endloop
 endfacet
 facet normal 255.648193 -148.223251 0.000000
  outer loop
   vertex 342.7188131 284.1838739 68.69900493 
   vertex 358.2883321 311.0374506 59.17892818 
   vertex 358.2883321 311.0374506 68.69900875 
  endloop
 endfacet
 facet normal -0.000061 -0.000005 114.631104
  outer loop
   vertex 342.7188131 284.1838739 68.69900493 
   vertex 358.2883321 311.0374506 68.69900875 
   vertex 341.3815328 289.239889 68.69900493 
  endloop
 endfacet
 facet normal 0.000244 -0.000003 101.941895
  outer loop
   vertex 341.3815328 289.239889 68.69900493 
   vertex 358.2883321 311.0374506 68.69900875 
   vertex 357.6210653 316.2068232 68.69900875 
  endloop
 endfacet
 facet normal -256.727417 154.601563 0.000000
  outer loop
   vertex 357.6210653 316.2068232 59.17892818 
   vertex 341.3815328 289.239889 59.17892246 
   vertex 357.6210653 316.2068232 68.69900875 
  endloop
 endfacet
 facet normal -256.727661 154.602158 0.000000
  outer loop
   vertex 357.6210653 316.2068232 68.69900875 
   vertex 341.3815328 289.239889 59.17892246 
   vertex 341.3815328 289.239889 68.69900493 
  endloop
 endfacet
 facet normal -768.363342 462.708984 0.000000
  outer loop
   vertex 357.6210653 316.2068232 30.68613319 
   vertex 341.3815328 289.239889 30.68613319 
   vertex 357.6210653 316.2068232 59.17892818 
  endloop
 endfacet
 facet normal -768.363098 462.708649 0.000000
  outer loop
   vertex 357.6210653 316.2068232 59.17892818 
   vertex 341.3815328 289.239889 30.68613319 
   vertex 341.3815328 289.239889 59.17892246 
  endloop
 endfacet
 facet normal -296.380280 178.480957 0.000000
  outer loop
   vertex 341.3815328 289.239889 30.68613319 
   vertex 357.6210653 316.2068232 30.68613319 
   vertex 341.3815328 289.239889 19.69562702 
  endloop
 endfacet
 facet normal -296.380219 178.480469 0.000000
  outer loop
   vertex 341.3815328 289.239889 19.69562702 
   vertex 357.6210653 316.2068232 30.68613319 
   vertex 357.6210653 316.2068232 19.69562702 
  endloop
 endfacet
 facet normal 0.000000 0.000000 -128.172852
  outer loop
   vertex 357.6210653 316.2068232 19.69562702 
   vertex 359.9137899 312.121435 19.69562702 
   vertex 341.3815328 289.239889 19.69562702 
  endloop
 endfacet
 facet normal -0.000008 0.000000 -128.492065
  outer loop
   vertex 341.3815328 289.239889 19.69562702 
   vertex 359.9137899 312.121435 19.69562702 
   vertex 343.6882039 285.1544855 19.69562702 
  endloop
 endfacet
 facet normal 0.000008 0.000000 -129.919556
  outer loop
   vertex 309.0549337 289.2643793 19.69562702 
   vertex 341.3815328 289.239889 19.69562702 
   vertex 311.3993856 285.2436579 19.69562702 
  endloop
 endfacet
 facet normal 0.000000 0.000000 -131.707031
  outer loop
   vertex 311.3993856 285.2436579 19.69562702 
   vertex 341.3815328 289.239889 19.69562702 
   vertex 343.6882039 285.1544855 19.69562702 
  endloop
 endfacet
 facet normal 0.000000 0.000000 -131.536621
  outer loop
   vertex 309.0549337 289.2643793 19.69562702 
   vertex 311.3993856 285.2436579 19.69562702 
   vertex 292.9558431 260.7686518 19.69562702 
  endloop
 endfacet
 facet normal 0.000053 0.000000 -131.666809
  outer loop
   vertex 292.9558431 260.7686518 19.69562702 
   vertex 311.3993856 285.2436579 19.69562702 
   vertex 295.305544 256.7478693 19.69562702 
  endloop
 endfacet
 facet normal 0.000000 0.000000 -129.835205
  outer loop
   vertex 260.5522176 260.7296503 19.69562702 
   vertex 292.9558431 260.7686518 19.69562702 
   vertex 262.9112874 256.725683 19.69562702 
  endloop
 endfacet
 facet normal -0.000002 0.000000 -130.302734
  outer loop
   vertex 262.9112874 256.725683 19.69562702 
   vertex 292.9558431 260.7686518 19.69562702 
   vertex 295.305544 256.7478693 19.69562702 
  endloop
 endfacet
 facet normal 0.000000 0.000000 -132.868164
  outer loop
   vertex 260.5522176 260.7296503 19.69562702 
   vertex 262.9112874 256.725683 19.69562702 
   vertex 244.446932 231.7423151 19.69562702 
  endloop
 endfacet
 facet normal 0.000021 0.000000 -116.515625
  outer loop
   vertex 244.446932 231.7423151 19.69562702 
   vertex 262.9112874 256.725683 19.69562702 
   vertex 249.1378499 231.7790888 19.69562702 
  endloop
 endfacet
 facet normal -318.585480 177.005371 0.000000
  outer loop
   vertex 244.446932 231.7423151 30.68613319 
   vertex 260.5522176 260.7296503 30.68613319 
   vertex 244.446932 231.7423151 19.69562702 
  endloop
 endfacet
 facet normal -318.585480 177.005371 0.000000
  outer loop
   vertex 244.446932 231.7423151 19.69562702 
   vertex 260.5522176 260.7296503 30.68613319 
   vertex 260.5522176 260.7296503 19.69562702 
  endloop
 endfacet
 facet normal -21.985672 12.214844 0.000000
  outer loop
   vertex 258.9659444 257.8745936 59.178932 
   vertex 260.5522176 260.7296503 59.178932 
   vertex 258.9659444 257.8745936 51.4783266 
  endloop
 endfacet
 facet normal -81.348549 45.197754 0.000000
  outer loop
   vertex 260.5522176 260.7296503 59.178932 
   vertex 260.5522176 260.7296503 30.68613319 
   vertex 258.9659444 257.8745936 51.4783266 
  endloop
 endfacet
 facet normal -602.710266 334.863281 0.000183
  outer loop
   vertex 260.5522176 260.7296503 30.68613319 
   vertex 244.446932 231.7423151 30.68613319 
   vertex 258.9659444 257.8745936 51.4783266 
  endloop
 endfacet
 facet normal -118.678825 65.938477 0.000000
  outer loop
   vertex 244.446932 231.7423151 59.178932 
   vertex 246.7611104 235.9075373 59.178932 
   vertex 244.446932 231.7423151 30.68613319 
  endloop
 endfacet
 facet normal -32.074745 17.821289 0.000000
  outer loop
   vertex 246.7611104 235.9075373 59.178932 
   vertex 246.7611104 235.9075373 51.4783266 
   vertex 244.446932 231.7423151 30.68613319 
  endloop
 endfacet
 facet normal -456.743317 253.764648 -0.000671
  outer loop
   vertex 246.7611104 235.9075373 51.4783266 
   vertex 258.9659444 257.8745936 51.4783266 
   vertex 244.446932 231.7423151 30.68613319 
  endloop
 endfacet
 facet normal -11.268036 6.260376 0.000000
  outer loop
   vertex 246.7611104 235.9075373 59.178932 
   vertex 244.446932 231.7423151 59.178932 
   vertex 246.7611104 235.9075373 61.88419704 
  endloop
 endfacet
 facet normal -39.653229 22.031616 0.000000
  outer loop
   vertex 244.446932 231.7423151 59.178932 
   vertex 244.446932 231.7423151 68.69900875 
   vertex 246.7611104 235.9075373 61.88419704 
  endloop
 endfacet
 facet normal -197.543152 109.753906 0.000183
  outer loop
   vertex 244.446932 231.7423151 68.69900875 
   vertex 260.5522176 260.7296503 68.69900875 
   vertex 246.7611104 235.9075373 61.88419704 
  endloop
 endfacet
 facet normal -27.180359 15.101563 0.000000
  outer loop
   vertex 260.5522176 260.7296503 59.178932 
   vertex 258.9659444 257.8745936 59.178932 
   vertex 260.5522176 260.7296503 68.69900875 
  endloop
 endfacet
 facet normal -7.723694 4.291504 0.000000
  outer loop
   vertex 258.9659444 257.8745936 59.178932 
   vertex 258.9659444 257.8745936 61.88419704 
   vertex 260.5522176 260.7296503 68.69900875 
  endloop
 endfacet
 facet normal -149.701294 83.173584 0.000488
  outer loop
   vertex 246.7611104 235.9075373 61.88419704 
   vertex 260.5522176 260.7296503 68.69900875 
   vertex 258.9659444 257.8745936 61.88419704 
  endloop
 endfacet
 facet normal 0.000244 0.000000 177.767578
  outer loop
   vertex 265.224764 257.358526 68.69900875 
   vertex 260.5522176 260.7296503 68.69900875 
   vertex 249.7839986 230.4536188 68.69900875 
  endloop
 endfacet
 facet normal -0.000237 0.000000 175.462158
  outer loop
   vertex 249.7839986 230.4536188 68.69900875 
   vertex 260.5522176 260.7296503 68.69900875 
   vertex 244.446932 231.7423151 68.69900875 
  endloop
 endfacet
 facet normal 0.000000 0.000000 -100.169678
  outer loop
   vertex 247.7527791 226.0062006 61.88419704 
   vertex 251.2052938 227.9995173 61.88419704 
   vertex 260.2992574 204.2363947 61.88419704 
  endloop
 endfacet
 facet normal -0.000015 0.000000 -101.509766
  outer loop
   vertex 260.2992574 204.2363947 61.88419704 
   vertex 251.2052938 227.9995173 61.88419704 
   vertex 263.7979452 206.2563837 61.88419704 
  endloop
 endfacet
 facet normal 6.293991 -3.612183 0.000000
  outer loop
   vertex 263.8895284 255.0319574 59.178932 
   vertex 265.224764 257.358526 59.178932 
   vertex 263.8895284 255.0319574 61.88419704 
  endloop
 endfacet
 facet normal 22.149109 -12.711548 0.000000
  outer loop
   vertex 265.224764 257.358526 59.178932 
   vertex 265.224764 257.358526 68.69900875 
   vertex 263.8895284 255.0319574 61.88419704 
  endloop
 endfacet
 facet normal 183.351837 -105.226074 -0.000488
  outer loop
   vertex 265.224764 257.358526 68.69900875 
   vertex 249.7839986 230.4536188 68.69900875 
   vertex 263.8895284 255.0319574 61.88419704 
  endloop
 endfacet
 facet normal 26.519684 -15.219727 0.000000
  outer loop
   vertex 249.7839986 230.4536188 59.178932 
   vertex 251.3826925 233.2392786 59.178932 
   vertex 249.7839986 230.4536188 68.69900875 
  endloop
 endfacet
 facet normal 7.535950 -4.324707 0.000000
  outer loop
   vertex 251.3826925 233.2392786 59.178932 
   vertex 251.3826925 233.2392786 61.88419704 
   vertex 249.7839986 230.4536188 68.69900875 
  endloop
 endfacet
 facet normal 148.513062 -85.231689 0.000000
  outer loop
   vertex 263.8895284 255.0319574 61.88419704 
   vertex 249.7839986 230.4536188 68.69900875 
   vertex 251.3826925 233.2392786 61.88419704 
  endloop
 endfacet
 facet normal 15.349739 -26.586426 0.000000
  outer loop
   vertex 247.7527791 226.0062006 51.4783266 
   vertex 251.2052938 227.9995173 51.4783266 
   vertex 247.7527791 226.0062006 59.178932 
  endloop
 endfacet
 facet normal 15.349747 -26.586426 0.000000
  outer loop
   vertex 251.2052938 227.9995173 51.4783266 
   vertex 251.2052938 227.9995173 59.178932 
   vertex 247.7527791 226.0062006 59.178932 
  endloop
 endfacet
 facet normal 5.392448 -9.339966 0.000000
  outer loop
   vertex 251.2052938 227.9995173 59.178932 
   vertex 251.2052938 227.9995173 61.88419704 
   vertex 247.7527791 226.0062006 59.178932 
  endloop
 endfacet
 facet normal 5.392448 -9.339966 0.000000
  outer loop
   vertex 251.2052938 227.9995173 61.88419704 
   vertex 247.7527791 226.0062006 61.88419704 
   vertex 247.7527791 226.0062006 59.178932 
  endloop
 endfacet
 facet normal -5.464607 9.464966 0.000000
  outer loop
   vertex 260.2992574 204.2363947 61.88419704 
   vertex 263.7979452 206.2563837 61.88419704 
   vertex 260.2992574 204.2363947 59.178932 
  endloop
 endfacet
 facet normal -5.464607 9.464722 0.000000
  outer loop
   vertex 263.7979452 206.2563837 61.88419704 
   vertex 263.7979452 206.2563837 59.178932 
   vertex 260.2992574 204.2363947 59.178932 
  endloop
 endfacet
 facet normal -15.555145 26.942383 0.000000
  outer loop
   vertex 260.2992574 204.2363947 59.178932 
   vertex 263.7979452 206.2563837 59.178932 
   vertex 260.2992574 204.2363947 51.4783266 
  endloop
 endfacet
 facet normal -15.555130 26.941406 0.000000
  outer loop
   vertex 263.7979452 206.2563837 59.178932 
   vertex 263.7979757 206.2563837 51.4783266 
   vertex 260.2992574 204.2363947 51.4783266 
  endloop
 endfacet
 facet normal 0.000000 0.000000 101.510010
  outer loop
   vertex 260.2992574 204.2363947 51.4783266 
   vertex 263.7979757 206.2563837 51.4783266 
   vertex 247.7527791 226.0062006 51.4783266 
  endloop
 endfacet
 facet normal -0.000038 0.000000 100.169800
  outer loop
   vertex 247.7527791 226.0062006 51.4783266 
   vertex 263.7979757 206.2563837 51.4783266 
   vertex 251.2052938 227.9995173 51.4783266 
  endloop
 endfacet
 facet normal 21.451279 -12.310547 0.000000
  outer loop
   vertex 251.3826925 233.2392786 59.178932 
   vertex 249.7839986 230.4536188 59.178932 
   vertex 251.3826925 233.2392786 51.4783266 
  endloop
 endfacet
 facet normal 79.371239 -45.552734 0.000000
  outer loop
   vertex 249.7839986 230.4536188 59.178932 
   vertex 249.7839986 230.4536188 30.68613319 
   vertex 251.3826925 233.2392786 51.4783266 
  endloop
 endfacet
 facet normal 559.412048 -321.047852 0.000183
  outer loop
   vertex 249.7839986 230.4536188 30.68613319 
   vertex 265.224764 257.358526 30.68613319 
   vertex 251.3826925 233.2392786 51.4783266 
  endloop
 endfacet
 facet normal 66.290451 -38.043945 0.000000
  outer loop
   vertex 265.224764 257.358526 59.178932 
   vertex 263.8895284 255.0319574 59.178932 
   vertex 265.224764 257.358526 30.68613319 
  endloop
 endfacet
 facet normal 17.915989 -10.280273 0.000000
  outer loop
   vertex 263.8895284 255.0319574 59.178932 
   vertex 263.8895284 255.0319574 51.4783266 
   vertex 265.224764 257.358526 30.68613319 
  endloop
 endfacet
 facet normal 453.117584 -260.044922 0.000488
  outer loop
   vertex 251.3826925 233.2392786 51.4783266 
   vertex 265.224764 257.358526 30.68613319 
   vertex 263.8895284 255.0319574 51.4783266 
  endloop
 endfacet
 facet normal 0.030316 -25.624512 0.000000
  outer loop
   vertex 268.5523702 257.3624628 59.178932 
   vertex 265.224764 257.358526 59.178932 
   vertex 268.5523702 257.3624628 51.4783266 
  endloop
 endfacet
 facet normal 0.112170 -94.814453 0.000000
  outer loop
   vertex 265.224764 257.358526 59.178932 
   vertex 265.224764 257.358526 30.68613319 
   vertex 268.5523702 257.3624628 51.4783266 
  endloop
 endfacet
 facet normal 0.763336 -645.941406 0.000000
  outer loop
   vertex 265.224764 257.358526 30.68613319 
   vertex 296.2913534 257.3952387 30.68613319 
   vertex 268.5523702 257.3624628 51.4783266 
  endloop
 endfacet
 facet normal 0.088257 -74.439453 0.000000
  outer loop
   vertex 296.2913534 257.3952387 59.178932 
   vertex 293.6788045 257.3921412 59.178932 
   vertex 296.2913534 257.3952387 30.68613319 
  endloop
 endfacet
 facet normal 0.023853 -20.115234 0.000000
  outer loop
   vertex 293.6788045 257.3921412 59.178932 
   vertex 293.6788045 257.3921412 51.4783266 
   vertex 296.2913534 257.3952387 30.68613319 
  endloop
 endfacet
 facet normal 0.617078 -522.434570 -0.000977
  outer loop
   vertex 268.5523702 257.3624628 51.4783266 
   vertex 296.2913534 257.3952387 30.68613319 
   vertex 293.6788045 257.3921412 51.4783266 
  endloop
 endfacet
 facet normal 763.941467 -439.781250 0.000000
  outer loop
   vertex 296.2913534 257.3952387 30.68613319 
   vertex 311.7261373 284.2069758 30.68613319 
   vertex 296.2913534 257.3952387 59.178932 
  endloop
 endfacet
 facet normal 763.941345 -439.779297 0.000000
  outer loop
   vertex 296.2913534 257.3952387 59.178932 
   vertex 311.7261373 284.2069758 30.68613319 
   vertex 311.7261373 284.2069758 59.178932 
  endloop
 endfacet
 facet normal -0.658235 -883.068359 0.000000
  outer loop
   vertex 311.7261373 284.2069758 30.68613319 
   vertex 342.7188131 284.1838739 30.68613319 
   vertex 311.7261373 284.2069758 59.178932 
  endloop
 endfacet
 facet normal -0.658235 -883.069092 0.000000
  outer loop
   vertex 311.7261373 284.2069758 59.178932 
   vertex 342.7188131 284.1838739 30.68613319 
   vertex 342.7188131 284.1838739 59.17892246 
  endloop
 endfacet
 facet normal 765.133240 -443.619141 0.000000
  outer loop
   vertex 342.7188131 284.1838739 30.68613319 
   vertex 358.2883321 311.0374506 30.68613319 
   vertex 342.7188131 284.1838739 59.17892246 
  endloop
 endfacet
 facet normal 765.133423 -443.616852 0.000000
  outer loop
   vertex 342.7188131 284.1838739 59.17892246 
   vertex 358.2883321 311.0374506 30.68613319 
   vertex 358.2883321 311.0374506 59.17892818 
  endloop
 endfacet
 facet normal -0.871008 -147.227051 0.000000
  outer loop
   vertex 358.2883321 311.0374506 59.17892818 
   vertex 373.7532064 310.9459589 59.17893009 
   vertex 358.2883321 311.0374506 68.69900875 
  endloop
 endfacet
 facet normal -0.871590 -147.226547 -0.000977
  outer loop
   vertex 358.2883321 311.0374506 68.69900875 
   vertex 373.7532064 310.9459589 59.17893009 
   vertex 373.7532064 310.9458979 68.69901256 
  endloop
 endfacet
 facet normal -0.000034 -0.000059 79.876953
  outer loop
   vertex 373.7532064 310.9458979 68.69901256 
   vertex 373.7517415 316.1109064 68.69901638 
   vertex 358.2883321 311.0374506 68.69900875 
  endloop
 endfacet
 facet normal -0.000031 -0.000005 83.320068
  outer loop
   vertex 358.2883321 311.0374506 68.69900875 
   vertex 373.7517415 316.1109064 68.69901638 
   vertex 357.6210653 316.2068232 68.69900875 
  endloop
 endfacet
 facet normal 0.913136 153.565399 0.000000
  outer loop
   vertex 373.7517415 316.1109064 68.69901638 
   vertex 373.7517415 316.1108759 59.17893009 
   vertex 357.6210653 316.2068232 68.69900875 
  endloop
 endfacet
 facet normal 0.913426 153.564941 0.000000
  outer loop
   vertex 357.6210653 316.2068232 68.69900875 
   vertex 373.7517415 316.1108759 59.17893009 
   vertex 357.6210653 316.2068232 59.17892818 
  endloop
 endfacet
 facet normal 2.733806 459.609863 0.000000
  outer loop
   vertex 373.7517415 316.1108759 59.17893009 
   vertex 373.7517415 316.1109064 30.68613319 
   vertex 357.6210653 316.2068232 59.17892818 
  endloop
 endfacet
 facet normal 2.732936 459.607422 0.000000
  outer loop
   vertex 357.6210653 316.2068232 59.17892818 
   vertex 373.7517415 316.1109064 30.68613319 
   vertex 357.6210653 316.2068232 30.68613319 
  endloop
 endfacet
 facet normal 1.054174 177.284180 0.000000
  outer loop
   vertex 357.6210653 316.2068232 30.68613319 
   vertex 373.7517415 316.1109064 30.68613319 
   vertex 357.6210653 316.2068232 19.69562702 
  endloop
 endfacet
 facet normal 0.734198 123.501953 0.001465
  outer loop
   vertex 357.6210653 316.2068232 19.69562702 
   vertex 373.7517415 316.1109064 30.68613319 
   vertex 368.8581563 316.1400202 19.69562702 
  endloop
 endfacet
 facet normal 0.319975 53.782227 0.000000
  outer loop
   vertex 373.7517415 316.1109064 30.68613319 
   vertex 373.7517415 316.1109064 19.69562702 
   vertex 368.8581563 316.1400202 19.69562702 
  endloop
 endfacet
 facet normal 0.000000 0.000000 -19.991112
  outer loop
   vertex 368.8581563 316.1400202 19.69562702 
   vertex 373.7517415 316.1109064 19.69562702 
   vertex 368.8217794 312.0550592 19.69562702 
  endloop
 endfacet
 facet normal 0.000002 0.000000 -20.146973
  outer loop
   vertex 368.8217794 312.0550592 19.69562702 
   vertex 373.7517415 316.1109064 19.69562702 
   vertex 373.7445394 312.0183771 19.69562702 
  endloop
 endfacet
 facet normal 0.000000 0.000000 -101.517792
  outer loop
   vertex 368.8217794 312.0550592 19.69562702 
   vertex 373.7445394 312.0183771 19.69562702 
   vertex 368.6381551 291.4343012 19.69562702 
  endloop
 endfacet
 facet normal 0.000020 0.000000 -105.486084
  outer loop
   vertex 368.6381551 291.4343012 19.69562702 
   vertex 373.7445394 312.0183771 19.69562702 
   vertex 373.753359 291.3962153 19.69562702 
  endloop
 endfacet
 facet normal 0.000000 -0.000009 -406.213379
  outer loop
   vertex 359.9137899 312.121435 29.00442533 
   vertex 362.5572835 291.4796198 29.00442581 
   vertex 343.6882039 285.1545008 29.00442581 
  endloop
 endfacet
 facet normal -0.000004 0.000000 -328.882813
  outer loop
   vertex 343.6882039 285.1545008 29.00442581 
   vertex 362.5572835 291.4796198 29.00442581 
   vertex 349.4205343 269.6462763 29.00442581 
  endloop
 endfacet
 facet normal -0.000023 -0.000002 -500.228027
  outer loop
   vertex 311.3993856 285.2436731 29.00442724 
   vertex 343.6882039 285.1545008 29.00442581 
   vertex 323.2784139 269.7185419 29.00442676 
  endloop
 endfacet
 facet normal -0.000012 -0.000005 -405.003906
  outer loop
   vertex 323.2784139 269.7185419 29.00442676 
   vertex 343.6882039 285.1545008 29.00442581 
   vertex 349.4205343 269.6462763 29.00442581 
  endloop
 endfacet
 facet normal -0.000008 0.000013 -588.361328
  outer loop
   vertex 311.3993856 285.2436731 29.00442724 
   vertex 323.2784139 269.7185419 29.00442676 
   vertex 295.305544 256.7478693 29.00442676 
  endloop
 endfacet
 facet normal 0.000002 0.000000 -476.357422
  outer loop
   vertex 295.305544 256.7478693 29.00442676 
   vertex 323.2784139 269.7185419 29.00442676 
   vertex 310.2484151 246.6474054 29.00442676 
  endloop
 endfacet
 facet normal 0.000006 -0.000005 -327.527344
  outer loop
   vertex 262.9112874 256.725683 29.00442629 
   vertex 295.305544 256.7478693 29.00442676 
   vertex 284.0209981 246.6294611 29.00442676 
  endloop
 endfacet
 facet normal -0.000001 0.000000 -265.177734
  outer loop
   vertex 284.0209981 246.6294611 29.00442676 
   vertex 295.305544 256.7478693 29.00442676 
   vertex 310.2484151 246.6474054 29.00442676 
  endloop
 endfacet
 facet normal -0.000031 -0.000021 -665.674805
  outer loop
   vertex 249.1378499 231.7790888 29.00442772 
   vertex 262.9112874 256.725683 29.00442629 
   vertex 272.8695699 226.4318598 29.00442676 
  endloop
 endfacet
 facet normal 0.000008 -0.000005 -538.952637
  outer loop
   vertex 272.8695699 226.4318598 29.00442676 
   vertex 262.9112874 256.725683 29.00442629 
   vertex 284.0209981 246.6294611 29.00442676 
  endloop
 endfacet
 facet normal -0.000023 -0.000013 -496.640137
  outer loop
   vertex 249.1378499 231.7790888 29.00442772 
   vertex 272.8695699 226.4318598 29.00442676 
   vertex 262.9610311 207.7371882 29.00442772 
  endloop
 endfacet
 facet normal -0.000015 -0.000010 -385.693359
  outer loop
   vertex 262.9610311 207.7371882 29.00442772 
   vertex 272.8695699 226.4318598 29.00442676 
   vertex 283.6047078 207.7607782 29.00442676 
  endloop
 endfacet
 facet normal 0.000061 0.000000 -113.139648
  outer loop
   vertex 244.446932 231.7423151 19.69562702 
   vertex 249.1378499 231.7790888 19.69562702 
   vertex 258.284731 207.7318628 19.69562702 
  endloop
 endfacet
 facet normal 0.000008 0.000000 -112.500732
  outer loop
   vertex 258.284731 207.7318628 19.69562702 
   vertex 249.1378499 231.7790888 19.69562702 
   vertex 262.9610311 207.7371882 19.69562702 
  endloop
 endfacet
 facet normal -309.013397 -178.091797 0.000000
  outer loop
   vertex 260.6510946 203.6259211 30.68613319 
   vertex 244.446932 231.7423151 30.68613319 
   vertex 260.6510946 203.6259211 19.69562702 
  endloop
 endfacet
 facet normal -45.126373 -26.007813 0.000183
  outer loop
   vertex 260.6510946 203.6259211 19.69562702 
   vertex 244.446932 231.7423151 30.68613319 
   vertex 258.284731 207.7318628 19.69562702 
  endloop
 endfacet
 facet normal -263.887054 -152.084473 0.000000
  outer loop
   vertex 244.446932 231.7423151 30.68613319 
   vertex 244.446932 231.7423151 19.69562702 
   vertex 258.284731 207.7318628 19.69562702 
  endloop
 endfacet
 facet normal -44.171570 -25.457031 0.000000
  outer loop
   vertex 247.7527791 226.0062006 59.178932 
   vertex 244.446932 231.7423151 59.178932 
   vertex 247.7527791 226.0062006 51.4783266 
  endloop
 endfacet
 facet normal -163.437958 -94.193848 0.000000
  outer loop
   vertex 244.446932 231.7423151 59.178932 
   vertex 244.446932 231.7423151 30.68613319 
   vertex 247.7527791 226.0062006 51.4783266 
  endloop
 endfacet
 facet normal -584.601501 -336.919922 -0.000610
  outer loop
   vertex 244.446932 231.7423151 30.68613319 
   vertex 260.6510946 203.6259211 30.68613319 
   vertex 247.7527791 226.0062006 51.4783266 
  endloop
 endfacet
 facet normal -17.394102 -10.023438 0.000000
  outer loop
   vertex 260.6510946 203.6259211 59.178932 
   vertex 260.2992574 204.2363947 59.178932 
   vertex 260.6510946 203.6259211 30.68613319 
  endloop
 endfacet
 facet normal -4.701017 -2.708984 0.000000
  outer loop
   vertex 260.2992574 204.2363947 59.178932 
   vertex 260.2992574 204.2363947 51.4783266 
   vertex 260.6510946 203.6259211 30.68613319 
  endloop
 endfacet
 facet normal -452.642029 -260.869141 0.000069
  outer loop
   vertex 260.2992574 204.2363947 51.4783266 
   vertex 247.7527791 226.0062006 51.4783266 
   vertex 260.6510946 203.6259211 30.68613319 
  endloop
 endfacet
 facet normal -1.651493 -0.951904 0.000000
  outer loop
   vertex 260.2992574 204.2363947 59.178932 
   vertex 260.6510946 203.6259211 59.178932 
   vertex 260.2992574 204.2363947 61.88419704 
  endloop
 endfacet
 facet normal -5.811756 -3.349121 0.000000
  outer loop
   vertex 260.6510946 203.6259211 59.178932 
   vertex 260.6510946 203.6259211 68.69900875 
   vertex 260.2992574 204.2363947 61.88419704 
  endloop
 endfacet
 facet normal -191.607971 -110.428955 0.000175
  outer loop
   vertex 260.6510946 203.6259211 68.69900875 
   vertex 244.446932 231.7423151 68.69900875 
   vertex 260.2992574 204.2363947 61.88419704 
  endloop
 endfacet
 facet normal -148.357178 -85.501465 0.000244
  outer loop
   vertex 260.2992574 204.2363947 61.88419704 
   vertex 244.446932 231.7423151 68.69900875 
   vertex 247.7527791 226.0062006 61.88419704 
  endloop
 endfacet
 facet normal -54.608215 -31.471680 0.000000
  outer loop
   vertex 244.446932 231.7423151 59.178932 
   vertex 247.7527791 226.0062006 59.178932 
   vertex 244.446932 231.7423151 68.69900875 
  endloop
 endfacet
 facet normal -15.517731 -8.943359 0.000000
  outer loop
   vertex 244.446932 231.7423151 68.69900875 
   vertex 247.7527791 226.0062006 59.178932 
   vertex 247.7527791 226.0062006 61.88419704 
  endloop
 endfacet
 facet normal -0.000068 0.000000 125.279297
  outer loop
   vertex 265.3195821 203.6290644 68.69900875 
   vertex 249.7839986 230.4536188 68.69900875 
   vertex 260.6510946 203.6259211 68.69900875 
  endloop
 endfacet
 facet normal 0.000000 0.000000 129.176758
  outer loop
   vertex 260.6510946 203.6259211 68.69900875 
   vertex 249.7839986 230.4536188 68.69900875 
   vertex 244.446932 231.7423151 68.69900875 
  endloop
 endfacet
 facet normal 6.638992 3.844849 0.000000
  outer loop
   vertex 251.2052938 227.9995173 59.178932 
   vertex 249.7839986 230.4536188 59.178932 
   vertex 251.2052938 227.9995173 61.88419704 
  endloop
 endfacet
 facet normal 23.363235 13.531006 0.000000
  outer loop
   vertex 249.7839986 230.4536188 59.178932 
   vertex 249.7839986 230.4536188 68.69900875 
   vertex 251.2052938 227.9995173 61.88419704 
  endloop
 endfacet
 facet normal 182.804321 105.871582 -0.000397
  outer loop
   vertex 249.7839986 230.4536188 68.69900875 
   vertex 265.3195821 203.6290644 68.69900875 
   vertex 251.2052938 227.9995173 61.88419704 
  endloop
 endfacet
 facet normal 25.012283 14.486328 0.000000
  outer loop
   vertex 265.3195821 203.6290644 59.178932 
   vertex 263.7979452 206.2563837 59.178932 
   vertex 265.3195821 203.6290644 68.69900875 
  endloop
 endfacet
 facet normal 7.107605 4.116699 0.000000
  outer loop
   vertex 263.7979452 206.2563837 59.178932 
   vertex 263.7979452 206.2563837 61.88419704 
   vertex 265.3195821 203.6290644 68.69900875 
  endloop
 endfacet
 facet normal 148.175415 85.816650 0.000000
  outer loop
   vertex 251.2052938 227.9995173 61.88419704 
   vertex 265.3195821 203.6290644 68.69900875 
   vertex 263.7979452 206.2563837 61.88419704 
  endloop
 endfacet
 facet normal 20.231949 11.717773 0.000081
  outer loop
   vertex 263.7979452 206.2563837 59.178932 
   vertex 265.3195821 203.6290644 59.178932 
   vertex 263.7979757 206.2563837 51.4783266 
  endloop
 endfacet
 facet normal 74.859207 43.354492 0.000092
  outer loop
   vertex 265.3195821 203.6290644 59.178932 
   vertex 265.3195821 203.6291254 30.68613319 
   vertex 263.7979757 206.2563837 51.4783266 
  endloop
 endfacet
 facet normal 557.740051 323.018555 0.000580
  outer loop
   vertex 265.3195821 203.6291254 30.68613319 
   vertex 249.7839986 230.4536188 30.68613319 
   vertex 263.7979757 206.2563837 51.4783266 
  endloop
 endfacet
 facet normal 69.924225 40.498047 0.000000
  outer loop
   vertex 249.7839986 230.4536188 59.178932 
   vertex 251.2052938 227.9995173 59.178932 
   vertex 249.7839986 230.4536188 30.68613319 
  endloop
 endfacet
 facet normal 18.898071 10.944336 0.000000
  outer loop
   vertex 251.2052938 227.9995173 59.178932 
   vertex 251.2052938 227.9995173 51.4783266 
   vertex 249.7839986 230.4536188 30.68613319 
  endloop
 endfacet
 facet normal 452.087494 261.829102 0.000397
  outer loop
   vertex 251.2052938 227.9995173 51.4783266 
   vertex 263.7979757 206.2563837 51.4783266 
   vertex 249.7839986 230.4536188 30.68613319 
  endloop
 endfacet
 facet normal 0.000000 0.000000 173.731445
  outer loop
   vertex 265.3195821 203.6291254 30.68613319 
   vertex 272.0917379 203.1188105 30.68613319 
   vertex 249.7839986 230.4536188 30.68613319 
  endloop
 endfacet
 facet normal 0.000000 0.000000 1022.257813
  outer loop
   vertex 249.7839986 230.4536188 30.68613319 
   vertex 272.0917379 203.1188105 30.68613319 
   vertex 265.224764 257.358526 30.68613319 
  endloop
 endfacet
 facet normal 0.000000 0.000000 503.540039
  outer loop
   vertex 272.0917379 203.1188105 30.68613319 
   vertex 281.401827 202.909582 30.68613319 
   vertex 265.224764 257.358526 30.68613319 
  endloop
 endfacet
 facet normal -0.000000 0.000000 1692.136719
  outer loop
   vertex 265.224764 257.358526 30.68613319 
   vertex 281.401827 202.909582 30.68613319 
   vertex 296.2913534 257.3952387 30.68613319 
  endloop
 endfacet
 facet normal 0.000000 0.000000 1423.426025
  outer loop
   vertex 281.401827 202.909582 30.68613319 
   vertex 307.5266134 202.909582 30.68613319 
   vertex 296.2913534 257.3952387 30.68613319 
  endloop
 endfacet
 facet normal 0.000000 0.000000 1142.210938
  outer loop
   vertex 296.2913534 257.3952387 30.68613319 
   vertex 307.5266134 202.909582 30.68613319 
   vertex 311.7261373 284.2069758 30.68613319 
  endloop
 endfacet
 facet normal 0.000000 0.000000 2123.894043
  outer loop
   vertex 307.5266134 202.909582 30.68613319 
   vertex 333.6516134 202.909582 30.68613319 
   vertex 311.7261373 284.2069758 30.68613319 
  endloop
 endfacet
 facet normal -0.000000 0.000000 2519.117188
  outer loop
   vertex 311.7261373 284.2069758 30.68613319 
   vertex 333.6516134 202.909582 30.68613319 
   vertex 342.7188131 284.1838739 30.68613319 
  endloop
 endfacet
 facet normal 0.000000 0.000000 2123.278564
  outer loop
   vertex 333.6516134 202.909582 30.68613319 
   vertex 359.7764608 202.909582 30.68613319 
   vertex 342.7188131 284.1838739 30.68613319 
  endloop
 endfacet
 facet normal 0.000000 0.000000 1723.460449
  outer loop
   vertex 342.7188131 284.1838739 30.68613319 
   vertex 359.7764608 202.909582 30.68613319 
   vertex 358.2883321 311.0374506 30.68613319 
  endloop
 endfacet
 facet normal 0.000000 0.000000 1412.840820
  outer loop
   vertex 372.8539144 202.909582 30.68613319 
   vertex 373.7532064 310.9459589 30.68613319 
   vertex 359.7764608 202.909582 30.68613319 
  endloop
 endfacet
 facet normal 0.000000 0.000000 1672.047852
  outer loop
   vertex 359.7764608 202.909582 30.68613319 
   vertex 373.7532064 310.9459589 30.68613319 
   vertex 358.2883321 311.0374506 30.68613319 
  endloop
 endfacet
 facet normal -2.606854 -440.638672 0.000000
  outer loop
   vertex 358.2883321 311.0374506 30.68613319 
   vertex 373.7532064 310.9459589 30.68613319 
   vertex 358.2883321 311.0374506 59.17892818 
  endloop
 endfacet
 facet normal -2.606854 -440.639160 0.000000
  outer loop
   vertex 358.2883321 311.0374506 59.17892818 
   vertex 373.7532064 310.9459589 30.68613319 
   vertex 373.7532064 310.9459589 59.17893009 
  endloop
 endfacet
 facet normal 0.000000 0.000006 -490.865997
  outer loop
   vertex 373.7703267 207.8636683 19.69562607 
   vertex 367.893984 207.8569544 19.69562702 
   vertex 373.753359 291.3962153 19.69562702 
  endloop
 endfacet
 facet normal 0.000041 0.000000 -427.543579
  outer loop
   vertex 373.753359 291.3962153 19.69562702 
   vertex 367.893984 207.8569544 19.69562702 
   vertex 368.6381551 291.4343012 19.69562702 
  endloop
 endfacet
 facet normal 0.000000 0.000000 -14.876465
  outer loop
   vertex 264.9098226 202.9084681 19.69562702 
   vertex 265.3230306 203.6290644 19.69562702 
   vertex 285.5536825 202.9084681 19.69562702 
  endloop
 endfacet
 facet normal 0.000000 0.000000 -15.116135
  outer loop
   vertex 285.5536825 202.9084681 19.69562702 
   vertex 265.3230306 203.6290644 19.69562702 
   vertex 285.9735738 203.6407221 19.69562702 
  endloop
 endfacet
 facet normal 0.000000 0.000000 -3.351196
  outer loop
   vertex 260.2388936 202.9084681 19.69562702 
   vertex 260.6510946 203.6259211 19.69562702 
   vertex 264.9098226 202.9084681 19.69562702 
  endloop
 endfacet
 facet normal 0.000000 0.000000 -3.365341
  outer loop
   vertex 264.9098226 202.9084681 19.69562702 
   vertex 260.6510946 203.6259211 19.69562702 
   vertex 265.3230306 203.6290644 19.69562702 
  endloop
 endfacet
 facet normal -7.885172 4.529785 0.000000
  outer loop
   vertex 260.2388936 202.9084681 19.69562702 
   vertex 260.2388936 202.9084681 30.68613319 
   vertex 260.6510946 203.6259211 19.69562702 
  endloop
 endfacet
 facet normal -7.885171 4.530762 0.000000
  outer loop
   vertex 260.6510946 203.6259211 19.69562702 
   vertex 260.2388936 202.9084681 30.68613319 
   vertex 260.6510946 203.6259211 30.68613319 
  endloop
 endfacet
 facet normal -20.442244 11.744141 0.000000
  outer loop
   vertex 260.2388936 202.9084681 30.68613319 
   vertex 260.2388936 202.9084681 59.178932 
   vertex 260.6510946 203.6259211 30.68613319 
  endloop
 endfacet
 facet normal -20.442245 11.745117 0.000000
  outer loop
   vertex 260.6510946 203.6259211 30.68613319 
   vertex 260.2388936 202.9084681 59.178932 
   vertex 260.6510946 203.6259211 59.178932 
  endloop
 endfacet
 facet normal -6.830204 3.924316 0.000000
  outer loop
   vertex 260.2388936 202.9084681 59.178932 
   vertex 260.2388936 202.9084681 68.69900875 
   vertex 260.6510946 203.6259211 59.178932 
  endloop
 endfacet
 facet normal -6.830212 3.924316 0.000000
  outer loop
   vertex 260.6510946 203.6259211 59.178932 
   vertex 260.2388936 202.9084681 68.69900875 
   vertex 260.6510946 203.6259211 68.69900875 
  endloop
 endfacet
 facet normal 0.000000 0.000000 3.346642
  outer loop
   vertex 260.2388936 202.9084681 68.69900875 
   vertex 264.903536 202.9084681 68.69900875 
   vertex 260.6510946 203.6259211 68.69900875 
  endloop
 endfacet
 facet normal 0.000003 0.000000 3.362793
  outer loop
   vertex 260.6510946 203.6259211 68.69900875 
   vertex 264.903536 202.9084681 68.69900875 
   vertex 265.3195821 203.6290644 68.69900875 
  endloop
 endfacet
 facet normal 6.860134 -3.960449 0.000000
  outer loop
   vertex 264.903536 202.9084681 68.69900875 
   vertex 264.903536 202.9084681 59.178932 
   vertex 265.3195821 203.6290644 68.69900875 
  endloop
 endfacet
 facet normal 6.860130 -3.960938 0.000000
  outer loop
   vertex 265.3195821 203.6290644 68.69900875 
   vertex 264.903536 202.9084681 59.178932 
   vertex 265.3195821 203.6290644 59.178932 
  endloop
 endfacet
 facet normal 20.531803 -11.853516 -0.000023
  outer loop
   vertex 264.903536 202.9084681 59.178932 
   vertex 264.9035055 202.9084681 30.68613319 
   vertex 265.3195821 203.6290644 59.178932 
  endloop
 endfacet
 facet normal 20.533546 -11.855469 -0.000023
  outer loop
   vertex 265.3195821 203.6290644 59.178932 
   vertex 264.9035055 202.9084681 30.68613319 
   vertex 265.3195821 203.6291254 30.68613319 
  endloop
 endfacet
 facet normal 0.000000 0.000000 5.160957
  outer loop
   vertex 264.9035055 202.9084681 30.68613319 
   vertex 272.0647603 202.9084681 30.68613319 
   vertex 265.3195821 203.6291254 30.68613319 
  endloop
 endfacet
 facet normal 0.000000 0.000000 1.438110
  outer loop
   vertex 265.3195821 203.6291254 30.68613319 
   vertex 272.0647603 202.9084681 30.68613319 
   vertex 272.0917379 203.1188105 30.68613319 
  endloop
 endfacet
 facet normal 0.000000 0.000000 1.963866
  outer loop
   vertex 272.0647603 202.9084681 30.68613319 
   vertex 281.401827 202.909582 30.68613319 
   vertex 272.0917379 203.1188105 30.68613319 
  endloop
 endfacet
 facet normal -0.000154 0.000001 100.248810
  outer loop
   vertex 373.7818319 202.909582 30.68613462 
   vertex 373.7532064 310.9459589 30.68613319 
   vertex 372.8539144 202.909582 30.68613319 
  endloop
 endfacet
 facet normal 0.000006 0.000000 -508.257080
  outer loop
   vertex 368.6381551 291.4343012 29.00442581 
   vertex 367.893984 207.8569544 29.00442581 
   vertex 362.5572835 291.4796198 29.00442581 
  endloop
 endfacet
 facet normal 0.000000 0.000000 -1215.047363
  outer loop
   vertex 362.5572835 291.4796198 29.00442581 
   vertex 367.893984 207.8569544 29.00442581 
   vertex 349.4205343 269.6462763 29.00442581 
  endloop
 endfacet
 facet normal -0.000061 -0.000018 -5209.954102
  outer loop
   vertex 367.893984 207.8569544 29.00442581 
   vertex 283.6047078 207.7607782 29.00442676 
   vertex 349.4205343 269.6462763 29.00442581 
  endloop
 endfacet
 facet normal 0.000000 0.000000 -529.530762
  outer loop
   vertex 284.0209981 246.6294611 29.00442676 
   vertex 310.2484151 246.6474054 29.00442676 
   vertex 272.8695699 226.4318598 29.00442676 
  endloop
 endfacet
 facet normal 0.000000 0.000000 -914.919922
  outer loop
   vertex 272.8695699 226.4318598 29.00442676 
   vertex 310.2484151 246.6474054 29.00442676 
   vertex 283.6047078 207.7607782 29.00442676 
  endloop
 endfacet
 facet normal -0.000046 0.000025 -910.496094
  outer loop
   vertex 283.6047078 207.7607782 29.00442676 
   vertex 310.2484151 246.6474054 29.00442676 
   vertex 349.4205343 269.6462763 29.00442581 
  endloop
 endfacet
 facet normal -0.000015 0.000012 -604.069336
  outer loop
   vertex 310.2484151 246.6474054 29.00442676 
   vertex 323.2784139 269.7185419 29.00442676 
   vertex 349.4205343 269.6462763 29.00442581 
  endloop
 endfacet
 facet normal 0.000008 -0.000003 -183.701538
  outer loop
   vertex 359.9137899 312.121435 29.00442533 
   vertex 368.8217794 312.0550592 29.00442581 
   vertex 362.5572835 291.4796198 29.00442581 
  endloop
 endfacet
 facet normal 0.000001 0.000000 -125.400391
  outer loop
   vertex 362.5572835 291.4796198 29.00442581 
   vertex 368.8217794 312.0550592 29.00442581 
   vertex 368.6381551 291.4343012 29.00442581 
  endloop
 endfacet
 facet normal 0.000000 0.000000 -45.755371
  outer loop
   vertex 357.6210653 316.2068232 19.69562702 
   vertex 368.8581563 316.1400202 19.69562702 
   vertex 359.9137899 312.121435 19.69562702 
  endloop
 endfacet
 facet normal -0.000003 0.000000 -36.391113
  outer loop
   vertex 359.9137899 312.121435 19.69562702 
   vertex 368.8581563 316.1400202 19.69562702 
   vertex 368.8217794 312.0550592 19.69562702 
  endloop
 endfacet
 facet normal 0.000000 0.000000 -29.301880
  outer loop
   vertex 367.8499471 202.9084681 19.69562702 
   vertex 367.893984 207.8569544 19.69562702 
   vertex 373.7713338 202.9084681 19.69562607 
  endloop
 endfacet
 facet normal -0.000008 -0.000000 -29.118494
  outer loop
   vertex 373.7713338 202.9084681 19.69562607 
   vertex 367.893984 207.8569544 19.69562702 
   vertex 373.7703267 207.8636683 19.69562607 
  endloop
 endfacet
 facet normal 0.000000 0.000000 -60.263672
  outer loop
   vertex 285.5536825 202.9084681 19.69562702 
   vertex 285.9735738 203.6407221 19.69562702 
   vertex 367.8499471 202.9084681 19.69562702 
  endloop
 endfacet
 facet normal 0.000000 0.000000 -347.502258
  outer loop
   vertex 283.6047078 207.760763 19.69562702 
   vertex 367.893984 207.8569544 19.69562702 
   vertex 285.9735738 203.6407221 19.69562702 
  endloop
 endfacet
 facet normal 0.000000 0.000000 -405.195282
  outer loop
   vertex 367.8499471 202.9084681 19.69562702 
   vertex 285.9735738 203.6407221 19.69562702 
   vertex 367.893984 207.8569544 19.69562702 
  endloop
 endfacet
 facet normal 0.000000 0.000000 -84.861694
  outer loop
   vertex 262.9610311 207.7371882 19.69562702 
   vertex 283.6047078 207.760763 19.69562702 
   vertex 265.3230306 203.6290644 19.69562702 
  endloop
 endfacet
 facet normal -0.000002 0.000000 -85.108887
  outer loop
   vertex 265.3230306 203.6290644 19.69562702 
   vertex 283.6047078 207.760763 19.69562702 
   vertex 285.9735738 203.6407221 19.69562702 
  endloop
 endfacet
 facet normal 0.000000 0.000000 -19.213257
  outer loop
   vertex 258.284731 207.7318628 19.69562702 
   vertex 262.9610311 207.7371882 19.69562702 
   vertex 260.6510946 203.6259211 19.69562702 
  endloop
 endfacet
 facet normal 0.000001 0.000000 -19.200317
  outer loop
   vertex 260.6510946 203.6259211 19.69562702 
   vertex 262.9610311 207.7371882 19.69562702 
   vertex 265.3230306 203.6290644 19.69562702 
  endloop
 endfacet
 facet normal 251.029907 -151.041016 0.000488
  outer loop
   vertex 343.6882039 285.1544855 19.69562702 
   vertex 359.9137899 312.121435 19.69562702 
   vertex 343.6882039 285.1545008 29.00442581 
  endloop
 endfacet
 facet normal 251.029755 -151.040390 0.000000
  outer loop
   vertex 343.6882039 285.1545008 29.00442581 
   vertex 359.9137899 312.121435 19.69562702 
   vertex 359.9137899 312.121435 29.00442533 
  endloop
 endfacet
 facet normal -0.830088 -300.570313 0.000000
  outer loop
   vertex 311.3993856 285.2436579 19.69562702 
   vertex 343.6882039 285.1544855 19.69562702 
   vertex 311.3993856 285.2436731 29.00442724 
  endloop
 endfacet
 facet normal -0.830088 -300.570343 0.000977
  outer loop
   vertex 311.3993856 285.2436731 29.00442724 
   vertex 343.6882039 285.1544855 19.69562702 
   vertex 343.6882039 285.1545008 29.00442581 
  endloop
 endfacet
 facet normal 265.261566 -149.813965 0.000000
  outer loop
   vertex 295.305544 256.7478693 19.69562702 
   vertex 311.3993856 285.2436579 19.69562702 
   vertex 295.305544 256.7478693 29.00442676 
  endloop
 endfacet
 facet normal 265.261749 -149.814148 0.000000
  outer loop
   vertex 295.305544 256.7478693 29.00442676 
   vertex 311.3993856 285.2436579 19.69562702 
   vertex 311.3993856 285.2436731 29.00442724 
  endloop
 endfacet
 facet normal 0.206528 -301.552246 0.000000
  outer loop
   vertex 262.9112874 256.725683 19.69562702 
   vertex 295.305544 256.7478693 19.69562702 
   vertex 262.9112874 256.725683 29.00442629 
  endloop
 endfacet
 facet normal 0.206528 -301.550995 0.000000
  outer loop
   vertex 262.9112874 256.725683 29.00442629 
   vertex 295.305544 256.7478693 19.69562702 
   vertex 295.305544 256.7478693 29.00442676 
  endloop
 endfacet
 facet normal 232.222839 -128.214355 0.000000
  outer loop
   vertex 249.1378499 231.7790888 19.69562702 
   vertex 262.9112874 256.725683 19.69562702 
   vertex 249.1378499 231.7790888 29.00442772 
  endloop
 endfacet
 facet normal 232.222839 -128.214172 0.000000
  outer loop
   vertex 249.1378499 231.7790888 29.00442772 
   vertex 262.9112874 256.725683 19.69562702 
   vertex 262.9112874 256.725683 29.00442629 
  endloop
 endfacet
 facet normal 223.801239 128.677246 0.000000
  outer loop
   vertex 262.9610311 207.7371882 19.69562702 
   vertex 249.1378499 231.7790888 19.69562702 
   vertex 262.9610311 207.7371882 29.00442772 
  endloop
 endfacet
 facet normal 223.801270 128.677246 0.000000
  outer loop
   vertex 262.9610311 207.7371882 29.00442772 
   vertex 249.1378499 231.7790888 19.69562702 
   vertex 249.1378499 231.7790888 29.00442772 
  endloop
 endfacet
 facet normal -0.219453 192.167480 -0.000488
  outer loop
   vertex 283.6047078 207.760763 19.69562702 
   vertex 262.9610311 207.7371882 19.69562702 
   vertex 283.6047078 207.7607782 29.00442676 
  endloop
 endfacet
 facet normal -0.219595 192.168045 0.000000
  outer loop
   vertex 283.6047078 207.7607782 29.00442676 
   vertex 262.9610311 207.7371882 19.69562702 
   vertex 262.9610311 207.7371882 29.00442772 
  endloop
 endfacet
 facet normal -0.895426 784.631836 0.000000
  outer loop
   vertex 367.893984 207.8569544 19.69562702 
   vertex 283.6047078 207.760763 19.69562702 
   vertex 367.893984 207.8569544 29.00442581 
  endloop
 endfacet
 facet normal -0.895284 784.632507 -0.001953
  outer loop
   vertex 367.893984 207.8569544 29.00442581 
   vertex 283.6047078 207.760763 19.69562702 
   vertex 283.6047078 207.7607782 29.00442676 
  endloop
 endfacet
 facet normal -778.004761 6.927246 0.000000
  outer loop
   vertex 368.6381551 291.4343012 19.69562702 
   vertex 367.893984 207.8569544 19.69562702 
   vertex 368.6381551 291.4343012 29.00442581 
  endloop
 endfacet
 facet normal -778.004700 6.927246 0.000000
  outer loop
   vertex 368.6381551 291.4343012 29.00442581 
   vertex 367.893984 207.8569544 19.69562702 
   vertex 367.893984 207.8569544 29.00442581 
  endloop
 endfacet
 facet normal -0.617878 -82.922363 0.000000
  outer loop
   vertex 359.9137899 312.121435 19.69562702 
   vertex 368.8217794 312.0550592 19.69562702 
   vertex 359.9137899 312.121435 29.00442533 
  endloop
 endfacet
 facet normal -0.617878 -82.922974 0.000000
  outer loop
   vertex 359.9137899 312.121435 29.00442533 
   vertex 368.8217794 312.0550592 19.69562702 
   vertex 368.8217794 312.0550592 29.00442581 
  endloop
 endfacet
 facet normal -191.954498 1.709473 0.000000
  outer loop
   vertex 368.8217794 312.0550592 19.69562702 
   vertex 368.6381551 291.4343012 19.69562702 
   vertex 368.8217794 312.0550592 29.00442581 
  endloop
 endfacet
 facet normal -191.954483 1.708984 0.000000
  outer loop
   vertex 368.8217794 312.0550592 29.00442581 
   vertex 368.6381551 291.4343012 19.69562702 
   vertex 368.6381551 291.4343012 29.00442581 
  endloop
 endfacet
endsolid
